<?xml version="1.0" encoding="utf-8"?>
<!-- Generator: Adobe Illustrator 16.0.3, SVG Export Plug-In . SVG Version: 6.00 Build 0)  -->
<!DOCTYPE svg PUBLIC "-//W3C//DTD SVG 1.1 Basic//EN" "http://www.w3.org/Graphics/SVG/1.1/DTD/svg11-basic.dtd">
<svg version="1.1" baseProfile="basic" id="Layer_1"
	 xmlns="http://www.w3.org/2000/svg" xmlns:xlink="http://www.w3.org/1999/xlink" x="0px" y="0px" width="197.18px"
	 height="109.811px" viewBox="0 0 197.18 109.811" xml:space="preserve">
<style type="text/css">
<![CDATA[
	.narcon_4{fill:#E2EAF1;}
]]>
</style>
<path class="narcon_4" d="M196.019,81.025c-1.489-1.285-0.668-1.942-0.186-2.951c0,0,2.063-3.969-1.432-13.566
	c1.171-3.994-0.153-12.12-0.153-12.12c-2.966-10.708-1.562-22.577-1.562-22.577s-2.435,8.102-2.139,15.709
	c0.143,3.808,0.215,7.214,0.241,9.771c-0.229,0.021-0.46,0.027-0.683,0.02c-0.465-0.835-0.949-1.684-1.486-2.571
	c0,0-13.898-25.521-11.023-35.402c0,0-6.541,8.651,8.592,36.457l-1.418-0.151c-0.774-2.127-2.15-4.729-4.639-6.957
	c0,0,1.539,6.424,0.846,4.836c-1.562-3.56-7.236-9.537-7.236-9.537s3.256,8.678,0.55,7.965c-2.696-0.719-2.544-5.98-7.377-8.264
	c0,0,3.263,6.977,1.269,7.255c-1.992,0.28-7.101-5.983-10.939-5.278c0,0,7.096,7.975,4.109,8.395
	c-2.987,0.425-7.731-6.08-13.047-3.971c0,0,4.697,3.151,3.944,5.008c-11.242,4.129-14.624-6.55-14.815-7.064
	c0,0,0.726-9.428,4.713-9.412c0,0,0.774-1.836,3.592,3.926c0,0,1.277-3.276,0.605-5.029c0,0,0.534-8.356-11.244-18.367
	c0,0,9.037,15.69,4.558,15.108c0,0-0.464,2.26-2.067,0.757c0,0,0.781-4.551-4.445-5.617c0,0-11.862-10.117-18.056-14.572
	C108.894,8.364,90.893,0,90.893,0s3.868,3.887,5.604,5.395c0.959,0.834,17.639,13.91,0.584,24.135
	c-6.029,3.017-12.61,5.631-12.61,5.631c3.65-0.293,5.895-0.304,11.242,0.307c5.349,0.612,16.994,1.715,11.55,19.623
	c0,0-1.949,4.691-3.478,7.2c-1.529,2.509-1.626,4.073-1.626,4.073c1.779-1.695,3.477-3.196,5.102-4.565
	c2.682-2.03,21.756-15.836,18.111,6.688c0,0,7.277-3.199,12.546,3.362c3.358,0.44,7.556,4.034,8.228,7.126
	c0.144,0.431,0.144,1.146,0.144,2.008c0,0.596-0.013,1.188-0.039,1.777c0.394,0.232,0.817,0.542,1.281,0.942
	c0,0,0.987,0.786,1.554,2.677c0,0,0.822,3.857,2.577,6.107c0,0,2.418-2.815,2.753-3.039c0.331-0.221,5.212,9.113,5.212,9.113
	l1.458-3.66c0,0,5.747,7.9,5.674,7.426c-0.97-6.318-2.277-10.899-2.277-10.899l0.188-1.089l-1.6-3.963l-0.698-0.792
	c0,0-0.562-1.429-0.358-3.803l1-1.849l0.428-1.563l-0.141-2.707c0.684-0.252,3.422-2.836,3.422-2.836l0.287-1.993
	c0,0,2.69-1.078,3.412-1.132l3.335,1.104l1.671-0.776c0.342,0.391,0.674,0.764,0.965,1.104c-0.031,0.744-1.354,0.803-1.543,1.538
	c-0.496,1.886-1.691,3.662-2.51,4.938c-0.654,1.001-1.313,1.802-1.732,2.69c-1.561-0.906-3.017-2.408-3.017-2.408
	c0.509,2.505,1.351,3.98,2.183,4.861c-0.246,0.348-0.461,0.713-0.609,1.084c-1.27-0.795-2.393-2.033-2.393-2.033
	c1.379,3.352,2.318,4.588,2.929,4.981c0.377,0.374,0.85,0.587,1.29,0.351c0.779,0.88,2.505,0.841,3.486,0.518
	c-0.166-0.137-0.979-0.908-1.033-0.974c-0.229-0.179-0.385-0.592-0.56-0.853c-0.198-0.299,0.181-1.753,0.345-2.316
	c0.502,0.23,1.107,0.705,1.869,0.501c-0.582-0.41-1.068-0.905-1.498-1.455c0.18-0.374,0.399-0.744,0.649-1.109
	c0.538,0.293,1.056,0.593,1.89,0.341c-0.423-0.355-0.841-0.788-1.197-1.23c0.158-0.187,0.324-0.363,0.492-0.543
	c0.433,0.438,1.185,0.63,2.067,0.564c-0.31-0.49-0.724-0.97-1.097-1.485c0.285-0.245,0.574-0.479,0.873-0.699l3.896,0.743
	c0.032,0.121,0.067,0.236,0.094,0.336c-1.529,4.211-5.483,7.652-4.834,12.619c0.412,3.152,1.733,4.045,0.229,7.275
	c-1.324,2.857-2.148,5.888,0.77,8.432c-0.311-0.932-0.338-2.119-0.177-3.205c0.05-0.322,0.078-0.443,0.193-0.934
	c0.231-0.625,0.339-0.723,0.475-0.951c0.204-0.342,0.289-0.424,0.427-0.66c0.405-0.697,0.694-1.152,1.043-1.955
	c0.199-0.459,0.195-0.824,0.506-1.244c0.043-0.047,0.084-0.098,0.129-0.146c0.543,1.463,0.418,3.066-0.051,4.484
	c5.301-0.383-0.75-12.93,0.045-15.88c0.57-2.101,4.17-5.815,4.871-6.917l1.129,0.287c0.59,0.201,0.894,0.34,0.894,0.34
	c0.24,0.676-1.22,1.595-1.22,1.595c0.752,1.048,2.224,1.425,2.224,1.425c0.369,0.9-1.063,1.789-1.063,1.789
	c0.886,1.136,2.379,1.617,2.379,1.617c-0.443,1.141-3.549,2.277-3.549,2.277c1.265,1.29,4.282,1.325,4.282,1.325
	s1.009,0.646,2.05,1.981c-0.668,1.189-4.217,1.057-4.217,1.057s4.706,2.193,7.661-0.863c0,0,1.869-1.105,0.454-2.515
	c0,0-2.631-0.535,1.225-7.311C197.14,83.396,197.506,82.309,196.019,81.025"/>
<path class="narcon_4" d="M59.228,86.932c-0.009,0.144-0.038,0.219-0.139,0.219c0-5.881-3.011-11.475-9.896-11.475
	c-5.88,0-8.031,2.583-8.031,2.869c0,0.143,0.143,0.143,0.286,0.287c0.718-1.578,3.012-2.009,4.733-2.296
	c-2.008,0.718-4.302,1.435-4.733,2.726c0.144,0,0.287,0.144,0.287,0.144s0.144,0,0.144-0.144c0.287,0.287,0,0.287,0.287,0.574
	c-0.287,0-0.287-0.287-0.287-0.287v0.43c0,0.143,0,0.287-0.144,0.287v0.144v0.144c0,0.143,0,0.143,0.431,0.143
	c-0.144,0.144-0.144,0.144-0.144,0.287s0.431,0.144,0.431,0.287c0,0-0.287,0-0.287,0.287h0.43c0,0.143-0.143,0.143-0.143,0.143
	c0.286,0.145,0.716,0.287,1.003,0.287c1.721,0,5.02-1.004,6.598-1.004c0.573,0,2.294,0,2.294,0.717c0-0.143,0.144-0.143,0.144-0.143
	c0.43,0,0.861,1.29,1.147,1.721c0-0.574-0.286-1.004-0.286-1.291c0.43,0.574,0.716,1.291,0.716,2.008
	c-1.29,0-2.868-0.717-4.159-0.717c-4.446,0-9.035,3.873-9.035,8.893c0,0.572,1.434,3.299,1.578,3.441v-0.143
	c0.429,0,0.86,1.434,1.577,1.434c0.143,0,0.143,0,0.143-0.285c0.287,0.285,0.717,0.572,1.004,0.715c0-0.143,0.144-0.143,0.43-0.143
	c0.718,0.573,3.3,1.004,4.303,1.004c0.287,0,0-0.143,0.287-0.143c0.143,0,0.574,0.143,0.717,0.143c0-0.143,0-0.431,0.143-0.431
	c0,0,0.144,0.144,0.287,0.144c0-0.144,3.156-1.865,3.442-2.008c0.575,1.004,0.718,2.008,2.008,2.438
	c0.144-0.143,0.144-0.285,0.144-0.43c0-0.144-0.144-0.43-0.144-0.574c0-0.143,0.144-0.285,0.288-0.43c0.286,0,0,0.287,0.286,0.287
	c0.287,0-0.143-0.718,0.573-0.718c0,0,0.144,0,0.288,0.146c-0.144-0.146-0.144-0.287-0.144-0.432c-0.287,0-0.43,0-0.43-0.145
	c0-0.143,0.143-0.285,0.143-0.43c0.287,0,0.287,0.287,0.287,0.574c0-1.004,1.291-1.291,1.291-2.869c0-0.717-0.144-1.721-0.144-2.15
	c0-0.287,0.287-0.861,0.287-1.29c0-0.145-0.143-0.288-0.287-0.432c0,0.144,0.144,0.287,0.144,0.287h-0.144
	c-0.143,0-0.143,0-0.143-0.144c0-0.287,0.143-0.861,0.43-1.147C59.139,88.188,59.207,87.486,59.228,86.932 M46.611,76.823
	c0-0.287,0.287-0.431,0.431-0.431c0.143,0,0.287,0,0.287,0.144C47.185,76.536,46.898,76.823,46.611,76.823 M49.48,83.421
	c0.574,0,1.147,0.144,1.434,0.288c-1.004,0-2.295,0-3.299,0.285C47.903,83.709,48.762,83.421,49.48,83.421 M50.355,91.451
	c-0.009,0.001-0.015,0.001-0.015,0.001C50.345,91.452,50.35,91.451,50.355,91.451c0.057-0.004,0.272-0.037,0.272-0.285
	c-0.43,0.145-0.861,0.286-1.291,0.286c-1.147,0-2.294-0.573-3.155-1.29c0.43-1.004,0.717-2.008,1.434-2.438
	c0.574-0.286,1.292-0.286,1.865-0.286c1.864,0,3.729,0.717,5.164,1.289C53.356,89.871,52.069,91.442,50.355,91.451"/>
<path class="narcon_4" d="M73.684,77.389c-0.042,0.098-0.109,0.197-0.109,0.295l0.144,0.142c0.143,0,0.143,0,0.429-0.284
	C74.053,77.541,73.888,77.475,73.684,77.389"/>
<path class="narcon_4" d="M65.973,76.967c-0.717,0-0.717,0.287-1.291,0.574c0.055,0.045,0.099,0.096,0.148,0.143
	C65.258,77.679,65.544,76.967,65.973,76.967"/>
<path class="narcon_4" d="M65.973,93.174v-2.008c0-0.447,0.006-0.908,0.023-1.369c-0.088,0.788-0.166,1.561-0.166,2.229
	C65.83,92.455,65.83,92.887,65.973,93.174"/>
<path class="narcon_4" d="M51.057,71.804c-0.573-0.144-1.147-0.573-1.433-0.573c-0.144,0-0.288,0.143-0.288,0.143
	c0.288,0,0.288,0.145,0.288,0.145c-0.144,0-0.144,0-0.144,0.143l0.144,0.144c0,0.143,0,0.143-0.144,0.143l-0.144-0.143
	c0.288,0.288,1.148,1.436,1.148,1.721c0,0.145,0,0.145-0.144,0.287c0.287,0,0.574,0,0.574,0.288c-0.287,0-0.717,0-0.717,0.143
	c0,0.43,3.872,1.146,5.164,1.29c0-0.144-0.431-0.429-0.431-0.573l0.143-0.144c0.288,0.288,0.431,0,0.431,0.288
	c0-0.288,0.143-0.432,0.43-0.432c0.144,0,0.287,0,0.43,0.144c0-0.288,0-0.288,0.144-0.288c-0.144-0.285-0.43-0.285-0.43-0.716
	c0.43,0,0.716-0.287,1.004-0.431c-0.574-0.286-0.288-0.572-0.718-0.86c0-0.144,0.144,0,0.144-0.144c-0.144,0-0.43-0.285-0.718-0.285
	c0-0.146,0.144-0.288,0.144-0.288c0-0.431-1.148-0.144-1.148-0.718c0.861,0,0.861,0.287,1.292,0.432
	c0-0.287-0.144-0.574-0.288-0.574c-0.143,0-0.286,0.143-0.286,0.143c-0.574-1.289-2.582-1.721-4.59-1.721
	c-0.287,0.861-1.865,0-1.865,1.004c0.575,0,0.861-0.286,1.005-0.286c0.143,0,0.143,0.144,0.286,0.286
	c-0.716,0-0.716,0.432-1.433,0.432C49.48,71.23,51.057,71.373,51.057,71.804 M54.356,70.801c-0.573,0-1.003,0-1.003-0.432
	C53.783,70.369,54.069,70.656,54.356,70.801"/>
<path class="narcon_4" d="M41.735,71.804h-0.573c0.286,0.144-0.287,3.155,5.163,3.155c0.286,0,0.717,0,1.004-0.144
	c0.286,0,0.286,0.288,0.286,0.288c0.288-0.576,0.288-1.004,1.004-1.004c-0.286,0-0.286-0.575-0.43-0.575
	c0.144-0.43,0.86-0.43,1.435-0.43c-0.431-0.43-1.291-0.286-1.291-1.003c0.143,0,0.429,0.142,0.429,0.142
	c0.145,0,0.145,0,0.145-0.142c0-0.574-2.151-0.719-2.151-1.723c0,0,0-0.143,0.143-0.286c0.286,0.286,0.43,0.573,1.004,0.573
	c-1.147-1.146-3.013-1.291-4.59-1.291c-0.717,0-1.147,0-1.147,1.004c-0.574-0.286-1.004,0-1.004-0.286
	c0,0.718,0.718,0.286,0.718,0.573c-0.145,0.145-0.432,0.574-0.718,0.574c0.143,0,0.286,0,0.286,0.143c-0.286,0-0.573,0-0.573,0.145
	C41.162,71.518,41.448,71.373,41.735,71.804"/>
<path class="narcon_4" d="M74.006,82.848l0.142-0.145c-0.286,0-1.004-0.285-1.004-0.717c0.287-0.287,1.004-0.287,1.291-0.717
	c0-0.144-0.716-0.144-0.716-1.004c0-0.145,0-0.287,0.143-0.43c0.286,0-1.865-1.436-1.865-1.865c0.431,0,1.004,0.144,1.434,0.144
	c0.144,0,0.288,0,0.288-0.288c-0.288,0-0.575,0.145-0.575,0.145c0.25-0.125,0.293-0.358,0.486-0.605
	c-0.4-0.168-0.944-0.398-1.489-0.398c-0.717,0-1.291,0.143-1.722,0.287h0.431c0.144,0,0.287,0,0.287,0.287
	c-0.143-0.143-0.287-0.143-0.431-0.143c-0.143,0-0.287,0.143-0.43,0.143v-0.287c-1.004,0.572-1.577,0.86-1.577,0.86v-0.288
	c-1.291,0.145-2.008,1.006-3.012,1.436c0,0-0.134-0.878-0.857-1.578h-0.004l-0.143-0.143c-0.718-1.434-2.725-0.861-3.872-2.296
	c0,0.431,0.286,0.718,0.286,0.862c0,0.144-0.143,0.144-0.143,0.144c-0.43-0.288,0.143-0.719-0.86-0.719
	c0,0.431,0.286,0.86,0.286,1.147c0,0.144,0,0.287-0.143,0.287c0-0.144,0-0.431-0.431-0.431c0.144,2.726,0.861,5.594,0.861,8.177
	c0,0.572-0.143,1.146-0.143,1.72c0.287,0,0.287,0,0.287,0.287c-0.144,0.859-0.144,1.577-0.144,2.295
	c0,1.721,0.144,3.298,0.144,5.019c0,0.861-0.287,1.723-0.287,2.584c0,0.285,0.143,0.43,0.287,0.715c0-0.142,0-0.142,0.143-0.142
	c0,0,0,0.286,0.287,0.429c0.287,0,0-0.429,0.573-0.429c-0.286,0.142-0.286,0.429-0.286,0.716c0.182,0,0.286,0.078,0.368,0.156
	c-0.023-0.04-0.049-0.088-0.082-0.156c0.144-0.287,0.144-0.716,0.43-0.716v0.716c0.288-0.287,0.718-0.287,1.292-0.574l-0.145,0.145
	c0,0.287,0.432,0.717,0.574,0.859v-0.43c0.288,0.287,0,0.43,0.288,0.717c0-0.142-0.144-0.287-0.144-0.43s0.431,0.143,0.574,0.143
	c0.43,0,0.43-2.15,0.86-2.15c0,0,0.144,0,0.144,0.145c0.143-0.431,0.143-0.861,0.143-1.293c0-0.572,0-1.004-0.143-1.576
	c0,0.285,0,1.434-0.144,2.15c0-2.15,0.144-5.449,0.43-7.888c0-0.145-0.143-0.286-0.143-0.43c0-0.286,0.143-0.431,0.431-0.574
	c0,0.295-0.018,0.614-0.043,0.942c0.415-2.25,1.528-4.097,4.488-4.097c0.288,0,0.575,0.144,1.005,0.144
	c1.004,0,1.72-0.432,2.437-0.719h0.431C74.292,82.99,74.006,82.99,74.006,82.848 M61.958,95.899
	c0.286,0.286,0.286,0.718,0.286,1.003C61.813,96.902,61.958,96.186,61.958,95.899 M67.408,78.545
	c0.286-0.286,0.574-0.286,1.004-0.574C68.268,78.545,67.694,78.259,67.408,78.545"/>
<path class="narcon_4" d="M41.16,71.23c-0.142,0-0.143-0.001-0.286-0.145C40.874,71.229,41.016,71.23,41.16,71.23"/>
<path class="narcon_4" d="M12.333,53.016c0,0.183,0.104,0.289,0.224,0.404C12.479,53.294,12.405,53.16,12.333,53.016"/>
<path class="narcon_4" d="M21.145,58.23c0.001-0.214,0.068-0.338,0.225-0.338c-0.145,0-0.287,0.143-0.287,0.143
	C21.083,58.101,21.113,58.165,21.145,58.23"/>
<path class="narcon_4" d="M39.728,98.623c0-3.154,0.286-6.311,0.286-9.465c0-2.296-1.004-4.16-1.004-6.598
	c0-0.287,0.144-0.574,0.144-0.861c-0.144-0.143-0.287-0.43-0.287-0.717c0-0.717,0.43-1.578,0.43-2.582c0-0.286,0-0.574-0.143-0.859
	c0,0.285-0.287,0.285-0.287,0.285c0-2.006-0.574-4.589-0.574-6.883c0-1.146,0.144-2.15,0.574-2.869c0-0.287-0.287-0.43-0.287-0.717
	c0,0,0-0.143,0.144-0.287c-0.862,0-0.287,0.574-0.574,0.574c-0.144,0-0.574-1.866-0.574-1.866l0.143-0.142
	c-0.143,0.142-0.429,0.287-0.573,0.287c-0.287,0-0.431-0.146-0.431-0.287c0,0.43,0.144,0.43-0.287,0.43
	c-0.429-0.143-0.717-2.725-1.864-2.725c-0.43,0-0.287,0.43-0.86,0.43c-0.144,0-0.43-0.143-0.43-0.43c0,0.43-0.431,0.861-0.431,1.147
	c0.286,0.286,0.431,0,0.431,0.286c0-0.143,0.286,0.861-0.288,1.148c0.143-0.146,0.143-0.146,0.143-0.287
	c0-0.143-0.143-0.43-0.143-0.574c-0.286,1.291-0.43,2.725-0.43,4.303c0,2.008,0.144,4.016,0.144,5.738
	c-0.144,0-0.43,0.142-0.718,0.142c0.288,1.722,0.574,3.3,0.718,5.021c0,0.287-0.43,0.287-0.718,0.717
	c-2.007-4.876-2.438-3.729-5.02-8.462c0.288,0.145-3.728-5.163-3.728-6.167c0.431,0.432,1.864,3.299,3.586,3.729
	c-0.966-1.933-5.183-9.247-5.638-11.517c-0.021,0.023-0.05,0.043-0.099,0.043c-0.431,0.143-0.717-0.289-0.717-0.861
	c0.142,0,0.286,0.145,0.286,0.145c0.144,0,0.144,0,0.144-0.145c-0.288-0.287-0.718,0-0.718-0.573
	c0.144-0.144,0.574-0.286,0.861-0.286c0.429,0,0.432,0.568,0.855,0.998c-0.235-0.436-2.604-4.67-5.445-4.154
	c0.43,0,1.148,0.717,1.004,1.147c-0.43-0.144-1.004-0.431-1.29-0.86c-0.144,0.43-1.004,0.143-1.004,0.86
	c-1.046-0.104-1.707-0.44-2.212-1.059c0.034,0.095,0.061,0.201,0.061,0.341c-0.574,0-0.574,0.145-0.574-0.143
	c-0.287,0.717,1.721,0.86,1.721,1.434c0,0.145-0.143,0.145-0.143,0.288c1.147,0,0.716,1.434,1.004,2.151
	c-1.004,0-0.288,0.428-0.861,0.717c0.287,0.286,0.573,0.572,0.573,1.003c-0.86-0.144-1.146-1.003-2.294-2.724
	c0,0.143,0.143,0.286,0.143,0.286c0,0.144-0.43,0.144-0.574,0.286c-0.286-0.286-0.286-0.717-0.573-0.717
	c0,0.145-0.143,0.287-0.143,0.287c0,0.574,1.577,3.155,1.577,3.155s2.152,1.291,2.295,2.438c0.085-0.085,0.22,0.23,0.346,0.475
	c0.1,0.096,0.174,0.188,0.227,0.242c-0.058,0.059-0.14-0.074-0.227-0.242c-0.17-0.162-0.417-0.332-0.777-0.332
	c-0.286,0-0.573,0.145-1.004,0.432c0.431,0.143,2.008,0.143,2.008,0.717c0,0-0.142-0.145-0.287-0.145v0.145
	c0.145,0.143-0.286,2.438,0.574,2.725c-0.143-0.287-0.287-0.43-0.287-0.717s0.144-0.573,0.287-1.005
	c0.144,0.718,0.144,1.005,0.43,1.722c-0.43,0.287,0,0.43-0.43,0.43c0.144,0.287,0.287,0.574,0.287,1.004
	c0,0.144-0.143,0.287-0.143,0.287c-0.431-1.004-0.718-0.717-1.435-1.721c0.574,1.146,1.721,3.442,1.721,4.877
	c-0.43-0.861-1.004-1.865-1.721-2.152c2.008,3.3,0.717,0.145,1.435,6.167c0,0.288-0.144,0-0.144,0.288c0,0.286,0.144,0,0.144,0.286
	h-0.144c0,0.43,1.004,0.145,1.004,0.573c0,4.303-2.725,8.892-2.725,12.047c0,0.145,0,0.288,0.144,0.288
	c-2.152,6.884-3.873,4.446-7.458,10.04c0,0.574-2.582,3.441-2.438,3.586c3.155-3.586,4.733-5.309,7.171-8.176
	c-2.152,4.158-3.443,4.59-6.741,8.176c0,2.436-4.015,2.725-4.876,5.447c1.434-1.002,3.155-2.723,4.732-3.727l0.144,0.143
	c0,0.287-0.43,0.43-0.43,0.572h0.286c0,1.58-3.155,2.87-4.302,3.443c0.143,0.287,0.143,0.43,0.143,0.574
	c0,0.287-0.143,0.287-0.143,0.717c1.29-1.291,4.876-3.441,4.733-3.441h0.286c-0.573,0.717-1.003,1.148-2.007,1.434
	c0,0.144,0.143,0.285,0.143,0.285c0,0.719-1.721,0.574-2.151,1.006c0.86,0,2.008-0.719,2.581-0.719c0,0,0.144,0,0.144,0.145
	c1.004-1.146,2.008-2.15,3.442-2.15c0.287,0,0.573,0.143,0.86,0.143c-0.86,0.574-1.721,0.861-2.724,1.006
	c0.142,0.141,0.286,0.141,0.286,0.141c0.431,0,0.717-0.141,0.861-0.141c-0.43,0.285-1.005,0.57-1.435,0.57
	c0.144,0,0.288,0.145,0.43,0.145c1.291,0,2.87-1.146,4.304-1.146c-1.292,0.717-2.582,1.289-4.304,1.289
	c-0.716,0.861-2.724,0.145-3.728,0.719c0.43,0,0.86,0.143,1.434,0.143c4.446,0,7.171-1.863,9.323-3.871
	c-1.148,1.863-2.869,3.01-5.307,3.729c1.004,0,2.008-0.719,3.012-0.719c-0.717,0.719-2.008,0.861-3.012,1.148
	c0.143,0.145,0.287,0.145,0.43,0.145c0.574,0,1.005-0.432,1.578-0.432v0.287c1.721-0.717,3.299-2.15,4.015-3.441
	c-0.716,0.287-1.721,1.721-3.011,1.721c2.295-1.721,3.442-3.729,5.306-5.736c0,1.576-2.007,2.58-2.007,3.299v0.43
	c0-0.145,0-0.43,0.143-0.43c0.43,0,0.43,0.143,0.43,0.143c0.86,0,3.729-6.74,4.303-8.176c3.585-3.871,3.298-6.883,4.733-12.047
	c0.144,0.144,0.144,0.432,0.144,0.718c0,0.43-0.144,1.147-0.144,1.576c0,0.433,0,0.718,0.286,0.861c0-1.003,0-2.008,0.288-3.012
	c0,0,0,0.288,0.143,0.288c-0.143-0.432-0.287-0.719-0.287-1.004c0-0.432,0.144-0.719,0.144-1.292
	c0.429,0.288,0.429,0.573,1.003,1.003c-0.429-1.146-1.003-1.289-1.003-2.438c1.147,1.435,1.434,4.303,2.437,5.451
	c3.729,2.438,4.16,7.17,6.168,11.186c0.286,0.287,0.717,0.287,0.717,0.719h-0.143c0,0.141,0.143,0.141,0.143,0.141
	c0.019,0,0.033-0.008,0.044-0.021c-0.026,0.043-0.044,0.098-0.044,0.168c1.291,0.43,1.147,1.721,2.582,1.721
	c0.287-0.145,0.716-0.574,1.147-0.574c0.144,0,0.43,0,0.573,0.143c0-0.285,0.287-0.574,0.431-0.859
	c0.287,0.574,1.004,0.285,1.004,0.574c0.143-0.146-0.287-0.432-0.287-0.719c0.43,0,0.573,0.287,0.717,0.287l0.144-0.143
	c0-0.369-0.207-0.737,0.183-1.016c-0.013,0.004-0.023,0.012-0.04,0.012C39.728,99.055,39.728,98.91,39.728,98.623 M16.063,102.066
	c0.286-0.717,0.573-1.148,1.004-1.723C17.067,100.918,16.636,101.635,16.063,102.066 M21.225,59.612
	c-0.286,0-0.429-0.431-0.429-0.717l0.143-0.144c0.144,0,0.144,0.717,0.431,0.717L21.225,59.612z M27.25,86.003
	c1.003,0.286,1.291,1.435,1.721,2.438C28.253,88.012,27.823,86.72,27.25,86.003 M33.463,99.455c0.062-0.094-0.002-0.4,0.241-0.4
	C33.704,99.268,33.544,99.321,33.463,99.455 M39.44,99.342c-0.286-0.146-0.43-0.287-0.43-0.574s0.144-0.717,0.144-1.148
	C39.584,98.051,39.44,98.768,39.44,99.342"/>
<path class="narcon_4" d="M20.796,58.18c0,0.012,0.01,0.021,0.015,0.034c-0.015-0.101-0.015-0.18-0.015-0.18V58.18z"/>
<path class="narcon_4" d="M103.12,94.895c-0.145,0-0.432-0.145-0.432-0.287c0-0.43,1.578-1.004,1.578-1.146
	c-0.287,0.143-0.859,0.143-1.004,0.143c0-0.143,0-0.143-0.287-0.143c-1.291,0.431-2.869,1.576-4.159,2.295
	c0,0-0.01-0.119-0.238-0.139c-0.066,0.049-0.13,0.098-0.195,0.147c-0.957,1.015-1.945,2.571-3.583,2.571
	c0.957-0.674,2.267-1.594,3.583-2.571c0.049-0.054,0.097-0.104,0.146-0.153c0.02,0,0.03,0.006,0.049,0.006
	c1.973-1.475,3.925-3.068,4.684-4.165c-2.295,0.431-3.584,2.009-5.307,3.013c-1.577,0-2.868,2.867-5.163,2.867
	c0.287-0.43,1.004-0.43,1.291-0.715c-1.004,0-2.438,0.43-3.586,0.43c-0.43,0-0.717,0-1.003-0.145c0,0.287-0.143,0.287-0.431,0.287
	c-0.143,0-0.287,0-0.287-0.143c0-0.287,0.144-0.287,0.144-0.287c0.143,0,0.286,0.143,0.431,0.143c0-0.429-0.431-0.285-0.431-0.429
	s0-0.144,0.143-0.288c-4.159-0.574-6.024-3.73-7.171-7.459c0-0.143,0-0.143,0.144-0.143c0,0,0.049,0.004,0.09,0.035
	c-0.383-0.695-0.521-1.511-0.521-2.33c0-5.736,4.59-11.33,10.183-12.478c0,0.185,0.118,0.425,0.202,0.575
	c0.028-0.001,0.056-0.001,0.086-0.001v0.142c0,0-0.039-0.056-0.086-0.141c-0.11,0.005-0.202,0.027-0.202,0.141
	c0,0,1.004,0.145,1.004,1.724c0,0.285-0.431,1.72-0.431,1.72h-0.143c0,0.288,1.005,1.291,1.005,1.291c0-0.144,0.286-0.43,0.286-0.43
	h-0.286c0.286-1.291,1.004-0.861,1.004-1.578c0.287,0,0.86,2.295,1.003,2.295c0-0.144,0.144-0.287,0.144-0.287
	c0-0.287-0.287,0.287-0.287-1.003h0.43c0.573,0,0.144,1.577,0.431,1.577c0,0,0,0.285-0.144,0.431c0.135,0,0.024-0.375,0.484-0.422
	c-0.108-0.009-0.198-0.009-0.198-0.009h0.288c-0.035,0-0.06,0.006-0.09,0.009c0.166,0.013,0.377,0.048,0.377,0.134h0.287
	c0.429,0,0.573,0.143,0.573,0.288v0.143l0.144-0.143c0-0.146,0-0.146-0.144-0.288c0.86-0.143,0.144-0.43,0.718-0.43l0.254,0.384
	c0.017-0.021,0.032-0.05,0.032-0.097c-0.144-0.145,0.717-1.577,0.717-1.865c0.975-1.56,1.486-2.258,1.802-2.544
	c-0.047-0.024-0.081-0.037-0.081-0.037s0.127-0.116,0.367-0.136c-0.077,0.017-0.168,0.066-0.286,0.173
	c0.126,0.064,0.349,0.226,0.349,0.536c0,0.288-0.285,0.718-1.434,1.291v0.287c-0.286,0.718-0.43,0.718-0.43,0.718h0.144
	c0,0.105-0.234,0.522-0.357,0.734c0.018-0.01,0.04-0.019,0.069-0.019c0,0,0,0.144,0.144,0.144c0,0,0.144-0.144,0.144-0.286v0.143
	c0.428,0,0.286-0.716,0.573-0.716c0.143,0,0.215,0,0.25,0.036l0.037-0.036c0.143,0,0.717-0.575,1.434-1.292
	c0.287,0,1.436-1.291,1.436-1.577v0.143h0.859c-0.144,0-0.144-0.143-0.144-0.287c0-0.43,1.004-1.003,1.004-1.434h-0.144
	c-0.144,0-0.286,0-0.286-0.287c-0.574,0.575-0.144,0.575-0.431,0.575s-0.287-0.288-0.287-0.288c0-0.431,0.144-0.431,0.431-0.431
	c-0.144-0.286-0.431-0.286-0.431-0.43c0.144,0,0-0.143,0.287,0.144h0.144c-0.431,0,0.287-0.286-0.718-0.286c0,0,0-0.288,0.287-0.288
	c0,0.288,0,0.288,0.287,0.288c-0.144-0.575-0.287-0.144-0.287-0.432c0.431,0,1.004,0.432,1.004,0.432h0.133
	c-0.03-0.07-0.137-0.424-0.387-0.607c-0.028,0.029-0.032,0.032-0.032,0.032c-0.091,0-0.181-0.05-0.275-0.141
	c-0.004,0-0.008-0.001-0.012-0.001h0.011c-0.645-0.625-1.415-3.104-3.166-3.73c0,0,0,0.287-0.287,0.287
	c-1.434-1.004-3.012-1.578-4.733-2.007c0,0,0.144,0.144,0.144,0.286c-0.574,0-0.861,0-1.291-0.286c-0.287,0-0.287,0.286-0.287,0.286
	c-0.86-0.143-1.721-0.143-2.582-0.143c-3.442,0-6.454,0.859-8.604,2.008c0,0.429-0.144,0.717-0.431,0.717
	c-0.144,0-0.287,0-0.287-0.145c-1.577,1.721-3.442,3.012-4.446,5.162c0-0.285,0.144-0.285,0.144-0.716
	c-0.431,0.431-1.148,1.004-1.005,2.009c-1.291,2.867-2.868,6.598-2.868,11.33c0,4.445,2.295,8.174,4.159,11.043
	c-1.004-2.008-2.151-3.586-2.724-5.738c0.286,0,0.286-0.285,0.573-0.285c0.43,1.004,1.147,2.725,2.151,3.441
	c-0.43-0.861-1.004-1.291-1.004-2.438c0.431,1.721,4.016,6.309,6.168,8.75c0,0-0.144,0-0.144,0.143
	c1.864,0.717,3.586,2.725,5.594,2.725c0-0.145,0-0.145,0.286-0.145c0.144,0.287,0.43,0.43,0.861,0.43
	c0.573,0,1.147-0.285,1.72-0.285h-0.285c0-0.145,0.142-0.145,0.285-0.145c0.144,0,0.144,0.43,0.288,0.43c0,0,0-0.143,0.143-0.285
	c0-0.145-0.287-0.287-0.287-0.287c-0.287,0-0.573,0.143-0.717,0.143c-2.582,0-4.015-1.289-4.159-1.576l0.144-0.287
	c1.721,0,3.585,1.004,5.306,1.004c0.144,0,0.43,0,0.717-0.145c-0.717-0.285-2.295,0-2.438-0.859c0.86,0.143,1.578,0.287,2.438,0.287
	c0.718,0,1.434-0.145,2.152-0.287c0-0.717,5.019-1.434,5.019-2.295c0-0.145-0.287-0.145-0.287-0.43
	c0.86-1.004,3.299-1.723,3.299-3.729c0-1.006,0.287-0.289,0.718-0.719c-0.144-0.143-0.144-0.143-0.144-0.287
	c0-0.287,0.43-0.43,0.43-0.717C104.554,94.607,103.692,94.895,103.12,94.895 M76.873,89.444c0.574,0.287,0.574,0.718,0.717,1.291
	C77.16,90.449,76.873,89.731,76.873,89.444 M78.164,75.245c-0.287,0-0.287,0-0.287-0.142c0-0.145,0.144-0.432,0.287-0.576
	c0.144,0.145,0.144,0.145,0.144,0.288S78.164,75.104,78.164,75.245"/>
<path class="narcon_4" d="M121.335,84.281c0-0.43-0.145-0.717-0.145-1.004c0-0.078,0.002-0.199,0.026-0.315
	c-0.017,0.019-0.026,0.028-0.026,0.028c-0.144,0-1.578-5.449-3.299-5.449c-0.143,0-0.143,0.143-0.287,0.143
	c-0.287-0.143,0.287,0,0.287-0.43c-1.004-0.431-5.449-2.727-7.601-2.727c-1.722,0-3.013,1.293-4.591,1.579
	c-2.293,1.435-4.732,3.299-4.732,10.326c0.288,1.722,1.291,3.443,2.008,4.446c0-0.144-0.143-0.287-0.143-0.43
	c0-0.144,0-0.144,0.143-0.287c1.721,2.438,3.73,4.445,7.172,5.02c0,0,0.144-0.145,0.287-0.145c0.286,0,0.43,0.287,0.717,0.432
	c0.144-0.145,0.431-0.287,0.717-0.287c0.718,0,1.722,0.43,2.438,0.43c0.286,0,0.574,0,0.86-0.143c-0.143,0-0.43-0.145-0.574-0.145
	c-0.143,0-0.286,0.145-0.43,0.145c-0.286,0-0.43-0.145-0.717-0.287c0.717,0,1.435-0.287,2.15-0.574c0,0.143-0.143,0.287-0.143,0.43
	l0.143,0.145l0.145-0.145c0-0.143-0.145-0.287-0.145-0.572c0.717-0.432,2.725-1.148,2.725-1.723c0-0.143-0.285-0.143-0.285-0.287
	c2.58-1.72,2.724-2.149,3.299-4.731c0.135-1.36,0.268-2.47,0.281-3.801C121.603,84.122,121.548,84.281,121.335,84.281
	 M116.172,93.891c0-0.287,0.287-0.43,0.429-0.43c0.145,0,0.287,0,0.287,0.143C116.172,93.604,116.459,93.891,116.172,93.891
	 M112.299,91.022c-3.155,0-5.88-3.585-5.88-6.31c0-2.01,2.438-5.308,4.016-5.881c2.151,1.146,6.166,0.143,7.457,2.15l-0.143,0.144
	c-0.286,0-0.432-0.431-0.574-0.573c0.143,0.717,0.861,1.291,0.861,2.295C118.036,85.859,116.028,91.022,112.299,91.022"/>
<path class="narcon_4" d="M144.426,80.695c0-3.012-4.017-7.171-7.458-7.171c-0.719,0-2.295,0.432-3.156,0.575
	c0-0.144,0.145-0.144,0.145-0.288c-0.861,0-0.432,0.574-0.861,0.431l0.145-0.143c-1.723,0.859-3.587,1.721-5.021,2.724
	c0-1.291-0.43-2.008-1.434-2.581c0,0.285,0.286,0.285,0.286,0.43v0.144c-0.573-1.004-2.008-1.291-2.581-2.007
	c-0.431,0-0.718,0.286-1.147,0.572c0,0.288,0.144,0.719,0.144,1.005s0,0.286-0.144,0.43c-0.286,0,0-0.573-0.286-0.573
	c-0.288,0.285-0.432,0.861-0.717,0.861c0.285,1.863,0.717,3.441,0.717,5.162c-0.161-0.16-0.271-0.321-0.342-0.481
	c-0.041,0.483-0.09,0.866-0.09,1.198c0.144,2.438,0.432,5.164,0.432,7.029c0.286,0,0,0.429,0.286,0.429l-0.286,0.286
	c1.003,1.435,0.286,3.873,0.716,5.738c0.144,0,0.287-0.145,0.431-0.145s0.144,0.145,0.287,0.287c0-0.287-0.144-0.43-0.144-0.574
	c0-0.143,0.144-0.143,0.144-0.143c0.286,0.287,0,0.574,0.286,0.574v-0.287c0.287,0.287,0.287,1.004,0.574,1.291
	c0-0.287,1.004-0.861,1.004-1.004c0.144,0,0.144,0.143,0.144,0.285c0,0.145-0.287,0.574-0.287,0.861
	c0,0.145,0.144,0.287,0.144,0.287c0.431-0.717,0.431-1.291,0.717-2.008v0.574c1.864-4.877-1.147-16.639,7.603-16.639
	c2.295,0,2.58,3.873,2.58,6.168c0-0.285,0-0.285,0.144-0.573c0,0.573,0.144,1.435,0.144,2.582c0,6.167-0.43,11.044-0.43,12.048
	c0,0,0.43,4.59,2.152,4.59c-0.288,0-0.432-0.287-0.432-0.432c0-0.143,0-0.285,0.144-0.285c0.717,0.143,1.435,0.717,2.151,0.859
	c0-0.574,0.144-0.43,0.574-0.43c-0.574-0.287-0.718-0.287-1.004-0.43c0.286-0.289,0.717-0.574,1.004-0.574
	c-0.574-0.432-0.574-1.006-0.574-1.437l0.144,0.146c0.144,0,0.144-0.146,0.144-0.146c-0.144-0.284-0.287-0.431-0.287-0.716
	c0-1.146,1.004-2.008,1.004-3.299C142.991,94.32,144.426,84.568,144.426,80.695 M135.245,74.1c0-0.144,0.575-0.431,1.004-0.431
	c0.145,0,0.289,0.143,0.289,0.143C136.249,73.812,135.532,74.1,135.245,74.1"/>
<path class="narcon_4" d="M96.091,79.836c0,0,0.089,0,0.197,0.009c0.031-0.003,0.055-0.009,0.091-0.009H96.091z"/>
<path class="narcon_4" d="M92.077,74.386c-0.029,0-0.058,0-0.086,0.001c0.047,0.085,0.086,0.141,0.086,0.141V74.386z"/>
<path class="narcon_4" d="M64.83,77.684c-0.049-0.047-0.093-0.098-0.147-0.143l0.143,0.143H64.83z"/>
<g>
</g>
<g>
</g>
<g>
</g>
<g>
</g>
<g>
</g>
<g>
</g>
</svg>
