<?xml version="1.0" encoding="utf-8"?>
<!-- Generator: Adobe Illustrator 16.0.3, SVG Export Plug-In . SVG Version: 6.00 Build 0)  -->
<!DOCTYPE svg PUBLIC "-//W3C//DTD SVG 1.1 Basic//EN" "http://www.w3.org/Graphics/SVG/1.1/DTD/svg11-basic.dtd">
<svg version="1.1" baseProfile="basic" id="Layer_1"
	 xmlns="http://www.w3.org/2000/svg" xmlns:xlink="http://www.w3.org/1999/xlink" x="0px" y="0px" width="264.796px"
	 height="121.943px" viewBox="0 0 264.796 121.943" xml:space="preserve">
<style type="text/css">
<![CDATA[
	.narcon_4{fill:#E2EAF1;}
]]>
</style>
<g>
	<path class="narcon_4" d="M38.655,7.968c0,0,0.152-0.146,0.335-0.22c-0.151,0.084-0.225,0.278-0.225,0.566
		C38.708,8.198,38.655,8.084,38.655,7.968"/>
	<path class="narcon_4" d="M135.953,43.729c-0.528,0.528-0.528,0.528-0.791,0.528l-0.262-0.262c0-0.183,0.126-0.366,0.199-0.544
		C135.477,43.608,135.774,43.729,135.953,43.729"/>
	<path class="narcon_4" d="M120.96,42.682c-0.774,0-1.304,1.282-2.073,1.309c-0.094-0.089-0.188-0.178-0.293-0.262
		C119.646,43.206,119.646,42.682,120.96,42.682"/>
	<path class="narcon_4" d="M85.729,30.583c0,1.843,3.942,2.104,3.942,3.157c0,0.262,0,0.262-0.263,0.262c0,0-0.528-0.262-0.79-0.262
		c0,1.313,1.575,1.052,2.366,1.837c-1.052,0-2.366,0-2.628,0.791c0.262,0,0.262,1.053,0.785,1.053c-1.313,0-1.313,0.785-1.837,1.837
		c0,0,0-0.523-0.529-0.523c-0.523,0.262-1.313,0.262-1.838,0.262c-9.993,0-8.941-5.523-9.464-5.784h1.047
		c-0.524-0.786-1.047-0.525-1.576-0.525c0-0.261,0.529-0.261,1.052-0.261c0-0.529-1.052,0-1.052-0.529
		c0.262,0.263,0.262,0.263,0.529,0.263c0.522,0,1.047-0.785,1.313-1.053c0-0.523-1.313,0.268-1.313-1.052
		c0,0.528,0.785,0,1.837,0.528c0-1.842,0.791-1.842,2.104-1.842c2.896,0,6.313,0.262,8.413,2.365c-1.053,0-1.314-0.523-1.838-1.052
		C85.729,30.322,85.729,30.583,85.729,30.583"/>
	<path class="narcon_4" d="M99.664,31.375c-0.528-0.269-1.053-0.791-1.843-0.791C97.821,31.375,98.611,31.375,99.664,31.375
		 M90.984,32.688c0,0,0-0.262-0.523-0.262c0,0,0.262-0.267,0.523-0.267c0.529,0,1.581,0.79,2.628,1.053
		c0-0.786-2.89-1.053-3.942-1.837c1.314,0,1.314-0.791,2.629-0.791c-0.263-0.263-0.263-0.529-0.523-0.529
		c-0.262,0-0.791,0.529-1.843,0.529c0-1.843,2.895-0.263,3.418-1.843c3.68,0,7.366,0.79,8.418,3.155c0,0,0.262-0.262,0.523-0.262
		s0.523,0.524,0.523,1.053c-0.785-0.262-0.785-0.791-2.366-0.791c0,1.053,2.104,0.529,2.104,1.315c0,0-0.262,0.261-0.262,0.528
		c0.523,0,1.053,0.523,1.314,0.523c0,0.262-0.262,0-0.262,0.262c0.79,0.528,0.262,1.052,1.313,1.58
		c-0.523,0.263-1.052,0.786-1.843,0.786c0,0.79,0.529,0.79,0.791,1.314c-0.262,0-0.262,0-0.262,0.528
		c-0.263-0.262-0.529-0.262-0.791-0.262c-0.523,0-0.785,0.262-0.785,0.785c0-0.523-0.268,0-0.79-0.523l-0.262,0.262
		c0,0.262,0.784,0.79,0.784,1.052c-2.365-0.262-9.465-1.575-9.465-2.366c0-0.261,0.791-0.261,1.314-0.261
		c0-0.529-0.523-0.529-1.052-0.529c0.267-0.262,0.267-0.262,0.267-0.523c0-0.498-1.387-2.371-1.995-3.042l0.152,0.146
		c0.262,0,0.262,0,0.262-0.261l-0.262-0.263C90.723,32.688,90.723,32.688,90.984,32.688"/>
	<path class="narcon_4" d="M120.96,72.395V68.71c0-0.791,0.011-1.597,0.036-2.414c-0.161,1.414-0.299,2.796-0.299,3.995
		C120.697,71.076,120.697,71.867,120.96,72.395"/>
	<path class="narcon_4" d="M226.146,68.71h-0.477c0.157,0.581,0.319,1.025,0.477,1.313c-0.268,0.267-0.528,0.791-0.528,1.319
		c0,0.523,0.261,1.052,0.528,1.052c0.262-0.528,0.262-1.319,0.262-1.843c0-0.79,0-1.842-0.529-2.366
		C225.879,68.448,226.146,68.448,226.146,68.71"/>
	<path class="narcon_4" d="M251.122,36.369c-1.314,0-4.204,0.79-5.784,1.053c0-0.263,0.266-0.263,0.266-0.529
		c-1.58,0-0.789,1.052-1.58,0.79l0.263-0.261c-3.152,1.575-6.571,3.156-9.204,4.993c0-2.366-0.785-3.68-2.628-4.732
		c0,0.523,0.529,0.523,0.529,0.791v0.262c-1.053-1.843-3.686-2.366-4.737-3.681c-0.786,0-1.314,0.523-2.1,1.052
		c0,0.524,0.262,1.315,0.262,1.838c0,0.529,0,0.529-0.262,0.791c-0.528,0,0-1.053-0.528-1.053c-0.524,0.523-0.791,1.576-1.315,1.576
		c0.524,3.424,1.315,6.314,1.315,9.47c-0.288-0.288-0.498-0.581-0.629-0.869c-0.073,0.885-0.162,1.576-0.162,2.183
		c0.251,4.246,0.738,8.963,0.785,12.355c-0.11-5.565-1.837-14.412-1.837-21.033c-0.263,1.318-0.263,2.894-0.263,4.209
		c0,7.526,0.989,18.619,2.115,22.97c0.073-0.581,0.519-0.377,0.519-0.618c-0.268-0.267-0.268-0.528-0.268-0.79
		s0.268-0.79,0.268-1.313c0-0.268-0.268-0.791-0.528-1.053c0,0.785,0.261,1.576,0.261,2.104c0,0.094,0,0.183-0.005,0.262
		c-0.005,0.356-0.042,0.57-0.256,0.79c0-1.318-0.262-2.371-0.262-3.423c0-0.524,0-1.047,0.262-1.576c0.528,0,0,0.791,0.528,0.791
		l-0.528,0.523c1.842,2.633,0.528,7.104,1.313,10.517c0.262,0,0.528-0.262,0.79-0.262c0.263,0,0.263,0.262,0.524,0.528
		c0-0.528-0.262-0.79-0.262-1.052s0.262-0.262,0.262-0.262c0.528,0.523,0,1.047,0.528,1.047v-0.523
		c0.523,0.523,0.523,1.843,1.053,2.366c0-0.523,1.837-1.576,1.837-1.843c0.267,0,0.267,0.267,0.267,0.528s-0.528,1.053-0.528,1.576
		c0,0.267,0.262,0.529,0.262,0.529c0.79-1.314,0.79-2.367,1.319-3.681v1.047c3.413-8.936-2.105-30.499,13.935-30.499
		c4.204,0,4.733,7.099,4.733,11.308c0-0.528,0-0.528,0.262-1.053c0,1.053,0.261,2.629,0.261,4.733
		c0,11.307-0.784,20.248-0.784,22.086c0,0,0.77,8.25,3.848,8.412c-0.461-0.057-0.696-0.538-0.696-0.785c0-0.261,0-0.523,0.267-0.523
		c1.314,0.263,2.628,1.314,3.941,1.576c0-1.053,0.263-0.791,1.053-0.791c-1.053-0.522-1.313-0.522-1.843-0.785
		c0.529-0.528,1.319-1.052,1.843-1.052c-1.053-0.791-1.053-1.843-1.053-2.634l0.263,0.262c0.267,0,0.267-0.262,0.267-0.262
		c-0.267-0.523-0.529-0.785-0.529-1.313c0-2.104,1.843-3.681,1.843-6.046c1.576-2.896,4.204-20.772,4.204-27.877
		C264.796,43.996,257.436,36.369,251.122,36.369 M247.971,37.421c0-0.263,1.053-0.791,1.837-0.791c0.268,0,0.529,0.262,0.529,0.262
		C249.808,36.892,248.494,37.421,247.971,37.421 M263.749,47.676c0,0,0.262-0.262,0.262-0.529c0-0.262-0.262-0.523-0.262-0.785
		c0.522,0.523,0.522,1.053,0.522,1.576C264.011,47.938,263.749,47.938,263.749,47.676"/>
	<path class="narcon_4" d="M222.461,56.088c0-0.79-0.262-1.313-0.262-1.843c0-0.142,0-0.36,0.042-0.569
		c-0.026,0.03-0.042,0.046-0.042,0.046c-0.262,0-2.89-9.993-6.046-9.993c-0.263,0-0.263,0.267-0.529,0.267
		c-0.523-0.267,0.529,0,0.529-0.79c-1.844-0.791-9.994-5-13.937-5c-3.156,0-5.522,2.372-8.418,2.896
		c-4.209,2.628-8.674,6.046-8.674,18.935c0.523,3.156,2.366,6.309,3.68,8.15c0-0.262-0.262-0.528-0.262-0.79
		c0-0.261,0-0.261,0.262-0.523c3.157,4.472,6.837,8.15,13.146,9.203c0,0,0.267-0.268,0.528-0.268c0.523,0,0.785,0.529,1.314,0.791
		c0.262-0.262,0.791-0.523,1.314-0.523c1.313,0,3.155,0.785,4.471,0.785c0.528,0,1.052,0,1.575-0.262
		c-0.262,0-0.785-0.262-1.047-0.262c-0.268,0-0.528,0.262-0.79,0.262c-0.529,0-0.791-0.262-1.315-0.523
		c1.315,0,2.629-0.529,3.943-1.053c0,0.262-0.263,0.523-0.263,0.785l0.263,0.268l0.262-0.268c0-0.262-0.262-0.523-0.262-1.052
		c1.313-0.785,4.993-2.1,4.993-3.151c0-0.261-0.522-0.261-0.522-0.529c4.732-3.151,4.994-3.94,6.046-8.674
		c0.253-2.496,0.494-4.525,0.52-6.972C222.955,55.797,222.855,56.088,222.461,56.088 M212.996,73.709c0-0.528,0.523-0.79,0.791-0.79
		c0.261,0,0.522,0,0.522,0.262C212.996,73.181,213.52,73.709,212.996,73.709 M205.897,68.448c-5.784,0-10.784-6.574-10.784-11.568
		c0-3.681,4.471-9.732,7.365-10.784c3.942,2.104,11.309,0.267,13.675,3.946l-0.263,0.263c-0.528,0-0.79-0.791-1.053-1.053
		c0.263,1.314,1.577,2.366,1.577,4.209C216.415,58.984,212.734,68.448,205.897,68.448"/>
	<path class="narcon_4" d="M169.608,93.167c-0.523,0-1.052,0.262-1.314,0.262c-1.224,0-2.301-0.161-3.238-0.405
		c-0.094,0.165-0.193,0.318-0.305,0.44c0,0.003-0.016,0.045-0.039,0.103c0.283,0.425,0.767,0.653,1.479,0.653
		c1.052,0,2.104-0.529,3.156-0.529h-0.528c0-0.262,0.267-0.262,0.528-0.262s0.262,0.791,0.523,0.791c0,0,0-0.268,0.261-0.529
		C170.131,93.429,169.608,93.167,169.608,93.167"/>
	<path class="narcon_4" d="M189.067,75.545c-0.263,0-0.791-0.261-0.791-0.522c0-0.79,2.895-1.842,2.895-2.104
		c-0.528,0.262-1.581,0.262-1.842,0.262c0-0.262,0-0.262-0.524-0.262c-2.365,0.79-5.261,2.889-7.627,4.208c0,0,0-0.23-0.424-0.262
		c-0.126,0.095-0.252,0.189-0.372,0.278c-1.754,1.863-3.57,4.717-6.564,4.717c1.754-1.236,4.151-2.917,6.564-4.717
		c0.089-0.1,0.183-0.194,0.272-0.283c0.037,0,0.067,0,0.1,0.005c3.612-2.701,7.183-5.617,8.575-7.627
		c-4.204,0.785-6.57,3.681-9.728,5.518c-2.895,0-5.261,5.261-9.47,5.261c0.529-0.785,1.843-0.785,2.371-1.313
		c-1.842,0-4.47,0.79-6.575,0.79c-0.79,0-1.313,0-1.842-0.262c0,0.522-0.262,0.522-0.786,0.522c-0.267,0-0.529,0-0.529-0.261
		c0-0.528,0.263-0.528,0.263-0.528c0.267,0,0.528,0.267,0.791,0.267c0-0.79-0.791-0.528-0.791-0.79s0-0.262,0.267-0.528
		c-7.627-1.053-11.046-6.838-13.149-13.674c0-0.263,0-0.263,0.262-0.263c0,0,0.063,0,0.131,0.031
		c-0.686-1.267-0.917-2.754-0.917-4.239c0-10.518,8.413-20.772,18.668-22.877c0,0.34,0.215,0.785,0.367,1.058
		c0.052-0.006,0.104-0.006,0.157-0.006v0.262c0,0-0.068-0.104-0.157-0.256c-0.199,0.005-0.367,0.047-0.367,0.256
		c0,0,1.838,0.268,1.838,3.157c0,0.528-0.785,3.156-0.785,3.156h-0.262c0,0.523,1.837,2.366,1.837,2.366
		c0-0.262,0.529-0.79,0.529-0.79h-0.529c0.529-2.366,1.843-1.576,1.843-2.89c0.524,0,1.576,4.209,1.838,4.209
		c0-0.268,0.268-0.529,0.268-0.529c0-0.523-0.529,0.529-0.529-1.843h0.79c1.053,0,0.262,2.896,0.791,2.896c0,0,0,0.523-0.267,0.79
		c0.246,0,0.036-0.681,0.848-0.774c-0.183-0.016-0.319-0.016-0.319-0.016h0.523c-0.073,0-0.141,0.005-0.204,0.016
		c0.309,0.021,0.733,0.078,0.733,0.246h0.522c0.791,0,1.053,0.262,1.053,0.528v0.262l0.262-0.262c0-0.267,0-0.267-0.262-0.528
		c1.575-0.262,0.262-0.785,1.314-0.785l0.471,0.701c0.031-0.037,0.058-0.094,0.058-0.178c-0.268-0.262,1.313-2.896,1.313-3.419
		c1.791-2.869,2.728-4.146,3.31-4.664c-0.09-0.047-0.152-0.068-0.152-0.068s0.246-0.246,0.733-0.257
		c-0.152,0.011-0.335,0.1-0.581,0.325c0.229,0.12,0.633,0.413,0.633,0.984c0,0.523-0.523,1.313-2.628,2.366v0.523
		c-0.523,1.313-0.79,1.313-0.79,1.313h0.267c0,0.194-0.425,0.958-0.649,1.346c0.031-0.016,0.073-0.026,0.121-0.026
		c0,0,0,0.262,0.262,0.262c0,0,0.267-0.262,0.267-0.528v0.267c0.785,0,0.523-1.319,1.047-1.319c0.268,0,0.398,0,0.461,0.068
		l0.067-0.068c0.262,0,1.314-1.047,2.628-2.36c0.529,0,2.628-2.372,2.628-2.896v0.262h1.581c-0.261,0-0.261-0.262-0.261-0.523
		c0-0.79,1.837-1.843,1.837-2.633h-0.262c-0.262,0-0.523,0-0.523-0.523c-1.052,1.052-0.267,1.052-0.791,1.052
		c-0.528,0-0.528-0.528-0.528-0.528c0-0.786,0.268-0.786,0.79-0.786c-0.262-0.528-0.79-0.528-0.79-0.79c0.268,0,0-0.262,0.528,0.262
		h0.262c-0.79,0,0.529-0.523-1.313-0.523c0,0,0-0.528,0.523-0.528c0,0.528,0,0.528,0.528,0.528c-0.261-1.052-0.528-0.262-0.528-0.79
		c0.79,0,1.843,0.79,1.843,0.79h0.24c-0.062-0.151-0.257-0.79-0.701-1.115l-0.063,0.063c-0.168,0-0.335-0.095-0.508-0.262
		c-1.184-1.142-2.597-5.691-5.806-6.837c0,0,0,0.522-0.523,0.522c-2.633-1.837-5.523-2.888-8.68-3.679c0,0,0.262,0.261,0.262,0.524
		c-1.052,0-1.576,0-2.366-0.524c-0.523,0-0.523,0.524-0.523,0.524c-1.581-0.263-3.156-0.263-4.732-0.263
		c-6.314,0-11.836,1.581-15.778,3.681c0,0.79-0.262,1.314-0.79,1.314c-0.263,0-0.523,0-0.523-0.262
		c-2.896,3.155-6.314,5.522-8.156,9.464c0-0.523,0.267-0.523,0.267-1.313c-0.791,0.79-2.104,1.843-1.843,3.686
		C139.895,45.833,137,52.67,137,61.35c0,8.15,4.209,14.988,7.627,20.249c-1.837-3.686-3.941-6.576-4.994-10.523
		c0.524,0,0.524-0.523,1.053-0.523c0.784,1.843,2.104,4.993,3.941,6.309c-0.79-1.576-1.837-2.366-1.837-4.466
		c0.451,1.812,2.815,5.361,5.493,8.902c0.406-1.314,1.295-2.775,2.944-2.775c1.149-1.156,2.023-1.492,3.448-1.492
		c1.418,0,2.568,0.881,2.837,2.231c0,0.067,0.067,0.067,0.141,0.135c0.604,0.544,1.009,1.29,1.009,2.098
		c0,1.216-0.27,2.843-0.27,4.598c2.91,0,7.373,0,7.373,4.261c0,0.145-0.018,0.342-0.049,0.56c1.67,0.467,3.341,0.942,4.944,0.942
		c0.261,0,0.79,0,1.313-0.268c-1.313-0.522-4.209,0-4.471-1.575c1.581,0.262,2.896,0.523,4.471,0.523
		c0.89,0,1.778-0.123,2.669-0.282c0.462-0.391,0.943-0.784,1.468-1.184c0.274-0.27,0.611-0.403,1.015-0.471
		c2.155-0.678,4.639-3.019,7.508-3.443c-0.012-0.048-0.038-0.082-0.038-0.144c1.581-1.837,6.047-3.15,6.047-6.831
		c0-1.842,0.528-0.528,1.319-1.319c-0.267-0.262-0.267-0.262-0.267-0.522c0-0.53,0.79-0.793,0.79-1.315
		C191.695,75.023,190.119,75.545,189.067,75.545 M140.947,65.553c1.052,0.529,1.052,1.319,1.313,2.371
		C141.47,67.396,140.947,66.083,140.947,65.553 M143.313,39.525c-0.522,0-0.522,0-0.522-0.267c0-0.262,0.261-0.785,0.522-1.053
		c0.263,0.268,0.263,0.268,0.263,0.529S143.313,39.258,143.313,39.525"/>
	<path class="narcon_4" d="M110.442,42.682c0-0.268,0-0.791-0.79-0.791c0.268,4.994,1.581,10.256,1.581,14.988
		c0,1.052-0.262,2.104-0.262,3.157c0.524,0,0.524,0,0.524,0.522c-0.263,1.581-0.263,2.896-0.263,4.209
		c0,3.156,0.263,6.046,0.263,9.203c0,1.575-0.524,3.156-0.524,4.732c0,0.528,0.262,0.791,0.524,1.313c0-0.262,0-0.262,0.261-0.262
		c0,0,0,0.523,0.528,0.791c0.523,0,0-0.791,1.053-0.791c-0.529,0.262-0.529,0.791-0.529,1.314c0.335,0,0.529,0.142,0.681,0.288
		c-0.042-0.068-0.089-0.163-0.151-0.288c0.262-0.523,0.262-1.314,0.785-1.314v1.314c0.528-0.523,1.319-0.523,2.371-1.053
		l-0.267,0.262c0,0.529,0.79,1.32,1.052,1.582V81.07c0.204,0.204,0.251,0.372,0.263,0.523c0.016-0.251,0.79,0.268,1.052,0.268
		c0.791,0,0.791-3.947,1.581-3.947c0,0,0.262,0,0.262,0.267c0.261-0.79,0.261-1.581,0.261-2.372c0-1.052,0-1.837-0.261-2.889
		c0,0.523,0,2.627-0.262,3.941c0-3.941,0.262-9.988,0.785-14.459c0-0.262-0.263-0.528-0.263-0.79c0-0.523,0.263-0.791,0.791-1.053
		c0,0.508-0.025,1.053-0.067,1.617c0.774-4.072,2.837-7.401,8.219-7.401c0.522,0,1.052,0.262,1.842,0.262
		c1.838,0,3.152-0.791,4.471-1.314h0.785c-0.522,0-1.052,0-1.052-0.262l0.267-0.262c-0.527,0-1.843-0.528-1.843-1.313
		c0.524-0.529,1.843-0.529,2.367-1.319c0-0.262-1.314-0.262-1.314-1.838c0-0.267,0-0.528,0.263-0.79
		c0.527,0-3.419-2.628-3.419-3.419c0.791,0,1.843,0.262,2.628,0.262c0.267,0,0.528,0,0.528-0.523c-0.461,0-0.921,0.199-1.031,0.251
		c0.439-0.229,0.498-0.654,0.848-1.104c-0.727-0.31-1.716-0.723-2.711-0.723c-1.314,0-2.366,0.262-3.152,0.523h0.786
		c0.261,0,0.528,0,0.528,0.523c-0.268-0.262-0.528-0.262-0.79-0.262s-0.524,0.262-0.79,0.262v-0.523
		c-1.838,1.052-2.891,1.575-2.891,1.575v-0.523c-2.365,0.262-3.686,1.838-5.522,2.628c0,0-0.231-1.612-1.55-2.895
		c-0.011,0.005-0.016,0.005-0.026,0.005l-0.267-0.267c-1.314-2.628-4.994-1.576-7.098-4.204c0,0.785,0.527,1.314,0.527,1.576
		s-0.267,0.262-0.267,0.262c-0.785-0.523,0.267-1.314-1.575-1.314c0,0.791,0.523,1.581,0.523,2.104
		C110.705,42.415,110.705,42.682,110.442,42.682 M125.431,44.519c-0.262,1.053-1.314,0.523-1.837,1.053
		C124.116,45.042,124.645,45.042,125.431,44.519 M113.6,77.39c0.523,0.523,0.523,1.313,0.523,1.842
		C113.338,79.232,113.6,77.914,113.6,77.39"/>
	<path class="narcon_4" d="M90.194,40.31c-10.779,0-14.721,4.732-14.721,5.262c0,0.261,0.262,0.261,0.522,0.523
		c1.314-2.89,5.523-3.681,8.681-4.204c-3.687,1.314-7.89,2.628-8.681,4.994c0.262,0,0.524,0.262,0.524,0.262s0.267,0,0.267-0.262
		c0.523,0.529,0,0.529,0.523,1.053c-0.523,0-0.523-0.523-0.523-0.523V48.2c0,0.262,0,0.528-0.267,0.528v0.262v0.262
		c0,0.262,0,0.262,0.79,0.262c-0.262,0.267-0.262,0.267-0.262,0.528c0,0.263,0.79,0.263,0.79,0.524c0,0-0.528,0-0.528,0.528h0.791
		c0,0.262-0.263,0.262-0.263,0.262c0.523,0.262,1.314,0.529,1.838,0.529c3.156,0,9.203-1.844,12.099-1.844
		c1.052,0,4.209,0,4.209,1.314c0-0.262,0.261-0.262,0.261-0.262c0.785,0,1.576,2.366,2.105,3.151c0-1.047-0.529-1.837-0.529-2.36
		c0.79,1.052,1.314,2.36,1.314,3.68c-2.366,0-5.257-1.319-7.622-1.319c-8.156,0-16.569,7.104-16.569,16.307
		c0,1.053,2.628,6.047,2.895,6.309v-0.262c0.785,0,1.576,2.633,2.891,2.633c0.261,0,0.261,0,0.261-0.528
		c0.529,0.528,1.32,1.052,1.843,1.313c0-0.262,0.263-0.262,0.791-0.262c1.314,1.053,6.046,1.844,7.89,1.844
		c0.522,0,0-0.268,0.522-0.268c0.263,0,1.053,0.268,1.314,0.268c0-0.268,0-0.791,0.262-0.791c0,0,0.267,0.262,0.529,0.262
		c0-0.038,0.135-0.144,0.349-0.289c-0.074-0.188-0.13-0.363-0.148-0.504c-0.269-0.471-0.47-1.016-0.47-1.553
		c0-0.41,0.134-1.016,0.404-1.29c-0.135-0.27-0.135-0.538-0.135-0.875c0-1.761,1.963-3.111,3.784-3.111
		c3.388,0,4.738,1.821,6.902,2.5c0.053,0.026,0.98,0.249,2.076,0.729c0.675-1.038,1.963-1.885,1.963-4.021
		c0-1.314-0.262-3.156-0.262-3.946c0-0.524,0.523-1.575,0.523-2.366c0-0.262-0.262-0.523-0.523-0.791
		c0,0.268,0.262,0.529,0.262,0.529h-0.262c-0.268,0-0.268,0-0.268-0.262c0-0.529,0.268-1.581,0.791-2.104
		c-0.701-0.467-0.57-1.766-0.528-2.791c-0.017,0.282-0.069,0.424-0.263,0.424C108.338,50.566,102.815,40.31,90.194,40.31
		 M85.461,42.415c0-0.523,0.529-0.785,0.791-0.785s0.523,0,0.523,0.262C86.514,41.891,85.99,42.415,85.461,42.415 M90.723,54.512
		c1.053,0,2.104,0.263,2.628,0.524c-1.837,0-4.209,0-6.046,0.528C87.828,55.037,89.408,54.512,90.723,54.512 M92.299,69.239
		c0,0,0.528,0,0.528-0.528c-0.791,0.267-1.581,0.528-2.366,0.528c-2.104,0-4.209-1.053-5.784-2.366
		c0.784-1.843,1.313-3.681,2.628-4.471c1.052-0.528,2.365-0.528,3.418-0.528c3.419,0,6.837,1.318,9.465,2.366
		C97.821,66.344,95.455,69.239,92.299,69.239"/>
	<path class="narcon_4" d="M59.849,81.359c0-0.135,0-0.337,0.066-0.538c-0.066-0.135-0.201-0.68-0.201-1.149
		c0-0.611,0.343-1.29,0.745-1.828c0.338-0.88,3.314-3.649,5.479-3.649c1.486,0,2.366,0.941,2.776,1.418
		c1.22,0.64,1.104,0.867,3.177,5.065c0.169,0.207,0.282,0.44,0.351,0.694c0.239,0.193,0.433,0.434,0.604,0.697
		c0.019-5.68,0.522-11.359,0.522-17.039c0-4.209-1.843-7.627-1.843-12.093c0-0.528,0.262-1.052,0.262-1.581
		c-0.262-0.262-0.522-0.79-0.522-1.314c0-1.313,0.79-2.895,0.79-4.731c0-0.529,0-1.053-0.268-1.581c0,0.528-0.522,0.528-0.522,0.528
		c0-3.68-1.052-8.418-1.052-12.622c0-2.104,0.261-3.947,1.052-5.261c0-0.524-0.529-0.785-0.529-1.314c0,0,0-0.261,0.267-0.523
		c-1.58,0-0.528,1.052-1.052,1.052c-0.267,0-1.052-3.419-1.052-3.419l0.261-0.267c-0.261,0.267-0.79,0.529-1.052,0.529
		c-0.523,0-0.79-0.262-0.79-0.529c0,0.791,0.267,0.791-0.524,0.791c-0.789-0.262-1.313-5-3.418-5c-0.791,0-0.528,0.791-1.575,0.791
		c-0.268,0-0.791-0.261-0.791-0.791c0,0.791-0.79,1.582-0.79,2.105c0.528,0.529,0.79,0,0.79,0.529c0-0.262,0.523,1.575-0.528,2.104
		c0.267-0.262,0.267-0.262,0.267-0.529c0-0.262-0.267-0.785-0.267-1.052c-0.524,2.367-0.786,4.999-0.786,7.89
		c0,3.685,0.262,7.364,0.262,10.517c-0.262,0-0.79,0.267-1.313,0.267c0.522,3.157,1.051,6.047,1.313,9.203
		c0,0.523-0.79,0.523-1.313,1.313c-3.681-8.941-4.471-6.836-9.204-15.516c0.524,0.267-6.836-9.465-6.836-11.307
		c0.785,0.79,3.418,6.051,6.574,6.836c-1.77-3.539-9.501-16.94-10.339-21.103c-0.036,0.042-0.095,0.068-0.184,0.068
		c-0.785,0.262-1.313-0.529-1.313-1.581c0.262,0,0.528,0.267,0.528,0.267c0.263,0,0.263,0,0.263-0.267
		c-0.529-0.523-1.315,0-1.315-1.047c0.262-0.261,1.053-0.529,1.577-0.529c0.785,0,0.79,1.042,1.57,1.833
		c-0.492-0.9-4.821-8.554-9.983-7.617c0.785,0,2.099,1.313,1.837,2.104c-0.785-0.261-1.837-0.791-2.366-1.576
		c-0.261,0.785-1.837,0.263-1.837,1.576c-1.906-0.188-3.115-0.791-4.042-1.905c0.063,0.162,0.095,0.356,0.095,0.592
		c-1.053,0-1.053,0.261-1.053-0.263c-0.522,1.315,3.157,1.576,3.157,2.628c0,0.262-0.262,0.262-0.262,0.524
		c2.104,0,1.313,2.633,1.838,3.947c-1.838,0-0.524,0.785-1.576,1.314c0.524,0.524,1.052,1.052,1.052,1.843
		c-1.575-0.266-2.104-1.843-4.209-5c0,0.268,0.262,0.529,0.262,0.529c0,0.262-0.784,0.262-1.047,0.524
		c-0.528-0.524-0.528-1.315-1.052-1.315c0,0.262-0.267,0.53-0.267,0.53c0,1.047,2.895,5.784,2.895,5.784s3.942,2.366,4.209,4.466
		c0.157-0.157,0.403,0.424,0.628,0.869c-0.309-0.294-0.759-0.603-1.419-0.603c-0.527,0-1.052,0.262-1.842,0.785
		c0.79,0.262,3.685,0.262,3.685,1.315c0,0-0.267-0.262-0.528-0.262v0.262c0.262,0.267-0.523,4.471,1.053,4.999
		c-0.263-0.528-0.524-0.79-0.524-1.314c0-0.529,0.262-1.052,0.524-1.842c0.261,1.313,0.261,1.842,0.79,3.156
		c-0.79,0.524,0,0.791-0.79,0.791c0.261,0.523,0.523,1.052,0.523,1.837c0,0.262-0.263,0.529-0.263,0.529
		c-0.785-1.843-1.313-1.314-2.628-3.157c1.053,2.104,3.157,6.309,3.157,8.941c-0.79-1.581-1.843-3.418-3.157-3.946
		c3.682,6.051,1.314,0.262,2.628,11.307c0,0.529-0.261,0-0.261,0.529c0,0.522,0.261,0,0.261,0.522h-0.261
		c0,0.791,1.842,0.263,1.842,1.053c0,7.889-4.999,16.302-4.999,22.087c0,0.262,0,0.528,0.263,0.528
		c-3.942,12.622-7.1,8.151-13.675,18.406c0,1.051-4.732,6.313-4.466,6.575c5.785-6.575,8.675-9.733,13.146-14.993
		c-3.942,7.627-6.309,8.418-12.359,14.993c0,4.471-7.361,4.994-8.942,9.994c2.634-1.844,5.785-5,8.681-6.843l0.262,0.267
		c0,0.523-0.786,0.785-0.786,1.053h0.524c0,2.89-5.785,5.254-7.89,6.309c0.262,0.528,0.262,0.79,0.262,1.052
		c0,0.523-0.262,0.523-0.262,1.314c0.466-0.467,1.1-0.995,1.807-1.539c2.889-2.231,7.082-4.77,6.873-4.77h0.523
		c-1.052,1.313-1.838,2.104-3.68,2.627c0,0.261,0.261,0.53,0.261,0.53c0,1.271-2.963,1.062-3.862,1.764
		c-0.026,0.026-0.054,0.047-0.079,0.073c0.79,0,1.707-0.33,2.56-0.659c0.859-0.325,1.645-0.655,2.173-0.655c0,0,0.263,0,0.263,0.263
		c1.842-2.105,3.68-3.942,6.313-3.942c0.523,0,1.052,0.262,1.576,0.262c-1.576,1.052-3.157,1.575-4.995,1.842
		c0.262,0.262,0.524,0.262,0.524,0.262c0.791,0,1.313-0.262,1.575-0.262c-0.784,0.523-1.838,1.054-2.628,1.054
		c0.262,0,0.528,0.262,0.79,0.262c2.366,0,5.256-2.105,7.89-2.105c-2.366,1.313-4.732,2.366-7.89,2.366
		c-1.052,1.263-3.617,0.671-5.544,0.928c-0.48,0.062-0.926,0.177-1.293,0.387c0.791,0,1.576,0.262,2.628,0.262
		c8.151,0,13.151-3.419,17.093-7.099c-0.791,1.282-1.728,2.376-2.821,3.319c-1.832,1.564-4.11,2.695-6.905,3.518
		c1.837,0,3.68-1.314,5.518-1.314c-1.313,1.314-3.681,1.576-5.518,2.105c0.262,0.262,0.523,0.262,0.785,0.262
		c1.052,0,1.843-0.791,2.895-0.791v0.529c3.157-1.314,6.047-3.948,7.361-6.314c-1.314,0.529-3.152,3.156-5.523,3.156
		c0.497-0.371,0.964-0.748,1.402-1.136c3.319-2.884,5.314-6.135,8.33-9.381c0,2.89-3.681,4.732-3.681,6.047v0.79
		c0-0.268,0-0.79,0.262-0.79c0.791,0,0.791,0.262,0.791,0.262c1.575,0,6.836-12.354,7.888-14.989
		c6.571-7.097,6.047-12.62,8.675-22.085c0.263,0.262,0.263,0.785,0.263,1.314c0,0.79-0.263,2.104-0.263,2.895
		c0,0.785,0,1.314,0.528,1.576c0-1.843,0-3.681,0.524-5.523c0,0,0,0.523,0.262,0.523c-0.262-0.785-0.524-1.313-0.524-1.837
		c0-0.791,0.263-1.314,0.263-2.367c0.79,0.524,0.79,1.053,1.843,1.837c-0.791-2.104-1.843-2.365-1.843-4.464
		c2.104,2.627,2.628,7.884,4.471,9.988c6.837,4.471,7.627,13.149,11.307,20.51c0.061,0.061,0.124,0.112,0.189,0.161
		C59.968,82.121,59.849,81.72,59.849,81.359 M28.248,17.255c0.184,0.173,0.319,0.341,0.419,0.439
		C28.558,17.806,28.405,17.563,28.248,17.255 M29.452,88.697c0.529-1.313,1.054-2.104,1.843-3.156
		C31.295,86.592,30.506,87.907,29.452,88.697 M38.923,10.864c-0.528,0-0.79-0.791-0.79-1.319l0.262-0.262
		c0.261,0,0.261,1.315,0.79,1.315L38.923,10.864z M49.964,59.246c1.843,0.523,2.365,2.628,3.155,4.471
		C51.807,62.925,51.016,60.559,49.964,59.246"/>
	<path class="narcon_4" d="M126.875,95.09c0.948,0.404,2.098,0.472,2.776,1.15C129.175,95.427,127.957,95.292,126.875,95.09"/>
	<path class="narcon_4" d="M98.537,76.559c0.067,0,0.067-0.067,0.135-0.201c-0.269-0.073-0.538-0.208-0.813-0.208
		c-0.201,0-0.403,0.135-0.471,0.409h0.135h0.403c0.073,0,0.208,0,0.208-0.067c-0.135-0.067-0.343,0-0.41-0.134h0.135
		C98.134,76.358,98.403,76.559,98.537,76.559"/>
	<path class="narcon_4" d="M107.396,94.413c-0.336-0.813-0.067-2.838-0.471-3.516C106.992,92.113,106.791,93.673,107.396,94.413"/>
	<path class="narcon_4" d="M104.963,84.47c0-0.336,0.813-0.336,0.813-0.403V84h-0.202c-0.208,0-0.273-0.073-0.273-0.208
		c0-0.402,1.283-0.672,1.626-0.941c-0.478-0.679-0.746-0.947-0.813-1.896h0.471c0.343,0,0.746,0.067,1.015,0.067
		c0.141,0,0.208,0,0.343-0.067c-0.135-0.678-1.149-0.269-1.149-0.745c0-0.067,0.067-0.135,0.135-0.202h-0.135
		c-0.208,0-0.275,0.135-0.478,0.135c-0.066,0-0.538-0.679-0.538-0.881c0-0.067,0-0.134,0.068-0.201
		c-1.694-0.538-3.926-1.015-5.546-1.896c-0.478-0.201-0.611-0.673-1.216-0.673c-0.545,0-1.016,0.404-1.426,0.404
		c-0.402,0-0.402-0.337-0.813-0.337c0.141,0.471,0.679,0.875,0.679,1.148c-0.269,0-0.135-0.342-0.337-0.342v0.209
		c0,0.269,0.068,0.471,0.202,0.604c-0.134-0.066-0.202-0.134-0.403-0.134v0.201c0,0.746,0.807,0.68,1.082,1.217
		c-0.067,0.067-0.141,0.067-0.208,0.067c-0.403,0-1.015-0.807-1.284-0.807c0.343,0.403,0.813,0.672,0.948,1.283h-0.471
		C98.874,82.306,101.246,84.47,104.963,84.47 M98.47,76.896c-0.201,0.201-0.336,0.336-0.611,0.336h-0.135
		C97.724,76.896,98.134,76.963,98.47,76.896"/>
	<path class="narcon_4" d="M93.738,85.754c-0.135,0-0.343-0.067-0.545-0.201c-0.269,0.813-1.015,1.283-1.688,1.283
		c-1.491,1.694-2.439,3.926-3.313,6.225c-0.276,0.135-0.545,0.403-0.814,0.612c-1.351,3.104-1.351,1.417-2.775,4.597
		c-1.485,3.382-2.434,9.807-3.65,10.143c-1.352-2.978-3.044-5.546-4.261-8.657c0-0.067,0-0.067,0.066-0.067
		c0,0,0.067,0.067,0.134,0.067c0.068,0,0.068-0.067,0.068-0.134v-0.135c-2.366-5.074-4.06-10.889-6.426-15.964V84
		c0,0.201,0,0.336-0.202,0.336c-0.336-1.352-0.813-2.574-1.62-3.65c0-1.357-2.03-3.79-2.775-3.79c-0.066,0-0.201,0.067-0.27,0.067
		c0.471,0.813,1.554,1.082,1.822,2.165c-1.284-0.814-1.619-1.554-2.77-1.829c-0.066,0.066-0.135,0.135-0.135,0.208
		c0,0.134,0.27,0.269,0.27,0.538c0,0.134-0.201,0.336-0.472,0.336h-0.14c0,0.208,0.208,0.409,0.208,0.545
		c0,0.066,0,0.134-0.208,0.202c-0.202-0.068-0.202-0.472-0.538-0.472c0,0.27-0.134,0.336-0.269,0.336
		c-0.202,0-0.344-0.066-0.41-0.202c0,0.136,0.066,0.27,0.066,0.338c0,0.47-0.537,0.335-0.604,0.61c0,0.538,0.135,0.739,0.135,1.082
		c0,0.134-0.067,0.269-0.067,0.471c0.537,0.813,1.827,2.843,1.827,3.858c0,0.201-0.066,0.336-0.14,0.403
		c1.082,2.978,2.097,6.021,2.978,9.061c2.231,7.575,5.954,14.069,8.791,20.837c0.33,0.775,0.594,2.005,1.523,2.329
		c-0.263-0.116-0.575-0.402-0.575-0.642c0-0.135,0.067-0.27,0.201-0.337c1.358,0.947,1.425,3.314,2.507,3.314
		c0.538,0,0.337-0.813,0.808-0.947v0.678c0.073-0.068,0.207-0.068,0.343-0.068c0.402,0,1.014,0.136,1.148,0.538
		c0.673-0.268,1.15-1.619,1.486-1.619c0.202,0,0.269,0.067,0.544,0.067c0.135-0.477,0.74-0.881,0.74-1.425
		c0-0.135,0-0.269-0.135-0.471c0.947-1.282,2.574-2.567,2.708-4.262c-0.269,0.337-0.201,1.083-0.679,1.15v-0.271
		c0-0.745,1.284-4.664,1.492-4.664c0.068,0,0.135,0.067,0.202,0.067s0.134-0.067,0.134-0.207c-0.201,0-0.268-0.135-0.336-0.271
		c2.83-7.012,2.366-11.273,5.386-17.54c-0.029,0.036-0.072,0.091-0.115,0.091c-0.067,0-0.067,0-0.067-0.066
		c0.746-2.366,1.29-4.329,2.03-6.157C94.753,84.875,94.477,85.754,93.738,85.754 M75.475,112.607
		c-1.827-4.194-4.529-9.269-5.819-13.457c2.708,5.68,5.551,11.36,8.186,17.107C76.558,115.652,76.08,113.959,75.475,112.607"/>
	<path class="narcon_4" d="M106.045,92.249c-0.134-0.068-0.134-0.136-0.134-0.202c0-0.271,0.201-0.538,0.269-0.813h-0.135
		c-0.813,0-0.269-1.351-0.746-1.755v0.135c0,0.27-0.201,0.336-0.402,0.336h-0.202c0-1.351-1.492-1.283-2.03-2.164v0.067
		c0,0.202,0.066,0.27,0.066,0.336c0,0.073-0.066,0.141-0.201,0.141c-0.067-0.678-0.477-0.477-0.745-0.881
		c-0.068,0.337,0,0.74-0.135,0.881c-0.135,0-0.202-0.067-0.337-0.067c-0.679,0-0.88,9.941-0.947,12.105
		c-0.135,0-0.275-0.135-0.275-0.135c-0.066,0-0.94,12.712-0.94,14.876c1.216,0.88,1.283,2.978,1.821,4.329
		c0.409-0.472,0.544-1.284,1.491-1.284c0.135,0.135,0.135,0.269,0.135,0.41c0,0.269-0.067,0.537-0.067,0.874v0.207
		c0.337-0.813,0.947-0.679,1.62-1.148c0.067,0.201,0.202,0.134,0.202,0.336v0.134c2.098-0.269,2.029-2.776,2.642-4.529
		c-0.068,0-0.135-0.067-0.135-0.067c-0.135,0-0.201,0.134-0.275,0.134c0,0-0.067,0-0.067-0.066c0.142-0.344,0.478-0.41,0.611-0.746
		c0.27-1.964,0.336-3.852,0.336-5.814c0-5.143-0.066-11.165-1.148-16.301C106.314,91.844,106.381,92.113,106.045,92.249
		 M107.194,105.98c0.067,0,0,0.678,0.067,0.88l-0.067,0.067c-0.067,0-0.067-0.202-0.067-0.409
		C107.127,106.249,107.127,105.98,107.194,105.98 M106.657,98.875c0-0.202,0.066-0.337,0.066-0.404c0-0.402-0.409,0.067-0.409-0.745
		c0.135,0.066,0.201,0.201,0.201,0.343c0.067-0.067,0.142-0.142,0.142-0.209c0-0.201-0.142-0.402-0.142-0.672v-0.135
		c0.208,0.337,0.409,0.807,0.409,1.217C106.925,98.539,106.858,98.741,106.657,98.875 M106.583,94.754v0.403
		c0,0.135,0,0.27,0.074,0.471c-0.41,0-0.41-0.403-0.68-0.538c0-0.066,0-0.066,0.067-0.066s0.27,0.201,0.404,0.201
		c-0.068-0.135-0.135-0.269-0.135-0.336c0-0.135,0.135-0.275,0.135-0.611C106.583,94.413,106.583,94.546,106.583,94.754"/>
	<path class="narcon_4" d="M131.541,88.733c-1.217,0-3.314,0.402-4.531,0.745h-0.067c0-0.067,0.067-0.135,0.067-0.207h-0.067
		c-0.813,0-0.471,0.544-1.082,0.678c0-0.134,0.067-0.202,0.067-0.269c0,0,0-0.066-0.067-0.066c-0.27,0.269-0.673,0.402-1.015,0.604
		c-2.03,0.134-3.785,1.962-5.21,2.775c0-1.626-0.739-2.5-1.889-3.045c0,0.27,0.337,0.337,0.337,0.478
		c0,0.067-0.067,0.134-0.135,0.201c-0.611-1.284-2.568-1.559-3.246-2.708c-0.612,0.135-0.948,0.544-1.352,0.813
		c0,0.471,0.133,0.881,0.133,1.283c0,0.27-0.065,0.478-0.268,0.611c-0.342,0-0.073-0.478-0.342-0.478
		c-0.337,0-0.673,0.747-0.814,0.813c0.478,1.828,0.948,3.718,0.948,5.613c0,0.269-0.067,0.611-0.067,0.948
		c-1.015-0.472,0.067-1.963-0.403-1.963l-0.067,0.746v0.88v1.553c0.134,2.574,0.673,5.888,0.673,7.984v0.875
		c-0.067-0.337-0.135-0.404-0.202-0.404h-0.135c-0.746-3.925-1.015-10.276-1.082-14.679c-0.079,0.673-0.135,1.326-0.165,1.962
		c-0.024,0.459-0.036,0.905-0.036,1.357c0,4.256,0.745,8.181,1.149,12.106c0.134,1.896,0.134,3.313,0.746,4.799
		c-0.067,0.134-0.135,0.409-0.135,0.679c0,0.404,0.067,0.813,0.269,0.948c0.067-0.41,0.067-0.814,0.067-1.218
		c0-0.342,0-1.761-0.201-1.761c-0.067,0-0.067,0-0.067,0.067c0,0,0.067,0.067,0.067,0.135h-0.135c-0.067,0-0.067-0.067-0.067-0.135
		c0-0.402,0.202-0.067,0.336-0.402c-0.269-0.545,0-1.694-0.409-2.098c0.073,0.538,0.141,1.082,0.141,1.486
		c0,0.201-0.067,0.402-0.067,0.611c-0.208-0.882-0.275-1.896-0.275-2.775v-0.814c0.275,0.202,0.135,0.746,0.543,0.881h-0.133
		c-0.067,0-0.135,0.066-0.135,0.202v0.135c1.082,1.895,0.268,4.871,0.941,7.237c0.208-0.067,0.343-0.201,0.477-0.201
		c0.068,0,0.135,0.067,0.269,0.336v-0.202c0-0.134-0.066-0.268-0.066-0.402c0-0.068,0.066-0.136,0.202-0.136
		c0.134,0,0.134,0.067,0.134,0.136c0,0.135-0.067,0.201-0.067,0.269s0.067,0.067,0.136,0.067c0.206,0,0-0.269,0.206-0.269
		c0.27,0.402,0.203,1.149,0.538,1.553c0.136-0.403,1.218-0.813,1.353-1.284c0.134,0.066,0.208,0.269,0.208,0.402
		c0,0.411-0.276,0.882-0.276,1.218c0,0.073,0,0.141,0.068,0.208c0.477-0.813,0.544-1.491,0.88-2.3c0.067,0,0.067,0.067,0.067,0.203
		v0.201c0,0.067,0,0.201,0.135,0.201c1.693-4.664,1.216-10.485,1.559-16.434c1.284-0.948,1.963-1.896,3.583-2.844
		c0.544-1.015,2.366-2.097,4.127-2.097c2.567,0,3.516,3.455,3.516,6.426c0,0.41-0.067,0.813-0.067,1.149
		c0.135-0.201,0-0.605,0.202-0.739c0.134,0.673,0.134,1.754,0.134,3.038c0,2.978-0.201,6.902-0.201,8.658
		c0,1.357-0.067,3.045,0.201,4.261c0.068,0.343,0.41,0.678,0.544,1.156c0.472,1.62,0.679,3.24,2.097,3.381
		c-0.2-0.141-0.544-0.478-0.544-0.746c0-0.135,0.067-0.27,0.208-0.337c0.808,0.27,1.957,0.875,2.771,1.149
		c0-0.134-0.067-0.207-0.067-0.274c0-0.403,0.336-0.202,0.611-0.337c-0.477-0.201-0.948-0.404-1.29-0.672
		c0.409-0.276,0.948-0.478,1.29-0.478c-0.477-0.404-0.544-0.947-0.544-1.418v-0.611c0.134,0,0.202,0.201,0.269,0.201
		c0,0,0.067,0,0.067-0.066c-0.269-0.336-0.403-0.605-0.403-0.948c0-0.672,0.472-1.351,0.472-2.299v-0.269
		c0.476-0.068,0.61-0.471,0.61-0.947v-0.271c0.947-0.201,2.164-9.268,2.164-14.336c0-1.334-0.244-2.703-0.709-3.999
		C137.818,91.917,135.19,89.118,131.541,88.733 M113.144,98.136c-0.135-0.746-0.135-1.426-0.135-2.098
		c0-1.357,0.135-2.642,0.135-4.262v-0.813c0.141,0.611,0.208,1.352,0.208,2.165C113.352,94.754,113.144,96.71,113.144,98.136
		 M129.986,89.204c-0.402,0-1.082,0.274-1.351,0.274c0-0.067,0.881-0.409,1.285-0.409c0.201,0,0.268,0,0.268,0.135H129.986z
		 M130.801,96.778c0.067,0,0.471,0.68,0.471,1.015C131.003,97.659,130.801,96.987,130.801,96.778 M131.681,115.315
		c0.404,0.874,0.336,2.3,0.942,3.039C132.017,118.085,131.815,116.464,131.681,115.315 M139.256,96.509
		c-0.208-0.067-0.275-0.134-0.275-0.201c0-0.135,0.067-0.337,0.067-0.472c0-0.141-0.067-0.342-0.134-0.477
		c0.134,0.269,0.342,0.545,0.342,0.948V96.509z"/>
	<path class="narcon_4" d="M164.751,111.525c-0.202,0-0.336-0.067-0.336-0.269s0.067-0.41,0.269-0.41h0.135
		c-0.067-0.135-0.067-0.269-0.067-0.335c0-0.338,0.135-0.539,0.271-0.814c-0.068,0.067-0.136,0.067-0.203,0.067
		c-0.27,0-0.201-0.605-0.672-0.605c0-0.135,0.135-0.336,0.135-0.476c0-0.067,0-0.135-0.135-0.203
		c-1.963,0.41-4.194,2.098-6.566,2.098c-2.232,0-1.755-7.845-1.755-11.158c0-1.217,0-2.366,0.202-3.448
		c1.626,0,2.977-0.746,4.193-0.746c-0.269,0-0.336-0.201-0.477-0.336c0.342-0.477,1.559-0.813,1.559-1.357
		c0-0.336-0.336-0.202-0.336-0.471c0-0.202,0.135-0.27,0.27-0.27s0.336,0.067,0.471,0.067c0.067,0,0.134,0,0.134-0.067
		c-0.269,0-0.202-0.543-0.202-0.745h0.136c0.477,0,0.745-0.202,0.947-0.472c-0.067-0.207-0.135-0.342-0.135-0.477
		c0-0.067,0.067-0.135,0.067-0.201c0-0.202-0.067-0.337-0.27-0.545c0.135-0.066,0.27-0.133,0.404-0.133c0.067,0,0.134,0,0.275,0.066
		c0-0.27-0.275-0.337-0.275-0.605c0-0.067,0.067-0.135,0.067-0.202c-0.067,0-0.135,0.067-0.202,0.067
		c-0.403,0-0.538-0.342-0.672-0.611c-1.156-0.067-2.165-0.135-3.18-0.135s-2.029,0.067-3.112,0.135
		c-0.067-0.538-0.067-1.082-0.067-1.62c0-2.03,0.202-4.262,0.336-5.82c-0.678,1.559-0.543,5.143-0.611,7.575
		c-0.336-1.149-0.402-2.568-0.402-3.987c0-0.88,0.066-1.76,0.066-2.573c0-1.015-0.066-1.963-0.202-2.77c0,0.471,0,0.874-0.201,1.216
		c-0.274-0.342-0.201-0.544-0.343-1.081c-0.201,0-0.336,0.066-0.471,0.066c-0.066,0-0.134,0-0.201-0.066
		c-0.343,0.336-0.545,0.88-0.611,1.485c-0.135,0-0.135-0.202-0.27-0.202c0,0.471-0.066,0.813-0.404,1.015
		c-0.273-0.067-0.207-0.477-0.476-0.611c0,0.41-0.271,0.611-0.604,0.679c-0.142-0.067-0.142-0.135-0.142-0.269
		c0-0.275,0.208-0.679,0.208-0.679l-0.066-0.067c-0.814,0.611-0.209,3.112-1.291,3.112h-0.135c-0.202,0.605-0.269,1.217-0.269,1.828
		c0,0.941,0.134,1.957,0.134,3.106c0,1.081-2.433,0.544-2.635,1.356c0.538-0.2,1.217-0.544,1.889-0.544c0.208,0,0.343,0,0.544,0.066
		c-1.692,0.881-3.857,0.545-5.275,1.694c0,0.066,0.066,0.066,0.134,0.066c0.135,0,0.27-0.066,0.41-0.066
		c0.067,0,0.067,0,0.135,0.066c-0.478,0.27-0.746,0.539-1.217,0.539h-0.141c0,0.813-0.875,0.746-0.875,1.559v0.135
		c0.336,0,0.605-0.336,0.875-0.336c0.067,0,0.141,0,0.207,0.066c0,0.27-0.14,0.27-0.14,0.337s0,0.135,0.073,0.269h-0.141
		c-0.337,0-0.403,0.202-0.739,0.202h-0.136c0.404,0.477,0.74,0.881,0.74,1.56v0.27c0.544,0.2,1.149,0.335,1.761,0.335
		c1.352,0,2.91-0.403,4.396-0.403c-0.538,3.18-0.337,7.104-0.538,10.62c-0.074,1.149-0.208,2.299-0.208,3.314
		c0,2.433,1.693,5.209,2.641,6.291c0-0.135,0-0.27,0.202-0.27c1.217,0.605,2.843,1.755,4.262,1.755c0.201,0,0.403,0,0.605-0.067
		c-0.068-0.068-0.135-0.134-0.202-0.134c-0.134,0-0.269,0.134-0.337,0.134c-0.066,0-0.134-0.068-0.134-0.134
		c0.269,0,0.337-0.136,0.538-0.203c0.208,0.472,0.41,0.203,0.544,0.673c-0.134,0-0.336-0.134-0.478-0.134
		c0,0-0.066,0.066-0.066,0.134c0.679,0.343,1.29,0.41,1.895,0.41c0.814,0,1.627-0.336,2.643-0.336h0.537
		c0.611,0,1.149-0.544,1.554-0.747c0.813-0.813,0.88-2.434,1.155-3.655c0.066,0,0.066,0.073,0.135,0.073
		c0.201,0,0.402-0.208,0.402-0.342c0,0,0-0.067-0.066-0.067c0,0.067-0.068,0.134-0.202,0.134s-0.269-0.134-0.269-0.337
		c0.537-0.543,0.537-1.625,1.148-2.097C165.155,111.458,164.953,111.525,164.751,111.525 M144.19,92.792
		c0-0.409,0.544-0.274,0.679-0.543c0.066,0.066,0.066,0.134,0.066,0.201C144.936,92.658,144.459,92.792,144.19,92.792
		 M149.87,84.672v-0.135h0.067c0.066,0,0.141,0.068,0.141,0.202c0,0.202-0.141,0.479-0.275,0.479c-0.067,0-0.067-0.137-0.067-0.137
		C149.735,84.875,149.87,84.807,149.87,84.672 M157.042,118.421c0-0.134,0.269-0.269,0.471-0.269c0.141,0,0.275,0,0.275,0.201
		C157.788,118.496,157.176,118.421,157.042,118.421 M158.803,117.883c0,0.134-0.275,0.337-0.477,0.337c-0.068,0-0.135,0-0.202-0.067
		v0.135c0,0.208,0.202,0.066,0.336,0.208c0,0.134-0.067,0.134-0.134,0.134c-0.068,0-0.202-0.134-0.337-0.134v-0.208
		c0-0.202-0.067-0.336-0.067-0.539c0.135,0.135,0.27,0.203,0.471,0.203c0.135,0,0.27-0.068,0.41-0.203V117.883z M162.251,117.615
		c-0.067,0-0.202-0.067-0.269-0.208c-0.073,0.141-0.142,0.208-0.275,0.208c-0.068,0-0.202-0.067-0.404-0.067
		c0.068,0.067,0.135,0.135,0.135,0.135c0,0.134-0.537,0.201-0.679,0.27c-0.134-0.068-0.067-0.27-0.269-0.337
		c0-0.067,0-0.067,0.066-0.067c0.068,0,0.202,0.135,0.344,0.135c0.066,0,0.128,0,0.194-0.067c-0.072-0.067-0.269-0.073-0.269-0.275
		c0.141,0.067,0.275,0.067,0.477,0.067c-0.135-0.067-0.201-0.135-0.201-0.135h0.066c0.068,0,0.337,0.067,0.606,0.067
		c0.208,0,0.409-0.067,0.409-0.336c0.135,0,0.135,0.201,0.336,0.201c-0.066,0.067-0.066,0.067-0.135,0.067
		c-0.066,0-0.134-0.067-0.201-0.067c0,0.135,0,0.275,0.067,0.275c0.134,0,0.336-0.141,0.471-0.141c0-0.085-0.024-0.116-0.061-0.129
		c0.085-0.006,0.128,0.008,0.128,0.062C162.789,117.407,162.52,117.615,162.251,117.615"/>
	<path class="narcon_4" d="M177.805,91.166c-3.246,2.508-4.94,4.738-6.358,6.561c0,0.201-0.202,1.082-0.539,1.082
		c0,0-0.066,0-0.134-0.067c0,0.611-0.678,0.881-0.678,1.217v0.067h0.066c0.067,0,0.067,0,0.067,0.067c0,0.746-0.88,1.625-0.88,2.507
		c0,0.2,0,0.402,0.134,0.605c-0.403,1.216-0.538,2.573-0.538,3.925c0,3.479,1.192,6.885,3.112,8.791
		c0-0.201,0.269-0.134,0.336-0.269c0.881,1.284,2.097,2.77,3.516,3.112c-0.403-0.269-1.419-0.813-1.553-1.56
		c1.688,0.747,3.784,1.963,5.882,1.963c0.342,0,0.679,0,1.015-0.067c0,0.612,2.029,0.544,2.775,0.612c0-0.142,0-0.208-0.066-0.208
		l-0.135,0.066h-0.067c0-0.066,0.067-0.134,0.067-0.201c0.201,0.135,0.471,0.135,0.673,0.135c0.61,0,1.148-0.337,1.895-0.337
		c0.27,0,0.135-0.471,0.544-0.471c0.135,0,0.202,0.067,0.337,0.135c1.418-0.746,3.18-1.217,4.598-1.963h-0.337
		c-0.544,0-0.813,0.336-1.081,0.336h-0.067c1.485-1.619,3.717-2.501,5.68-3.718c-0.067,0-0.135,0.067-0.202,0.067
		c-0.135,0-0.201-0.134-0.269-0.269c0.067,0,0.201,0.067,0.269,0.067c0,0,0.067,0,0.067-0.067c-0.336-0.135-0.41-0.477-0.41-0.88
		c0.679-0.337,1.425-0.68,2.03-1.083c-0.202-0.066-0.27-0.202-0.27-0.336c0-0.477,0.68-1.015,0.68-1.425
		c0-0.134-0.068-0.201-0.202-0.201c-0.41,0-0.544,0.611-0.948,0.611c0,0-0.067,0-0.134-0.066c0.471-0.611,1.418-0.611,1.418-1.223
		c-1.217,0.544-1.56,1.289-2.708,1.827c0,0.123,0.22,0.244,0.263,0.312c-0.055,0-0.269,0.299-0.733,0.299
		c0.066-0.476,0.537-0.207,0.537-0.342c0-0.067-0.134-0.201-0.201-0.201c-0.135,0-0.201,0.201-0.403,0.201h-0.134
		c0-0.134,0.066-0.201,0.066-0.269c0,0,0-0.066-0.066-0.066c0,0.268-0.202,0.47-0.545,0.47c-0.202,0-0.336-0.067-0.404-0.269
		c-0.476,0.88-1.014,1.081-1.895,1.627c-0.135-0.067-0.27-0.067-0.471-0.067c-0.746,0-1.693,0.47-2.029,0.946
		c0-0.14,0.066-0.207,0.134-0.342c-1.56,0.066-3.582,0.342-4.872,0.342c-3.987,0-6.628-2.707-6.897-6.768
		c3.246,0,6.897,0.88,9.874,0.88c1.149,0,2.164-0.134,3.045-0.538c-0.881,0.605-2.164,0.875-3.516,0.875
		c-1.248,0-2.568-0.153-3.809-0.324c1.399,0.287,2.86,0.667,3.943,0.667c4.127,0,6.492-3.522,8.993-5.479
		c0.067-0.747,0.202-1.56,0.948-1.896c-0.135-0.881-0.472-1.963-0.472-2.642c0-0.201,0-0.269,0.067-0.402
		c-0.134-0.135-0.409-0.067-0.477-0.337c0.067,0.066,0.135,0.134,0.201,0.134c0.067,0,0.067-0.067,0.067-0.201
		c-0.134-0.41-0.47-0.813-0.672-1.425c-0.269-0.874-0.202-2.231-1.015-2.567c0,0.134,0.135,0.269,0.135,0.403
		c0,0-0.068,0.067-0.135,0.067c0-0.27-0.135-0.27-0.135-0.403c0-0.067,0-0.135,0.067-0.27c-0.134,0.067-0.269,0.067-0.41,0.067
		c-0.067,0-0.134,0-0.134-0.135v-0.135h0.066c0.209,0,0.209-0.134,0.478-0.134v0.134c0,0.27,0.202,0.27,0.403,0.337
		c-0.27-0.746-1.016-0.813-1.284-1.352c0.067,0,0.067,0,0.067-0.066v-0.135c0.336,0.066,0.403,0.604,0.68,0.604
		c0,0,0.066,0,0.134-0.066c-1.083-1.149-2.434-2.03-3.516-3.18c-2.231-0.201-3.858-1.082-6.022-1.082
		C182.678,88.396,180.715,90.426,177.805,91.166 M170.432,111.39c0.678,0.814,0.88,1.896,1.424,2.776
		C171.043,113.69,170.565,112.205,170.432,111.39 M172.729,115.041c0.813,0,1.56,1.29,1.896,1.761
		C173.812,116.398,173.14,115.853,172.729,115.041 M184.5,118.697h0.745c0.136,0,0.337,0,0.538-0.067
		c-0.269,0.336-1.009,0.471-1.485,0.471c-0.202,0-0.336-0.067-0.471-0.067C183.962,118.764,184.162,118.697,184.5,118.697
		 M195.389,94.008v0.135v0.471c0,0.141,0,0.275-0.135,0.275s-0.135-0.067-0.135-0.135c0-0.141,0.135-0.208,0.135-0.409
		c0-0.067,0-0.135-0.067-0.202h-0.067c-0.135,0-0.135,0.067-0.201,0.202c-0.135-0.202-0.201-0.538-0.27-0.881
		C194.851,93.673,194.984,94.008,195.389,94.008 M181.527,102.055c-0.409,0-0.88-0.067-1.154-0.135
		c0.274-0.135,0.61-0.135,1.015-0.135h1.223C182.402,101.988,181.998,102.055,181.527,102.055 M190.455,99.487
		c0,0.067-0.067,0.201-0.202,0.201c-0.142,0-0.142-0.066-0.142-0.201c-0.066,0.067-0.134,0.067-0.134,0.135
		c0,0.066,0.134,0.134,0.134,0.27c0,0.407-0.874,1.282-1.148,1.559h-1.352c-1.963,0-4.261,0.066-6.156,0.066
		c-0.808,0-1.62,0-2.164-0.066c0,0.202,0.066,0.268,0.274,0.268h0.471h0.27c-0.067,0.271-0.27,0.338-0.538,0.338
		c-0.202,0-0.477-0.067-0.679-0.067c-0.068,0.067-0.068,0.134-0.068,0.201c0,0.066,0.068,0.141,0.068,0.208
		s-0.068,0.067-0.201,0.067h-0.27c0.135,0.135,0.135,0.202,0.135,0.269s-0.135,0.134-0.202,0.269c0,0.27,0.404,0.067,0.404,0.41
		c-0.472,0.066-0.404,0.538-0.948,0.538c0.544-3.045,2.775-4.939,4.873-6.762c0.066,0.066,0.135,0.066,0.268,0.066
		c0.881,0,2.979-1.283,4.195-1.283C188.761,95.971,190.455,96.845,190.455,99.487"/>
	<path class="narcon_4" d="M222.039,97.39h-0.134c-0.202,0-0.344-0.069-0.344-0.136s0.074-0.134,0.142-0.201
		c-0.275,0-0.344-0.066-0.41-0.066c-0.067,0-0.134,0-0.202,0.066c-0.134-0.544-0.611-0.678-0.88-1.082
		c0.544-0.409,1.492-0.409,1.828-1.082c-0.134-0.135-0.611,0-0.746-0.208v-0.202c0-0.471-0.27-0.739-0.27-1.082
		c0-0.135,0-0.269,0.136-0.403h-0.136c-0.47,0-0.61-0.202-0.61-0.611c0.208-0.134,0.274-0.403,0.342-0.673h-0.275
		c-0.739,0-0.538-0.409-1.754-0.409v-0.067c0-0.202-0.135-0.27-0.135-0.471c0-0.135,0.135-0.202,0.202-0.202
		c0.538,0,1.216,0.337,1.687,0.337c0.275,0,0.478-0.135,0.478-0.471c-0.202,0-0.478,0.201-0.611,0.201c0,0-0.067,0-0.067-0.067
		c0.343-0.274,0.275-0.477,0.545-0.745v0.067c0,0.134-0.068,0.201-0.068,0.336c0,0.067,0,0.067,0.068,0.134
		c0.268-0.066,0.47,0,0.738-0.269c-0.202-0.067-0.269-0.201-0.269-0.337c0-0.066,0.066-0.201,0.066-0.269
		c-0.672-0.207-1.351-0.274-1.962-0.274c-1.148,0-2.157,0.274-3.032,0.611c0.532-0.135,0.869,0.067,1.076-0.203
		c0,0.135,0.067,0.135,0.067,0.203v0.067h-0.202c-0.476,0-0.746,0.134-1.156,0.201c0-0.067,0.074-0.135,0.074-0.201
		c0,0,0-0.067-0.074-0.067c-0.604,0.201-1.282,0.335-1.82,0.611c0.134,0.067,0.269,0.134,0.336,0.201
		c-0.202,0-0.404,0.135-0.538,0.135c-0.073,0-0.141,0-0.141-0.135c0.141,0,0.274,0,0.274-0.201
		c-1.626,0.403-2.708,1.351-4.193,1.956c0-0.024,0.013-0.063,0.023-0.103c-0.146-0.038-0.646-1.493-1.375-2.062
		c0.27,0,0.403-0.068,0.403-0.135c0-0.067,0-0.067-0.067-0.067c-0.066,0-0.134,0-0.269,0.067c-0.275-0.403-0.611-0.538-0.746-0.605
		c-0.478-1.424-3.724-1.491-4.732-2.231c0.067,0.403,0.538,0.673,0.538,1.082c0,0.067,0,0.135-0.066,0.202
		c-0.337-0.343-0.472-0.948-0.881-1.149c0,0.134-0.066,0.201-0.203,0.201c-0.066,0-0.134-0.067-0.2-0.135
		c0,0.606,0.471,1.218,0.471,1.688c0,0.136-0.067,0.275-0.134,0.343c-0.271-0.207-0.337-0.611-0.814-0.611
		c0.208,3.448,1.357,7.71,1.357,11.365c0,0.74,0,1.485-0.141,2.165c0.208,0,0.343,0.067,0.409,0.202
		c-0.134,1.149-0.134,2.298-0.134,3.381c0,2.029,0.134,4.06,0.134,6.021c0,1.419-0.336,2.771-0.336,3.852
		c0,0.404,0.135,0.814,0.336,1.15c0.068-0.067,0.136-0.135,0.202-0.135c0.135,0,0.202,0.471,0.337,0.538
		c0.342-0.135,0.275-0.538,0.477-0.538h0.135c-0.067,0.067-0.067,0.201-0.067,0.403c0,0.208,0.135,0.948,0.672,0.948
		c0.073,0,0.142,0,0.208-0.067c-0.274,0-0.342-0.201-0.477-0.337c0.202-0.336,0.067-0.947,0.477-1.148
		c-0.066,0.134-0.066,0.336-0.066,0.537c0,0.275,0,0.478,0.134,0.611c0.202-0.477,1.149-0.544,1.621-0.813
		c-0.068,0.066-0.068,0.201-0.068,0.269c0,0.41,0.544,0.813,0.746,1.082c0-0.066-0.066-0.134-0.066-0.269
		c0-0.134,0.066-0.27,0.269-0.27c0,0.067,0.067,0.201,0.067,0.27c0,0.067-0.067,0.135-0.067,0.202c0,0.208,0.067,0.408,0.336,0.477
		v-0.135c0-0.134-0.134-0.342-0.134-0.409s0.065-0.135,0.134-0.203c0.135,0.136,0.208,0.203,0.41,0.203
		c0.807,0,0.538-2.979,1.015-2.979c0.067,0,0.135,0.141,0.135,0.344c0.201-0.813,0.336-1.627,0.336-2.507
		c0-0.472,0-0.874-0.135-1.353c0,0.612,0.067,1.964-0.269,2.91c0-2.977,0.134-7.171,0.538-10.754c0-0.269-0.135-0.544-0.135-0.746
		s0.135-0.403,0.403-0.537c0,2.164-0.403,4.731-0.403,6.896c0,0.678,0,1.284,0.135,1.827c0.066-3.179,0.269-6.224,0.477-9.268
		c1.553-1.486,2.904-3.718,5.479-3.718c0.604,0,1.216,0.201,1.895,0.201c1.284,0,2.366-0.611,3.314-1.081
		c0,0,0.067,0.067,0.202,0.067c0.066,0,0.2-0.067,0.2-0.067S222.105,97.39,222.039,97.39 M205.604,116.533
		c-0.274,0-0.342-0.135-0.342-0.344c0-0.336,0.134-0.807,0.207-1.014c0.068,0.14,0.135,0.275,0.135,0.477
		c0,0.135-0.066,0.403-0.066,0.605C205.538,116.331,205.538,116.464,205.604,116.533 M212.502,91.368
		c0.269-0.27,0.745-0.404,1.216-0.471C213.584,91.3,212.973,91.233,212.502,91.368 M215.613,90.352h-0.201
		c0-0.134,0.201-0.202,0.336-0.202s0.202,0.068,0.202,0.276C215.814,90.352,215.748,90.352,215.613,90.352 M217.778,89.815
		c0-0.135,0.066-0.203,0.201-0.203h0.202C218.114,89.747,217.979,89.815,217.778,89.815 M219.605,97.591
		c-0.135,0-0.274-0.066-0.342-0.134c0-0.137,0.067-0.137,0.134-0.137c0.073,0,0.208,0.069,0.343,0.069h0.135
		C219.875,97.525,219.74,97.591,219.605,97.591"/>
</g>
<g>
</g>
<g>
</g>
<g>
</g>
<g>
</g>
<g>
</g>
<g>
</g>
</svg>
