<?xml version="1.0" encoding="utf-8"?>
<!-- Generator: Adobe Illustrator 16.0.3, SVG Export Plug-In . SVG Version: 6.00 Build 0)  -->
<!DOCTYPE svg PUBLIC "-//W3C//DTD SVG 1.1 Basic//EN" "http://www.w3.org/Graphics/SVG/1.1/DTD/svg11-basic.dtd">
<svg version="1.1" baseProfile="basic" id="Layer_1"
	 xmlns="http://www.w3.org/2000/svg" xmlns:xlink="http://www.w3.org/1999/xlink" x="0px" y="0px" width="148.247px"
	 height="136.988px" viewBox="0 0 148.247 136.988" xml:space="preserve">
<style type="text/css">
<![CDATA[
	.narcon_3{fill:#9AC6EA;}
	.narcon_1{fill:#072B31;}
	.narcon_4{fill:#DCE5ED;}
]]>
</style>
<path class="narcon_3" d="M136.602,33.572c-0.793-1.229-1.622-2.432-2.486-3.608C124.019,16.195,109.224,6.087,92.092,2.002
	C86.625,0.7,80.919,0.1,75.055,0.008C17.594-0.886-27.132,72.046,19.328,97.765c4.2,2.324,9.556,1.611,14.558,1.611
	c2.905,0,5.762,0.21,8.551,0.617c0.773-0.399,1.553-0.783,2.344-1.154c-0.043-0.111,0.801-0.492,1.261-0.579
	c0.07-0.033,0.139-0.063,0.211-0.094c0.968-0.433,1.948-0.844,2.939-1.236c4.033-1.588,8.237-2.837,12.578-3.71
	c2.244-0.452,4.526-0.803,6.839-1.047c-0.942-0.27-1.851-0.622-2.712-1.057c-4.798-2.406-8.187-7.213-8.59-12.843
	c-0.028-0.373-0.041-0.754-0.041-1.136c0-4.662,2.044-8.852,5.283-11.712c0.196-0.176,0.399-0.347,0.605-0.509
	c0.993-0.795,2.087-1.469,3.259-2.006c1.028-0.467,2.115-0.831,3.253-1.066c0.151-0.149,1.372-0.26,2.336-0.308
	c0.171-0.01,0.333-0.017,0.479-0.021c0.159-0.005,0.301-0.008,0.414-0.008c1.851,0,3.626,0.322,5.275,0.912
	c2.783,0.999,5.2,2.763,6.996,5.037c1.025,1.296,1.848,2.76,2.423,4.344c0.605,1.664,0.935,3.464,0.935,5.336
	c0,1.078-0.108,2.133-0.317,3.149c0,0-0.487,3.771-0.671,5.685c2.569-4.518,4.039-9.743,4.039-15.314
	c0-0.35-0.006-0.701-0.019-1.052c-0.038-1.18-0.145-2.343-0.313-3.483c-0.129-0.888-0.297-1.765-0.5-2.623
	c-0.066-0.285-0.137-0.567-0.214-0.847c-1.374-5.166-4.053-9.803-7.659-13.534c-1.685-1.745-3.572-3.293-5.623-4.604
	c-0.268-0.171-0.54-0.336-0.813-0.499c-0.073-0.044-0.148-0.089-0.224-0.132c-0.232-0.137-0.468-0.27-0.704-0.399
	c-0.047-0.027-0.094-0.054-0.142-0.08c-0.273-0.147-0.55-0.292-0.827-0.432c-0.082-0.042-0.164-0.082-0.246-0.122
	c-0.217-0.109-0.437-0.213-0.656-0.317c-0.08-0.035-0.158-0.072-0.238-0.108c-0.275-0.126-0.554-0.248-0.834-0.365
	c-0.09-0.038-0.181-0.074-0.271-0.11c-0.209-0.086-0.419-0.169-0.631-0.25c-0.104-0.041-0.206-0.08-0.311-0.118
	c-0.278-0.104-0.559-0.204-0.841-0.299c-0.093-0.031-0.188-0.061-0.279-0.091c-0.209-0.068-0.42-0.136-0.633-0.2
	c-0.12-0.036-0.24-0.072-0.361-0.108c-0.231-0.066-0.464-0.131-0.697-0.193c-0.134-0.035-0.268-0.07-0.402-0.104
	c-0.227-0.057-0.453-0.111-0.682-0.163c-0.131-0.029-0.26-0.058-0.391-0.085c-0.205-0.044-0.413-0.086-0.621-0.125
	c-0.11-0.021-0.22-0.063-0.331-0.063h-0.005c0.082-1,10.766,0.896,15.101,3.7c0.662,0.43,1.308,0.884,1.937,1.361
	c4.403,3.353,7.886,7.858,9.989,13.065c0.326,0.806,0.62,1.627,0.877,2.463c0.244,0.787,0.457,1.588,0.638,2.404
	c0.003,0.015,0.005,0.029,0.01,0.045c0.476,2.16,0.727,4.404,0.727,6.707c0,8.063-3.08,15.407-8.124,20.923
	c-0.47,0.516-0.96,1.016-1.464,1.495c-1.848,1.768-3.911,3.306-6.147,4.571c-0.646-0.137-1.294-0.267-1.944-0.384
	c-3.418-0.615-6.936-0.938-10.528-0.938c-5.641,0-11.094,0.793-16.257,2.27c-1.094,0.313-2.174,0.658-3.238,1.031
	c-0.852,0.298-1.693,0.612-2.525,0.951c0.093,0.23-0.613,0.518-1.065,0.438c-7.868,3.35-14.854,8.362-20.527,14.594
	c0.644,0,1.288,0.01,1.935,0.03c16.182,0.489,30.43,5.004,42.031,12.519l0.057-0.084c6.219,4.092,13.258,7.039,20.818,8.542
	c3.735,0.744,7.602,1.133,11.555,1.133c2.654,0,18.656-4.892,20.962-6.745c4.567-3.68,8.685-7.896,12.257-12.552
	c5.121-6.684,9.116-14.274,11.703-22.49c2.187-6.943,3.365-14.334,3.365-22.001C148.247,58.597,143.969,44.992,136.602,33.572
	 M62.053,56.68c-2.024-1.514-4.541-2.411-7.266-2.411c-2.46,0-4.747,0.731-6.658,1.99c-0.342-1.156-0.521-2.379-0.521-3.645
	c0-0.694,0.054-1.373,0.16-2.039c0.579-3.674,2.707-6.835,5.69-8.798c0.179-0.118,0.361-0.229,0.547-0.337
	c0.06-0.036,0.12-0.071,0.183-0.105c0.129-0.072,0.259-0.144,0.391-0.212c0.073-0.039,0.146-0.077,0.219-0.114
	c0.158-0.078,0.316-0.152,0.479-0.226c0.122-0.054,0.247-0.106,0.371-0.157c0.053-0.021,0.104-0.042,0.155-0.062
	c0.454-0.18,0.922-0.336,1.4-0.464c0.367,0.135,0.063,4.161,0.063,6.16C57.265,50.399,62.053,56.68,62.053,56.68"/>
<path class="narcon_4" d="M44.091,100.254c-0.55-0.094-1.101-0.182-1.655-0.262c-2.789-0.406-5.646-0.616-8.551-0.616
	c-5.002,0-9.874-0.558-14.558-1.611c-0.821,1.328-1.601,2.686-2.339,4.068c-1.656,3.098-3.1,6.328-4.312,9.67
	c-0.522,1.443-1.004,2.907-1.438,4.391c1.304-0.229,2.623-0.421,3.952-0.577c2.421-0.281,4.879-0.441,7.37-0.468
	c0.335-0.004,0.668-0.004,1.003-0.001C29.237,108.617,36.223,103.604,44.091,100.254"/>
<path class="narcon_4" d="M57.265,46.261c0-1.999,0.305-6.025-0.063-6.16c-0.479,0.128-0.946,0.284-1.4,0.464
	c-0.052,0.02-0.103,0.041-0.155,0.062c-0.124,0.051-0.249,0.104-0.371,0.158c-0.162,0.072-0.321,0.146-0.479,0.225
	c-0.073,0.037-0.146,0.075-0.22,0.114c-0.131,0.068-0.261,0.14-0.39,0.212c-0.063,0.034-0.123,0.07-0.183,0.105
	c-0.186,0.108-0.368,0.22-0.547,0.337c-2.983,1.963-5.111,5.124-5.69,8.798c-0.107,0.666-0.16,1.345-0.16,2.04
	c0,1.265,0.179,2.487,0.521,3.644c1.91-1.259,4.198-1.99,6.657-1.99c2.726,0,5.242,0.897,7.267,2.411
	C62.053,56.68,57.265,50.399,57.265,46.261"/>
<path class="narcon_4" d="M78.389,91.774c1.56,0.036,3.108,0.12,4.645,0.252c1.734-1.821,3.25-3.855,4.502-6.054
	c0.184-1.913,0.671-5.685,0.671-5.685c0.209-1.017,0.317-2.071,0.317-3.149c0-1.872-0.329-3.672-0.936-5.336
	c-0.574-1.584-1.396-3.048-2.422-4.344c-1.796-2.274-4.213-4.038-6.997-5.037c-1.648-0.59-3.424-0.912-5.274-0.912
	c-0.138,0-0.275,0.005-0.414,0.008c-0.146,0.004-0.309,0.011-0.479,0.021c-0.504,0.028-1,0.076-1.49,0.151
	c-0.285,0.044-0.566,0.095-0.846,0.156c-1.138,0.235-2.225,0.6-3.253,1.066c-1.172,0.537-2.266,1.211-3.259,2.006
	c-0.206,0.162-0.409,0.333-0.605,0.509c-3.239,2.86-5.283,7.05-5.283,11.712c0,0.382,0.013,0.763,0.041,1.136
	c0.403,5.63,3.792,10.437,8.59,12.843c0.861,0.435,1.77,0.787,2.712,1.057c2.62-0.279,5.277-0.422,7.972-0.422
	C77.185,91.751,77.787,91.759,78.389,91.774 M66.691,64.042c-0.005,0-0.01,0.003-0.015,0.006c0.005-0.003,0.01-0.006,0.015-0.008
	V64.042z"/>
<path class="narcon_1" d="M45.158,99.816c0.831-0.339,1.673-0.653,2.524-0.951c1.064-0.373,2.145-0.719,3.238-1.031
	c5.163-1.477,10.616-2.27,16.257-2.27c3.593,0,7.11,0.322,10.528,0.938c0.65,0.116,1.299,0.247,1.944,0.384
	c2.236-1.266,4.3-2.804,6.147-4.57c0.504-0.479,0.994-0.979,1.464-1.496c5.044-5.515,8.124-12.858,8.124-20.923
	c0-2.302-0.251-4.546-0.727-6.707c-0.01-0.005-0.02-0.005-0.033-0.005c0.009-0.013,0.016-0.028,0.023-0.041
	c-0.181-0.815-0.394-1.616-0.638-2.403c-0.257-0.836-0.551-1.657-0.877-2.463c-2.104-5.207-5.586-9.713-9.989-13.064
	c-0.629-0.479-1.274-0.934-1.937-1.363c-4.335-2.804-14.875-3.657-14.765-3.637c0.208,0.041,0.416,0.083,0.621,0.126
	c0.131,0.027,0.261,0.056,0.391,0.085c0.229,0.052,0.455,0.106,0.681,0.164c0.136,0.032,0.27,0.067,0.403,0.103
	c0.233,0.063,0.466,0.127,0.697,0.193c0.121,0.037,0.241,0.072,0.361,0.108c0.213,0.064,0.424,0.132,0.633,0.2
	c0.092,0.03,0.187,0.06,0.279,0.091c0.282,0.096,0.563,0.195,0.841,0.299c0.104,0.038,0.207,0.078,0.311,0.118
	c0.212,0.081,0.422,0.164,0.631,0.25c0.09,0.036,0.181,0.072,0.271,0.11c0.28,0.117,0.559,0.239,0.834,0.365
	c0.08,0.037,0.158,0.073,0.238,0.109c0.22,0.104,0.438,0.207,0.656,0.316c0.082,0.04,0.164,0.08,0.246,0.122
	c0.277,0.14,0.554,0.284,0.827,0.432c0.048,0.026,0.095,0.053,0.142,0.08c0.237,0.13,0.472,0.263,0.704,0.399
	c0.075,0.043,0.15,0.088,0.224,0.132c0.272,0.163,0.545,0.328,0.813,0.499c2.051,1.312,3.938,2.858,5.623,4.603
	c3.606,3.732,6.285,8.369,7.659,13.535c0.258,0.025,0.585,2.582,0.714,3.47c0.169,1.141,0.275,2.304,0.313,3.483
	c0.014,0.351,0.019,0.702,0.019,1.052c0,5.571-1.469,10.797-4.038,15.314c-1.252,2.198-2.768,4.232-4.502,6.054
	c-1.536-0.132-3.085-0.216-4.645-0.252c-0.603-0.015-1.204-0.022-1.81-0.022c-2.694,0-5.352,0.143-7.972,0.422
	c-2.313,0.244-4.596,0.595-6.839,1.047c-4.341,0.873-8.545,2.122-12.578,3.71c-0.99,0.393-1.972,0.804-2.939,1.236
	c0.025,0.013,0.05,0.027,0.079,0.041c-0.098,0.018-0.194,0.035-0.29,0.053c-0.422,0.188-0.845,0.381-1.261,0.579
	c-0.791,0.372-1.57,0.755-2.344,1.153c0.555,0.08,1.105,0.168,1.655,0.262C44.444,100.105,44.8,99.958,45.158,99.816"/>
<path class="narcon_1" d="M72.699,87.697c0,0.356,1.258,0.644,2.81,0.644c1.551,0,2.809-0.287,2.809-0.644
	c0-0.355-1.258-0.644-2.809-0.644C73.957,87.053,72.699,87.341,72.699,87.697"/>
<path class="narcon_4" d="M56.588,85.735c0,3.114,2.524,5.638,5.638,5.638s5.638-2.523,5.638-5.638c0-3.113-2.524-5.638-5.638-5.638
	S56.588,82.622,56.588,85.735"/>
<g>
</g>
<g>
</g>
<g>
</g>
<g>
</g>
<g>
</g>
<g>
</g>
</svg>
