<?xml version="1.0" encoding="utf-8"?>
<!-- Generator: Adobe Illustrator 16.0.3, SVG Export Plug-In . SVG Version: 6.00 Build 0)  -->
<!DOCTYPE svg PUBLIC "-//W3C//DTD SVG 1.1 Basic//EN" "http://www.w3.org/Graphics/SVG/1.1/DTD/svg11-basic.dtd">
<svg version="1.1" baseProfile="basic" id="Layer_1"
	 xmlns="http://www.w3.org/2000/svg" xmlns:xlink="http://www.w3.org/1999/xlink" x="0px" y="0px" width="124.986px"
	 height="95.092px" viewBox="0 0 124.986 95.092" xml:space="preserve">
<style type="text/css">
<![CDATA[
	.narcon_3{fill:#9AC6EA;}
	.narcon_1{fill:#072B31;}
	.narcon_4{fill:#DCE5ED;}
]]>
</style>
<path class="narcon_4" d="M118.539,43.723c-0.029,0.04-0.057,0.081-0.086,0.121c-0.81,0.088-1.612,0.198-2.409,0.326
	c-10.334,1.681-34.461,7.4-37.246,29.42L68.2,73.638c-1.697-19.87-25.967-27.494-36.71-29.375c-0.034-0.04-0.07-0.082-0.107-0.121
	c-0.035-0.041-0.071-0.08-0.107-0.12c-0.351,2.241-0.534,4.538-0.534,6.879c0,9.867,3.235,18.979,8.701,26.333
	c0.595-3.78,3.867-6.673,7.814-6.673c4.37,0,7.913,3.543,7.913,7.913c0,3.958-2.906,7.237-6.702,7.819
	c7.377,5.524,16.537,8.799,26.465,8.799c9.969,0,19.165-3.303,26.559-8.871c-0.521,0.106-1.059,0.164-1.611,0.164
	c-4.369,0-7.91-3.541-7.91-7.911s3.541-7.913,7.91-7.913c4.371,0,7.913,3.543,7.913,7.913c0,0.823-0.126,1.619-0.36,2.365
	c7.256-7.874,11.689-18.388,11.689-29.938C119.122,48.458,118.921,46.059,118.539,43.723 M54.871,71.906
	c-0.709,0-1.283-1.063-1.283-2.376c0-1.313,0.574-2.377,1.283-2.377s1.283,1.064,1.283,2.377
	C56.153,70.843,55.58,71.906,54.871,71.906 M73.65,86.25c-2.147,0-3.888-1.74-3.888-3.888s1.74-3.888,3.888-3.888
	s3.89,1.74,3.89,3.888S75.798,86.25,73.65,86.25 M90.686,71.906c-0.708,0-1.282-1.063-1.282-2.376c0-1.313,0.574-2.377,1.282-2.377
	s1.284,1.064,1.284,2.377C91.97,70.843,91.394,71.906,90.686,71.906"/>
<path class="narcon_3" d="M31.489,44.263c10.744,1.881,35.016,9.505,36.711,29.375l10.598-0.048
	c2.785-22.021,26.912-27.739,37.246-29.421c0.797-0.128,1.6-0.237,2.409-0.325c0.029-0.04,0.057-0.081,0.087-0.121
	c4.059-5.647,6.446-12.548,6.446-20.001c0-9.184-3.626-17.533-9.539-23.722c0.003,0.088,0.003,0.176,0.003,0.265
	c0,8.046-2.785,15.449-7.451,21.324c-1.899,2.392-4.109,4.531-6.572,6.356c-7.839-5.462-17.4-8.671-27.721-8.671
	c-6.613,0-12.914,1.317-18.653,3.7c-0.005,0.249-0.459,0.534-0.679,0.29c-3.964,1.719-7.653,3.952-10.973,6.611
	c-1.727-1.185-3.568-2.22-5.504-3.087c-4.398-1.97-9.282-3.068-14.426-3.068c-9.033,0-17.266,3.385-23.471,8.943
	c1.644-0.234,3.325-0.355,5.035-0.355c10.45,0,19.831,4.533,26.24,11.714c0.036,0.04,0.072,0.079,0.108,0.12
	C31.42,44.181,31.455,44.223,31.489,44.263"/>
<path class="narcon_1" d="M73.65,78.474c-2.147,0-3.888,1.74-3.888,3.888c0,2.146,1.74,3.888,3.888,3.888s3.89-1.741,3.89-3.888
	C77.54,80.214,75.798,78.474,73.65,78.474"/>
<path class="narcon_1" d="M54.87,67.153c-0.709,0-1.282,1.063-1.282,2.377c0,1.313,0.573,2.376,1.282,2.376s1.283-1.063,1.283-2.376
	C56.153,68.216,55.579,67.153,54.87,67.153"/>
<path class="narcon_1" d="M90.686,67.153c-0.708,0-1.282,1.063-1.282,2.377c0,1.313,0.574,2.376,1.282,2.376s1.284-1.063,1.284-2.376
	C91.97,68.216,91.394,67.153,90.686,67.153"/>
<path class="narcon_4" d="M107.433,80.839c-1.813,1.967-3.802,3.771-5.941,5.382"/>
<path class="narcon_4" d="M99.88,70.561c-4.369,0-7.91,3.543-7.91,7.913c0,4.369,3.541,7.911,7.91,7.911c0.553,0,1.091-0.058,1.611-0.164
	c2.14-1.612,4.128-3.415,5.941-5.382c0.234-0.747,0.36-1.542,0.36-2.365C107.793,74.104,104.251,70.561,99.88,70.561"/>
<path class="narcon_4" d="M55.17,78.474c0-4.37-3.543-7.913-7.913-7.913c-3.947,0-7.22,2.892-7.815,6.673
	c2.556,3.438,5.598,6.492,9.026,9.06C52.264,85.711,55.17,82.432,55.17,78.474"/>
<g>
</g>
<g>
</g>
<g>
</g>
<g>
</g>
<g>
</g>
<g>
</g>
</svg>
