<?xml version="1.0" encoding="utf-8"?>
<!-- Generator: Adobe Illustrator 16.0.3, SVG Export Plug-In . SVG Version: 6.00 Build 0)  -->
<!DOCTYPE svg PUBLIC "-//W3C//DTD SVG 1.1 Basic//EN" "http://www.w3.org/Graphics/SVG/1.1/DTD/svg11-basic.dtd">
<svg version="1.1" baseProfile="basic" id="Layer_1"
	 xmlns="http://www.w3.org/2000/svg" xmlns:xlink="http://www.w3.org/1999/xlink" x="0px" y="0px" width="79.779px"
	 height="91.798px" viewBox="0 0 79.779 91.798" xml:space="preserve">
<style type="text/css">
<![CDATA[
	.narcon_3{fill:#9AC6EA;}
	.narcon_4{fill:#DCE5ED;}
]]>
</style>
<path class="narcon_4" d="M39.518,59.712c0.627,1.987,0.953,4.104,0.964,6.298c0.088,17.661-20.928,20.928-20.928,20.928
	s4.501,4.86,14.326,4.86c18.701,0,34.79-11.187,41.943-27.229c-4.413,2.777-9.637,4.383-15.236,4.383
	C52.253,68.951,44.751,65.395,39.518,59.712"/>
<path class="narcon_3" d="M64.786,11.966C56.631,4.531,45.784,0,33.88,0c-6.702,0-13.07,1.436-18.809,4.017
	c-3.22,1.449-6.243,3.258-9.016,5.376C2.311,13.173,0,18.374,0,24.115c0,11.288,8.936,20.487,20.118,20.913l-0.002,0.062
	c5.34,0.14,10.184,2.281,13.805,5.703c2.562,2.419,4.512,5.477,5.596,8.919c5.234,5.682,12.736,9.239,21.07,9.239
	c5.6,0,10.823-1.605,15.236-4.383c2.542-5.705,3.956-12.022,3.956-18.67C79.779,32.453,73.999,20.36,64.786,11.966"/>
</svg>
