<?xml version="1.0" encoding="utf-8"?>
<!-- Generator: Adobe Illustrator 16.0.3, SVG Export Plug-In . SVG Version: 6.00 Build 0)  -->
<!DOCTYPE svg PUBLIC "-//W3C//DTD SVG 1.1 Basic//EN" "http://www.w3.org/Graphics/SVG/1.1/DTD/svg11-basic.dtd">
<svg version="1.1" baseProfile="basic" id="Layer_1"
	 xmlns="http://www.w3.org/2000/svg" xmlns:xlink="http://www.w3.org/1999/xlink" x="0px" y="0px" width="183.315px"
	 height="163.133px" viewBox="0 0 183.315 163.133" xml:space="preserve">
<style type="text/css">
<![CDATA[
	.narcon_1{fill:#072B31;}
	.narcon_4{fill:#DAE1E7;}
]]>
</style>
<path class="narcon_1" d="M14.744,104.386c2.061-0.157,4.915-2.645,7.211-2.645C20.261,103.154,18.027,104.29,14.744,104.386"/>
<path class="narcon_1" d="M21.064,106.185c0.175-0.045,0.358-0.098,0.524-0.159C21.448,106.185,21.064,106.185,21.064,106.185"/>
<path class="narcon_1" d="M14.744,104.386c-0.069,0.017-0.139,0.017-0.209,0.017c-0.026,0-0.053,0-0.079-0.009
	C14.552,104.402,14.647,104.394,14.744,104.386"/>
<path class="narcon_1" d="M13.644,100.85c-0.89,1.484-1.781,2.375-3.553,2.663l-0.026-0.036c0.576-0.357,1.091-0.733,1.501-1.143
	c0.297-0.593,0.594-1.484,1.781-1.484H13.644z"/>
<path class="narcon_1" d="M8.555,105.65l-0.079-0.244c0.838-0.332,1.668-0.707,2.506-0.707c0.288,0,0.288,0,0.585,0.297
	c1.484-2.068,3.265-3.85,5.935-3.85c0.595,0,1.188,0.296,1.781,0.296c-1.484,0.892-3.561,1.188-5.045,1.782h0.297
	c0.297,0,0.89-0.297,1.187-0.297l0.296,0.297c-0.296,0.288-1.186,0.288-2.374,0.881c0.262,0,0.515,0.228,0.778,0.288
	c-0.062,0.009-0.123,0.009-0.184,0.009C13.452,105.975,10.144,105.241,8.555,105.65"/>
<path class="narcon_4" d="M144.749,119.827c0,0-2.652-7.481-4.81-15.896c-1.213-4.784-2.278-9.873-2.601-14.063
	c0.89,6.529,2.67,15.128,4.748,20.471h0.297c0,0,0.297,0,0.594,0.594c-0.891-4.155-3.857-11.27-3.857-16.019
	c0,0-0.298-0.593-0.298-0.892c0,0,0.298,0,0.298,0.596c0,0.593,0.295,2.076,0.889,2.076c-0.297-2.968-1.187-6.233-2.67-8.895
	c0.297-0.297,0.89-1.485,0.89-1.485c0.297,0,0,0.596,0.297,0.596c0.595,0,0.595-0.596,0.595-0.596c0-0.592-0.298-1.482-0.298-2.373
	c0.298-0.297,0.89-0.891,1.187-1.187c1.484,1.187,4.146,1.187,5.631,3.263v-0.295c0-0.298-0.594-0.298-0.594-0.891
	c1.781,0.593,2.969,1.482,3.266,3.85c2.374-2.068,5.044-4.443,8.311-5.927v0.296c0.891-0.296,0-0.891,1.187-1.188h0.297
	c0,0.098-0.035,0.167-0.079,0.209c-0.078,0.027-0.148,0.063-0.218,0.088c0,0,0.13,0,0.218-0.088
	c2.113-0.881,5.762-1.989,7.194-1.989c12.456,0,14.829,9.488,14.829,31.442c0,5.045,0,8.005-0.889,8.302
	c0.297,0.593,0.297,0.89,0.297,1.188s0,0.594-0.595,0.891v0.594c0,0.891-0.296,2.076-0.296,2.671c0,0.479,0,0.96,0.313,1.274
	c0.281,1.161,0.297,2.296,1.17,2.584c-0.297,0.594-1.187,0.891-1.779,1.483c0.891,0,1.482,0,2.374,0.297
	c-0.595,0-0.892,0-0.892,0.89c-0.89,0-2.67-0.89-4.153-0.89c-0.298,0.297-0.298,0.297-0.298,0.594c0,0.296,0.594,0.892,1.187,0.892
	c-1.954,0-3.29-1.145-4.241-3.056c-0.297-0.908-0.498-1.982-1.004-2.75c-2.017-7.42-1.424-20.262-4.242-28.308
	c0,0.296,0,0.296-0.595,0.889c0-3.264-2.077-10.092-5.046-10.092c-5.63,0-8.301,6.233-10.675,8.606
	c0.296,6.521,1.78,12.755,1.78,18.69c0,1.772-0.297,3.256-0.592,5.038c-0.299,0,0-0.893-0.299-0.893
	c-0.594,1.485,0,2.375-0.594,3.563v-0.297v-1.483c0-0.297,0-0.594-0.296-0.89c-0.593,0.593-1.781,1.482-1.781,2.373
	c-0.593-0.594-0.593-1.78-0.89-2.373c-0.594,0-0.594,0.593-0.594,0.593h-0.297l0.297-0.297c0-0.296-0.297-0.296-0.594-0.296
	c0,0-0.297,0-0.297,0.296c0,0,0.297,0.297,0.297,0.594l-0.297-0.297c-0.297,0-0.297,0.297-0.594,0.297
	c-1.188-3.265-0.891-7.708-2.959-10.083c0-0.297,0-0.297,0.288-0.297c-0.288,0-0.288-0.89-0.882-0.89
	c0,1.187,0.594,3.265,1.475,4.451c0-0.062-0.025-0.174-0.068-0.329c0.086,0.155,0.2,0.276,0.365,0.329
	c-0.297,0.594-0.593,0.298-0.593,0.594l0.296,0.297v-0.297h0.297C144.155,117.166,144.749,118.641,144.749,119.827"/>
<path class="narcon_4" d="M131.105,124.874c0,0.593,0.297,0.89,0.297,0.89c-0.297,0,0,0-0.297-0.297c-0.89,0.297-2.375,0.891-3.553,1.187
	c0.297,0.296,0.585,0.296,0.881,0.296c0.595,0,1.485-0.592,2.078-0.592c-0.593,0.592-1.781,0.89-2.959,0.89h-2.374
	c-0.891,0-1.484,0-1.781,0.297c-0.297,0-0.891-0.297-1.188-0.297s-0.592,0.297-0.592,0.297c-3.843,0-6.836-0.846-9.351-2.27
	c-1.955-1.108-3.623-2.575-5.185-4.261c-0.297,0-0.297,0.299-0.297,0.299c0,0.296,0.592,0.89,0.592,1.482
	c-4.45-4.154-6.231-9.19-6.231-16.61c0-0.367,0.035-0.752,0.104-1.161h0.01c0.941-5.545,8.127-14.563,15.311-14.563
	c5.639,0,12.754,2.672,13.051,2.672c0,0.332,0,0.473-0.054,0.542c-0.043,0.018-0.087,0.024-0.13,0.043
	c0.061,0,0.105-0.009,0.13-0.043c0.22-0.089,0.429-0.245,0.647-0.245c3.264,0,8.012,9.795,8.012,10.973h0.264
	c0.689,2.54,0.924,5.691,0.924,8.606c0,1.188-0.295,2.672-0.592,3.857c-0.892,1.181-2.673,2.071-3.563,3.554
	c0,0.594,0.297,0,0.297,0.893C134.667,122.795,132.887,123.686,131.105,124.874 M131.995,103.513c0-2.07-1.779-2.96-2.67-4.443
	c0.297,0.297,0.891,1.187,1.483,1.187l0.297-0.297c-1.483-1.482-3.553-1.779-5.631-1.779c-1.78,0-3.856,0.297-5.638,0.297
	c-1.188,0-2.078,0-2.969-0.297c-2.67,1.187-5.631,8.005-5.631,10.675c0,6.529,7.114,10.676,12.457,10.676
	C131.402,119.53,131.995,108.558,131.995,103.513"/>
<path class="narcon_4" d="M88.621,112.049c-0.577-1.152-0.21-2.75-0.821-1.116C88.097,111.674,88.394,111.893,88.621,112.049
	 M91.064,146.826c0,0.297,0.296,0.297,0.593,0.297c0.594,0,1.188-0.593,1.188-0.89c2.374,0,5.045-2.672,6.817-3.562
	c0,0.593-0.883,0.89-0.883,1.781c2.959,0,8.895-14.534,12.16-17.206c0,0.89-0.891,1.485-0.891,2.375v0.297
	c-2.672,5.036-4.451,10.081-7.715,15.128c2.076-0.891,4.748-8.014,4.748-8.014c0.295,0,0.592,0.297,0.891,0.297
	c0.89-1.781,3.264-7.115,4.451-7.115c0.297,0,0.594,0.297,0.594,0.297c0.297-0.593,1.179-0.593,1.179-0.89v0.297
	c0,0.593-1.179,1.779-1.179,2.375c0,0.286,0,0.286,0.297,0.286c0.594,0,2.366-1.771,3.256-1.771v0.297v0.89
	c0,0.299,0,0.585,0.297,0.585c0,0.595-0.89,0.595-0.89,0.893c0.593,0.889,0.89,1.779,0.89,2.372c0,2.672-2.375,5.344-2.959,7.42
	c0.288,0.297,0.881,0.297,0.881,0.892c-1.151,1.161-6.816,6.528-7.104,6.528c0.051,0.062,0.288,0.324,0.288,0.585
	c-0.219,0.185-0.463,0.366-0.725,0.542c-1.8,1.231-4.399,2.243-6.994,3.02c0.299,0.297,0.596,0.297,0.892,0.297
	c0.89,0,2.375-0.594,3.562-1.187c-2.672,2.672-7.707,1.781-10.379,4.156c0,0.295,0.297,0.295,0.297,0.295
	c0.594,0,1.188-0.295,1.78-0.295c0,0.295,0.595,0.592,1.484,0.592c2.13,0,3.963-0.924,5.036-1.438
	c0.01,0.14,0.053,0.549,0.298,0.549c-0.89,0.298-2.078,1.484-3.562,1.484c-0.298,0-0.586,0-0.883-0.298v0.595
	c-0.592,0-0.592,0-0.89-0.595c-1.187,0.595-2.374,0.892-3.562,0.892c-2.375,0-4.749-0.892-7.419-0.892c0,0,0.593,0,0.593-0.297
	c-6.224-2.373-12.159-6.231-17.502-9.496c0.594,1.779,3.264,2.076,3.858,2.968c-1.78,0-4.74-2.672-5.927-3.562
	c-0.594,0-0.594,0.594-0.89,0.594c2.671,3.562,5.927,4.748,8.895,7.123c-11.27-6.233-19.877-18.097-19.877-37.676
	c0-0.594,0.594-1.475,0.891-2.366c0,0.296-0.297,0.593-0.297,0.892c0,0.296,0.297,0.296,0.297,0.584
	c0-4.741,2.374-8.303,3.561-12.458l0.297,0.297c0.593,0,0.89-0.593,0.89-0.89s0-0.594-0.297-0.594
	c3.265-4.739,9.193-9.487,17.502-11.27c0-0.297-0.296-0.593-0.296-0.593c0-0.891,2.671-0.594,2.671-1.187
	c0-0.297-0.296-0.297-0.594-0.596c1.781-0.297,3.256-0.297,5.038-0.297c1.484,0,2.967,0,4.451,0.297c0,0,0.297,0,0.297-0.297
	l-0.297-0.296c4.75,0,7.717,4.453,8.607,3.858c0.585,0,0.883,0.296,0.883,0.296h0.592h0.299l-0.299,0.596
	c-0.295,0-0.89-0.297-1.475-0.297c-0.191,0-0.628,0.243-0.838,0.348l-0.052-0.051c-0.104,0.104-0.062,0.095,0.052,0.051l0.246,0.245
	c0,0-0.596,0-0.298,0.594c0.298,0.297,0.89-0.297,0.89-0.297c0.297,0-0.592,0.297,0.585,0.297h-0.881c0.881,0,0.881,0,0.881,0.297
	c-0.881,0-0.585-0.297-0.585,0.89l0.297,0.297c0.288-0.594,1.477,0,1.477-1.187h0.297c0,0.297-0.297,0.593-0.297,1.779
	c0,4.157-1.773,1.188-1.773,3.563c0,0,0.297,0.296,0.585,0.296c0,0.777-0.087,1.38-0.218,1.86c-0.584,2.078-2.146,1.895-2.146,4.068
	l-0.595,0.296v-0.095c0.035-0.098,0.035-0.167,0-0.201v0.201c-0.131,0.409-0.829,1.301-1.178,1.763c0-0.254,0.026-0.515,0.288-0.777
	c0-0.61-0.035-0.837-0.079-0.891h0.079c0-0.296-0.297-1.187-0.297-1.778c0.594-1.486,0.89-2.664,0.89-2.961
	c0,0.586,0.297-1.485-0.593-1.485c0,0.299-1.188,4.742-1.188,5.929v0.296c0,1.483-0.298,0.891-0.298,1.483
	c0,1.049,0.927,2.096,1.144,2.123c-0.252,0.252-0.271,0.252-0.549,0.252c0,0,0-0.593-0.891-0.593c0,0.297-0.593,0.89-0.593,0.89
	c0,0.297,0.296,0.297,0.296,0.297c-0.89,0-0.593-0.297-1.484,0.593l-0.297,0.297v-0.297c-0.889,0-1.187,0-1.187,0.893
	c-0.297,0,0.298-0.297-0.297-0.893v0.297c-0.541,0-0.925-0.183-1.196-0.462c-0.035-0.297-0.165-0.375-0.349-0.489
	c0.087,0.185,0.201,0.35,0.349,0.489c0.009,0.045,0.009,0.105,0.009,0.165c0,0-0.297,0-0.297,0.297
	c-0.593-0.593-2.967-2.967-2.967-2.967v0.297v0.594h-0.297c0,0.89-0.297-0.891-0.297,2.076h0.594v1.188
	c-3.85,0-2.959-5.343-3.85-5.343v0.296c-1.188,0-2.374-3.562-2.078-2.373v0.297c-0.296,0-0.593-0.89-0.891-1.186
	c-6.232,4.45-9.487,11.277-9.487,19.281c0,4.452,1.178,10.082,4.739,13.05c-0.297,0-0.297,0-0.297,0.297
	c3.859,4.452,7.717,7.717,13.051,7.717c1.484,0,2.968-0.297,4.748-0.89c-0.297,0.296-0.593,0.593-0.593,0.89h0.296h0.891h0.297
	C91.955,146.826,91.657,146.233,91.064,146.826"/>
<path class="narcon_4" d="M136.448,48.045c2.375,0,1.482,0.893,2.375,0.893c-0.596,0.594-0.893,0-0.893,0.594l-0.295-0.297
	c0-0.297,0.295-0.297,0.295-0.594c-0.592,0.297-0.592,0.891-0.89,0.891v0.296c0.298,0,0.595-0.296,0.89-0.296
	c0,0.593-0.295,0.593-0.592,0.593c-0.594,0-1.484-0.593-2.078-0.593l-0.594,0.296c0,0.297,0.297,0.593,0.297,0.89l-0.297,0.297
	c0.297,0,0.594-0.297,0.891-0.297c0.891,0,0.891,0.594,1.781,0.594c0,0.594,0,0.594-0.298,0.892c0,0.593,0.298,0.89,1.187,0.89
	c-0.297,0.297-0.297,0.297-0.297,0.594c0,0,0,2.375,1.188,1.779c-0.296,0.894-1.78,0.894-2.078,1.782
	c0.298,0.593,0.89,0.593,0.89,1.484c0-0.298,0-0.298,0.297-0.298c0.22,0,0.779,0.489,1.039,0.621
	c-1.701,0.33-2.879,1.449-4.896,1.449c-0.891,0-1.484-0.297-2.078-0.297c-5.438,0-7.438,4.328-8.179,9.4
	c0.104-1.256,0.174-2.523,0.174-3.762c-0.593,0.296-0.593,0.89-0.593,1.186v0.596c-0.297,5.045-0.297,10.378-0.297,14.533
	c0-1.484,0.297-2.077,0.297-4.155c0.113,0.444,0.184,0.847,0.227,1.222c0.07,0.631,0.07,1.188,0.07,1.746
	c0,0.891,0,1.782-0.297,2.672c-0.297-0.297-0.297-0.594-0.594-0.594c-0.891,0,0.297,4.155-1.483,4.155c0,0-0.297,0-0.595-0.296
	v0.296c0,0,0.298,0,0.298,0.297l-0.298,0.297c-0.297,0,0-0.89-0.297-0.89v0.296c-0.592-0.296-1.187-0.593-1.187-1.188
	c0,0,0-0.296,0.297-0.593c-1.187,0.593-2.077,0.593-2.374,1.485v-2.078c-0.595,0.593-0.595,1.483-0.595,2.078
	c0,0,0,0.165,0.254,0.252c-0.394-0.096-0.672-0.375-1.144-0.847c0-0.298,0-0.891,0.594-0.891h-0.297
	c-0.594,0-0.297,0.593-0.594,0.593c-0.594,0-0.594-0.593-0.891-0.593c-0.297-0.297-0.297-0.593-0.297-1.187s0.297-1.781,0.297-2.969
	c0-3.089-0.261-6.172-0.297-9.506v-0.574c0-1.783,0-3.563,0.297-5.344h-0.593v-2.375c0-5.037-1.179-10.972-1.772-15.722
	c0.594,0,0.594,0.296,0.892,0.892c0-0.299,0.296-0.299,0.296-0.596c0-0.593-0.594-1.482-0.594-2.076c0.298,0,0.298,0,0.298-0.593
	c0.881,0.593,0.881,1.483,1.474,1.78v-0.297c0-0.593-0.593-0.89-0.593-1.483c1.483,0.89,5.639,0.89,6.528,2.669
	c0,0.596,0.297,0.596,0.892,0.893c0.296,0,0.89-0.893,1.78-0.893c-0.594,0.596-1.484,1.486-1.78,1.486
	c0.296,0.296,1.187,2.671,1.78,2.671c1.781-0.892,2.968-2.375,5.334-2.671c0,0.296,0,0.296-0.297,0.296c0,0.297,0,0.297,0.297,0.297
	c0,0,0.297-0.297,0.594-0.297c0,0,0-0.296-0.594-0.296c0.89-0.594,1.779-0.594,2.672-0.891v0.297h0.889h0.891
	c0-0.596-0.594-0.297-1.779-0.297C132.589,48.342,134.667,48.045,136.448,48.045"/>
<path class="narcon_4" d="M105.896,40.337c0.594,0.595,0.297,0.892,1.483,1.485c-0.296,0-2.078,1.187-2.078,1.483
	c0,0.297,0.892,0.594,0.892,0.882c0,0-0.594,0-0.594,0.296c-0.298-0.296-0.594-0.296-0.594-0.296c-0.296,0-0.296,0.296-0.296,0.296
	h-0.297c-0.297,0-0.892,0-0.892,0.596c0,0.296,0.297,0.296,0.297,0.593v0.296c-2.077-0.296-8.895-1.186-8.895-2.366
	c0-0.297,0.594-0.593,0.594-0.593c0-1.78-2.672-3.562-2.672-3.562c0-0.297,0.594,0,0.891-0.297c-0.297-0.593-0.297-0.89-0.891-0.89
	h0.594c0.892,0,1.78,0.89,2.67,0.89c0-0.593-0.592-0.296-0.592-0.593V38.26c-1.187,0-2.078-0.593-2.969-0.889
	c0.891,0,0.891-0.596,2.078-0.596c0-0.593-0.296-0.593-0.594-0.593c-0.297,0-0.594,0.297-0.891,0.297h-0.297v-0.297
	c0-0.297,0.297-0.297,0.297-0.593c0,0-0.297,0-0.297-0.297h0.594h1.188c0.593,0,1.188,0,1.482-0.89
	c3.851,0.89,5.334,0.594,8.007,3.265h0.297c0.593,0,1.187,0.297,1.187,0.89c-0.89-0.297-1.483-0.89-2.375-0.89h-0.297
	c0,1.187,1.782,0.593,1.782,1.187v0.593c0.296,0,1.483,0,1.78,0.594C106.489,40.337,106.192,40.337,105.896,40.337"/>
<path class="narcon_4" d="M91.064,42.712l0.296-0.296c0.297,0,0.297,0.889,0.594,1.186c-0.297-0.297-0.594-0.297-0.594-0.297
	c-0.296,0-0.592,0.297-1.187,0.297v0.585v1.188l-0.593-0.296c-0.594,0-1.187,0.296-1.781,0.296c-3.562,0-8.005-1.773-8.598-3.553
	c0-0.297,0.297-0.593,0.297-0.593c0-0.594-0.595-1.188-1.188-1.782h0.593c0-0.297,0-0.593-0.296-0.593
	c-0.297,0-0.593,0.296-0.593,0.296c-0.297,0-0.297-0.296-0.297-0.296c0-0.297,0.297-0.297,0.593-0.297c0-0.297-0.296,0-0.593,0
	c0,0,0-0.297,0.297-0.297c0.296,0,0.889-0.889,1.187-0.889c0-0.596-1.484-0.596-1.484-0.596l0.297-0.296l0.296,0.296
	c2.078,0,0.891-2.076,4.453-2.076c1.771,0,7.41,0,7.41,2.076c-0.89,0-1.484,0-1.78-0.296c0,0-0.297,0-0.297,0.296
	c0,0,0.593,0.299,0.593,0.596v0.296c0.891,0.593,1.484,0.593,1.781,1.483c0,0,0.298-0.296,0.594-0.296s0.89,0.593,1.484,1.187
	c-0.297,0-0.594-0.297-0.891-0.297c0,0-0.297,0-0.593,0.297c0,0.594,0.593,0.296,1.484,0.296c0,0.892,0.297,0.595,0.89,0.892
	C92.846,41.229,91.657,41.822,91.064,42.712"/>
<path class="narcon_4" d="M95.22,87.206l-0.297,0.297c-1.59,0-8.145-1.415-8.905-1.72v-0.062c-0.096,0-0.086,0.019,0,0.062v0.234
	c-0.296-0.593-1.187-1.186-1.78-1.186h-0.297c-1.476,0-2.069-2.672-2.959-2.672v0.595c-0.393-0.263-0.943-1.485-1.458-2.777
	c-0.646-1.677-1.214-3.456-1.214-3.456c0-2.165,0.429-4.199,1.18-6.04c0.252-0.42,0.462-0.831,0.567-1.231
	c2.688-5.299,8.109-8.746,13.381-8.746c2.969,0,6.224,0.89,8.896,0.89c-0.297-1.485-0.892-2.662-1.78-3.554
	c0,0.297,0.592,1.188,0.592,2.068c0-0.593-1.187-2.957-1.779-2.957c-0.288,0-0.585,0-0.585,0.296c0-1.187-2.968-1.485-4.155-1.485
	c-2.672,0-9.201,2.375-12.457,2.375c-0.593,0-1.187,0-1.485-0.593c0,0,0.298,0,0.298-0.297c0-0.593-0.298-0.593-0.891-0.593
	c0,0,0.593,0,0.593-0.297c0-0.596-0.593,0-0.593-0.297v-0.299c-0.296-0.297-0.889,0.299-0.889-0.89h0.593
	c0-0.89-0.593-0.89-0.593-1.187h0.593v-0.297v-0.297c-0.297,0.297-0.297,0.297-0.593,0.297c0,0,0-0.297-0.298-0.297
	c0.891-2.672,4.749-4.154,8.599-5.047c-3.265,0.596-7.412,0.893-8.599,3.859h-0.297c0-0.891,5.631-5.638,14.238-5.638
	c8.3,0,13.941,3.858,16.909,11.574c1.187,2.068,1.781,5.334,1.781,9.488v-0.889c0.296,0.296,0.296,0.592,0.296,0.889
	c0,0.596-0.296,1.188-0.296,1.782c0,0,0,0.296,0.296,0.296c0,0.594-0.296,1.783-0.296,2.375c0.296,0,0-0.592,0.296-0.592
	c0,0.296,0.297,0.296,0.297,0.592c0,0.594-0.297,1.484-0.297,2.068v6.233c-0.296,1.483-2.077,2.077-2.077,3.562
	c0,0.211,0,0.42,0.104,0.627c-0.314-0.33-0.75-0.33-0.995-0.33c0,0.891,0,1.78-0.298,1.78c-0.592,0-0.295-0.89-0.592-0.89
	c-0.297,0.296-0.297,0.593-0.297,0.89v1.188c0,0.296,0,0.593-0.298,0.89c-1.78-0.89-2.671-2.968-3.562-4.749
	c-0.891,0.297-6.521,3.859-6.521,3.859L97,86.613c-0.297,0-0.593,0.297-0.593,0.593H95.22z M95.517,75.335
	c3.265,0,5.629-2.96,7.707-5.335c-2.67-1.186-6.224-2.373-9.488-2.373c-1.188,0-2.375,0-3.265,0.594
	c-1.781,0.89-2.077,2.969-2.967,4.451c1.484,1.475,3.265,2.365,5.045,2.365c1.188,0,2.078-0.297,2.969-0.594V75.335z"/>
<path class="narcon_4" d="M65.26,86.91c-0.445,0-0.392,0.33-0.462,0.496C64.963,87.179,65.26,87.119,65.26,86.91 M29.305,12.028
	c0.017,0.044,0.034,0.087,0.06,0.132C29.365,12.161,29.365,12.099,29.305,12.028 M21.955,101.741c-2.296,0-5.151,2.487-7.211,2.645
	c-0.096,0.008-0.192,0.017-0.288,0.008c0.026,0.009,0.052,0.009,0.079,0.009c0.07,0,0.139,0,0.209-0.017
	C18.026,104.29,20.261,103.154,21.955,101.741 M10.065,103.477c-1.912,1.223-4.399,2.297-5.316,3.895v-1.483v-0.892
	c0.297,0,2.671-1.187,2.671-1.483c1.187-1.179,4.443-2.663,4.443-4.443c0-0.297,0-0.593-0.297-0.593
	c0-0.297,0.594-0.596,0.594-0.893c0,0,0-0.295-0.297-0.295c-2.662,1.78-5.927,5.045-8.598,6.816
	c1.781-4.739,9.192-5.036,9.192-10.083c5.936-6.817,8.013-7.112,12.169-14.829c-4.452,5.342-7.124,8.606-13.06,14.829
	c0-0.89,4.452-5.341,4.452-6.52v-0.298c6.826-10.09,9.489-5.342,13.347-18.688c-0.297,0-0.297-0.296-0.297-0.593
	c0-1.485,0.892-4.453,1.485-4.453c1.484-4.74,2.374-11.269,3.264-17.205c0-0.89-1.78-0.297-1.78-0.89c0-0.123,0-0.192,0.017-0.237
	c0.088,0.036,0.183,0.036,0.28-0.059c-0.175,0-0.245,0-0.28,0.059c-0.174-0.087-0.314-0.356-0.314-0.356
	c0-0.299,0.297-0.299,0.594-0.299c-0.891-8.598,0.89-5.333-2.969-11.268c1.188,0.297,2.078,2.077,2.969,3.56
	c0-0.297,0.296-0.593,0.296-0.89c0-1.186-0.89-2.076-2.077-3.264v-0.594c0-0.89-0.89-2.661-1.188-3.85
	c1.188,1.486,1.781,0.892,2.672,2.663v-0.296c0-0.593-0.297-1.475-0.594-2.07c0.891,0,0-0.297,0.891-0.297
	c-0.297-1.483-0.297-2.373-0.891-3.561c-0.297,0.593-0.297,1.485-0.297,2.078c0,0.594,0,1.187,0.297,1.483
	c-0.594-0.593-0.89-1.186-0.89-1.78c0-0.89,0.296-1.484,0.296-2.078c0-0.297,0-0.89-0.296-1.187h0.593
	c0-1.483-2.671-1.483-3.858-1.483c0.89-0.298,1.484-0.595,1.78-0.595c0.376,0,0.69,0.062,0.952,0.149
	c0.297,0.158,0.603,0.288,0.908,0.376c0.088,0.043,0.158,0.07,0.218,0.07c-0.07-0.019-0.148-0.036-0.218-0.07
	c-0.209-0.088-0.497-0.262-0.908-0.376c-0.637-0.34-1.257-0.821-1.85-1.397v-0.009c0.008-0.078,0.008-0.156,0.008-0.226
	c0-0.515-0.445-0.803-0.759-1.257c0.262,0.418,0.367,0.776,0.418,1.153c-3.107-3.265-5.289-8.861-5.289-9.088
	c0-0.296,0.296-0.594,0.296-0.891c0.594,0.595,0.594,0.891,0.891,1.485c0.594,0,1.484,0,1.484-0.594
	c0.288,2.077,2.663,4.452,3.553,5.037c0-0.288,0.296-0.288,0.296-0.585c0-0.593-0.593-1.188-1.186-1.782
	c0.89-0.296,0.593-0.889,0.89-1.186c0.296,0,0.445,0.078,0.524,0.148c-0.725-1.746,0.881-3.727-2.008-4.303
	c0.297-0.297,0.297-0.297,0.297-0.593c0-0.892-2.663-1.189-2.663-1.782l0.297-0.297v0.297c0,0,0-0.297,0.288-0.297
	c0-0.89-0.881-1.483-0.881-2.373c1.475,2.373,2.365,3.56,5.63,3.56c0-0.297-0.296-0.297-0.296-0.297c0-0.89,1.186-0.593,1.483-0.89
	c0.891,0.297,1.484,1.187,2.374,1.187V5.927c0-0.89-0.89-1.483-1.78-1.483h0.593c3.265,0,6.53,5.936,6.53,5.045
	c0.297,0,0.593-0.297,0.882-0.297c1.187,0,1.484,1.485,1.78,2.672c-0.296-0.594-0.891-1.78-1.484-1.78
	c-0.296,0-1.475,0.296-1.475,0.296c0,0.89,0.297,1.187,0.594,1.187c0.296,0,0.296-0.297,0.585-0.297v0.297
	c-0.289,0-0.289,0.297-0.289,0.297c0,0.28,0.245,0.803,0.76,1.116c-0.175-0.129-0.471-0.4-0.471-0.819
	c0.593,0,0.593,0.889,0.889,0.889c0.184,0,0.254-0.104,0.28-0.191c0.891,3.265,8.058,17.074,10.405,21.247
	c-0.523-0.156-1.038-0.444-1.536-0.821c-0.078-0.219-0.157-0.437-0.244-0.663c-0.219,0-0.515-0.122-0.865-0.332
	c-1.815-1.876-3.273-4.574-3.884-5.595c0,1.939,2.366,4.661,3.884,5.595c0.358,0.367,0.725,0.708,1.109,0.995
	c0.471,1.205,0.9,2.279,1.301,3.248c4.635,11.051,5.988,8.013,10.021,17.153c0.594-0.594,0.891-0.891,1.484-1.483
	c-0.593-2.671-1.484-5.937-1.781-9.192c0.297,0.296,0.297,0.296,0.594,0.296c0.297,0,0.297-0.296,0.594-0.593
	c0-3.265-0.297-6.827-0.297-10.091c0-3.099,0.27-5.675,0.812-8.215c0.034,0.366,0.375,0.646,0.375,1.101c0,0,0,0.208-0.183,0.278
	c0.479-0.059,0.479-0.593,0.479-0.872v-0.035c0-0.21-0.035-1.152-0.296-1.152h-0.297c-0.297,0-0.297-0.297-0.297-0.297
	c0-0.593,0.297-0.89,0.297-1.186v-0.594c0.297,0.297,0.593,0.594,1.188,0.594c0.296,0,0.593-0.297,0.593-0.594v-0.298h0.593
	c2.672,0,2.969,4.453,3.859,5.046c0.593,0,0.593-0.296,0.593-0.296v-0.594c0,0.297,0.289,0.297,0.585,0.297
	c0.594,0,0.891,0,1.187-0.297v0.297c0,0,0.298,0.297,0.298,0.89c0,0.297-0.298,0.297-0.298,0.594c0.891,0,0,1.781,0.891,1.781
	c0.296,0,0.296,0,0.296-0.299v-0.593h0.594v0.297c0,0.595,0.594,0.892,0.594,1.477c-0.891,1.483-1.188,3.264-1.188,5.341
	c0,3.858,1.188,8.606,1.188,12.456c0.297,0,0.297,0,0.297-0.593c0.296,0.593,0.296,1.186,0.296,2.079
	c0,1.186-0.296,2.67-0.296,3.857c0,0.891,0,1.484,0.593,1.781c0,0.592-0.297,1.188-0.297,1.781c0,5.036,1.781,8.598,1.781,13.346
	c0,2.33-0.131,4.662-0.21,7.08c-0.052,1.266-0.086,2.566-0.086,3.893c0,0.891,0.296,1.782,0.296,2.969c0,0.594,0,1.483-0.296,2.076
	c0,0.263,0.235,0.525,0.488,0.577c-0.558,0.576,0.018,1.336-0.488,2.087c-0.297,0-0.297-0.585-1.188-0.585l-0.297,0.288
	c0,0.297,0.593,0.593,0.593,0.89v0.297c0-0.594-1.186,0-1.78-0.89c-0.297,0.296-0.89,0.89-0.89,1.187
	c-0.297-0.297-0.593-0.297-0.891-0.297c-0.89,0-1.772,0.89-2.365,1.188c-1.187,0-0.89-0.299-1.782-0.299
	c-0.296-1.483-1.186-2.364-2.67-2.661c0-0.14,0.035-0.235,0.087-0.324c0.018-0.017,0.035-0.034,0.035-0.06
	c-0.017,0.018-0.035,0.034-0.035,0.06c-0.026,0.019-0.052,0.027-0.087,0.027l-0.297-0.298h0.297c0-0.891-0.89-0.891-1.188-1.188
	C59.621,79.193,58.731,70,51.913,65.846c-2.077-2.672-2.671-7.115-5.045-10.084c0,2.078,1.483,2.969,1.781,4.742
	c-0.891-0.893-0.891-1.477-1.781-1.773v1.477c0,0.594,0,1.483,0.593,2.373c-0.593,0,0-0.297-0.593-0.297
	c-0.297,1.782-0.297,3.563-0.297,5.344c-0.297-0.299-0.297-0.892-0.297-1.485v-2.671c0-0.594,0-1.188-0.297-1.78
	c-3.265,14.237-8.004,25.22-16.017,37.082c0,0,0-0.296-0.297-0.296c-0.298,0.593,0,1.188-0.298,1.188v-0.595
	c0-1.78,3.562-3.858,3.562-6.233c-3.264,3.858-5.639,7.717-9.489,10.677c1.781,0,3.553-2.96,5.037-3.554
	c-1.126,2.253-3.588,5.037-6.887,6.066c0.043-0.034,0.07-0.078,0.07-0.138c-1.781,0.297-2.375,1.187-3.265,1.187
	c-0.297,0-0.594,0-0.891-0.297c2.078-0.89,4.453-1.485,5.936-2.375c-1.78,0-3.858,1.485-5.639,1.485l0.297-0.299
	c0-0.297,0-0.297-0.297-0.297c4.749-1.187,7.42-3.551,9.489-6.223c-3.553,3.265-8.598,7.115-16.603,7.115
	c-0.891,0-1.781-0.297-2.672-0.297c0.14-0.105,0.323-0.185,0.542-0.237c1.589-0.409,4.897,0.324,5.683-1.248
	c0.06,0,0.122,0,0.183-0.009c-0.262-0.061-0.515-0.288-0.777-0.288c1.188-0.593,2.077-0.593,2.374-0.881l-0.297-0.297
	c-0.296,0-0.889,0.297-1.186,0.297h-0.297c1.483-0.594,3.561-0.891,5.045-1.782c-0.593,0-1.187-0.296-1.781-0.296
	c-2.67,0-4.452,1.781-5.936,3.85c-0.296-0.297-0.296-0.297-0.584-0.297c-0.838,0-1.668,0.375-2.506,0.707
	c-0.646,0.253-1.301,0.481-1.946,0.481c0.594-0.892,3.561-0.596,3.561-2.078v-0.297c1.772-0.288,2.663-1.179,3.553-2.663h-0.297
	c-1.187,0-1.484,0.892-1.781,1.484C11.156,102.743,10.641,103.119,10.065,103.477"/>
<path class="narcon_1" d="M157.809,82.16c0.069-0.025,0.14-0.061,0.218-0.088C157.938,82.16,157.809,82.16,157.809,82.16"/>
<path class="narcon_1" d="M153.609,80.981c0.019-0.009,0.026-0.009,0.044-0.009C153.593,81.035,153.566,81.044,153.609,80.981"/>
<path class="narcon_1" d="M139.268,59.055c0.043-0.009,0.097-0.02,0.147-0.027C139.415,59.098,139.354,59.098,139.268,59.055"/>
<path class="narcon_1" d="M138.517,104.29c0,0.043,0.01,0.078,0.01,0.112h-0.035c-0.044-0.174-0.098-0.35-0.148-0.523
	C138.403,104.02,138.481,104.158,138.517,104.29"/>
<path class="narcon_1" d="M137.932,48.641c0,0.297-0.296,0.297-0.296,0.594l0.296,0.297c-0.296,0-0.593,0.297-0.89,0.297v-0.297
	C137.339,49.531,137.339,48.938,137.932,48.641"/>
<path class="narcon_1" d="M133.804,87.764c0.008,0.011,0,0.011,0,0.011c-0.019,0.068-0.026-0.011-0.026-0.271
	C133.777,87.599,133.785,87.686,133.804,87.764"/>
<path class="narcon_1" d="M133.183,48.938h-0.891h-0.889v-0.297C132.589,48.641,133.183,48.342,133.183,48.938"/>
<path class="narcon_1" d="M129.438,93.718c0.043-0.018,0.087-0.025,0.13-0.043C129.544,93.709,129.499,93.718,129.438,93.718"/>
<path class="narcon_1" d="M128.731,49.531c0.594,0,0.594,0.296,0.594,0.296c-0.297,0-0.594,0.297-0.594,0.297
	c-0.297,0-0.297,0-0.297-0.297C128.731,49.827,128.731,49.827,128.731,49.531"/>
<path class="narcon_1" d="M126.06,47.103c0.01,0.019,0.01,0.036,0.01,0.053C126.017,47.156,126.017,47.139,126.06,47.103"/>
<path class="narcon_1" d="M124.112,69.634c-0.129,1.902-0.321,3.78-0.392,5.438C123.756,73.273,123.851,71.406,124.112,69.634"/>
<path class="narcon_1" d="M114.493,108.854c0,1.485,1.188,6.232,8.311,7.42c7.709,0,1.483-3.266,5.928-11.872
	c0.297-1.178-2.366-2.661-3.256-2.661C118.056,101.741,114.493,102.928,114.493,108.854 M129.325,99.069
	c0.891,1.483,2.67,2.373,2.67,4.443c0,5.045-0.592,16.018-8.301,16.018c-5.342,0-12.457-4.146-12.457-10.676
	c0-2.67,2.96-9.488,5.63-10.675c0.892,0.297,1.782,0.297,2.969,0.297c1.781,0,3.858-0.297,5.64-0.297
	c2.078,0,4.146,0.297,5.631,1.779l-0.299,0.298C130.216,100.257,129.621,99.366,129.325,99.069"/>
<path class="narcon_1" d="M117.253,87.188c0.061,0.011,0.121,0.019,0.183,0.019C117.365,87.206,117.304,87.198,117.253,87.188"/>
<path class="narcon_1" d="M109.858,84.271c0.069,0.063,0.14,0.159,0.192,0.264C109.963,84.447,109.901,84.361,109.858,84.271"/>
<path class="narcon_1" d="M107.632,90.732c0.192-0.096,0.412-0.183,0.639-0.271C108.112,90.62,107.868,90.698,107.632,90.732"/>
<path class="narcon_1" d="M163.44,90.76c-0.893-0.891-2.97-0.891-4.156-0.891C160.471,90.461,162.548,90.461,163.44,90.76
	 M142.978,112.712c0.174,0.551,0.471,1.328,0.672,1.913C143.501,113.9,143.562,112.913,142.978,112.712 M139.94,103.932
	c2.155,8.414,4.81,15.896,4.81,15.896c0-1.188-0.595-2.662-0.595-3.851h-0.297v0.297l-0.297-0.297c0-0.297,0.297,0,0.594-0.594
	c-0.166-0.053-0.278-0.174-0.366-0.33c-0.035-0.114-0.078-0.255-0.13-0.411c0.025,0.148,0.07,0.297,0.13,0.411
	c0.045,0.156,0.069,0.269,0.069,0.33c-0.881-1.187-1.475-3.264-1.475-4.451c0.594,0,0.594,0.89,0.882,0.89
	c-0.288,0-0.288,0-0.288,0.298c2.068,2.375,1.772,6.817,2.959,10.083c0.297,0,0.297-0.298,0.594-0.298l0.297,0.298
	c0-0.298-0.297-0.595-0.297-0.595c0-0.296,0.297-0.296,0.297-0.296c0.297,0,0.593,0,0.593,0.296l-0.296,0.297h0.296
	c0,0,0-0.593,0.595-0.593c0.297,0.593,0.297,1.779,0.891,2.373c0-0.891,1.187-1.78,1.781-2.373c0.295,0.296,0.295,0.593,0.295,0.891
	v1.482v0.297c0.594-1.188,0-2.077,0.594-3.563c0.298,0,0,0.893,0.298,0.893c0.296-1.782,0.593-3.266,0.593-5.038
	c0-5.936-1.484-12.169-1.779-18.69c2.373-2.373,5.045-8.606,10.674-8.606c2.969,0,5.047,6.827,5.047,10.092
	c0.594-0.593,0.594-0.593,0.594-0.89c2.818,8.047,2.227,20.889,4.242,28.309c-0.027-0.044-0.053-0.087-0.088-0.131
	c0.298,1.779,0.883,4.154,1.771,4.154c-0.313-0.313-0.514-0.768-0.68-1.273c0.951,1.911,2.287,3.056,4.242,3.056
	c-0.594,0-1.188-0.596-1.188-0.892c0-0.297,0-0.297,0.297-0.594c1.484,0,3.266,0.89,4.155,0.89c0-0.89,0.296-0.89,0.892-0.89
	l2.418-1.004c0.252,0.148,0.252,0.263,0.252,0.707c0,0.594-0.297,4.74-3.266,4.74c-0.296,0-0.592,0-0.889-0.297
	c-1.781,0.297-1.781,0.594-2.672,0.594c-1.188,0-9.192-2.374-9.192-8.896c0-0.296,0.297-0.593,0.594-1.187
	c-0.594-0.891-0.594-2.672-0.89-3.562v-0.593c0-2.375-3.561-20.166-3.561-21.945c0-7.718-3.859-3.563-5.047-6.234
	c0.594-0.594-3.85,3.265-5.037,5.937c0.891,5.333,2.078,10.973,2.078,16.314c0,2.96,0.594,8.895-3.859,11.863
	c-2.032,0-2.077-0.567-3.194-0.594c0-0.017-7.185-0.409-7.185-7.716c-2.959,2.364-3.562,5.036-6.809,7.699
	c-0.009-0.053-0.018-0.053-0.018,0.017c0.009-0.008,0.009-0.008,0.018-0.017c0.053,0.419-0.14,4.172-8.318,4.172
	c-0.595-0.297-0.891-0.297-1.484-0.297c-0.297,0.297-0.891,0.594-1.188,0.594s-0.594,0-0.594-0.297
	c-1.188,0.89-1.781,0.594-2.968,0.594v3.553c0,3.562-2.374,6.53-2.374,7.717v1.484c0,2.173-4.112,3.353-7.883,8.179l-2.33-0.523
	c0.261-0.176,0.506-0.357,0.724-0.542c0-0.261-0.235-0.523-0.288-0.585c0.288,0,5.953-5.367,7.106-6.528
	c0-0.595-0.595-0.595-0.882-0.892c0.584-2.076,2.959-4.748,2.959-7.42c0-0.593-0.297-1.483-0.891-2.373
	c0-0.297,0.891-0.297,0.891-0.892c-0.297,0-0.297-0.286-0.297-0.585v-0.89v-0.297c-0.891,0-2.662,1.771-3.256,1.771
	c-0.297,0-0.297,0-0.297-0.286c0-0.596,1.178-1.782,1.178-2.375v-0.297c0,0.297-0.881,0.297-1.178,0.89c0,0-0.298-0.297-0.594-0.297
	c-1.188,0-3.563,5.334-4.452,7.115c-0.297,0-0.594-0.297-0.89-0.297c0,0-2.671,7.123-4.749,8.014
	c3.264-5.047,5.045-10.092,7.717-15.128v-0.297c0-0.89,0.89-1.485,0.89-2.375l1.328-1.973c2.514,1.424,5.508,2.27,9.348,2.27
	c0,0,0.298-0.297,0.595-0.297c0.296,0,0.89,0.297,1.187,0.297c0.297-0.297,0.891-0.297,1.781-0.297h2.374
	c1.179,0,2.366-0.296,2.959-0.89c-0.593,0-1.483,0.594-2.077,0.594c-0.297,0-0.585,0-0.882-0.298
	c1.179-0.296,2.662-0.89,3.554-1.187c0.297,0.297,0,0.297,0.297,0.297c0,0-0.297-0.297-0.297-0.89
	c1.78-1.188,3.562-2.079,4.451-3.562c0-0.893-0.297-0.299-0.297-0.893c0.891-1.482,2.671-2.373,3.563-3.553
	c0.295-1.187,0.593-2.67,0.593-3.858c0-2.915-0.235-6.066-0.925-8.606h0.035c0-0.033-0.011-0.069-0.011-0.112L139.94,103.932z"/>
<path class="narcon_1" d="M103.224,70c-2.078,2.375-4.442,5.335-7.707,5.335v-0.892c-0.891,0.297-1.781,0.594-2.968,0.594
	c-1.78,0-3.561-0.891-5.045-2.365c0.89-1.484,1.186-3.562,2.967-4.451c0.891-0.594,2.078-0.594,3.265-0.594
	C97,67.627,100.554,68.813,103.224,70 M92.845,72.375c0.593,0,4.155-0.594,4.155-1.188c-0.891,0-1.78-0.297-2.671-0.297
	c-1.188,0-2.671,0-2.671,0.891C91.954,71.781,92.548,71.781,92.845,72.375"/>
<path class="narcon_1" d="M97.89,94.618l0.053,0.051C97.829,94.713,97.786,94.723,97.89,94.618"/>
<path class="narcon_1" d="M96.407,107.371c0.035,0.034,0.035,0.104,0,0.201V107.371z"/>
<path class="narcon_1" d="M95.386,107.667c0.018-0.025,0.035-0.025,0.052,0H95.386z"/>
<path class="narcon_1" d="M95.185,111.273c0.008-0.019,0.018-0.027,0.035-0.044C95.22,111.263,95.202,111.273,95.185,111.273"/>
<path class="narcon_1" d="M95.22,109.447c-0.306,0.307-0.228,0.192,0.008-0.112C95.22,109.379,95.22,109.413,95.22,109.447"/>
<path class="narcon_1" d="M94.276,157.009c0.184,0.114,0.314,0.192,0.35,0.489C94.478,157.358,94.363,157.192,94.276,157.009"/>
<path class="narcon_1" d="M87.799,110.933c0.611-1.634,0.245-0.036,0.821,1.116C88.393,111.893,88.096,111.674,87.799,110.933"/>
<path class="narcon_1" d="M86.019,85.722v0.062C85.932,85.74,85.922,85.722,86.019,85.722"/>
<path class="narcon_1" d="M92.846,143.265c1.78-1.187,3.264-2.373,5.045-3.265c1.772,0,2.069-4.748,4.444-6.528
	c1.168-0.585,1.763-4.618,4.904-7.011c0.088,0.027,0.139-0.017,0.139-0.104c-0.043,0.033-0.094,0.069-0.139,0.104
	c-1.082-0.148-8.249-7.56-9.349-15.231v1.482c-0.595,0.893-4.155,4.454-7.717,4.454c-0.89,0-1.484-0.299-1.78-0.892
	c-0.891,0-1.484,0.892-2.375,0.892c-7.411,0-5.036-6.233-7.708-6.233c-3.561,3.265-5.935,8.301-5.935,13.941
	c0,11.268,9.497,18.391,14.236,18.391c0.891,0,2.078,0,3.562-0.593C90.471,142.672,92.251,142.375,92.846,143.265 M95.185,111.273
	c0.018,0,0.035-0.011,0.035-0.044C95.202,111.246,95.192,111.254,95.185,111.273 M91.064,146.233c0-0.297,0.296-0.594,0.593-0.89
	c-1.78,0.593-3.264,0.89-4.748,0.89c-5.334,0-9.192-3.265-13.051-7.717c0-0.297,0-0.297,0.297-0.297
	c-3.561-2.968-4.739-8.598-4.739-13.05c0-8.004,3.255-14.832,9.487-19.282c0.298,0.297,0.595,1.187,0.891,1.187v-0.297
	c-0.296-1.189,0.89,2.373,2.078,2.373v-0.296c0.891,0,0,5.343,3.85,5.343v-1.188h-0.594c0-2.967,0.297-1.187,0.297-2.076h0.297
	v-0.595v-0.296c0,0,2.374,2.374,2.967,2.967c0-0.297,0.297-0.297,0.297-0.297c0-0.06,0-0.12-0.009-0.165
	c0.271,0.279,0.655,0.462,1.196,0.462v-0.297c0.595,0.596,0,0.893,0.297,0.893c0-0.893,0.298-0.893,1.187-0.893v0.297l0.297-0.297
	c0.891-0.89,0.594-0.593,1.484-0.593c0,0-0.296,0-0.296-0.297c0,0,0.593-0.593,0.593-0.89c0.891,0,0.891,0.593,0.891,0.593
	c0.278,0,0.297,0,0.549-0.252c-0.217-0.027-1.144-1.074-1.144-2.123c0-0.593,0.298,0,0.298-1.483v-0.296
	c0-1.187,1.188-5.63,1.188-5.929c0.89,0,0.593,2.07,0.593,1.485c0,0.297-0.296,1.475-0.89,2.96c0,0.593,0.297,1.483,0.297,1.779
	h-0.079c-0.017-0.025-0.035-0.025-0.052,0H95.22c0,0.314,0.087,0.045,0.166,0h0.052c0.044,0.054,0.079,0.28,0.079,0.891
	c-0.262,0.263-0.288,0.523-0.288,0.777c-0.235,0.305-0.313,0.419-0.009,0.112c0-0.034,0-0.068,0.009-0.112
	c0.349-0.462,1.047-1.354,1.178-1.763v0.095l0.595-0.296c0-2.174,1.563-1.99,2.146-4.068l1.816,0.165
	c-0.07,0.21-0.113,0.42-0.113,0.638c0,0.297,0,0.594,0.296,0.891l0.104,0.027c-0.069,0.409-0.104,0.794-0.104,1.161
	c0,7.42,1.78,12.456,6.231,16.61c0-0.593-0.592-1.187-0.592-1.482c0,0,0-0.299,0.297-0.299c1.563,1.687,3.229,3.152,5.186,4.261
	l-1.328,1.973c-3.266,2.672-9.201,17.206-12.16,17.206c0-0.892,0.883-1.188,0.883-1.781c-1.772,0.89-4.443,3.562-6.817,3.562
	c0,0.297-0.594,0.89-1.188,0.89c-0.297,0-0.593,0-0.593-0.297c0.593-0.593,0.89,0,1.484-0.593h-0.297H91.36H91.064z"/>
<path class="narcon_1" d="M80.057,69.25c-0.105,0.4-0.315,0.812-0.567,1.23C79.664,70.062,79.847,69.65,80.057,69.25"/>
<path class="narcon_1" d="M79.184,46.3c0.008-0.009,0.008-0.026,0.018-0.034C79.202,46.283,79.191,46.3,79.184,46.3"/>
<path class="narcon_1" d="M77.071,77.481c0.401,0.62,0.978,1.519,1.379,2.087C77.9,78.895,77.472,78.137,77.071,77.481"/>
<path class="narcon_1" d="M77.438,74.583c-0.008,0.148-0.017,0.297-0.017,0.454v-0.594C77.42,74.443,77.42,74.504,77.438,74.583"/>
<path class="narcon_1" d="M76.827,86.314c0,0.299-0.297,0.299-0.297,0.299c-0.035,0-0.07,0-0.105-0.019
	C76.521,86.5,76.653,86.403,76.827,86.314"/>
<path class="narcon_1" d="M65.26,86.91c0,0.209-0.297,0.27-0.462,0.496C64.868,87.24,64.815,86.91,65.26,86.91"/>
<path class="narcon_1" d="M64.789,87.416c0,0.025-0.017,0.043-0.035,0.06C64.753,87.45,64.771,87.434,64.789,87.416"/>
<path class="narcon_1" d="M61.699,22.837c0.297-1.486,1.78-1.486,2.078-2.079h-0.298c0-0.296,0-0.296,0.298-0.296
	c-0.298,0-1.187-0.593-1.781-0.593l0.297,0.296c0,0.593-0.891,0.89-0.891,1.186h0.297c0.297,0,0.297,0,0.297,0.299
	C61.996,21.947,61.699,22.54,61.699,22.837 M80.092,67.627c0-0.299,0.593-0.892,0.891-0.892c0-0.297,0.296-0.297,0.296-0.297
	c0-0.297,0-0.297-0.296-0.593c0,0.89-0.891,0.89-0.891,1.482V67.627z M92.846,39.448c0,0,2.67,1.781,2.67,3.562
	c0,0-0.593,0.296-0.593,0.593c0,1.18,6.816,2.07,8.895,2.366v-0.296c0-0.297-0.297-0.297-0.297-0.594
	c0-0.595,0.594-0.595,0.891-0.595h0.297c0,0,0-0.296,0.297-0.296c0,0,0.297,0,0.593,0.296c0-0.296,0.595-0.296,0.595-0.296
	c0-0.289-0.891-0.585-0.891-0.882c0-0.296,1.781-1.483,2.077-1.483c-1.187-0.594-0.89-0.89-1.483-1.485c0.297,0,0.594,0,0.594-0.297
	c-0.297-0.593-1.484-0.593-1.781-0.593v-0.594c0-0.593-1.78,0-1.78-1.186h0.296c0.891,0,1.484,0.593,2.374,0.89
	c0-0.593-0.593-0.89-1.187-0.89h-0.297c-2.67-2.672-4.156-2.375-8.004-3.265c-0.298,0.89-0.891,0.89-1.484,0.89h-1.188h-0.593
	c0,0.297,0.296,0.297,0.296,0.297c0,0.296-0.296,0.296-0.296,0.593v0.296h0.296c0.297,0,0.594-0.296,0.891-0.296
	s0.594,0,0.594,0.593c-1.188,0-1.188,0.595-2.077,0.595c0.89,0.297,1.78,0.89,2.967,0.89v0.297c0,0.296,0.595,0,0.595,0.593
	c-0.891,0-1.781-0.89-2.672-0.89h-0.593c0.593,0,0.593,0.297,0.89,0.89C93.438,39.448,92.846,39.151,92.846,39.448 M91.064,40.041
	c0.296-0.296,0.593-0.296,0.593-0.296c0.297,0,0.593,0.296,0.891,0.296c-0.594-0.593-1.188-1.187-1.484-1.187
	c-0.297,0-0.594,0.297-0.594,0.297c-0.297-0.89-0.89-0.89-1.781-1.483v-0.297c0-0.296-0.593-0.595-0.593-0.595
	c0-0.297,0.296-0.297,0.296-0.297c0.297,0.297,0.891,0.297,1.781,0.297c0-2.076-5.639-2.076-7.41-2.076
	c-3.562,0-2.375,2.076-4.453,2.076l-0.296-0.297l-0.297,0.297c0,0,1.484,0,1.484,0.595c-0.298,0-0.891,0.89-1.187,0.89
	c-0.297,0-0.297,0.297-0.297,0.297c0.297,0,0.593-0.297,0.593,0c-0.296,0-0.593,0-0.593,0.296c0,0,0,0.297,0.297,0.297
	c0,0,0.296-0.297,0.593-0.297c0.296,0,0.296,0.297,0.296,0.594h-0.593c0.593,0.593,1.187,1.188,1.187,1.781
	c0,0-0.296,0.297-0.296,0.594c0.593,1.78,5.036,3.553,8.598,3.553c0.593,0,1.187-0.297,1.781-0.297l0.593,0.297v-1.188v-0.585
	c0.594,0,0.891-0.297,1.187-0.297c0,0,0.297,0,0.594,0.297c-0.297-0.297-0.297-1.187-0.594-1.187l-0.296,0.297
	c0.593-0.89,1.781-1.484,2.374-1.484c-0.593-0.296-0.89,0-0.89-0.891C91.658,40.338,91.064,40.636,91.064,40.041 M123.712,75.238
	c-0.01,0.34-0.018,0.673-0.018,0.986v1.483C123.694,76.914,123.694,76.085,123.712,75.238 M124.112,69.634
	c-0.262,1.772-0.356,3.64-0.391,5.438C123.79,73.414,123.982,71.537,124.112,69.634 M137.042,57.247
	c0.297-0.89,1.781-0.89,2.076-1.782c-1.187,0.596-1.187-1.779-1.187-1.779c0-0.297,0-0.297,0.296-0.594
	c-0.889,0-1.186-0.297-1.186-0.889c0.297-0.299,0.297-0.299,0.297-0.893c-0.891,0-0.891-0.594-1.781-0.594
	c-0.297,0-0.593,0.297-0.891,0.297l0.298-0.297c0-0.297-0.298-0.593-0.298-0.889l0.594-0.297c0.593,0,1.484,0.593,2.078,0.593
	c0.297,0,0.593,0,0.593-0.593c0-0.594,0.296,0,0.892-0.594c-0.892,0,0-0.893-2.375-0.893c-1.781,0-3.858,0.297-5.045,0.596
	c-0.892,0.297-1.781,0.297-2.673,0.891c-2.364,0.297-3.552,1.779-5.333,2.672c-0.594,0-1.484-2.375-1.779-2.672
	c0.295,0,1.186-0.891,1.779-1.486c-0.891,0-1.484,0.893-1.779,0.893c-0.596-0.297-0.893-0.297-0.893-0.893
	c-0.889-1.779-5.045-1.779-6.527-2.669c0,0.593,0.592,0.89,0.592,1.483v0.297c-0.592-0.297-0.592-1.187-1.475-1.78
	c0,0.593,0,0.593-0.298,0.593c0,0.594,0.595,1.484,0.595,2.076c0,0.297-0.297,0.297-0.297,0.596
	c-0.298-0.596-0.298-0.892-0.891-0.892c0.593,4.75,1.773,10.685,1.773,15.722v2.375h0.592c-0.297,1.781-0.297,3.561-0.297,5.343
	v0.575l-2.364,0.018c0-0.296-0.298-0.296-0.298-0.593c-0.297,0,0,0.593-0.297,0.593c0-0.593,0.297-1.781,0.297-2.375
	c-0.297,0-0.297-0.296-0.297-0.296c0-0.594,0.297-1.187,0.297-1.782c0-0.297,0-0.593-0.297-0.89v0.89c0-4.154-0.594-7.42-1.78-9.488
	c-2.968-7.716-8.607-11.574-16.908-11.574c-8.608,0-14.238,4.748-14.238,5.639h0.296c1.188-2.967,5.334-3.264,8.599-3.859
	c-3.85,0.893-7.708,2.375-8.599,5.047c0.298,0,0.298,0.297,0.298,0.297c0.296,0,0.296,0,0.593-0.297v0.297v0.297h-0.593
	c0,0.297,0.593,0.297,0.593,1.187h-0.593c0,1.188,0.593,0.593,0.89,0.89v0.299c0,0.297,0.593-0.299,0.593,0.297
	c0,0.297-0.593,0.297-0.593,0.297c0.593,0,0.891,0,0.891,0.593c0,0.297-0.298,0.297-0.298,0.297
	c0.298,0.593,0.891,0.593,1.484,0.593c3.257,0,9.786-2.375,12.458-2.375c1.187,0,4.154,0.299,4.154,1.485
	c0-0.295,0.297-0.295,0.586-0.295c0.592,0,1.78,2.363,1.78,2.956c0-0.881-0.593-1.771-0.593-2.068
	c0.891,0.891,1.482,2.068,1.779,3.554c-2.67,0-5.926-0.89-8.895-0.89c-5.273,0-10.694,3.448-13.382,8.746
	c0.018-0.045,0.026-0.096,0.035-0.14c-1.109,1.667-2.479,3.326-2.654,5.473c-0.017-0.079-0.017-0.14-0.017-0.14v0.594
	c0-0.157,0.009-0.306,0.017-0.454c0.043,0.176,0.166,0.454,0.577,0.454v-0.891c0-1.44,0.864-2.592,1.475-3.666
	c-0.751,1.842-1.179,3.876-1.179,6.041c0,0,0.568,1.779,1.213,3.456l-0.689,0.036c-0.131-0.132-0.253-0.28-0.376-0.428
	c0,0-0.008-0.009-0.008-0.018c-0.402-0.568-0.978-1.467-1.379-2.087c-0.097-0.14-0.175-0.263-0.245-0.366l-0.803-0.035
	c0.078-2.418,0.209-4.75,0.209-7.08c0-4.748-1.781-8.31-1.781-13.346c0-0.594,0.297-1.189,0.297-1.782
	c-0.593-0.295-0.593-0.89-0.593-1.78c0-1.188,0.296-2.672,0.296-3.857c0-0.893,0-1.486-0.296-2.079c0,0.593,0,0.593-0.297,0.593
	c0-3.85-1.187-8.598-1.187-12.456c0-2.077,0.297-3.859,1.187-5.341c0-0.585-0.594-0.882-0.594-1.477v-0.297h-0.593v0.593
	c0,0.299,0,0.299-0.297,0.299c-0.891,0,0-1.782-0.891-1.782c0-0.296,0.298-0.296,0.298-0.593c0-0.594-0.298-0.89-0.298-0.89v-0.297
	c-0.296,0.297-0.593,0.297-1.186,0.297c-0.297,0-0.585,0-0.585-0.297v0.593c0,0,0,0.297-0.594,0.297
	c-0.89-0.593-1.187-5.047-3.858-5.047h-0.594v0.299c0,0.297-0.297,0.594-0.593,0.594c-0.595,0-0.891-0.297-1.187-0.594v0.594
	c0,0.296-0.297,0.593-0.297,1.186c0,0,0,0.296,0.297,0.296h0.296c0.262,0,0.296,0.943,0.296,1.153v0.034c0,0.28,0,0.813-0.479,0.873
	c0.183-0.07,0.183-0.278,0.183-0.278c0-0.455-0.34-0.735-0.375-1.101c0.026-0.13,0.052-0.252,0.079-0.384
	c-0.071,0.14-0.087,0.271-0.079,0.384c-0.542,2.54-0.812,5.116-0.812,8.214c0,3.265,0.297,6.827,0.297,10.092
	c-0.297,0.297-0.297,0.593-0.594,0.593s-0.297,0-0.594-0.296c0.297,3.256,1.188,6.521,1.782,9.193
	c-0.594,0.592-0.891,0.889-1.485,1.482c-4.033-9.14-5.386-6.102-10.021-17.153l2.383-0.594c0.48,0.594,3.265,5.369,4.077,6.181
	c1.187-0.594,0.296-1.187,1.484-1.187c-0.891-1.485-0.594-5.343-0.594-8.312c0-2.669,0-5.036,0.594-7.708
	c-1.188-0.296-0.891-2.076-0.891-2.669c0-2.672,1.187-5.344,3.859-5.344c1.781,0,2.671,0.594,3.264,1.188
	c1.187,0,11.27,5.935,11.27,11.864c0,1.186-0.89,2.669-1.187,3.561c1.781,0,4.749-1.782,7.717-1.782
	c1.474,0,6.224,0.297,7.708,1.485c1.186-1.188,4.155-1.485,4.451-1.485c1.485,0,9.192,0.89,9.192,1.782
	c-0.008-0.01-0.026-0.01-0.026-0.01c0.332,0.218,5.666,3.423,5.666,8.913c0,0.594-1.483,4.74-3.858,4.74
	c1.187,1.782,2.67,2.672,2.67,2.672c0-0.297-0.295-1.188-0.295-2.08c0-2.076,1.779-5.629,5.334-5.629c-0.586,0,4.45,0.89,7.42,3.256
	c0.295-0.297,0.889-0.297,1.186-0.297c0.297-0.296,3.195,0.577,3.256,2.024c-0.043,0.036-0.043,0.053,0.01,0.053
	c0-0.017,0-0.034-0.01-0.053c0.454-0.296,5.788-2.024,10.389-2.024c4.451,0,4.451,3.263,5.64,3.859c0,0.891-0.595,2.076-1.485,2.967
	c0,0,1.485,2.673,1.485,3.857v1.485c0.297,0.89,0.297,1.78,0.297,2.364c-0.595,2.375-3.858,3.563-8.608,4.454
	c-0.594-0.595-1.484-0.595-1.484-0.595c-2.076,0-2.373,0.595-4.442,2.968c-0.89-3.265,0.288,10.974-1.483,12.755l-2.444,0.033
	c-0.044-0.375-0.114-0.777-0.228-1.222c0,2.078-0.297,2.671-0.297,4.156c0-4.156,0-9.489,0.297-14.534v-0.596
	c0-0.296,0-0.89,0.594-1.186c0,1.238-0.07,2.506-0.176,3.762c0.743-5.071,2.742-9.4,8.18-9.4c0.595,0,1.188,0.297,2.078,0.297
	c2.018,0,3.194-1.119,4.897-1.449c0.087,0.043,0.147,0.043,0.147-0.027c-0.051,0.009-0.104,0.019-0.147,0.027
	c-0.262-0.132-0.821-0.621-1.04-0.621c-0.296,0-0.296,0-0.296,0.297C137.932,57.84,137.339,57.84,137.042,57.247 M80.982,63.174
	c0.593-0.891,0.889-1.483,1.781-1.78c-2.672,0-3.86-1.782-4.749-1.782c0,1.782,0.889,2.672,0.889,4.454
	C79.795,63.174,80.092,63.174,80.982,63.174 M79.202,46.266c-0.01,0.008-0.01,0.025-0.018,0.034
	c-0.201,0.114-1.763-0.985-1.763-1.816c-0.594,0-0.594-0.296-0.891-0.296c0,0.595,0.891,2.968,0.891,3.561
	c0.585,0.289,1.448-0.845,1.763-1.449C79.192,46.3,79.202,46.283,79.202,46.266"/>
<path class="narcon_1" d="M62.886,24.023c-0.026,0.131-0.052,0.254-0.079,0.384C62.799,24.294,62.816,24.163,62.886,24.023"/>
<path class="narcon_1" d="M49.835,32.621c0.088,0.227,0.166,0.445,0.245,0.663c-0.385-0.287-0.751-0.627-1.109-0.994
	C49.32,32.5,49.618,32.621,49.835,32.621"/>
<path class="narcon_1" d="M45.087,26.694c0.61,1.021,2.069,3.719,3.884,5.596C47.452,31.356,45.087,28.633,45.087,26.694"/>
<path class="narcon_1" d="M32.333,45.079c-0.097,0.095-0.192,0.095-0.28,0.06C32.088,45.079,32.159,45.079,32.333,45.079"/>
<path class="narcon_1" d="M30.928,21.58c0.07,0.034,0.148,0.051,0.218,0.07C31.086,21.649,31.016,21.623,30.928,21.58"/>
<path class="narcon_1" d="M30.928,21.58c-0.305-0.088-0.61-0.218-0.908-0.376C30.431,21.317,30.719,21.492,30.928,21.58"/>
<path class="narcon_1" d="M28.178,19.571c0,0.07,0,0.148-0.008,0.227c-0.115-0.104-0.228-0.218-0.333-0.331
	c-0.052-0.377-0.157-0.735-0.418-1.152C27.733,18.768,28.178,19.056,28.178,19.571"/>
<path class="narcon_1" d="M41.132,12.44c-0.026-0.184,0.009-0.28,0.097-0.28h-0.298C40.931,12.16,41.045,12.274,41.132,12.44
	 M41.211,12.851c0.018-0.053,0.018-0.097,0.018-0.097c0-0.104-0.035-0.219-0.097-0.306C41.141,12.552,41.168,12.692,41.211,12.851
	 M63.479,87.206c0,0,0.298,0,0.298-0.296c-0.298,0-1.781-1.485-1.781-1.485C61.996,86.018,62.886,87.206,63.479,87.206
	 M38.863,85.425c-0.594,1.781-1.78,4.146-2.375,5.928C37.379,89.57,38.863,86.91,38.863,85.425 M117.253,87.188
	c0.051,0.011,0.113,0.019,0.184,0.019C117.375,87.206,117.313,87.198,117.253,87.188 M108.271,90.461
	c-0.228,0.089-0.445,0.176-0.639,0.271c-0.209,0.027-0.41,0.027-0.549,0.027c-2.374,0-4.156-2.078-4.749-2.96
	c-1.187,0.585-2.078,1.178-4.146,2.068c1.475,1.188,1.771,0.593,2.959,1.484c1.483,0.593,2.076,1.187,2.076,3.266
	c2.148-2.148,2.592-3.083,4.408-3.886C107.868,90.698,108.112,90.62,108.271,90.461 M108.862,89.868
	c1.188-0.298,2.078-1.187,3.563-1.771c-1.188-0.594-0.297-0.891-0.891-0.891C111.237,85.722,110.644,89.274,108.862,89.868
	 M122.804,83.941c0.594,0.594,0,1.483,0.594,1.483C122.804,84.832,123.397,83.941,122.804,83.941 M27.882,10.084
	c-0.594-0.299-1.484-1.189-1.484-1.782c0-0.297,0-0.297,0.593-0.593c-1.484,0-1.772-1.782-2.365-1.782c0,0-0.297,0-0.297,0.296
	C25.507,7.115,26.101,10.084,27.882,10.084 M138.325,103.843c-0.027-0.112-0.063-0.227-0.098-0.33
	C138.228,103.625,138.272,103.739,138.325,103.843 M139.118,94.914c0,4.749,2.969,11.863,3.859,16.019
	c-0.297-0.594-0.594-0.594-0.594-0.594h-0.297c-2.078-5.343-3.859-13.941-4.749-20.471c0.324,4.19,1.388,9.279,2.603,14.063
	l-1.425,0.358c-0.034-0.132-0.112-0.271-0.174-0.411c0.054,0.174,0.104,0.35,0.149,0.523h-0.264c0-1.178-4.748-10.973-8.013-10.973
	c-0.218,0-0.428,0.156-0.646,0.245c0.053-0.069,0.053-0.21,0.053-0.542c-0.297,0-7.411-2.672-13.051-2.672
	c-7.185,0-14.368,9.018-15.312,14.563h-0.008l-0.104-0.027c0-1.187,0.89-2.958,0.89-3.85v-0.297c0,0.97-0.785,1.737-1.074,2.618
	l-1.815-0.165c0.131-0.48,0.219-1.083,0.219-1.86c-0.288,0-0.586-0.296-0.586-0.296c0-2.374,1.772,0.595,1.772-3.563
	c0-1.187,0.298-1.482,0.298-1.779h-0.298c0,1.187-1.187,0.593-1.475,1.187l-0.298-0.297c0-1.187-0.297-0.89,0.586-0.89
	c0-0.297,0-0.297-0.883-0.297h0.883c-1.178,0-0.288-0.297-0.586-0.297c0,0-0.592,0.594-0.891,0.297
	c-0.297-0.594,0.299-0.594,0.299-0.594l-0.246-0.245c0.211-0.104,0.646-0.349,0.838-0.349c0.586,0,1.179,0.298,1.476,0.298
	l0.297-0.596h-0.297h-0.593c0,0-0.297-0.296-0.883-0.296c-0.891,0.594-3.857-3.858-8.607-3.858l0.297,0.296
	c0,0.297-0.297,0.297-0.297,0.297c-1.483-0.297-2.967-0.297-4.451-0.297c-1.781,0-3.257,0-5.037,0.297
	c0.297,0.299,0.594,0.299,0.594,0.596c0,0.593-2.671,0.296-2.671,1.187c0,0,0.296,0.296,0.296,0.593
	c-8.31,1.782-14.237,6.53-17.502,11.27c0.297,0,0.297,0.297,0.297,0.594s-0.297,0.89-0.89,0.89l-0.297-0.297
	c-1.188,4.155-3.562,7.717-3.562,12.458c0-0.288-0.296-0.288-0.296-0.584c0-0.299,0.296-0.596,0.296-0.892
	c-0.296,0.892-0.89,1.772-0.89,2.366c0,19.579,8.607,31.442,19.877,37.676c-2.969-2.375-6.225-3.562-8.896-7.123
	c0.296,0,0.296-0.594,0.891-0.594c1.187,0.89,4.146,3.562,5.927,3.562c-0.594-0.892-3.265-1.188-3.858-2.968
	c5.342,3.265,11.278,7.123,17.502,9.496c0,0.297-0.593,0.297-0.593,0.297c2.671,0,5.045,0.892,7.42,0.892
	c1.186,0,2.374-0.297,3.56-0.892c0.299,0.595,0.299,0.595,0.891,0.595v-0.595c0.298,0.298,0.586,0.298,0.883,0.298
	c1.484,0,2.671-1.188,3.561-1.484c-0.244,0-0.287-0.409-0.297-0.549c0.027-0.02,0.053-0.027,0.079-0.036
	c0.306,0.036,0.812,0.288,0.812,0.288c0.297,0,0.297,0,0.297-0.297c0,0-0.297,0-0.297-0.297c-0.156,0-0.437,0.123-0.812,0.306
	c-0.026-0.009-0.052-0.009-0.079-0.009v0.045c-1.074,0.515-2.906,1.438-5.037,1.438c-0.889,0-1.482-0.297-1.482-0.593
	c-0.594,0-1.188,0.296-1.781,0.296c0,0-0.296,0-0.296-0.296c2.671-2.374,7.707-1.483,10.379-4.155
	c-1.188,0.593-2.672,1.187-3.562,1.187c-0.297,0-0.595,0-0.892-0.297c2.593-0.775,5.194-1.788,6.993-3.02l2.33,0.523
	c-0.864,1.117-1.719,2.418-2.496,3.981c0.296,0.593,0.296,0.89,0.296,1.483c-0.593,4.146-11.565,5.333-13.94,5.333
	c-4.452,0-7.717-1.188-15.127-5.036c-0.891,0.89-1.484,1.484-2.374,1.484c-6.521,0.297-15.722-10.092-19.283-18.689
	c-3.257-7.717-3.85-16.909-3.85-22.548c0-1.178,2.662-10.677,4.74-13.941c0,0,2.077-5.036,9.793-10.38
	c-1.78,0-2.67-0.89-2.967-2.373c-4.452-1.188-5.936-4.739-5.936-6.225c0-0.593,0-0.89,0.297-1.483
	c-1.187-1.484-4.74-15.425-9.489-15.425c0-0.89-3.858,10.677-7.716,16.019c0.296,0.297,0.296,0.89,0.296,1.482
	c-1.187,8.005-5.63,6.521-8.895,14.535c-1.187,0.594-6.529,9.786-14.237,9.786c-2.969,0-2.374-0.593-3.562-1.188
	c-3.562,0.297-9.192,1.188-10.973,1.188c-0.593,0-4.155-1.188-4.155-5.937c0-3.256,5.342-5.926,5.936-6.818
	c0-1.779,2.671-2.373,2.375-2.67c0-0.296-0.298-0.296-0.298-0.594c0-0.891,3.553-7.41,5.334-8.303
	c6.53-9.793,8.608-5.935,12.754-17.501c-0.218,0-0.28-0.157-0.288-0.245c0.191,0,2.452-9.41,4.443-19.631
	c-1.484-0.892-1.781-1.782-1.781-3.265c0-0.892,0-1.773,0.297-2.367c0-5.044-2.968-3.858-2.968-9.793
	c0-0.892,0.594-2.375,1.187-2.375c-0.89-0.296-1.187-2.366-1.187-2.663c0-1.187,0.89-2.077,1.484-2.67
	c-1.484-1.188-2.662-0.892-2.959-2.671c0-1.187,0-1.486,0.297-2.375c0,0-0.594-1.187-0.891-1.484c0.594,0-4.452-0.593-4.452-8.598
	c0-0.595,0-1.188,0.297-1.782c0,0,1.484-8.013,4.155-8.598c3.85,0,2.366,0.882,4.74,3.257c0.297-0.593,0.89-0.593,2.078-1.782
	c5.281,0,6.791,3.475,8.258,3.562c0.401,0.218,5.98,2.714,5.98,5.936c-0.891,0,9.497,22.54,9.497,22.836c0,0.89,0,1.475-0.585,2.069
	c0.009,0,0.035,0.017,0.061,0.061l-2.383,0.593c-0.401-0.968-0.83-2.042-1.301-3.248c0.498,0.377,1.013,0.665,1.536,0.822
	c-2.347-4.174-9.514-17.982-10.405-21.247c-0.026,0.087-0.096,0.191-0.28,0.191c-0.296,0-0.296-0.89-0.889-0.89
	c0,0.419,0.296,0.691,0.471,0.82c-0.515-0.313-0.76-0.837-0.76-1.117c0,0,0-0.296,0.289-0.296V11.27
	c-0.289,0-0.289,0.297-0.585,0.297c-0.297,0-0.594-0.297-0.594-1.187c0,0,1.179-0.296,1.475-0.296c0.593,0,1.188,1.186,1.484,1.779
	c-0.296-1.186-0.593-2.671-1.78-2.671c-0.289,0-0.585,0.296-0.882,0.296c0,0.892-3.265-5.044-6.53-5.044h-0.593
	c0.89,0,1.78,0.593,1.78,1.483v0.296c-0.89,0-1.483-0.889-2.374-1.186c-0.297,0.297-1.483,0-1.483,0.89c0,0,0.296,0,0.296,0.296
	c-3.265,0-4.155-1.186-5.63-3.559c0,0.889,0.881,1.483,0.881,2.373c-0.288,0-0.288,0.297-0.288,0.297V5.037l-0.297,0.297
	c0,0.593,2.663,0.889,2.663,1.781c0,0.297,0,0.297-0.297,0.594c2.889,0.576,1.283,2.557,2.008,4.303
	c-0.079-0.07-0.228-0.149-0.524-0.149c-0.297,0.297,0,0.891-0.89,1.187c0.593,0.593,1.186,1.188,1.186,1.782
	c0,0.297-0.296,0.297-0.296,0.585c-0.89-0.585-3.265-2.96-3.553-5.037c0,0.593-0.89,0.593-1.484,0.593
	c-0.297-0.593-0.297-0.889-0.891-1.485c0,0.297-0.296,0.596-0.296,0.892c0,0.227,2.182,5.822,5.289,9.087
	c0.045,0.306,0.045,0.628,0.045,0.995c0.218-0.219,0.279-0.437,0.288-0.655c0.593,0.576,1.213,1.057,1.85,1.396
	c-0.262-0.087-0.576-0.148-0.952-0.148c-0.296,0-0.89,0.296-1.78,0.595c1.187,0,3.858,0,3.858,1.483h-0.593
	c0.296,0.297,0.296,0.89,0.296,1.187c0,0.593-0.296,1.188-0.296,2.078c0,0.593,0.296,1.187,0.89,1.78
	c-0.297-0.296-0.297-0.89-0.297-1.483c0-0.594,0-1.485,0.297-2.079c0.594,1.189,0.594,2.079,0.891,3.562
	c-0.891,0,0,0.297-0.891,0.297c0.297,0.595,0.594,1.476,0.594,2.07v0.296c-0.891-1.771-1.484-1.178-2.672-2.663
	c0.298,1.188,1.188,2.96,1.188,3.85v0.593c1.187,1.188,2.077,2.078,2.077,3.265c0,0.297-0.296,0.593-0.296,0.89
	c-0.891-1.483-1.781-3.263-2.969-3.56c3.859,5.935,2.078,2.67,2.969,11.268c-0.297,0-0.594,0-0.594,0.298c0,0,0.14,0.27,0.314,0.357
	c-0.017,0.044-0.017,0.114-0.017,0.237c0,0.593,1.78,0,1.78,0.89c-0.89,5.937-1.78,12.465-3.264,17.205
	c-0.593,0-1.485,2.968-1.485,4.453c0,0.297,0,0.593,0.297,0.593c-3.858,13.347-6.521,8.599-13.347,18.689v0.297
	c0,1.179-4.452,5.63-4.452,6.52c5.936-6.223,8.608-9.487,13.06-14.829c-4.156,7.717-6.233,8.013-12.169,14.829
	c0,5.047-7.411,5.344-9.192,10.083c2.671-1.771,5.936-5.036,8.598-6.817c0.297,0,0.297,0.296,0.297,0.296
	c0,0.297-0.594,0.596-0.594,0.893c0.297,0,0.297,0.296,0.297,0.593c0,1.78-3.256,3.265-4.443,4.443c0,0.297-2.374,1.483-2.671,1.483
	v0.892v1.483c0.917-1.598,3.404-2.672,5.316-3.895l0.026,0.036v0.297c0,1.482-2.967,1.187-3.561,2.078
	c0.645,0,1.3-0.229,1.946-0.481l0.079,0.244c-0.218,0.053-0.402,0.132-0.542,0.237c0.891,0,1.781,0.297,2.672,0.297
	c8.005,0,13.05-3.851,16.603-7.115c-2.069,2.672-4.74,5.036-9.489,6.223c0.297,0,0.297,0,0.297,0.297l-0.297,0.299
	c1.781,0,3.859-1.485,5.639-1.485c-1.483,0.89-3.858,1.485-5.936,2.375c0.297,0.297,0.594,0.297,0.891,0.297
	c0.89,0,1.484-0.89,3.265-1.187c0,0.06-0.027,0.104-0.07,0.138c-0.166,0.062-0.349,0.114-0.524,0.159c0,0,0.384,0,0.524-0.159
	c3.299-1.029,5.761-3.813,6.887-6.066c-1.484,0.594-3.256,3.554-5.037,3.554c3.85-2.96,6.225-6.818,9.489-10.677
	c0,2.375-3.562,4.452-3.562,6.233v0.594c0.298,0,0-0.594,0.298-1.187c0.297,0,0.297,0.296,0.297,0.296
	C37.973,86.91,42.712,75.928,45.977,61.69c0.297,0.593,0.297,1.187,0.297,1.78v2.671c0,0.594,0,1.187,0.297,1.485
	c0-1.781,0-3.562,0.297-5.344c0.594,0,0,0.297,0.594,0.297c-0.594-0.89-0.594-1.779-0.594-2.373V58.73
	c0.89,0.297,0.89,0.881,1.781,1.773c-0.298-1.773-1.781-2.664-1.781-4.742c2.374,2.969,2.968,7.412,5.045,10.084
	C58.731,70,59.621,79.193,63.479,86.018c0.298,0.297,1.188,0.297,1.188,1.188H64.37l0.297,0.297c0.035,0,0.061-0.009,0.087-0.027
	c-0.052,0.089-0.087,0.185-0.087,0.324c1.484,0.297,2.374,1.178,2.67,2.661c0.892,0,0.595,0.299,1.782,0.299
	c0.593-0.299,1.475-1.189,2.365-1.189c0.298,0,0.594,0,0.891,0.298c0-0.298,0.593-0.891,0.89-1.187
	c0.594,0.889,1.78,0.296,1.78,0.889v-0.296c0-0.297-0.593-0.593-0.593-0.89l0.297-0.288c0.891,0,0.891,0.585,1.188,0.585
	c0.506-0.751-0.07-1.511,0.488-2.087c0.035,0.019,0.07,0.019,0.105,0.019c0,0,0.297,0,0.297-0.299
	c-0.174,0.089-0.306,0.185-0.402,0.28c-0.253-0.052-0.488-0.315-0.488-0.577c0.296-0.593,0.296-1.482,0.296-2.076
	c0-1.187-0.296-2.078-0.296-2.969c0-1.326,0.034-2.627,0.087-3.893l0.803,0.035c0.07,0.104,0.148,0.227,0.244,0.366
	c0.402,0.655,0.829,1.413,1.38,2.087c0,0.008,0.008,0.018,0.008,0.018c0.131,0.182,0.245,0.34,0.323,0.428
	c0.078,0.086,0.122,0.123,0.122,0.069c-0.026-0.027-0.044-0.044-0.069-0.069l0.689-0.036c0.516,1.292,1.065,2.515,1.458,2.777V82.16
	c0.89,0,1.483,2.672,2.959,2.672h0.297c0.593,0,1.484,0.593,1.781,1.186v-0.234c0.759,0.305,7.315,1.72,8.904,1.72l0.296-0.297
	h1.188c0-0.296,0.297-0.593,0.594-0.593l0.296,0.297c0,0,5.63-3.563,6.521-3.859c0.892,1.781,1.78,3.859,3.562,4.749
	c0.297-0.297,0.297-0.594,0.297-0.89v-1.188c0-0.297,0-0.594,0.297-0.89c0.298,0,0,0.89,0.593,0.89c0.297,0,0.297-0.89,0.297-1.78
	c0.246,0,0.683,0,0.996,0.33c0.043,0.09,0.104,0.176,0.192,0.264c-0.053-0.104-0.123-0.201-0.192-0.264
	c-0.104-0.207-0.104-0.417-0.104-0.627c0-1.484,1.78-2.078,2.078-3.562V73.85c0-0.584,0.296-1.475,0.296-2.068l2.365-0.018
	c0.035,3.334,0.298,6.417,0.298,9.506c0,1.188-0.298,2.375-0.298,2.969s0,0.89,0.298,1.187c0.296,0,0.296,0.593,0.89,0.593
	c0.297,0,0-0.593,0.594-0.593h0.297c-0.594,0-0.594,0.593-0.594,0.89c0.471,0.473,0.75,0.752,1.144,0.848
	c-0.253-0.087-0.253-0.252-0.253-0.252c0-0.596,0-1.485,0.594-2.078v2.078c0.297-0.893,1.188-0.893,2.375-1.485
	c-0.297,0.297-0.297,0.593-0.297,0.593c0,0.596,0.593,0.893,1.186,1.188V86.91c0.297,0,0,0.89,0.297,0.89l0.297-0.297
	c0-0.297-0.297-0.297-0.297-0.297V86.91c0.297,0.296,0.594,0.296,0.594,0.296c1.781,0,0.595-4.155,1.484-4.155
	c0.297,0,0.297,0.297,0.594,0.594c0.297-0.89,0.297-1.781,0.297-2.672c0-0.559,0-1.116-0.07-1.746l2.443-0.033
	c0.298,0.594,0.298,1.482,0.298,2.373c0,1.484,0.594,1.781-1.483,6.233c0,0,4.146,0,9.191,5.036
	c-0.594-1.187-0.594-2.076-0.594-2.375c0-0.593,0-0.891,0.594-1.483c-0.243-0.497-0.497-0.777-0.567-1.203c0,0,0.009,0,0-0.011
	c0.157-0.565,1.065-7.681,6.206-7.681c0,0,4.146-1.188,8.896,3.562c0.881-0.584,3.221-2.636,4.703-2.663
	c-0.043,0.062-0.017,0.054,0.045-0.009c-0.018,0-0.025,0-0.045,0.009c0.254-0.437,3.362-3.866,10.127-3.866
	c14.237,0,19.58,8.013,19.58,32.332c0,8.6-0.297,11.865-1.781,15.128c0.298,1.188,1.484,2.969,1.484,4.453
	c0,0-0.297,0.297-0.297,0.594c0.149,0.078,0.262,0.131,0.342,0.183l-2.418,1.004c-0.892-0.297-1.484-0.297-2.375-0.297
	c0.594-0.593,1.483-0.89,1.779-1.483c-0.872-0.288-0.889-1.423-1.169-2.584c0.079,0.087,0.166,0.156,0.28,0.209
	c0,0,0-0.296-0.297-0.296c0.009,0.025,0.017,0.061,0.017,0.087c-0.313-0.314-0.313-0.795-0.313-1.274
	c0-0.595,0.297-1.781,0.297-2.671v-0.595c0.594-0.296,0.594-0.592,0.594-0.891c0-0.297,0-0.594-0.297-1.187
	c0.889-0.298,0.889-3.257,0.889-8.302c0-21.955-2.374-31.442-14.83-31.442c-1.432,0-5.081,1.108-7.193,1.989
	c0.043-0.043,0.08-0.111,0.08-0.209h-0.297c-1.188,0.297-0.298,0.892-1.188,1.188v-0.296c-3.265,1.483-5.935,3.858-8.31,5.927
	c-0.297-2.367-1.484-3.257-3.266-3.85c0,0.593,0.594,0.593,0.594,0.89v0.296c-1.484-2.076-4.146-2.076-5.631-3.263
	c-0.297,0.296-0.891,0.89-1.186,1.187c0,0.891,0.295,1.78,0.295,2.373c0,0,0,0.596-0.592,0.596c-0.299,0,0-0.596-0.299-0.596
	c0,0-0.593,1.188-0.89,1.485c1.485,2.661,2.374,5.927,2.671,8.895c-0.593,0-0.891-1.483-0.891-2.076
	c0-0.596-0.295-0.596-0.295-0.596C138.823,94.32,139.118,94.914,139.118,94.914 M79.795,87.8c0.89,0,0.89,0,1.187-0.594
	c-0.297,0-0.891-0.296-0.891-0.892C80.091,86.91,80.091,87.206,79.795,87.8"/>
<g>
</g>
<g>
</g>
<g>
</g>
<g>
</g>
<g>
</g>
<g>
</g>
</svg>
