<?xml version="1.0" encoding="utf-8"?>
<!-- Generator: Adobe Illustrator 16.0.3, SVG Export Plug-In . SVG Version: 6.00 Build 0)  -->
<!DOCTYPE svg PUBLIC "-//W3C//DTD SVG 1.1 Basic//EN" "http://www.w3.org/Graphics/SVG/1.1/DTD/svg11-basic.dtd">
<svg version="1.1" baseProfile="basic" id="Layer_1"
	 xmlns="http://www.w3.org/2000/svg" xmlns:xlink="http://www.w3.org/1999/xlink" x="0px" y="0px" width="271.633px"
	 height="129.036px" viewBox="0 0 271.633 129.036" xml:space="preserve">
<style type="text/css">
<![CDATA[
	.narcon_1{fill:#072B31;}
]]>
</style>
<g>
	<path class="narcon_1" d="M253.226,41.021c0.268,0,0.529,0.262,0.529,0.262c-0.529,0-1.843,0.528-2.366,0.528
		C251.389,41.55,252.441,41.021,253.226,41.021"/>
	<path class="narcon_1" d="M228.512,49.963c0,0.89-0.047,1.638-0.104,2.287c-0.111-0.235-0.163-0.471-0.163-0.712
		C228.245,51.015,228.512,50.486,228.512,49.963"/>
	<path class="narcon_1" d="M196.165,39.445c0,0.042-0.006,0.037-0.021,0H196.165z"/>
	<path class="narcon_1" d="M195.38,38.132h0.262c-0.1,0.099-0.157,0.156-0.199,0.198c-0.157-0.114-0.346-0.193-0.571-0.198H195.38z"/>
	<path class="narcon_1" d="M195.442,38.33l-0.063,0.063c-0.166,0-0.334-0.094-0.508-0.261C195.097,38.137,195.285,38.216,195.442,38.33"
		/>
	<path class="narcon_1" d="M189.275,43.921c-0.152,0.011-0.335,0.1-0.581,0.325c-0.089-0.047-0.151-0.068-0.151-0.068
		S188.788,43.932,189.275,43.921"/>
	<path class="narcon_1" d="M187.752,49.963h-0.528l0.46-0.461C187.752,49.565,187.752,49.695,187.752,49.963"/>
	<path class="narcon_1" d="M185.386,51.015c0,0,0-0.173,0.142-0.235C185.443,50.92,185.386,51.015,185.386,51.015"/>
	<path class="narcon_1" d="M184.015,52.507l0.057,0.084C183.889,52.591,183.957,52.591,184.015,52.507"/>
	<path class="narcon_1" d="M179.601,52.329h0.524c-0.073,0-0.142,0.005-0.205,0.016C179.737,52.329,179.601,52.329,179.601,52.329"/>
	<path class="narcon_1" d="M172.236,42.335v0.262c0,0-0.068-0.104-0.157-0.256C172.131,42.335,172.183,42.335,172.236,42.335"/>
	<path class="narcon_1" d="M146.73,43.916c-0.522,0-0.522,0-0.522-0.267c0-0.261,0.261-0.785,0.522-1.052
		c0.263,0.267,0.263,0.267,0.263,0.529C146.993,43.388,146.73,43.649,146.73,43.916"/>
	<path class="narcon_1" d="M138.58,47.597c0,0.084-0.026,0.162-0.063,0.246c-0.036-0.017-0.077-0.031-0.12-0.048
		C138.454,47.733,138.512,47.664,138.58,47.597"/>
	<path class="narcon_1" d="M138.58,48.648c-0.461,0-0.921,0.199-1.031,0.251c0.439-0.23,0.497-0.654,0.848-1.105
		c0.043,0.017,0.084,0.032,0.12,0.048c-0.072,0.178-0.198,0.362-0.198,0.544L138.58,48.648z"/>
	<path class="narcon_1" d="M127.011,49.963c0.522-0.529,1.052-0.529,1.837-1.053C128.587,49.963,127.533,49.434,127.011,49.963"/>
	<path class="narcon_1" d="M122.305,48.382c-0.011,0.005-0.016,0.005-0.026,0.005l-0.267-0.267
		C122.116,48.204,122.21,48.293,122.305,48.382"/>
	<path class="narcon_1" d="M101.238,34.975c0.791,0,1.314,0.523,1.844,0.791C102.029,35.766,101.238,35.766,101.238,34.975"/>
	<path class="narcon_1" d="M89.67,46.021c0.262,0,0.523,0,0.523,0.262c-0.262,0-0.785,0.523-1.314,0.523
		C88.879,46.283,89.408,46.021,89.67,46.021"/>
	<path class="narcon_1" d="M42.184,12.705c0.073,0.146,0.156,0.293,0.156,0.445c0,0,0,0.12-0.083,0.194
		C42.204,13.093,42.184,12.878,42.184,12.705"/>
	<path class="narcon_1" d="M41.586,12.747c0.115,0.22,0.487,0.444,0.487,0.665C41.765,13.412,41.639,13.051,41.586,12.747"/>
	<path class="narcon_1" d="M41.55,13.936l0.262-0.262c0.261,0,0.261,1.315,0.79,1.315l-0.261,0.266
		C41.812,15.254,41.55,14.463,41.55,13.936"/>
	<path class="narcon_1" d="M32.085,22.086c-0.11,0.11-0.262-0.131-0.419-0.439C31.849,21.819,31.985,21.987,32.085,22.086"/>
	<path class="narcon_1" d="M26.991,4.67c-0.188-0.23-0.366-0.481-0.534-0.754C26.661,4.109,26.876,4.319,26.991,4.67"/>
	<path class="narcon_1" d="M235.349,84.938c0,0-0.079-0.006-0.214-0.026c-0.017,0.01-0.037,0.021-0.053,0.026H235.349z"/>
	<path class="narcon_1" d="M219.309,54.695l0.262-0.262c-2.366-3.68-9.732-1.842-13.674-3.947c-2.895,1.052-7.365,7.104-7.365,10.785
		c0,4.994,4.999,11.568,10.784,11.568c6.837,0,10.517-9.464,10.517-14.987c0-1.843-1.313-2.895-1.576-4.209
		C218.519,53.904,218.779,54.695,219.309,54.695 M216.676,58.375c0,0.528-0.785,0.791-0.785,1.581l-0.529,0.785
		c-2.104,9.471-2.366,6.574-6.837,8.68c-3.68-1.314-5.784-3.68-6.837-8.15c0-1.315,2.628-5.786,4.209-7.367
		c1.838,0.529,10.779,0.267,10.779,4.209V58.375z"/>
	<path class="narcon_1" d="M217.204,77.311c-0.267,0-0.791,0.263-0.791,0.79c0.524,0,0-0.527,1.313-0.527
		C217.727,77.311,217.466,77.311,217.204,77.311"/>
	<path class="narcon_1" d="M183.8,81.535c0.121-0.089,0.246-0.185,0.372-0.278c-0.032-0.005-0.063-0.005-0.1-0.005
		C183.982,81.341,183.889,81.435,183.8,81.535"/>
	<path class="narcon_1" d="M183.8,81.535c-2.413,1.8-4.812,3.479-6.565,4.717C180.229,86.252,182.046,83.397,183.8,81.535"/>
	<path class="narcon_1" d="M144.365,69.944c0,0.529,0.522,1.843,1.313,2.371C145.417,71.263,145.417,70.474,144.365,69.944"/>
	<path class="narcon_1" d="M117.541,83.623c0-0.528,0-1.317-0.524-1.842C117.017,82.306,116.755,83.623,117.541,83.623"/>
	<path class="narcon_1" d="M90.723,66.794c-1.315,0.789-1.843,2.627-2.628,4.469c1.575,1.314,3.68,2.367,5.784,2.367
		c0.785,0,1.576-0.262,2.365-0.528c0,0.528-0.528,0.528-0.528,0.528c3.157,0,5.523-2.895,7.89-4.998
		c-2.629-1.049-6.047-2.367-9.465-2.367C93.088,66.265,91.774,66.265,90.723,66.794 M97.559,69.944c0,0-0.528,0-0.528,0.529
		c-0.263-0.262-1.838-0.529-1.838-0.529c-0.262,0.529-0.791,0.529-1.313,0.529c-0.268,0-1.844,0-1.844-0.529
		c0-0.262,0.791-0.785,2.366-0.785C95.192,69.159,96.768,69.421,97.559,69.944"/>
	<path class="narcon_1" d="M94.141,58.903c-1.314,0-2.895,0.524-3.418,1.053c1.837-0.529,4.208-0.529,6.045-0.529
		C96.244,59.167,95.192,58.903,94.141,58.903"/>
	<path class="narcon_1" d="M53.381,63.637c1.052,1.313,1.843,3.681,3.157,4.472C55.747,66.265,55.224,64.16,53.381,63.637"/>
	<path class="narcon_1" d="M34.713,89.932c-0.791,1.052-1.314,1.843-1.843,3.155C33.922,92.298,34.713,90.983,34.713,89.932"/>
	<path class="narcon_1" d="M265.848,92.826c0.266-0.528,0.266-1.052,0.266-1.317c0-1.578-0.79-3.943-0.79-4.205
		c0,0.523,6.31-15.517,6.31-32.872c0-1.58,0-2.894-0.263-3.679c-1.314-6.052-9.993-13.15-16.302-13.15
		c-4.999,0-10.255,1.842-9.994,1.842c-1.837,0.523-3.155,1.315-4.731,2.367c-3.418-4.471-8.413-5.524-8.68-5.524
		c-6.837,0-7.099,7.889-7.099,7.889v-0.261c0,1.052-0.523,2.366-0.523,3.68c-4.471-4.47-8.418-7.099-14.988-7.099l-0.528-0.529
		c-0.523,0-0.791-0.523-2.104-0.523c-3.418,0-5.784,1.838-7.36,1.838c0-0.786,0.523-1.053,0.523-1.838
		c0-3.419-8.151-10.783-9.203-11.308c-3.681,0-6.836-3.156-10.517-3.156c-0.791,0-1.843,0.529-1.843,0.262l-0.262-0.262
		c-0.785,0.262-1.837,0.262-2.628,0.262h-2.896c-21.563,0-29.714,16.04-29.714,19.196c-0.262,0.529-0.262,1.053-0.262,1.315
		c-3.68-1.838-3.68-1.838-6.046-1.838c-8.151,0-4.209,1.838-9.203,1.838c-1.052-2.628-10.522-3.681-10.522-3.942h0.268
		c-0.529-0.529-1.581-1.052-1.843-1.052c-2.105,0-4.994,1.836-4.994,5.522c0,0.791,0,1.838,0.262,2.366
		c-0.262,0-0.262-0.528-0.791-1.052c-0.524-0.523-1.313-0.791-1.838-1.842c1.838,0,3.942-4.471,3.942-4.994
		c0-5.262-5.522-8.152-5.522-8.68h0.262c-3.942-1.838-5.786-2.1-10.25-2.1c-0.791,0-2.372,0.262-3.947,1.315
		c-0.523-1.053-6.047-1.315-8.941-1.315c-3.68,0-4.733,1.576-4.995,1.315v-0.791c0-4.471-4.208-6.836-4.208-6.836
		c-0.524-0.53-1.052-0.53-1.576-0.53h-0.262c-0.79-2.366-2.371-4.732-5.523-4.732c-4.208,0-6.051,3.418-6.051,5.784
		c0,0.268,0,0.529,0.268,0.791c-1.053,3.947-1.053,8.68-1.053,13.674c0,0.79,0.523,1.842,0.523,2.628
		c-0.523,0-0.791,0.79-1.314,1.313c-0.522-0.523-2.628-5.779-4.209-5.779c0-0.529,0.791-0.791,0.791-2.104
		c0-5.261-8.941-16.04-8.941-23.929c-1.576-1.581-2.366-5.523-6.309-5.523c0-0.791-3.685-3.947-7.627-3.947
		c-1.843,0.529-1.843,1.842-2.895,1.842C29.714,1.052,27.613,0,25.248,0c-2.371,0.528-2.371,2.366-2.371,5.784
		c0,0.529,0,0.529,0.528,0.791c-1.313,1.052-2.628,1.313-2.628,3.68c0,7.366,4.732,8.679,4.471,8.679
		c0.523,0.525,0.523,1.053,0.784,1.315c-0.261,0.523-0.522,1.052-0.522,1.575c0,2.895,1.313,2.366,3.418,3.419
		c-1.314,0.267-1.842,2.366-1.842,3.685c0.527,0.524,0.527,1.314,0.79,1.837c-0.528,0.791-1.053,1.315-1.053,2.368
		c0,0.79,0.263,1.313,0.79,1.841v0.524c1.838,3.419,2.367,4.209,2.367,4.999c0,1.053-0.79,2.367-0.79,4.995
		c0,1.313,0.523,2.104,1.842,3.156C24.72,86.513,21.83,73.101,13.94,85.462c-4.209,4.209-6.052,10.516-6.576,10.516v-0.522
		C6.837,95.716,0,100.71,0,103.866c0,3.42,2.365,6.575,4.209,6.575c2.104,0,6.837-1.313,10.517-1.313
		c0.79,0.785,2.104,0.785,3.157,0.785c1.052,0,1.842,0,2.366-0.262c0.528,0,0.528,0.262,0.79,0.262
		c5.874-0.938,10.276-7.329,11.145-8.686c3.513-0.454,14.114-25.273,15.674-29.965c1.053-0.527,2.105-2.104,2.896-2.104
		c6.575,3.68,4.209,13.674,10.517,19.98c0,2.551,2.796,4.129,5.003,4.981c0.667,1.986,1.267,3.859,1.799,5.63
		c2.231,7.844,6.225,14.547,8.858,21.174c0.472,0.469,1.016,2.836,2.569,3.582c0.066,1.895,1.761,2.709,3.588,2.709
		c0.27,0,0.605-0.142,0.948-0.142c0.201,0.208,0.941,0.343,1.351,0.343c3.449,0,5.277-4.463,5.344-4.738
		c0.47-1.418,2.702-3.045,2.702-5.681c0-0.269,0-0.538-0.067-0.813c0.478-1.148,1.218-1.955,1.218-3.11c0-0.203,0-0.337-0.068-0.539
		c2.44-6.562,2.164-10.553,4.806-15.896c0.27-0.539,0.27-1.217,0.403-1.754c0.588-2.019,1.676-4.299,1.755-5.608
		c0.483,0.349,1.009,0.667,1.56,0.937c-1.963,1.963-1.896,9.336-1.896,13.053c-0.74,1.356-0.673,5.888-0.807,8.388
		c-0.208,2.575-0.478,5.21-0.478,7.979c0,0.946,1.896,6.902,4.531,6.902c0.134,0,0.274,0,0.409-0.066
		c0.403,0.201,0.74,0.269,1.149,0.269c0.881,0,1.554-0.679,2.231-0.679c3.247-0.538,3.919-3.105,4.8-6.426
		c0.403-1.608,0.544-3.309,0.587-4.953c0.073,0.869,0.25,1.761,0.495,2.654c-0.066,0.135-0.066,0.342-0.066,0.477
		c0,2.433,1.692,5.143,3.111,5.143c0.537,1.148,3.112,1.82,3.784,1.753c6.634-0.47,4.127-18.53,5.619-19.948
		c0.807-0.746,3.179-2.642,3.179-2.642c0.74,0.41,1.553,0.61,1.957,0.88c0.207,0.68,0.275,1.419,0.275,2.165
		c0,0.544-0.068,0.946-0.068,1.351c0,0.879,0.337,1.424,0.337,2.506c0,5.546-0.202,9.397-0.202,10.009
		c0,1.694,0.067,3.651,0.881,4.666c0.873,2.641,1.688,5.276,4.664,5.276c0.404,0,0.746-0.135,1.082-0.27
		c0.472,0.27,0.882,0.336,1.353,0.336c1.761,0,3.247-1.895,3.247-3.38c0-0.202-0.068-0.338-0.068-0.538
		c0-0.141,0.068-0.344,0.068-0.479c0-0.471-0.135-0.879-0.337-1.35c0.066-0.068,0.066-0.404,0.066-0.545
		c0-0.402-0.066-0.874-0.202-1.216c0.136-0.604,0.539-1.485,1.083-2.972c0.874-2.305,1.62-7.851,1.688-8.933
		c0.135-1.553,0.342-3.852,0.342-5.948c0-0.074,0-0.147-0.006-0.222c0.734,0.337,1.663,0.49,2.709,0.49
		c0.471,0,0.948-0.067,1.351-0.136c-0.201,3.65-0.402,7.441-0.402,11.025c0,2.774,2.298,8.656,5.343,8.926
		c2.03,1.082,4.8,2.164,6.896,2.164c0.948,0,1.829-0.203,2.643-0.336h0.066c3.313,0,5.068-2.844,5.547-5.345
		c0.402-0.471,0.672-1.014,0.812-1.619c0-0.251,0-0.501-0.03-0.753c0.856,2.41,2.164,4.422,3.815,5.082
		c1.284,1.686,3.112,2.903,4.731,2.903c0.344,0,0.68-0.067,1.016-0.201c1.284,0.472,3.589,0.948,4.463,0.948
		c0.881,0,1.559,0.201,2.642,0.201c2.164,0,4.598-1.217,4.598-1.217c1.828-1.016,5.479-1.486,5.888-3.718
		c2.165-1.291,4.188-1.962,4.188-3.723c1.761-0.882,2.098-4.06,2.098-4.733c0-1.761-0.948-3.044-2.771-3.044
		c-1.828,0-3.381,1.761-3.589,1.761c2.506-2.031,4.47-3.724,4.536-5.074c0.606-0.478,0.948-1.217,0.948-2.03
		c0-0.948-0.275-2.099-0.478-2.709c0-0.136,0.067-0.269,0.067-0.47c0-1.963-1.082-2.635-1.082-3.045
		c-0.269-1.754-0.813-2.635-0.947-3.045c-0.605-1.822-3.313-3.381-4.194-4.33c-0.629-0.688-1.885-1.149-3.239-1.451
		c2.245-2.457,4.693-5.394,5.061-8.725c2.105,1.318,6.053,2.894,8.681,2.894c0.522,0,0.79-0.523,0.79-0.523
		c1.052,0,2.628,0.785,4.732,0.785c8.412,0,10.778-8.149,10.778-7.622c1.053-0.527,1.843-1.052,2.895-1.843
		c-0.261,0.524-0.261,0.791-0.261,1.053c0,7.407,7.602,8.737,8.989,8.915c11.747-4.795-0.294-32.582,14.935-32.582
		c2.104,0.523,1.319,6.837,2.104,9.465c0,6.574-0.262,17.091-0.262,19.987v0.522c0,1.319-0.262,2.633-0.262,3.949
		c0,5.256,2.89,11.567,10.518,11.567c1.842,0,4.208-2.894,4.208-4.209C266.376,93.089,265.848,93.089,265.848,92.826
		 M113.599,44.439c1.843,0,0.791,0.791,1.576,1.315c0,0,0.267,0,0.267-0.262c0-0.262-0.528-0.791-0.528-1.576
		c2.104,2.628,5.784,1.576,7.098,4.204c1.053-0.524,1.053-1.047,2.367-1.047c-0.775,0-1.305,1.282-2.074,1.309
		c1.32,1.282,1.55,2.894,1.55,2.894c1.838-0.79,3.157-2.366,5.523-2.628v0.524c0,0,1.052-0.524,2.89-1.576v0.524
		c0.267,0,0.529-0.262,0.79-0.262c0.262,0,0.524,0,0.791,0.262c0-0.524-0.267-0.524-0.529-0.524h-0.785
		c0.785-0.261,1.838-0.523,3.151-0.523c0.995,0,1.985,0.413,2.712,0.723c0.058-0.064,0.115-0.132,0.184-0.2
		c0,0.084-0.026,0.163-0.063,0.247c0.376,0.156,0.675,0.277,0.854,0.277c-0.529,0.528-0.529,0.528-0.791,0.528
		c0,0.524-0.262,0.524-0.528,0.524c-0.786,0-1.838-0.262-2.628-0.262c0,0.791,3.947,3.419,3.418,3.419
		c-0.262,0.262-0.262,0.523-0.262,0.79c0,1.576,1.313,1.576,1.313,1.838c-0.522,0.79-1.842,0.79-2.366,1.319
		c0,0.785,1.314,1.314,1.844,1.314l-0.268,0.261c0,0.262,0.529,0.262,1.052,0.262h-0.784c-1.319,0.523-2.634,1.314-4.472,1.314
		c-0.79,0-1.318-0.261-1.843-0.261c-5.381,0-7.443,3.329-8.218,7.401c0.042-0.564,0.066-1.109,0.066-1.617
		c-0.527,0.262-0.79,0.529-0.79,1.053c0,0.262,0.263,0.528,0.263,0.791c-0.524,4.469-0.785,10.516-0.785,14.459
		c0.261-1.316,0.261-3.419,0.261-3.943c0.262,1.053,0.262,1.838,0.262,2.89c0,0.791,0,1.582-0.262,2.372
		c0-0.268-0.261-0.268-0.261-0.268c-0.791,0-0.791,3.949-1.582,3.949c-0.261,0-1.036-0.52-1.052-0.269
		c-0.011-0.151-0.058-0.319-0.262-0.522v0.791c-0.262-0.263-1.052-1.054-1.052-1.582l0.267-0.263
		c-1.053,0.528-1.843,0.528-2.371,1.054v-1.315c-0.524,0-0.524,0.79-0.785,1.315c0.063,0.125,0.108,0.219,0.15,0.287
		c-0.15-0.146-0.345-0.287-0.68-0.287c0-0.525,0-1.054,0.529-1.315c-1.053,0-0.529,0.79-1.053,0.79
		c-0.528-0.266-0.528-0.79-0.528-0.79c-0.262,0-0.262,0-0.262,0.262c-0.263-0.522-0.523-0.785-0.523-1.313
		c0-1.576,0.523-3.158,0.523-4.732c0-3.157-0.263-6.047-0.263-9.203c0-1.314,0-2.628,0.263-4.209c0-0.523,0-0.523-0.523-0.523
		c0-1.052,0.261-2.105,0.261-3.157c0-4.732-1.313-9.994-1.58-14.988c0.79,0,0.79,0.523,0.79,0.791c0.262,0,0.262-0.268,0.262-0.529
		C114.122,46.021,113.599,45.23,113.599,44.439 M124.414,70.688c-0.026,0.817-0.036,1.622-0.036,2.413v3.686
		c-0.263-0.527-0.263-1.318-0.263-2.105C124.115,73.483,124.252,72.101,124.414,70.688 M121.226,86.774
		c-0.319-0.313-0.256-0.534-0.267-0.774C120.965,86.257,121.226,86.519,121.226,86.774 M117.541,85.99
		c-0.179,0.088-0.293,0.058-0.403-0.026C117.227,85.99,117.347,85.99,117.541,85.99 M111.756,65.741
		c0.193,0,0.247-0.142,0.262-0.425c-0.042,1.026-0.173,2.325,0.529,2.791c-0.523,0.524-0.791,1.575-0.791,2.104
		c0,0.262,0,0.262,0.268,0.262h0.262c0,0-0.262-0.262-0.262-0.529c0.262,0.268,0.523,0.529,0.523,0.791
		c0,0.79-0.523,1.842-0.523,2.365c0,0.791,0.262,2.634,0.262,3.947c0,2.135-1.288,2.982-1.963,4.021
		c-1.097-0.479-2.022-0.703-2.076-0.729c-2.164-0.679-3.516-2.5-6.902-2.5c-1.822,0-3.785,1.351-3.785,3.111
		c0,0.337,0,0.605,0.135,0.875c-0.269,0.273-0.403,0.88-0.403,1.29c0,0.537,0.202,1.082,0.471,1.554
		c0.017,0.139,0.073,0.314,0.146,0.504c-0.214,0.144-0.349,0.25-0.349,0.289c-0.262,0-0.528-0.263-0.528-0.263
		c-0.263,0-0.263,0.522-0.263,0.791c-0.261,0-1.052-0.269-1.313-0.269c-0.523,0,0,0.269-0.523,0.269
		c-1.843,0-6.575-0.791-7.889-1.844c-0.529,0-0.79,0-0.79,0.262c-0.524-0.262-1.315-0.785-1.844-1.313c0,0.528,0,0.528-0.262,0.528
		c-1.313,0-2.104-2.633-2.889-2.633v0.263c-0.269-0.263-2.896-5.257-2.896-6.31c0-9.202,8.413-16.307,16.569-16.307
		c2.366,0,5.256,1.32,7.622,1.32c0-1.32-0.523-2.628-1.314-3.68c0,0.524,0.529,1.314,0.529,2.36
		c-0.529-0.785-1.32-3.151-2.104-3.151c0,0-0.262,0-0.262,0.262c0-1.315-3.156-1.315-4.209-1.315c-2.895,0-8.94,1.844-12.098,1.844
		c-0.524,0-1.314-0.267-1.837-0.529c0,0,0.261,0,0.261-0.262h-0.79c0-0.528,0.529-0.528,0.529-0.528
		c0-0.262-0.791-0.262-0.791-0.525c0-0.261,0-0.261,0.262-0.528c-0.791,0-0.791,0-0.791-0.262v-0.261v-0.262
		c0.268,0,0.268-0.267,0.268-0.528v-0.786c0,0,0,0.524,0.523,0.524c-0.523-0.524,0-0.524-0.523-1.053
		c0,0.262-0.268,0.262-0.268,0.262s-0.261-0.262-0.522-0.262c0.79-2.366,4.993-3.68,8.679-4.994
		c-3.157,0.523-7.365,1.314-8.679,4.204c-0.263-0.263-0.524-0.263-0.524-0.523c0-0.53,3.942-5.262,14.721-5.262
		C106.233,44.701,111.756,54.957,111.756,65.741 M101.552,80.884c0,0.066-0.135,0.066-0.208,0.066h-0.404h-0.135
		c0.068-0.273,0.27-0.409,0.471-0.409c0.276,0,0.545,0.136,0.814,0.208c-0.067,0.135-0.067,0.201-0.135,0.201
		c-0.135,0-0.403-0.201-0.68-0.201h-0.134C101.209,80.884,101.417,80.815,101.552,80.884 M79.415,84.146
		c0.262,0,5.521,3.419,5.521,3.157c1.276,0,5.825,1.203,8.63,1.662c-1.955,1.19-3.417,4.981-4.329,6.86
		c-0.94,0.679-1.754,2.642-1.754,2.642c-0.679,0.813-2.575,4.06-3.516,7.576c-0.611-1.084-0.611-2.099-1.156-3.316
		c-1.521-3.401-2.776-7.008-4.136-10.57c1.072-0.934,1.791-2.344,1.791-4.592C80.467,86.253,79.415,85.722,79.415,84.146
		 M78.361,57.328c1.315,1.047,2.367,2.099,4.472,2.099h0.523c-2.367,1.843-2.628,3.418-3.941,4.733
		C79.415,62.06,78.361,59.689,78.361,57.328 M95.192,34.446c-0.262,0-0.791,0.528-1.843,0.528c0-1.841,2.896-0.261,3.418-1.841
		c3.68,0,7.366,0.79,8.418,3.155c0,0,0.262-0.262,0.524-0.262c0.262,0,0.523,0.525,0.523,1.053
		c-0.786-0.262-0.786-0.791-2.366-0.791c0,1.053,2.104,0.529,2.104,1.315c0,0-0.262,0.261-0.262,0.529
		c0.523,0,1.052,0.523,1.313,0.523c0,0.262-0.262,0-0.262,0.262c0.79,0.528,0.262,1.051,1.314,1.58
		c-0.524,0.263-1.053,0.786-1.843,0.786c0,0.79,0.528,0.79,0.79,1.313c-0.262,0-0.262,0-0.262,0.53
		c-0.262-0.262-0.528-0.262-0.79-0.262c-0.524,0-0.786,0.262-0.786,0.785c0-0.523-0.267,0-0.79-0.523l-0.262,0.261
		c0,0.262,0.785,0.79,0.785,1.052c-2.366-0.262-9.465-1.575-9.465-2.366c0-0.261,0.791-0.261,1.313-0.261
		c0-0.529-0.522-0.529-1.052-0.529c0.268-0.262,0.268-0.262,0.268-0.523c0-0.499-1.388-2.373-1.995-3.042l0.152,0.146
		c0.261,0,0.261,0,0.261-0.261l-0.261-0.262c0-0.262,0-0.262,0.261-0.262c0,0,0-0.262-0.522-0.262c0,0,0.262-0.266,0.522-0.266
		c0.529,0,1.582,0.79,2.629,1.052c0-0.786-2.89-1.052-3.942-1.838c1.313,0,1.313-0.791,2.628-0.791
		C95.454,34.713,95.454,34.446,95.192,34.446 M78.361,36.288c0.263,0.263,0.263,0.263,0.529,0.263c0.524,0,1.047-0.786,1.314-1.053
		c0-0.524-1.314,0.267-1.314-1.052c0,0.528,0.786,0,1.838,0.528c0-1.841,0.79-1.841,2.104-1.841c2.895,0,6.313,0.261,8.413,2.365
		c-1.053,0-1.314-0.524-1.839-1.052c-0.262,0.267-0.262,0.528-0.262,0.528c0,1.843,3.942,2.105,3.942,3.158
		c0,0.261,0,0.261-0.262,0.261c0,0-0.528-0.261-0.79-0.261c0,1.313,1.575,1.051,2.365,1.836c-1.052,0-2.365,0-2.627,0.792
		c0.262,0,0.262,1.052,0.785,1.052c-1.313,0-1.313,0.784-1.838,1.837c0,0,0-0.523-0.528-0.523c-0.523,0.261-1.313,0.261-1.838,0.261
		c-9.994,0-8.94-5.523-9.465-5.784h1.047c-0.522-0.786-1.047-0.524-1.576-0.524c0-0.262,0.529-0.262,1.054-0.262
		C79.415,36.288,78.361,36.817,78.361,36.288 M79.938,44.701l0.268-0.262c-0.528,0.791-1.053,0.791-2.105,1.843
		c-0.261,0-1.051-3.418-1.051-4.47C78.1,41.813,79.415,44.701,79.938,44.701 M77.049,87.304c-0.084,0.037-0.163,0.067-0.236,0.109
		C76.87,87.356,76.933,87.304,77.049,87.304 M26.451,3.91c-0.22-0.214-0.419-0.408-0.419-0.754
		C26.164,3.424,26.306,3.675,26.451,3.91 M52.066,66.265c-1.843-2.104-2.365-7.361-4.471-9.988c0,2.099,1.053,2.36,1.843,4.465
		c-1.052-0.785-1.052-1.314-1.843-1.838c0,1.053-0.261,1.576-0.261,2.367c0,0.524,0.261,1.052,0.522,1.837
		c-0.262,0-0.262-0.523-0.262-0.523c-0.523,1.843-0.523,3.681-0.523,5.523c-0.528-0.263-0.528-0.791-0.528-1.576
		c0-0.79,0.262-2.104,0.262-2.895c0-0.529,0-1.052-0.262-1.314c-2.628,9.465-2.104,14.987-8.674,22.086
		c-1.053,2.634-6.314,14.988-7.89,14.988c0,0,0-0.261-0.79-0.261c-0.263,0-0.263,0.522-0.263,0.789v-0.789
		c0-1.315,3.681-3.158,3.681-6.047c-3.016,3.245-5.01,6.496-8.329,9.379c-0.439,0.389-0.905,0.766-1.402,1.137
		c2.371,0,4.209-2.627,5.522-3.156c-1.313,2.366-4.204,5-7.36,6.314v-0.529c-1.053,0-1.843,0.791-2.896,0.791
		c-0.261,0-0.522,0-0.785-0.262c1.838-0.529,4.204-0.791,5.519-2.104c-1.838,0-3.681,1.313-5.519,1.313
		c2.796-0.822,5.073-1.953,6.905-3.518c1.094-0.943,2.031-2.037,2.822-3.318c-3.942,3.679-8.942,7.098-17.094,7.098
		c-1.051,0-1.837-0.262-2.628-0.262c0.367-0.211,0.813-0.325,1.294-0.387c1.927-0.257,4.492,0.336,5.543-0.927
		c3.157,0,5.523-1.054,7.891-2.367c-2.634,0-5.523,2.105-7.891,2.105c-0.261,0-0.527-0.261-0.789-0.261
		c0.789,0,1.843-0.531,2.628-1.055c-0.263,0-0.785,0.262-1.576,0.262c0,0-0.263,0-0.523-0.262c1.837-0.267,3.418-0.79,4.994-1.842
		c-0.523,0-1.052-0.262-1.576-0.262c-2.633,0-4.471,1.837-6.313,3.943c0-0.263-0.263-0.263-0.263-0.263
		c-0.528,0-1.313,0.329-2.172,0.653c-0.854,0.33-1.77,0.66-2.56,0.66c0.026-0.026,0.052-0.047,0.078-0.073
		c0.9-0.702,3.862-0.492,3.862-1.763c0,0-0.261-0.27-0.261-0.531c1.842-0.523,2.628-1.313,3.681-2.627h-0.524
		c0.21,0-3.983,2.537-6.873,4.77c-0.707,0.544-1.34,1.072-1.806,1.539c0-0.791,0.262-0.791,0.262-1.314c0-0.262,0-0.523-0.262-1.051
		c2.104-1.055,7.889-3.42,7.889-6.31h-0.524c0-0.269,0.786-0.529,0.786-1.054l-0.262-0.266c-2.895,1.844-6.046,4.999-8.679,6.844
		c1.581-5,8.94-5.524,8.94-9.996c6.052-6.574,8.418-7.365,12.36-14.992c-4.471,5.261-7.361,8.418-13.146,14.992
		c-0.267-0.26,4.467-5.522,4.467-6.574c6.574-10.256,9.731-5.784,13.674-18.406c-0.263,0-0.263-0.268-0.263-0.527
		c0-5.787,5-14.2,5-22.087c0-0.79-1.843-0.262-1.843-1.052h0.262c0-0.524-0.262,0-0.262-0.524c0-0.529,0.262,0,0.262-0.529
		c-1.314-11.045,1.053-5.256-2.628-11.306c1.313,0.528,2.366,2.365,3.156,3.946c0-2.633-2.104-6.837-3.156-8.942
		c1.313,1.843,1.843,1.315,2.628,3.158c0,0,0.262-0.268,0.262-0.53c0-0.785-0.262-1.313-0.523-1.837c0.79,0,0-0.266,0.79-0.791
		c-0.528-1.313-0.528-1.842-0.79-3.156c-0.262,0.79-0.523,1.314-0.523,1.843c0,0.523,0.262,0.785,0.523,1.313
		c-1.576-0.528-0.791-4.732-1.053-4.999v-0.261c0.262,0,0.529,0.261,0.529,0.261c0-1.052-2.895-1.052-3.686-1.314
		c0.791-0.523,1.314-0.785,1.843-0.785c0.659,0,1.109,0.308,1.419,0.602c-0.226-0.445-0.472-1.026-0.629-0.869
		c-0.267-2.099-4.209-4.466-4.209-4.466s-2.895-4.737-2.895-5.784c0,0,0.267-0.267,0.267-0.529c0.524,0,0.524,0.791,1.053,1.314
		c0.262-0.261,1.047-0.261,1.047-0.523c0,0-0.263-0.262-0.263-0.529c2.105,3.157,2.635,4.733,4.21,5c0-0.791-0.528-1.32-1.052-1.843
		c1.052-0.529-0.263-1.315,1.575-1.315c-0.523-1.313,0.267-3.947-1.838-3.947c0-0.262,0.263-0.262,0.263-0.523
		c0-1.052-3.681-1.314-3.158-2.628c0,0.523,0,0.262,1.054,0.262c0-0.236-0.032-0.429-0.096-0.591
		c-0.188-0.231-0.365-0.482-0.532-0.754c0.204,0.193,0.418,0.403,0.532,0.754c0.928,1.114,2.137,1.716,4.042,1.905
		c0-1.314,1.576-0.791,1.838-1.576c0.528,0.785,1.581,1.314,2.366,1.576c0.262-0.791-1.053-2.105-1.838-2.105
		c5.162-0.936,9.491,6.717,9.984,7.618c-0.781-0.791-0.786-1.833-1.571-1.833c-0.523,0-1.313,0.267-1.576,0.529
		c0,1.047,0.785,0.523,1.314,1.047c0,0.266,0,0.266-0.262,0.266c0,0-0.268-0.266-0.528-0.266c0,1.052,0.528,1.843,1.313,1.581
		c-0.308,0-0.434-0.361-0.485-0.665c-0.021-0.042-0.037-0.084-0.037-0.126v-0.23c0,0.063,0.011,0.199,0.037,0.356
		c0.114,0.22,0.485,0.444,0.485,0.665c0.09,0,0.147-0.027,0.185-0.069c-0.053-0.25-0.074-0.465-0.074-0.638
		c-0.057-0.115-0.11-0.23-0.11-0.346c0,0,0.152-0.145,0.336-0.22c-0.151,0.084-0.226,0.278-0.226,0.566
		c0.074,0.146,0.158,0.294,0.158,0.445c0,0,0,0.12-0.084,0.193c0.837,4.163,8.569,17.564,10.339,21.103
		c-3.157-0.785-5.79-6.047-6.575-6.837c0,1.843,7.36,11.574,6.837,11.308c4.732,8.679,5.523,6.575,9.203,15.515
		c0.523-0.79,1.314-0.79,1.314-1.313c-0.263-3.156-0.791-6.046-1.314-9.203c0.523,0,1.052-0.267,1.314-0.267
		c0-3.152-0.263-6.832-0.263-10.516c0-2.891,0.263-5.524,0.785-7.89c0,0.267,0.268,0.79,0.268,1.052c0,0.266,0,0.266-0.268,0.529
		c1.052-0.529,0.529-2.366,0.529-2.105c0-0.529-0.262,0-0.791-0.529c0-0.522,0.791-1.313,0.791-2.104
		c0,0.529,0.522,0.791,0.791,0.791c1.046,0,0.785-0.791,1.575-0.791c2.104,0,2.628,4.738,3.419,5c0.79,0,0.522,0,0.522-0.791
		c0,0.266,0.268,0.529,0.791,0.529c0.262,0,0.79-0.263,1.053-0.529l-0.263,0.266c0,0,0.785,3.419,1.052,3.419
		c0.524,0-0.527-1.052,1.054-1.052c-0.268,0.262-0.268,0.524-0.268,0.524c0,0.528,0.528,0.79,0.528,1.313
		c-0.79,1.315-1.052,3.158-1.052,5.261c0,4.204,1.052,8.942,1.052,12.622c0,0,0.524,0,0.524-0.528
		c0.266,0.528,0.266,1.052,0.266,1.581c0,1.837-0.79,3.418-0.79,4.731c0,0.525,0.262,1.053,0.524,1.315
		c0,0.529-0.263,1.053-0.263,1.581c0,4.466,1.844,7.884,1.844,12.093c0,5.68-0.506,11.359-0.523,17.039
		c-0.172-0.264-0.366-0.504-0.605-0.697c-0.068-0.254-0.182-0.487-0.351-0.694c-2.073-4.198-1.957-4.427-3.177-5.065
		c-0.41-0.477-1.29-1.418-2.776-1.418c-2.164,0-5.141,2.77-5.478,3.649c-0.403,0.538-0.745,1.217-0.745,1.827
		c0,0.472,0.134,1.016,0.201,1.15c-0.067,0.201-0.067,0.403-0.067,0.538c0,0.361,0.119,0.761,0.298,1.185
		c-0.065-0.049-0.13-0.1-0.188-0.16C59.694,79.414,58.903,70.735,52.066,66.265 M96.813,95.354c0.043,0,0.086-0.055,0.116-0.092
		c-3.021,6.268-2.555,10.529-5.386,17.541c0.067,0.136,0.134,0.271,0.336,0.271c0,0.14-0.067,0.207-0.134,0.207
		c-0.068,0-0.135-0.067-0.202-0.067c-0.208,0-1.492,3.92-1.492,4.664v0.271c0.477-0.067,0.41-0.813,0.679-1.15
		c-0.135,1.694-1.761,2.978-2.709,4.263c0.135,0.201,0.135,0.334,0.135,0.47c0,0.544-0.604,0.948-0.739,1.425
		c-0.275,0-0.344-0.066-0.544-0.066c-0.336,0-0.813,1.351-1.486,1.618c-0.134-0.403-0.746-0.538-1.149-0.538
		c-0.135,0-0.269,0-0.342,0.068v-0.68c-0.471,0.136-0.269,0.949-0.808,0.949c-1.082,0-1.149-2.367-2.506-3.314
		c-0.135,0.068-0.202,0.201-0.202,0.337c0,0.237,0.312,0.524,0.575,0.642c-0.931-0.324-1.193-1.554-1.523-2.328
		c-2.837-6.769-6.56-13.263-8.792-20.838c-0.88-3.039-1.895-6.082-2.977-9.061c0.072-0.066,0.14-0.202,0.14-0.403
		c0-1.016-1.29-3.046-1.828-3.858c0-0.202,0.068-0.338,0.068-0.471c0-0.343-0.136-0.543-0.136-1.082
		c0.067-0.275,0.605-0.141,0.605-0.611c0-0.067-0.067-0.201-0.067-0.338c0.067,0.137,0.208,0.203,0.41,0.203
		c0.134,0,0.27-0.066,0.27-0.336c0.336,0,0.336,0.403,0.538,0.471c0.208-0.067,0.208-0.135,0.208-0.201
		c0-0.137-0.208-0.337-0.208-0.545h0.14c0.27,0,0.471-0.202,0.471-0.336c0-0.27-0.269-0.404-0.269-0.538
		c0-0.073,0.067-0.142,0.135-0.208c1.149,0.275,1.485,1.015,2.769,1.828c-0.269-1.082-1.351-1.352-1.821-2.164
		c0.067,0,0.202-0.067,0.269-0.067c0.746,0,2.776,2.433,2.776,3.79c0.808,1.076,1.284,2.299,1.62,3.65
		c0.202,0,0.202-0.135,0.202-0.336v-0.478c2.365,5.075,4.06,10.89,6.426,15.964v0.135c0,0.066,0,0.134-0.067,0.134
		s-0.135-0.067-0.135-0.067c-0.067,0-0.067,0-0.067,0.067c1.217,3.112,2.91,5.68,4.262,8.657c1.217-0.336,2.165-6.76,3.649-10.143
		c1.425-3.18,1.425-1.492,2.776-4.597c0.269-0.209,0.538-0.478,0.813-0.612c0.874-2.299,1.821-4.529,3.313-6.225
		c0.672,0,1.419-0.469,1.688-1.283c0.201,0.134,0.409,0.201,0.544,0.201c0.74,0,1.016-0.881,1.62-1.014
		c-0.739,1.827-1.283,3.791-2.029,6.156C96.746,95.354,96.746,95.354,96.813,95.354 M100.469,84.398h0.471
		c-0.135-0.611-0.604-0.88-0.947-1.283c0.269,0,0.881,0.808,1.283,0.808c0.068,0,0.142,0,0.208-0.068
		c-0.274-0.537-1.082-0.471-1.082-1.217v-0.201c0.202,0,0.27,0.068,0.403,0.134c-0.134-0.134-0.201-0.336-0.201-0.604v-0.209
		c0.201,0,0.067,0.342,0.336,0.342c0-0.273-0.538-0.678-0.679-1.148c0.41,0,0.41,0.337,0.813,0.337c0.409,0,0.881-0.403,1.425-0.403
		c0.604,0,0.739,0.471,1.217,0.672c1.62,0.881,3.852,1.357,5.545,1.896c-0.067,0.067-0.067,0.134-0.067,0.201
		c0,0.202,0.472,0.881,0.538,0.881c0.202,0,0.27-0.135,0.478-0.135h0.134c-0.067,0.067-0.134,0.135-0.134,0.202
		c0,0.477,1.015,0.068,1.149,0.744c-0.135,0.068-0.203,0.068-0.343,0.068c-0.269,0-0.673-0.068-1.015-0.068h-0.472
		c0.068,0.949,0.338,1.217,0.813,1.896c-0.342,0.27-1.625,0.539-1.625,0.941c0,0.135,0.065,0.209,0.274,0.209h0.201v0.066
		c0,0.067-0.813,0.067-0.813,0.403C104.663,88.861,102.291,86.697,100.469,84.398 M110.545,118.081
		c-0.134,0.335-0.472,0.402-0.611,0.746c0,0.066,0.067,0.066,0.067,0.066c0.072,0,0.14-0.133,0.274-0.133
		c0,0,0.067,0.066,0.136,0.066c-0.611,1.753-0.544,4.262-2.643,4.529v-0.135c0-0.201-0.134-0.133-0.201-0.336
		c-0.673,0.471-1.284,0.336-1.62,1.149v-0.207c0-0.337,0.066-0.606,0.066-0.874c0-0.143,0-0.275-0.133-0.41
		c-0.948,0-1.083,0.813-1.492,1.284c-0.539-1.353-0.606-3.448-1.822-4.329c0-2.164,0.874-14.876,0.942-14.876
		c0,0,0.14,0.136,0.273,0.136c0.067-2.166,0.27-12.106,0.948-12.106c0.134,0,0.202,0.067,0.336,0.067
		c0.135-0.141,0.068-0.543,0.135-0.881c0.27,0.404,0.68,0.202,0.746,0.881c0.135,0,0.201-0.067,0.201-0.141
		c0-0.066-0.066-0.134-0.066-0.336v-0.066c0.538,0.879,2.029,0.813,2.029,2.164h0.202c0.202,0,0.404-0.067,0.404-0.336v-0.136
		c0.476,0.404-0.068,1.755,0.745,1.755h0.135c-0.068,0.275-0.269,0.545-0.269,0.813c0,0.068,0,0.135,0.134,0.203
		c0.337-0.135,0.269-0.404,0.269-0.674c1.082,5.135,1.149,11.158,1.149,16.301C110.881,114.229,110.813,116.117,110.545,118.081
		 M110.343,95.288c0.404,0.678,0.135,2.702,0.471,3.516C110.209,98.064,110.411,96.505,110.343,95.288 M111.155,92.72
		c-0.274-0.679-1.015-1.148-1.626-1.424c1.623-0.832,2.96-2.382,3.751-3.766c1.199,0.982,2.834,1.609,3.736,1.609
		c0.524,0,1.576,0,1.843-0.522c-0.267,0.522,2.366,1.313,2.366,1.313c3.419,0,5.785-6.308,5.785-6.308
		c0.262-1.052,0.262-2.104,0.262-3.155c0-1.054,0-1.844-0.262-2.896c2.628-9.989-1.319-14.988,10.255-14.988
		c0,8.413,4.733,26.556,10.779,26.556c0.528,0,1.843-0.26,1.843-0.784v-0.267c0.153,0.229,0.321,0.486,0.496,0.754
		c-0.102,0.576-0.135,1.16-0.135,1.64c0,0.477,0,0.946,0.067,1.424c-0.679,0.271-1.149,0.472-1.559,0.881
		c-1.082,0.337-2.843,0.875-3.381,1.89c-0.508,0-1.07,0.776-1.492,1.645c-1.969-3.448-5.289-5.906-9.263-5.906
		c-4.28,0-7.239,1.521-7.239,1.559c-1.149,0.203-2.231,0.746-3.106,1.285c-1.015-1.016-2.775-1.83-3.925-2.435
		c-0.471-0.746-1.351-1.216-2.231-1.216c-1.626,0-2.91,1.351-2.91,1.351c-1.015,0.612-0.88,1.693-1.62,2.433
		c-0.281,0.326-0.52,0.716-0.654,1.145C112.599,93.644,112.055,92.923,111.155,92.72 M130.293,99.481
		c1.082,0.201,2.299,0.337,2.775,1.15C132.39,99.953,131.24,99.886,130.293,99.481 M140.98,117.945v0.271
		c0,0.477-0.135,0.879-0.611,0.947v0.268c0,0.949-0.471,1.627-0.471,2.3c0,0.343,0.134,0.612,0.403,0.948
		c0,0.066-0.067,0.066-0.067,0.066c-0.066,0-0.135-0.201-0.269-0.201v0.611c0,0.471,0.066,1.014,0.544,1.418
		c-0.342,0-0.881,0.201-1.29,0.479c0.342,0.267,0.813,0.47,1.29,0.67c-0.275,0.136-0.611-0.065-0.611,0.338
		c0,0.068,0.067,0.141,0.067,0.274c-0.813-0.274-1.963-0.88-2.771-1.149c-0.141,0.068-0.208,0.201-0.208,0.337
		c0,0.269,0.344,0.606,0.544,0.745c-1.418-0.139-1.626-1.76-2.097-3.381c-0.134-0.478-0.477-0.813-0.544-1.155
		c-0.269-1.216-0.201-2.903-0.201-4.261c0-1.756,0.201-5.681,0.201-8.658c0-1.284,0-2.365-0.134-3.038
		c-0.202,0.134-0.067,0.538-0.202,0.739c0-0.336,0.067-0.739,0.067-1.149c0-2.972-0.947-6.427-3.517-6.427
		c-1.76,0-3.582,1.082-4.127,2.098c-1.62,0.948-2.298,1.895-3.582,2.844c-0.343,5.948,0.134,11.77-1.559,16.434
		c-0.135,0-0.135-0.135-0.135-0.201v-0.201c0-0.136,0-0.203-0.067-0.203c-0.336,0.809-0.404,1.486-0.88,2.301
		c-0.068-0.068-0.068-0.136-0.068-0.209c0-0.336,0.276-0.807,0.276-1.218c0-0.134-0.074-0.336-0.208-0.403
		c-0.135,0.472-1.217,0.881-1.352,1.285c-0.337-0.404-0.27-1.15-0.539-1.553c-0.208,0,0,0.268-0.208,0.268
		c-0.066,0-0.134,0-0.134-0.066s0.067-0.135,0.067-0.268c0-0.069,0-0.137-0.134-0.137c-0.136,0-0.202,0.067-0.202,0.137
		c0,0.133,0.066,0.268,0.066,0.401v0.202c-0.134-0.27-0.201-0.336-0.269-0.336c-0.134,0-0.27,0.134-0.477,0.201
		c-0.673-2.366,0.141-5.342-0.941-7.237v-0.135c0-0.136,0.066-0.202,0.134-0.202h0.135c-0.409-0.135-0.269-0.68-0.544-0.881v0.814
		c0,0.879,0.067,1.894,0.275,2.775c0-0.209,0.066-0.41,0.066-0.611c0-0.404-0.066-0.949-0.141-1.486
		c0.41,0.404,0.141,1.553,0.41,2.098c-0.134,0.335-0.336,0-0.336,0.402c0,0.067,0,0.135,0.066,0.135h0.136
		c0-0.067-0.068-0.135-0.068-0.135c0-0.067,0-0.067,0.068-0.067c0.201,0,0.201,1.419,0.201,1.761c0,0.403,0,0.807-0.067,1.219
		c-0.202-0.136-0.27-0.545-0.27-0.949c0-0.27,0.067-0.545,0.136-0.678c-0.612-1.486-0.612-2.904-0.746-4.8
		c-0.404-3.926-1.15-7.851-1.15-12.106c0-0.452,0.013-0.898,0.037-1.357c0.031-0.636,0.086-1.289,0.165-1.962
		c0.067,4.401,0.336,10.754,1.082,14.679h0.135c0.067,0,0.135,0.067,0.201,0.404v-0.875c0-2.098-0.538-5.41-0.672-7.984v-1.553
		v-0.88l0.067-0.746c0.471,0-0.611,1.491,0.403,1.963c0-0.337,0.067-0.68,0.067-0.948c0-1.896-0.471-3.785-0.948-5.613
		c0.142-0.066,0.478-0.813,0.813-0.813c0.269,0,0,0.478,0.343,0.478c0.202-0.133,0.269-0.342,0.269-0.611
		c0-0.402-0.135-0.813-0.135-1.283c0.404-0.27,0.74-0.679,1.352-0.814c0.679,1.15,2.636,1.425,3.247,2.709
		c0.066-0.067,0.134-0.133,0.134-0.201c0-0.141-0.336-0.208-0.336-0.477c1.149,0.545,1.889,1.418,1.889,3.045
		c1.425-0.814,3.18-2.643,5.209-2.776c0.343-0.202,0.747-0.336,1.016-0.604c0.067,0,0.067,0.066,0.067,0.066
		c0,0.066-0.067,0.135-0.067,0.27c0.611-0.135,0.27-0.679,1.082-0.679h0.067c0,0.072-0.067,0.14-0.067,0.207h0.067
		c1.217-0.343,3.313-0.745,4.53-0.745c3.649,0.385,6.279,3.184,7.478,6.486c0.464,1.296,0.709,2.665,0.709,3.999
		C143.145,108.677,141.928,117.744,140.98,117.945 M167.833,118.282c0.135,0,0.202-0.066,0.202-0.134
		c0.066,0,0.066,0.067,0.066,0.067c0,0.133-0.201,0.342-0.403,0.342c-0.066,0-0.066-0.074-0.135-0.074
		c-0.274,1.223-0.342,2.844-1.156,3.656c-0.402,0.203-0.94,0.746-1.552,0.746h-0.538c-1.016,0-1.829,0.336-2.641,0.336
		c-0.606,0-1.217-0.066-1.896-0.41c0-0.066,0.067-0.133,0.067-0.133c0.141,0,0.343,0.133,0.477,0.133
		c-0.134-0.469-0.336-0.2-0.544-0.672c-0.201,0.067-0.269,0.203-0.538,0.203c0,0.065,0.067,0.133,0.135,0.133
		s0.202-0.133,0.337-0.133c0.066,0,0.134,0.065,0.201,0.133c-0.201,0.068-0.403,0.068-0.605,0.068c-1.418,0-3.045-1.15-4.261-1.755
		c-0.202,0-0.202,0.136-0.202,0.269c-0.947-1.082-2.641-3.857-2.641-6.291c0-1.014,0.134-2.164,0.208-3.313
		c0.2-3.517,0-7.44,0.537-10.62c-1.485,0-3.045,0.403-4.396,0.403c-0.612,0-1.217-0.136-1.761-0.336v-0.269
		c0-0.679-0.336-1.082-0.74-1.56h0.135c0.336,0,0.403-0.202,0.739-0.202h0.141c-0.072-0.134-0.072-0.201-0.072-0.27
		c0-0.066,0.14-0.066,0.14-0.336c-0.067-0.066-0.14-0.066-0.208-0.066c-0.269,0-0.538,0.336-0.874,0.336v-0.135
		c0-0.813,0.874-0.746,0.874-1.559h0.141c0.472,0,0.74-0.27,1.218-0.539c-0.068-0.066-0.068-0.066-0.135-0.066
		c-0.142,0-0.275,0.066-0.41,0.066c-0.066,0-0.135,0-0.135-0.066c1.419-1.148,3.583-0.813,5.276-1.694
		c-0.202-0.067-0.335-0.067-0.544-0.067c-0.672,0-1.352,0.344-1.889,0.545c0.201-0.813,2.635-0.275,2.635-1.356
		c0-1.149-0.135-2.165-0.135-3.106c0-0.611,0.067-1.223,0.269-1.828h0.135c1.082,0,0.478-2.502,1.29-3.112l0.068,0.067
		c0,0-0.208,0.404-0.208,0.679c0,0.134,0,0.2,0.14,0.269c0.337-0.068,0.605-0.269,0.605-0.679c0.27,0.136,0.201,0.544,0.477,0.61
		c0.337-0.2,0.404-0.543,0.404-1.014c0.134,0,0.134,0.202,0.269,0.202c0.067-0.606,0.27-1.149,0.611-1.485
		c0.067,0.066,0.135,0.066,0.202,0.066c0.134,0,0.269-0.066,0.471-0.066c0.14,0.537,0.067,0.74,0.342,1.08
		c0.202-0.34,0.202-0.744,0.202-1.215c0.135,0.807,0.201,1.756,0.201,2.77c0,0.814-0.066,1.693-0.066,2.572
		c0,1.42,0.066,2.838,0.403,3.988c0.067-2.434-0.067-6.017,0.611-7.574c-0.135,1.558-0.336,3.789-0.336,5.819
		c0,0.538,0,1.082,0.067,1.62c1.082-0.066,2.097-0.135,3.111-0.135c1.016,0,2.024,0.068,3.18,0.135
		c0.134,0.27,0.27,0.611,0.672,0.611c0.068,0,0.136-0.067,0.202-0.067c0,0.067-0.066,0.136-0.066,0.202
		c0,0.27,0.274,0.336,0.274,0.605c-0.14-0.067-0.208-0.067-0.274-0.067c-0.136,0-0.27,0.067-0.404,0.134
		c0.202,0.208,0.269,0.344,0.269,0.545c0,0.066-0.066,0.135-0.066,0.201c0,0.135,0.066,0.27,0.135,0.477
		c-0.202,0.27-0.471,0.471-0.948,0.471h-0.135c0,0.203-0.067,0.746,0.202,0.746c0,0.067-0.067,0.067-0.134,0.067
		c-0.136,0-0.337-0.067-0.472-0.067s-0.269,0.067-0.269,0.27c0,0.268,0.336,0.135,0.336,0.471c0,0.545-1.216,0.881-1.559,1.357
		c0.14,0.135,0.208,0.336,0.477,0.336c-1.217,0-2.568,0.746-4.194,0.746c-0.202,1.082-0.202,2.23-0.202,3.447
		c0,3.314-0.477,11.16,1.756,11.16c2.372,0,4.603-1.688,6.565-2.099c0.135,0.068,0.135,0.136,0.135,0.203
		c0,0.14-0.135,0.341-0.135,0.476c0.472,0,0.404,0.605,0.673,0.605c0.067,0,0.135,0,0.202-0.066c-0.135,0.274-0.27,0.476-0.27,0.813
		c0,0.068,0,0.201,0.067,0.336h-0.135c-0.201,0-0.269,0.209-0.269,0.41s0.135,0.269,0.336,0.269c0.202,0,0.403-0.067,0.545-0.067
		c-0.612,0.472-0.612,1.554-1.15,2.097C167.563,118.148,167.698,118.282,167.833,118.282 M173.288,98.611
		c-0.262,0-0.262-0.791-0.523-0.791s-0.529,0-0.529,0.262h0.529c-1.052,0-2.104,0.529-3.157,0.529c-0.712,0-1.194-0.228-1.478-0.653
		c0.022-0.058,0.039-0.1,0.039-0.103c0.111-0.122,0.211-0.275,0.304-0.44c0.938,0.244,2.016,0.405,3.24,0.405
		c0.261,0,0.79-0.263,1.313-0.263c0,0,0.523,0.263,0.523,0.524C173.288,98.343,173.288,98.611,173.288,98.611 M169.998,107.058
		c0,0.201,0.066,0.402,0.066,0.537c-0.269,1.181-0.403,2.428-0.41,3.735c-0.428-0.593-0.861-1.161-2.091-1.161
		c-1.895,0-3.79,1.485-5.344,1.822c0-2.904-0.342-5.345-0.342-7.979c0-0.813-0.201-1.694,1.963-1.694
		c0.831,0,1.573-0.457,2.199-1.077c1.143,0.32,2.406,0.521,3.83,0.521c1.015,0,1.78-0.479,2.305-0.513
		c-0.314,0.505-0.49,0.832-0.558,0.933C171.146,103.541,169.998,104.892,169.998,107.058 M194.753,93.259
		c1.082,1.148,2.433,2.029,3.515,3.178c-0.066,0.068-0.134,0.068-0.134,0.068c-0.275,0-0.342-0.539-0.679-0.605v0.135
		c0,0.066,0,0.066-0.067,0.066c0.269,0.539,1.015,0.605,1.284,1.352c-0.202-0.066-0.404-0.066-0.404-0.337v-0.134
		c-0.269,0-0.269,0.134-0.476,0.134h-0.068v0.135c0,0.136,0.068,0.136,0.135,0.136c0.141,0,0.275,0,0.409-0.068
		c-0.066,0.135-0.066,0.201-0.066,0.27c0,0.133,0.135,0.133,0.135,0.403c0.066,0,0.134-0.067,0.134-0.067
		c0-0.135-0.134-0.27-0.134-0.404c0.813,0.337,0.745,1.695,1.015,2.568c0.201,0.612,0.538,1.014,0.672,1.424
		c0,0.135,0,0.203-0.066,0.203c-0.067,0-0.135-0.068-0.202-0.135c0.067,0.27,0.343,0.202,0.477,0.337
		c-0.066,0.134-0.066,0.201-0.066,0.402c0,0.679,0.336,1.761,0.471,2.642c-0.746,0.336-0.881,1.148-0.948,1.896
		c-2.501,1.956-4.867,5.479-8.994,5.479c-1.082,0-2.543-0.38-3.942-0.667c1.24,0.172,2.561,0.324,3.809,0.324
		c1.352,0,2.635-0.27,3.515-0.875c-0.88,0.404-1.895,0.538-3.044,0.538c-2.978,0-6.628-0.88-9.874-0.88
		c0.27,4.061,2.91,6.768,6.896,6.768c1.29,0,3.313-0.275,4.873-0.342c-0.067,0.135-0.135,0.202-0.135,0.342
		c0.336-0.477,1.283-0.947,2.029-0.947c0.202,0,0.336,0,0.472,0.068c0.88-0.546,1.418-0.747,1.895-1.627
		c0.067,0.201,0.202,0.268,0.404,0.268c0.342,0,0.544-0.201,0.544-0.469c0.067,0,0.067,0.066,0.067,0.066
		c0,0.068-0.067,0.135-0.067,0.27h0.134c0.202,0,0.27-0.201,0.404-0.201c0.066,0,0.202,0.133,0.202,0.201
		c0,0.133-0.472-0.135-0.538,0.34c0.465,0,0.678-0.297,0.733-0.297c-0.043-0.068-0.264-0.19-0.264-0.313
		c1.15-0.538,1.492-1.283,2.709-1.827c0,0.61-0.947,0.61-1.418,1.224c0.067,0.065,0.134,0.065,0.134,0.065
		c0.404,0,0.538-0.61,0.948-0.61c0.134,0,0.202,0.066,0.202,0.2c0,0.41-0.68,0.948-0.68,1.425c0,0.133,0.067,0.27,0.27,0.336
		c-0.606,0.403-1.352,0.746-2.03,1.084c0,0.402,0.073,0.744,0.41,0.879c0,0.067-0.068,0.067-0.068,0.067
		c-0.066,0-0.201-0.067-0.269-0.067c0.067,0.135,0.135,0.269,0.269,0.269c0.068,0,0.136-0.067,0.202-0.067
		c-1.962,1.217-4.193,2.098-5.68,3.717h0.067c0.269,0,0.538-0.334,1.083-0.334h0.336c-1.419,0.746-3.18,1.215-4.599,1.961
		c-0.134-0.066-0.202-0.133-0.336-0.133c-0.41,0-0.274,0.469-0.544,0.469c-0.746,0-1.284,0.338-1.896,0.338
		c-0.201,0-0.471,0-0.672-0.135c0,0.067-0.068,0.135-0.068,0.201h0.068l0.134-0.066c0.067,0,0.067,0.066,0.067,0.207
		c-0.745-0.067-2.775,0-2.775-0.611c-0.337,0.066-0.673,0.066-1.016,0.066c-2.097,0-4.193-1.215-5.881-1.963
		c0.134,0.748,1.149,1.291,1.552,1.561c-1.418-0.344-2.635-1.828-3.515-3.111c-0.066,0.133-0.336,0.066-0.336,0.268
		c0,0,0.067,0,0.067,0.068c-0.025-0.019-0.043-0.043-0.067-0.068c-1.92-1.906-3.112-5.313-3.112-8.791
		c0-1.352,0.135-2.709,0.538-3.926c-0.135-0.203-0.135-0.403-0.135-0.604c0-0.882,0.88-1.761,0.88-2.507
		c0-0.067,0-0.067-0.066-0.067h-0.067v-0.067c0-0.336,0.679-0.605,0.679-1.217c0.067,0.067,0.135,0.067,0.135,0.067
		c0.336,0,0.537-0.881,0.537-1.082c1.418-1.821,3.112-4.053,6.358-6.562c2.911-0.738,4.873-2.769,7.509-3.379
		C190.895,92.177,192.521,93.056,194.753,93.259 M188.73,114.835c-1.485,0-2.165,0-3.045-0.605
		C186.701,114.431,187.716,114.632,188.73,114.835 M184.065,111.318h-0.746c-0.202,0-0.337,0-0.403-0.067
		C183.264,111.251,183.649,111.275,184.065,111.318 M195.38,81.253c-0.791,0.791-1.319-0.525-1.319,1.318
		c0,3.682-4.466,4.994-6.047,6.831c0,0.062,0.026,0.096,0.038,0.144c-2.87,0.424-5.354,2.766-7.508,3.443
		c-0.404,0.066-0.74,0.201-1.016,0.471c-0.522,0.399-1.005,0.793-1.467,1.184c-0.891,0.158-1.78,0.283-2.669,0.283
		c-1.576,0-2.89-0.263-4.471-0.524c0.262,1.575,3.157,1.053,4.471,1.575c-0.523,0.268-1.052,0.268-1.313,0.268
		c-1.604,0-3.274-0.477-4.944-0.943c0.031-0.217,0.049-0.414,0.049-0.559c0-4.261-4.463-4.261-7.373-4.261
		c0-1.755,0.27-3.382,0.27-4.597c0-0.809-0.403-1.555-1.01-2.099c-0.072-0.067-0.141-0.067-0.141-0.135
		c-0.268-1.351-1.418-2.231-2.837-2.231c-1.424,0-2.298,0.336-3.448,1.492c-1.648,0-2.538,1.461-2.943,2.775
		c-2.678-3.541-5.043-7.092-5.493-8.902c0,2.1,1.047,2.891,1.837,4.467c-1.837-1.316-3.157-4.467-3.942-6.31
		c-0.529,0-0.529,0.524-1.052,0.524c1.052,3.946,3.157,6.836,4.994,10.522c-3.418-5.263-7.627-12.099-7.627-20.249
		c0-8.68,2.895-15.518,5.261-20.773c-0.262-1.842,1.052-2.895,1.843-3.685c0,0.79-0.267,0.79-0.267,1.313
		c1.842-3.941,5.261-6.308,8.156-9.463c0,0.261,0.262,0.261,0.522,0.261c0.529,0,0.791-0.524,0.791-1.314
		c3.942-2.1,9.465-3.681,15.778-3.681c1.576,0,3.151,0,4.731,0.263c0,0,0-0.525,0.524-0.525c0.79,0.525,1.313,0.525,2.366,0.525
		c0-0.263-0.262-0.525-0.262-0.525c3.156,0.791,6.047,1.843,8.68,3.68c0.523,0,0.523-0.522,0.523-0.522
		c3.209,1.146,4.622,5.695,5.806,6.837h0.508h0.261c-0.099,0.098-0.156,0.156-0.198,0.198c0.444,0.325,0.639,0.964,0.701,1.115
		h0.021c0,0.042-0.007,0.037-0.021,0h-0.24c0,0-1.053-0.79-1.843-0.79c0,0.528,0.266-0.262,0.528,0.79c-0.528,0-0.528,0-0.528-0.528
		c-0.523,0-0.523,0.528-0.523,0.528c1.843,0,0.523,0.523,1.313,0.523h-0.262c-0.528-0.523-0.263-0.261-0.528-0.261
		c0,0.261,0.528,0.261,0.79,0.79c-0.524,0-0.79,0-0.79,0.786c0,0,0,0.529,0.528,0.529c0.523,0-0.263,0,0.791-1.052
		c0,0.523,0.261,0.523,0.523,0.523h0.262c0,0.79-1.839,1.843-1.839,2.633c0,0.261,0,0.523,0.263,0.523h-1.581v-0.262
		c0,0.524-2.1,2.896-2.628,2.896c-1.313,1.313-2.366,2.36-2.628,2.36l-0.068,0.069c0.068,0.062,0.068,0.193,0.068,0.461h-0.528
		l0.46-0.461c-0.063-0.069-0.194-0.069-0.46-0.069c-0.524,0-0.262,1.32-1.047,1.32v-0.267c0,0.267-0.267,0.528-0.267,0.528
		c-0.263,0-0.263-0.261-0.263-0.261c-0.047,0-0.089,0.01-0.12,0.026c-0.084,0.142-0.142,0.235-0.142,0.235s0-0.171,0.142-0.235
		c0.226-0.388,0.649-1.151,0.649-1.346h-0.267c0,0,0.267,0,0.789-1.313v-0.524c2.105-1.052,2.629-1.842,2.629-2.366
		c0-0.571-0.403-0.864-0.634-0.984c-0.581,0.518-1.518,1.795-3.309,4.664c0,0.523-1.581,3.157-1.314,3.419
		c0,0.084-0.025,0.14-0.057,0.178l0.057,0.084c-0.183,0-0.114,0-0.057-0.084l-0.471-0.702c-1.054,0,0.261,0.524-1.314,0.786
		c0.261,0.261,0.261,0.261,0.261,0.528l-0.261,0.262v-0.262c0-0.267-0.262-0.528-1.053-0.528h-0.523
		c0-0.168-0.424-0.226-0.732-0.247c-0.812,0.094-0.603,0.775-0.849,0.775c0.268-0.267,0.268-0.79,0.268-0.79
		c-0.529,0,0.261-2.896-0.791-2.896h-0.79c0,2.372,0.528,1.32,0.528,1.843c0,0-0.267,0.262-0.267,0.529
		c-0.262,0-1.313-4.209-1.838-4.209c0,1.314-1.313,0.524-1.842,2.89h0.528c0,0-0.528,0.528-0.528,0.79c0,0-1.838-1.843-1.838-2.366
		h0.262c0,0,0.785-2.628,0.785-3.156c0-2.89-1.837-3.158-1.837-3.158c0-0.209,0.167-0.251,0.366-0.255
		c-0.152-0.273-0.366-0.718-0.366-1.058c-10.256,2.104-18.668,12.359-18.668,22.877c0,1.486,0.229,2.974,0.916,4.239
		c-0.068-0.031-0.131-0.031-0.131-0.031c-0.263,0-0.263,0-0.263,0.264c2.105,6.836,5.523,12.621,13.15,13.672
		c-0.267,0.268-0.267,0.268-0.267,0.529s0.791,0,0.791,0.79c-0.263,0-0.524-0.267-0.791-0.267c0,0-0.262,0-0.262,0.529
		c0,0.261,0.262,0.261,0.528,0.261c0.524,0,0.786,0,0.786-0.523c0.527,0.263,1.052,0.263,1.842,0.263
		c2.105,0,4.733-0.791,6.576-0.791c-0.529,0.528-1.843,0.528-2.372,1.313c4.209,0,6.575-5.261,9.47-5.261
		c3.157-1.838,5.523-4.732,9.727-5.518c-1.393,2.01-4.963,4.926-8.574,7.627c0.424,0.031,0.424,0.262,0.424,0.262
		c2.366-1.319,5.261-3.418,7.627-4.209c0.523,0,0.523,0,0.523,0.263c0.262,0,1.314,0,1.843-0.263c0,0.263-2.895,1.314-2.895,2.104
		c0,0.263,0.528,0.522,0.79,0.522c1.053,0,2.628-0.522,3.419-0.522c0,0.522-0.791,0.785-0.791,1.313
		C195.112,80.99,195.112,80.99,195.38,81.253 M169.346,80.99c-0.528-1.843-12.098-2.89-12.098-13.674
		c-0.523-0.785-0.785-2.104-0.785-3.418c0-8.675,6.308-16.563,13.407-18.93c0,2.367-0.524,3.418-0.524,4.465
		c0,3.948,3.942,4.471,4.995,4.999c0.528,0,1.052,0,1.842-0.528c0.524,1.581,1.838,2.372,3.157,2.372c0,0,0.523,0,1.047-0.529
		c0.528,0,1.319,0.529,1.581,0.529c1.576,0,1.837-0.529,3.942-0.529c-0.524,1.581-0.786,3.419-0.786,4.994
		c0,5.262,1.314,7.627,2.89,11.046c-7.36,2.894-11.307,8.681-12.092,8.681v-0.531C173.288,79.937,171.713,80.99,169.346,80.99
		 M219.832,75.468c0,0.267,0.523,0.267,0.523,0.528c0,1.052-3.68,2.366-4.994,3.151c0,0.529,0.262,0.789,0.262,1.052l-0.262,0.269
		l-0.262-0.269c0-0.263,0.262-0.522,0.262-0.785c-1.313,0.522-2.628,1.054-3.941,1.054c0.522,0.26,0.785,0.522,1.313,0.522
		c0.262,0,0.523-0.263,0.79-0.263c0.263,0,0.785,0.263,1.047,0.263c-0.522,0.263-1.047,0.263-1.575,0.263
		c-1.314,0-3.156-0.785-4.471-0.785c-0.523,0-1.053,0.26-1.313,0.522c-0.529-0.263-0.791-0.791-1.314-0.791
		c-0.262,0-0.529,0.269-0.529,0.269c-6.308-1.054-9.987-4.733-13.145-9.205c-0.262,0.263-0.262,0.263-0.262,0.524
		c0,0.263,0.262,0.528,0.262,0.79c-1.314-1.842-3.156-4.994-3.68-8.15c0-12.889,4.465-16.307,8.674-18.935
		c2.895-0.524,5.262-2.896,8.418-2.896c3.941,0,12.093,4.209,13.936,5c0,0.79-1.053,0.524-0.528,0.79
		c0.267,0,0.267-0.266,0.528-0.266c3.156,0,5.784,9.993,6.047,9.993c0,0,0.016-0.016,0.041-0.047
		c-0.041,0.209-0.041,0.429-0.041,0.57c0,0.53,0.262,1.053,0.262,1.843c0.394,0,0.494-0.291,0.519-0.658
		c-0.024,2.446-0.266,4.476-0.519,6.973C224.826,71.525,224.564,72.315,219.832,75.468 M229.563,76.786
		c-0.267,0-0.528-0.527-0.528-1.052c0-0.529,0.262-1.054,0.528-1.319c-0.157-0.287-0.318-0.732-0.476-1.314h0.476
		c0-0.262-0.267-0.262-0.267-0.523c0.529,0.523,0.529,1.576,0.529,2.366C229.826,75.468,229.826,76.259,229.563,76.786
		 M264.01,81.781c0,2.365-1.842,3.94-1.842,6.046c0,0.528,0.261,0.79,0.528,1.313c0,0,0,0.263-0.268,0.263l-0.261-0.263
		c0,0.791,0,1.844,1.052,2.635c-0.523,0-1.314,0.523-1.843,1.052c0.528,0.263,0.791,0.263,1.843,0.785
		c-0.791,0-1.052-0.263-1.052,0.791c-1.314-0.263-2.628-1.313-3.943-1.576c-0.266,0-0.266,0.263-0.266,0.522
		c0,0.248,0.234,0.729,0.695,0.787c-3.078-0.164-3.848-8.414-3.848-8.414c0-1.836,0.786-10.778,0.786-22.085
		c0-2.104-0.262-3.68-0.262-4.733c-0.263,0.524-0.263,0.524-0.263,1.053c0-4.209-0.528-11.308-4.731-11.308
		c-16.04,0-10.523,21.563-13.937,30.499v-1.047c-0.528,1.313-0.528,2.367-1.318,3.681c0,0-0.263-0.263-0.263-0.528
		c0-0.525,0.529-1.316,0.529-1.576c0-0.263,0-0.529-0.267-0.529c0,0.267-1.838,1.32-1.838,1.843
		c-0.528-0.522-0.528-1.843-1.053-2.366v0.523c-0.528,0,0-0.523-0.528-1.047c0,0-0.262,0-0.262,0.262s0.262,0.523,0.262,1.052
		c-0.262-0.267-0.262-0.528-0.523-0.528s-0.529,0.262-0.791,0.262c-0.785-3.413,0.529-7.885-1.313-10.516l0.528-0.524
		c-0.528,0,0-0.791-0.528-0.791c-0.262,0.528-0.262,1.052-0.262,1.575c0,1.053,0.262,2.105,0.262,3.424
		c0.215-0.221,0.252-0.434,0.257-0.79c0.005-0.079,0.005-0.168,0.005-0.263c0-0.527-0.262-1.318-0.262-2.104
		c0.262,0.262,0.528,0.785,0.528,1.053c0,0.523-0.267,1.051-0.267,1.313c0,0.262,0,0.524,0.267,0.79c0,0.24-0.444,0.037-0.518,0.617
		c-1.126-4.35-2.115-15.442-2.115-22.969c0-1.315,0-2.89,0.262-4.209c0,6.622,1.728,15.468,1.837,21.034
		c-0.047-3.393-0.533-8.11-0.784-12.356c0-0.606,0.089-1.297,0.161-2.182c-0.109-0.236-0.161-0.471-0.161-0.712
		c0-0.524,0.267-1.052,0.267-1.575c0,0.889-0.047,1.637-0.105,2.287c0.132,0.288,0.341,0.581,0.629,0.869
		c0-3.156-0.79-6.046-1.314-9.47c0.524,0,0.791-1.053,1.314-1.576c0.528,0,0,1.053,0.528,1.053c0.263-0.262,0.263-0.262,0.263-0.791
		c0-0.523-0.263-1.314-0.263-1.838c0.785-0.529,1.314-1.052,2.1-1.052c1.053,1.315,3.686,1.838,4.737,3.681v-0.262
		c0-0.268-0.528-0.268-0.528-0.791c1.843,1.053,2.628,2.366,2.628,4.732c2.634-1.837,6.052-3.418,9.203-4.993l-0.262,0.261
		c0.79,0.262,0-0.79,1.581-0.79c0,0.267-0.267,0.267-0.267,0.529c1.581-0.262,4.47-1.052,5.784-1.052
		c6.313,0,13.674,7.626,13.674,13.144C268.214,61.009,265.586,78.886,264.01,81.781"/>
	<path class="narcon_1" d="M222.816,101.713c-0.067,0-0.136,0-0.136,0.136c0.068,0.067,0.208,0.135,0.343,0.135s0.27-0.067,0.27-0.203
		h-0.135C223.023,101.78,222.889,101.713,222.816,101.713"/>
	<path class="narcon_1" d="M221.195,94.206c0.202,0,0.337-0.068,0.404-0.202h-0.202C221.263,94.004,221.195,94.071,221.195,94.206"/>
	<path class="narcon_1" d="M219.166,94.541c-0.135,0-0.336,0.067-0.336,0.202h0.201c0.135,0,0.202,0,0.337,0.074
		C219.368,94.608,219.3,94.541,219.166,94.541"/>
	<path class="narcon_1" d="M217.136,95.288c-0.471,0.066-0.948,0.201-1.216,0.471C216.39,95.624,217.001,95.69,217.136,95.288"/>
	<path class="narcon_1" d="M208.889,119.566c-0.074,0.207-0.208,0.679-0.208,1.015c0,0.209,0.066,0.342,0.342,0.342
		c-0.067-0.067-0.067-0.201-0.067-0.274c0-0.202,0.067-0.472,0.067-0.604C209.022,119.841,208.955,119.706,208.889,119.566"/>
	<path class="narcon_1" d="M228.093,99.28c0-0.611-0.202-1.149-0.539-1.693c-0.409-0.404-0.269-0.881-0.477-1.285
		c0.409-0.543,0.611-1.08,0.611-1.761c0-2.97-2.501-3.649-4.873-3.649c-2.77,0-5.203,1.015-5.948,1.352
		c-0.746,0.201-1.42,0.477-2.03,0.814c-1.486-2.502-7.44-4.129-8.113-4.129c-2.097,0-3.521,1.217-3.521,2.844
		c-0.27,0.403-0.403,0.807-0.403,1.352c0,3.648,1.284,7.91,1.284,11.432c0,0.74-0.136,1.42-0.136,2.09
		c0,0.479,0.136,0.951,0.337,1.427c-0.066,0.739-0.066,1.553-0.066,2.299c0,1.963,0.134,3.784,0.134,5.478s-0.337,2.912-0.337,4.396
		c0,1.218,0.545,3.046,2.435,3.993c0.134,0.135,1.081,1.08,2.365,1.08c0.41,0,0.746-0.065,1.155-0.199
		c0.539,0.402,1.15,0.738,1.957,0.738c2.231,0,4.06-3.111,4.06-4.395c0.336-1.083,0.611-2.77,0.611-3.92
		c0-0.342-0.067-0.678-0.067-1.016c0.067-0.273,0.067-0.476,0.067-0.745c0.067-2.843,0.471-5.612,0.471-8.185
		c1.352-1.353,1.828-2.033,2.843-2.166c0.202,0,0.948,0.209,1.896,0.209c1.688,0,2.971-0.613,3.987-1.084
		c1.626-0.207,2.433-1.492,2.433-2.707c0-0.471-0.134-0.949-0.336-1.418C228.024,100.087,228.093,99.685,228.093,99.28
		 M213.284,121.462c-0.067,0-0.141,0-0.141-0.135c0-0.201,0.141-0.538,0.141-0.881v-0.268c0.066,0.133,0.135,0.2,0.135,0.336
		C213.419,120.789,213.284,121.126,213.284,121.462 M225.322,101.916c-0.135,0-0.201-0.067-0.201-0.067
		c-0.948,0.469-2.03,1.082-3.314,1.082c-0.678,0-1.29-0.203-1.896-0.203c-2.573,0-3.925,2.232-5.479,3.719
		c-0.207,3.044-0.409,6.089-0.476,9.268c-0.136-0.544-0.136-1.15-0.136-1.826c0-2.166,0.404-4.734,0.404-6.897
		c-0.269,0.134-0.404,0.335-0.404,0.536c0,0.203,0.136,0.479,0.136,0.746c-0.404,3.584-0.538,7.778-0.538,10.754
		c0.336-0.945,0.269-2.297,0.269-2.909c0.134,0.479,0.134,0.881,0.134,1.353c0,0.881-0.134,1.693-0.336,2.508
		c0-0.205-0.066-0.345-0.135-0.345c-0.476,0-0.207,2.978-1.014,2.978c-0.202,0-0.276-0.066-0.41-0.202
		c-0.067,0.069-0.134,0.136-0.134,0.202c0,0.068,0.134,0.277,0.134,0.41v0.135c-0.269-0.067-0.336-0.268-0.336-0.477
		c0-0.068,0.067-0.135,0.067-0.201c0-0.069-0.067-0.203-0.067-0.271c-0.202,0-0.27,0.136-0.27,0.271
		c0,0.133,0.067,0.201,0.067,0.268c-0.202-0.268-0.746-0.672-0.746-1.082c0-0.066,0-0.201,0.067-0.268
		c-0.47,0.268-1.418,0.334-1.62,0.812c-0.134-0.134-0.134-0.336-0.134-0.61c0-0.201,0-0.404,0.066-0.537
		c-0.41,0.201-0.274,0.812-0.477,1.147c0.134,0.136,0.202,0.337,0.477,0.337c-0.066,0.066-0.135,0.066-0.208,0.066
		c-0.538,0-0.673-0.739-0.673-0.947c0-0.201,0-0.336,0.068-0.402h-0.136c-0.2,0-0.134,0.402-0.477,0.537
		c-0.134-0.068-0.201-0.537-0.336-0.537c-0.067,0-0.134,0.066-0.202,0.135c-0.201-0.336-0.336-0.748-0.336-1.151
		c0-1.081,0.336-2.433,0.336-3.851c0-1.963-0.134-3.994-0.134-6.022c0-1.083,0-2.231,0.134-3.381
		c-0.066-0.136-0.201-0.202-0.409-0.202c0.141-0.68,0.141-1.425,0.141-2.165c0-3.655-1.149-7.917-1.357-11.365
		c0.478,0,0.544,0.404,0.813,0.611c0.067-0.067,0.135-0.207,0.135-0.343c0-0.469-0.471-1.082-0.471-1.688
		c0.066,0.067,0.135,0.135,0.201,0.135c0.135,0,0.202-0.067,0.202-0.201c0.409,0.201,0.544,0.807,0.88,1.149
		c0.067-0.067,0.067-0.135,0.067-0.202c0-0.408-0.471-0.679-0.538-1.082c1.009,0.74,4.255,0.807,4.732,2.231
		c0.135,0.067,0.471,0.202,0.746,0.606c0.135-0.068,0.201-0.068,0.269-0.068s0.067,0,0.067,0.068c0,0.065-0.135,0.133-0.403,0.133
		c0.728,0.57,1.229,2.024,1.375,2.062c-0.012,0.042-0.024,0.079-0.024,0.103c1.485-0.604,2.567-1.551,4.194-1.955
		c0,0.201-0.134,0.201-0.274,0.201c0,0.135,0.066,0.135,0.141,0.135c0.134,0,0.336-0.135,0.538-0.135
		c-0.067-0.067-0.202-0.133-0.337-0.201c0.539-0.276,1.217-0.41,1.822-0.611c0.073,0,0.073,0.066,0.073,0.066
		c0,0.067-0.073,0.135-0.073,0.203c0.409-0.068,0.679-0.203,1.155-0.203h0.202v-0.066c0-0.068-0.067-0.068-0.067-0.202
		c-0.208,0.269-0.545,0.067-1.076,0.202c0.875-0.337,1.883-0.611,3.032-0.611c0.611,0,1.29,0.067,1.962,0.274
		c0,0.067-0.066,0.202-0.066,0.269c0,0.135,0.066,0.27,0.269,0.338c-0.269,0.268-0.47,0.201-0.739,0.268
		c-0.067-0.066-0.067-0.066-0.067-0.135c0-0.133,0.067-0.201,0.067-0.336v-0.066c-0.27,0.27-0.202,0.471-0.544,0.745
		c0,0.067,0.067,0.067,0.067,0.067c0.134,0,0.409-0.201,0.611-0.201c0,0.336-0.202,0.471-0.478,0.471
		c-0.471,0-1.148-0.337-1.687-0.337c-0.068,0-0.202,0.067-0.202,0.202c0,0.201,0.134,0.269,0.134,0.471v0.066
		c1.217,0,1.016,0.41,1.755,0.41h0.275c-0.067,0.27-0.135,0.539-0.342,0.672c0,0.41,0.14,0.613,0.611,0.613h0.135
		c-0.135,0.135-0.135,0.268-0.135,0.402c0,0.343,0.269,0.611,0.269,1.082v0.202c0.135,0.208,0.611,0.073,0.746,0.208
		c-0.336,0.673-1.284,0.673-1.828,1.082c0.269,0.404,0.746,0.537,0.881,1.082c0.067-0.066,0.134-0.066,0.201-0.066
		c0.066,0,0.135,0.066,0.41,0.066c-0.068,0.068-0.142,0.135-0.142,0.201c0,0.067,0.142,0.136,0.343,0.136h0.135
		c0.067,0,0.067,0.067,0.067,0.067S225.39,101.916,225.322,101.916"/>
	<path class="narcon_1" d="M198.537,98.534h0.067c0.067,0.066,0.067,0.135,0.067,0.202c0,0.2-0.135,0.269-0.135,0.409
		c0,0.068,0,0.135,0.135,0.135c0.134,0,0.134-0.135,0.134-0.275v-0.471v-0.135c-0.402,0-0.538-0.335-0.739-0.544
		c0.067,0.343,0.135,0.679,0.269,0.881C198.403,98.601,198.403,98.534,198.537,98.534"/>
	<path class="narcon_1" d="M189.201,123.021c-0.202,0.066-0.403,0.066-0.538,0.066h-0.746c-0.337,0-0.538,0.068-0.673,0.336
		c0.135,0,0.27,0.068,0.471,0.068C188.192,123.491,188.932,123.356,189.201,123.021"/>
	<path class="narcon_1" d="M183.79,106.312c0.275,0.066,0.746,0.135,1.156,0.135c0.47,0,0.874-0.068,1.082-0.27h-1.224
		C184.401,106.177,184.065,106.177,183.79,106.312"/>
	<path class="narcon_1" d="M186.566,101.646c-0.135,0-0.202,0-0.27-0.066c-2.097,1.822-4.329,3.717-4.873,6.762
		c0.544,0,0.478-0.473,0.948-0.538c0-0.343-0.404-0.142-0.404-0.41c0.068-0.135,0.202-0.2,0.202-0.269c0-0.066,0-0.135-0.134-0.268
		h0.269c0.134,0,0.201,0,0.201-0.068c0-0.067-0.067-0.141-0.067-0.208s0-0.134,0.067-0.201c0.203,0,0.477,0.067,0.679,0.067
		c0.27,0,0.472-0.067,0.538-0.338h-0.269h-0.472c-0.207,0-0.273-0.065-0.273-0.268c0.543,0.066,1.355,0.066,2.163,0.066
		c1.896,0,4.194-0.066,6.157-0.066h1.351c0.276-0.275,1.15-1.15,1.15-1.559c0-0.135-0.135-0.203-0.135-0.27
		c0-0.068,0.067-0.068,0.135-0.135c0,0.135,0,0.201,0.14,0.201c0.135,0,0.202-0.135,0.202-0.201c0-2.643-1.693-3.516-3.112-3.516
		C189.544,100.362,187.447,101.646,186.566,101.646 M190.814,103.132h-0.256c0.067,0,0.135-0.066,0.201-0.066
		C190.839,103.065,190.827,103.114,190.814,103.132"/>
	<path class="narcon_1" d="M176.148,119.432c0.409,0.812,1.081,1.356,1.895,1.761C177.707,120.722,176.961,119.432,176.148,119.432"/>
	<path class="narcon_1" d="M175.273,118.558c-0.544-0.881-0.746-1.962-1.424-2.775C173.983,116.596,174.46,118.081,175.273,118.558"/>
	<path class="narcon_1" d="M166.078,121.602c0.037,0.013,0.062,0.044,0.062,0.129c-0.135,0-0.337,0.142-0.472,0.142
		c-0.066,0-0.066-0.142-0.066-0.276c0.066,0,0.135,0.067,0.201,0.067c0.067,0,0.067,0,0.135-0.067c-0.201,0-0.201-0.201-0.336-0.201
		c0,0.269-0.201,0.336-0.409,0.336c-0.271,0-0.539-0.067-0.606-0.067h-0.066c0,0,0.066,0.067,0.201,0.135
		c-0.201,0-0.336,0-0.477-0.067c0,0.202,0.195,0.208,0.269,0.274c-0.066,0.068-0.128,0.068-0.195,0.068
		c-0.141,0-0.275-0.135-0.343-0.135c-0.066,0-0.066,0-0.066,0.066c0.201,0.068,0.134,0.27,0.269,0.338
		c0.141-0.068,0.679-0.137,0.679-0.27l-0.135-0.135c0.201,0,0.336,0.066,0.403,0.066c0.135,0,0.202-0.066,0.276-0.207
		c0.066,0.141,0.201,0.207,0.268,0.207c0.27,0,0.538-0.207,0.538-0.342C166.206,121.608,166.163,121.596,166.078,121.602"/>
	<path class="narcon_1" d="M161.34,122.14c0,0.203,0.067,0.337,0.067,0.539v0.208c0.135,0,0.269,0.134,0.336,0.134s0.135,0,0.135-0.134
		c-0.135-0.142-0.336,0-0.336-0.208v-0.135c0.066,0.068,0.134,0.068,0.201,0.068c0.202,0,0.477-0.203,0.477-0.338v-0.135
		c-0.14,0.135-0.274,0.203-0.409,0.203C161.608,122.343,161.474,122.274,161.34,122.14"/>
	<path class="narcon_1" d="M160.93,122.544c-0.201,0-0.471,0.135-0.471,0.27c0.135,0,0.746,0.073,0.746-0.068
		C161.205,122.544,161.071,122.544,160.93,122.544"/>
	<path class="narcon_1" d="M153.496,89.131c0-0.134-0.074-0.202-0.142-0.202h-0.067v0.135c0,0.135-0.134,0.202-0.134,0.409
		c0,0,0,0.136,0.067,0.136C153.354,89.608,153.496,89.333,153.496,89.131"/>
	<path class="narcon_1" d="M147.607,97.183c0.27,0,0.746-0.134,0.746-0.342c0-0.067,0-0.135-0.066-0.201
		C148.152,96.909,147.607,96.773,147.607,97.183"/>
	<path class="narcon_1" d="M142.467,100.228c0,0.135-0.067,0.337-0.067,0.473c0,0.066,0.067,0.133,0.274,0.2v-0.2
		c0-0.406-0.207-0.681-0.343-0.949C142.399,99.886,142.467,100.087,142.467,100.228"/>
	<path class="narcon_1" d="M136.041,122.745c-0.606-0.738-0.539-2.165-0.942-3.039C135.232,120.854,135.435,122.476,136.041,122.745"/>
	<path class="narcon_1" d="M134.219,101.169c0,0.209,0.201,0.881,0.471,1.016C134.689,101.849,134.285,101.169,134.219,101.169"/>
	<path class="narcon_1" d="M133.338,93.46c-0.403,0-1.284,0.342-1.284,0.409c0.27,0,0.948-0.274,1.352-0.274h0.202
		C133.607,93.46,133.54,93.46,133.338,93.46"/>
	<path class="narcon_1" d="M116.561,96.168c0,1.62-0.134,2.904-0.134,4.263c0,0.672,0,1.351,0.134,2.096c0-1.424,0.208-3.381,0.208-5.006
		c0-0.814-0.066-1.555-0.208-2.166V96.168z"/>
	<path class="narcon_1" d="M110.612,111.318l0.067-0.067c-0.067-0.203,0-0.88-0.067-0.88s-0.067,0.269-0.067,0.538
		C110.545,111.116,110.545,111.318,110.612,111.318"/>
	<path class="narcon_1" d="M109.935,101.579c0,0.27,0.14,0.471,0.14,0.672c0,0.067-0.073,0.141-0.14,0.209
		c0-0.142-0.067-0.277-0.202-0.343c0,0.813,0.408,0.343,0.408,0.745c0,0.068-0.066,0.201-0.066,0.404
		c0.202-0.135,0.269-0.336,0.269-0.605c0-0.41-0.202-0.88-0.408-1.217V101.579z"/>
	<path class="narcon_1" d="M109.867,99.616c-0.136,0-0.338-0.201-0.404-0.201c-0.067,0-0.067,0-0.067,0.066
		c0.27,0.135,0.27,0.537,0.679,0.537c-0.073-0.2-0.073-0.336-0.073-0.469v-0.404c0-0.209,0-0.342-0.134-0.477
		c0,0.336-0.136,0.477-0.136,0.611C109.731,99.347,109.8,99.481,109.867,99.616"/>
	<path class="narcon_1" d="M101.887,81.287c-0.336,0.067-0.745,0-0.745,0.336h0.135C101.551,81.623,101.687,81.488,101.887,81.287"/>
	<path class="narcon_1" d="M78.893,116.998c0.605,1.353,1.082,3.045,2.366,3.649c-2.635-5.746-5.478-11.426-8.187-17.106
		C74.362,107.729,77.065,112.804,78.893,116.998"/>
</g>
<g>
</g>
<g>
</g>
<g>
</g>
<g>
</g>
<g>
</g>
<g>
</g>
</svg>
