<?xml version="1.0" encoding="utf-8"?>
<!-- Generator: Adobe Illustrator 16.0.3, SVG Export Plug-In . SVG Version: 6.00 Build 0)  -->
<!DOCTYPE svg PUBLIC "-//W3C//DTD SVG 1.1 Basic//EN" "http://www.w3.org/Graphics/SVG/1.1/DTD/svg11-basic.dtd">
<svg version="1.1" baseProfile="basic" id="Layer_1"
	 xmlns="http://www.w3.org/2000/svg" xmlns:xlink="http://www.w3.org/1999/xlink" x="0px" y="0px" width="264.644px"
	 height="144.664px" viewBox="0 0 264.644 144.664" xml:space="preserve">
<style type="text/css">
<![CDATA[
	.narcon_3{fill:#9AC6EA;}
	.narcon_1{fill:#072B31;}
	.narcon_4{fill:#DCE5ED;}
]]>
</style>
<path class="narcon_1" d="M106.23,88.079c-4.107-2.202-8.801-3.455-13.787-3.455c-16.139,0-29.222,13.082-29.222,29.22
	c0,13.881,9.685,25.495,22.662,28.472c-2.421-5.201-3.774-10.998-3.774-17.113C82.109,108.645,92.019,94.401,106.23,88.079"/>
<path class="narcon_1" d="M160.222,144.664c3.613-0.562,7.145-1.997,10.268-4.354c10.104-7.63,12.11-22.006,4.48-32.11
	c-6.561-8.692-18.115-11.385-27.648-7.114c3.975,2.112,7.563,5.103,10.455,8.933C165.604,120.386,166.131,133.986,160.222,144.664"
	/>
<path class="narcon_3" d="M210.101,14.573c-6.982-3.008-12.839-8.136-16.76-14.573c-2.854,5.201-4.479,11.174-4.479,17.527
	c0,0.979,0.038,1.952,0.113,2.91c5.714-3.723,12.54-5.885,19.871-5.885C209.267,14.553,209.687,14.56,210.101,14.573"/>
<path class="narcon_4" d="M38.074,34.009c-7.643,5.601-17.068,8.906-27.267,8.906c-3.716,0-7.329-0.438-10.788-1.27
	C0.006,42.067,0,42.489,0,42.913c0,23.397,17.404,42.731,39.972,45.764c-6.721-7.58-10.803-17.555-10.803-28.483
	C29.169,50.338,32.49,41.257,38.074,34.009"/>
<path class="narcon_3" d="M245.189,48.098c-5.713,3.72-12.54,5.886-19.871,5.886c-19.156,0-34.857-14.775-36.343-33.546
	c-9.251,6.025-15.597,16.138-16.479,27.772c-4.315-1.652-9.002-2.56-13.902-2.56c-8.918,0-17.135,3.005-23.691,8.061
	c-5.938-3.103-12.693-4.857-19.857-4.857c-0.504,0-1.007,0.008-1.507,0.026c-3.743-13.738-14.136-24.734-27.507-29.316
	c-4.367-1.496-9.052-2.309-13.926-2.309c-9.324,0-17.951,2.97-24.991,8.02c-2.601,3.306-5.644,6.248-9.04,8.734
	c-5.584,7.248-8.906,16.329-8.906,26.185c0,10.929,4.083,20.903,10.804,28.483c2.031,0.272,4.102,0.412,6.208,0.412
	c3.825,0,7.545-0.464,11.099-1.341c-3.426,2.254-6.533,4.952-9.238,8.011c-5.543,6.263-9.411,14.042-10.904,22.634
	c6.011-2.865,12.742-4.469,19.843-4.469c9.751,0,36.99,14.808,51.5,19.438c4.78-17.359,20.678-30.112,39.557-30.112
	c12.701,0,24.053,5.772,31.579,14.836c5.61,2.748,10.503,6.732,14.317,11.604c5.943-7.225,9.51-16.478,9.51-26.565
	c0-5.956-1.245-11.621-3.488-16.752c2.846,0.716,5.824,1.094,8.892,1.094c20.136,0,36.456-16.326,36.456-36.457
	C245.302,50.03,245.265,49.059,245.189,48.098"/>
<path class="narcon_4" d="M148.037,103.25c-18.879,0-34.776,12.753-39.557,30.112c2.69,0.858,4.943,1.366,6.566,1.366
	c4.093,0,8.054-0.571,11.804-1.644c0.519-0.146,1.032-0.306,1.542-0.47c0.875-0.286,1.737-0.6,2.587-0.939
	c5.812-2.325,10.998-5.881,15.232-10.351c3.889,1.308,8.053,2.015,12.385,2.015c7.395,0,14.308-2.065,20.191-5.651
	c0.279,0.128,0.554,0.263,0.829,0.397C172.089,109.022,160.738,103.25,148.037,103.25"/>
<path class="narcon_4" d="M244.759,23.74c-2.48,0-4.9-0.252-7.242-0.725c-6.615-5.323-15.023-8.512-24.175-8.512
	c-1.046,0-2.082,0.044-3.106,0.125c-0.045-0.019-0.09-0.036-0.135-0.056c-0.414-0.014-0.834-0.021-1.255-0.021
	c-7.331,0-14.157,2.162-19.871,5.885c0.067,0.843,0.162,1.678,0.286,2.504c2.617,17.563,17.762,31.042,36.057,31.042
	c7.332,0,14.158-2.166,19.871-5.886c2.004-1.306,3.868-2.804,5.573-4.466c6.339-6.18,10.438-14.648,10.955-24.068
	C256.652,22.231,250.884,23.74,244.759,23.74"/>
<path class="narcon_1" d="M222.501,31.884c0.221,1.056,1.014,1.781,1.773,1.624c0.758-0.158,1.195-1.143,0.975-2.197
	c-0.221-1.056-1.014-1.782-1.771-1.624C222.718,29.846,222.281,30.829,222.501,31.884"/>
<path class="narcon_1" d="M264.644,18.314c0-1.394-1.13-2.523-2.523-2.523c-1.395,0-2.524,1.13-2.524,2.523
	c0,1.396,1.13,2.523,2.524,2.523C263.514,20.838,264.644,19.71,264.644,18.314"/>
<g>
</g>
<g>
</g>
<g>
</g>
<g>
</g>
<g>
</g>
<g>
</g>
</svg>
