<?xml version="1.0" encoding="utf-8"?>
<!-- Generator: Adobe Illustrator 16.0.3, SVG Export Plug-In . SVG Version: 6.00 Build 0)  -->
<!DOCTYPE svg PUBLIC "-//W3C//DTD SVG 1.1 Basic//EN" "http://www.w3.org/Graphics/SVG/1.1/DTD/svg11-basic.dtd">
<svg version="1.1" baseProfile="basic" id="Layer_1"
	 xmlns="http://www.w3.org/2000/svg" xmlns:xlink="http://www.w3.org/1999/xlink" x="0px" y="0px" width="193.19px"
	 height="220.573px" viewBox="0 0 193.19 220.573" xml:space="preserve">
<style type="text/css">
<![CDATA[
	.narcon_2{fill:#9AC6EA;}
	.narcon_1{fill:#072B31;}
	.narcon_4{fill:#DCE5ED;}
]]>
</style>
<polygon class="narcon_4" points="43.245,27.583 43.252,27.583 43.245,27.58 "/>
<path class="narcon_4" d="M43.284,27.597c0,0-0.004-0.012-0.005-0.012c0,0,0-0.001,0.001-0.002h-0.028
	C43.263,27.587,43.273,27.59,43.284,27.597"/>
<path class="narcon_4" d="M95.246,201.02c0.265,0.256,0.537,0.51,0.817,0.763c-0.169-0.312-0.331-0.634-0.52-0.863
	C95.443,200.953,95.346,200.988,95.246,201.02"/>
<path class="narcon_4" d="M166.626,154.436c5.924,7.293,8.372,16.792,5.769,25.948c-4.205,14.783-20.081,23.396-36.327,20.225
	c10.135,3.057,17.414,10.896,19.578,19.883c16.672,1.066,32.003-8.457,36.362-23.781
	C197.012,179.113,185.687,160.41,166.626,154.436"/>
<path class="narcon_4" d="M111.268,169.045c0-6.173-1.218-12.087-3.444-17.558c-1.004,4.369-4.791,11.947-4.791,11.947
	c-2.821,4.066-5.04,8.853-6.469,14.115c-0.828,3.055-1.393,6.266-1.65,9.594l-0.205-0.018c-0.223,3.18-0.723,6.253-1.469,9.184
	c-0.564,2.226-1.273,4.369-2.106,6.412c1.309-0.664,2.544-1.187,3.972-1.656c0.1-0.031,0.959,0.715,0.959,0.715l1.1,0.941
	c0,0,1.354-1.641,2.054-2.555c4.026-5.254,8.409-12.396,10.223-18.26c0.105-0.342,0.206-0.68,0.294-1.014
	C110.735,177.094,111.268,173.126,111.268,169.045"/>
<path class="narcon_4" d="M65.794,65.931c-11.898,0-21.544,8.774-21.544,19.598c0,5.846,2.817,11.097,7.283,14.688
	c-0.026,0.041,0.72,1.078,1.842,2.694c2.611,3.76,7.262,10.659,8.983,15.468c0.055,0.151,0.106,0.3,0.155,0.446
	c1.453,4.431,2.216,9.135,2.174,14.004c-0.009,1.108-0.06,2.209-0.152,3.299c0.114-0.038,0.228-0.079,0.341-0.117
	c-0.041-0.852-0.061-1.712-0.051-2.577c0.042-4.839,0.877-9.506,2.394-13.894c2.629-7.615,7.306-14.398,13.441-19.824l-0.003-0.002
	c3.928-3.406,6.442-8.146,6.663-13.419c0.013-0.255,0.019-0.51,0.019-0.766C87.339,74.705,77.692,65.931,65.794,65.931"/>
<path class="narcon_4" d="M72.779,30.367c-0.548-0.555-1.063-1.139-1.544-1.742c-0.557-0.517-1.17-0.987-1.831-1.397
	c-1.163-0.732-2.473-1.285-3.879-1.617c-1.005-0.239-2.06-0.367-3.147-0.367c-0.1,0-0.2,0.008-0.301,0.01
	c-0.09,0.002-0.178,0.005-0.267,0.009c-0.412,0.016-0.822,0.044-1.224,0.097c-1.295,0.169-2.528,0.523-3.661,1.028
	c-1.19,0.529-6.145,1.726-6.145,1.726c-0.705,0-4.643-0.102-5.969-0.46c-0.019-0.005,0.325-0.01,0.325-0.015v-0.012
	c0-0.004-1.488-0.338-1.85-0.338h-0.004c-0.021,0,0.15,0.161,0.129,0.161c3.176,1.839,8.725,15.03,8.725,15.03v0.082
	c2,3.261,5.738,5.727,10.24,5.727h0.006h0.754v-0.277c0,0-0.172,0.141-0.072,0.137c0.094-0.003-0.189,0.14-0.098,0.14h0.002
	c0.664,0,1.313-0.291,1.945-0.435c0.155-0.035,0.311-0.148,0.464-0.183l0.003-0.045c1.118-0.253,2.175-0.672,3.151-1.184
	c0.104-0.053,0.208-0.118,0.31-0.175c0.758-0.423,1.463-0.925,2.104-1.484c0.031-0.028,0.063-0.062,0.095-0.091
	c1.401-1.248,2.469-2.793,3.104-4.516c0.002-0.008-0.007-0.018-0.007-0.025v-0.002c0-0.001,0.184-0.003,0.185-0.003
	c0.411-1.122,0.815-2.336,0.815-3.583v-0.008c0-0.32-0.184-0.646-0.212-0.962C74.749,33.675,73.88,31.892,72.779,30.367"/>
<polygon class="narcon_4" points="43.215,27.612 43.22,27.612 43.218,27.611 "/>
<path class="narcon_1" d="M57.47,29.817c0,1.067,0.685,1.933,1.528,1.933c0.843,0,1.527-0.866,1.527-1.933s-0.685-1.934-1.527-1.934
	C58.154,27.883,57.47,28.75,57.47,29.817"/>
<polygon class="narcon_4" points="74.179,40.149 74.172,40.149 74.172,40.161 74.179,40.151 "/>
<path class="narcon_2" d="M168.911,155.458c-1.263-0.891-2.597-1.691-3.994-2.398c-4.678-2.384-10.07-3.74-15.813-3.74
	c-1.732,0-3.429,0.123-5.085,0.363c-0.225,0.073-0.448,0.141-0.676,0.207c-1.364,0.396-2.781,0.688-4.241,0.861
	c-13.022,3.833-13.028,3.814,0-0.018c-1.083,0.133-2.187-0.125-3.308-0.125c-5.896,0-11.31-1.32-15.565-5.32h-0.005
	c-5.645-4-9.066-20.458-8.708-21.982c0-0.005-8.055-28.875-8.055-28.875c0.496-2.269,0.844-4.503,1.026-6.862
	c0.104-1.332,0.157-2.638,0.157-3.996c0-10.829-3.378-20.921-9.234-29.489c0.003-0.002,0.006,0.007,0.009,0.007
	c-0.001-0.001-0.002,0.004-0.002,0.002c9.223-3.593,15.686-11.922,15.686-21.629c0-1.579-0.17-3.12-0.499-4.61
	c-4.28,5.892-11.63,9.781-19.974,9.781c-7.096,0-13.473-2.81-17.851-7.272c1.101,1.524,1.97,3.302,2.146,5.221
	c0.031,0.318,0.213,0.639,0.213,0.964v0.007v0.008c0,1.247-0.388,2.53-0.8,3.652c0,0.001-0.164,0.073-0.164,0.073h-0.036v-0.139
	c0,0,0.072,0,0.072,0.001c-0.015,0.042-0.023,0.083-0.041,0.126c-0.002-0.039,0-0.078-0.004-0.116
	c-0.002,0.005-0.002,0.009-0.003,0.014c0.001,0.04,0.006,0.081,0.01,0.122c-0.642,1.675-1.745,3.175-3.132,4.393
	c-0.031,0.03-0.062,0.06-0.094,0.088c-0.641,0.559-1.345,1.056-2.104,1.48c-0.102,0.057-0.388,0.111-0.492,0.166
	c-0.96,0.51-2.213,0.906-3.213,1.157v0.004c0,0.04-0.215,0.234-0.406,0.27c-0.631,0.143-1.098,0.434-1.762,0.434h-0.002
	c-0.092,0,0.191-0.208,0.098-0.205c-0.1,0.005,0.072-0.138,0.072-0.138v0.099v0.244h-0.754h-0.006
	c-4.502,0-8.449-2.396-10.627-5.657c0,0-1.801-3.861-1.801-5.989c0-0.298-0.182-0.745-0.32-0.761
	c0.002-0.002,0.007,0.055,0.012,0.052c-0.021-0.006-0.041-0.238-0.059,0.076c0-0.314,0,0,0,0c-0.002-0.314-0.004-0.114-0.005-0.119
	c-0.849-3.44-3.178-6.506-6.347-8.411c0.019-0.003,0.035-0.191,0.053-0.191h0.003c-0.002,0-0.005,0.153-0.007,0.154
	c0.364,0.002,1.11,0.088,1.474,0.096c0.001,0,0.384,0.082,0.384,0.094v0.006c0,0.005-0.344,0.01-0.325,0.014
	c0.027,0.001-0.139,0.003-0.112,0.003c1.305,0.344,2.587,0.531,4.015,0.531c0.631,0,4.078,0.099,5.046,0.255
	c0.939-0.83,1.998-1.543,3.189-2.071c1.133-0.506,2.354-0.85,3.648-1.019c0.401-0.053,0.806-0.077,1.218-0.094
	c0.088-0.004,0.175-0.004,0.265-0.006c0.1-0.003,0.198-0.01,0.299-0.01c1.088,0,2.141,0.13,3.146,0.369
	c1.406,0.331,2.715,0.884,3.878,1.618c-0.995-1.252-2.133-2.41-3.383-3.454c-1.095-0.914-2.282-1.742-3.544-2.467
	c-0.246-0.143-0.49-0.278-0.741-0.411c-0.657-0.351-1.333-0.672-2.026-0.965c-0.23-0.099-0.464-0.193-0.698-0.285
	C56.94,13.698,50.397,6.204,44.417,4.332c1.619,2.607,2.482,5.613,2.482,8.818c0,1.651-0.762,3.249-0.762,4.766v0.001
	c-4,0.387-7.359,1.563-10.479,3.345c0-0.002,0.027-0.003,0.027-0.004c-0.873,0.498-1.698,1.045-2.494,1.635
	c-5.382-0.732-10.318-2.686-14.473-5.536c-4.174-2.866-7.552-6.642-9.779-11.005c-0.613-1.203-1.138-2.452-1.568-3.74
	c-2.97,4.416-4.68,9.611-4.68,15.163c0,7.058,2.761,13.528,7.352,18.567c1.894,2.079,4.098,3.912,6.549,5.438
	c1.859,1.167,15.514,11.302,17.613,17.286c4.155,2.775,4.158,2.777-0.001,0c5.604,8.435,8.824,18.328,8.824,28.904
	c0,1.931-0.106,3.844-0.316,5.726c-1.138,10.19-5.284,19.574-11.611,27.406c-1.604,1.336-3.179,2.943-4.442,4.773
	c-3.117,3.08-6.521,5.845-10.521,8.227v0.188h0.239c-0.808,0-1.631,0.904-2.465,1.378C5.253,144.587,0,156.259,0,169.092
	c0,3.363,0.362,6.626,1.049,9.808c0.003,0,0.004-0.004,0.004-0.004c0.853,3.931,2.21,7.693,3.999,11.24
	c1.242,2.285,4.736,7.604,11.973,11.482c-4.466-6.313-7.226-13.723-7.671-21.688c-0.111-0.006-0.209-0.011-0.304-0.015
	c-2.17-0.114-2.398-0.135-0.678-0.045c0.277,0.014,0.602,0.031,0.981,0.052c-0.044-0.759-0.064-1.522-0.064-2.29
	c0-11.307,4.647-21.623,12.297-29.461c0.373,3.573,2.276,8.9,3.435,11.895c0.528,1.369,0.903,2.25,0.903,2.25
	c2.618,4.181,4.633,9.027,5.858,14.313c0.729,3.146,1.379,10.301,1.508,11.067c0.581,3.466,2.388,13.474,4.643,18.421
	c0.055,0.116,0.107,0.233,0.162,0.347c1.84,3.801,4.135,7.193,6.781,10.046c3.027-3.769,5.442-8.342,7.061-13.454
	c0.031-0.097,0.062-0.197,0.091-0.298c1.02-3.426,1.789-9.479,2.162-12.825c0.161-1.449,0.247-2.393,0.247-2.393
	c0.006-9.092,2.333-17.475,6.289-24.164c0,0,0.429-1.128,1.013-2.891c1.253-3.776,3.228-10.467,3.246-15.209
	c-0.003-0.166,0-0.33-0.005-0.496c-0.001-0.147-0.006-0.295-0.014-0.443c-0.027-0.766-0.082-1.521-0.156-2.271
	c0.135,0.063,0.271,0.123,0.406,0.185c-0.023,0.36-0.045,0.724-0.059,1.089c-0.004,0.12-0.008,0.241-0.008,0.362
	c-0.128,4.372,1.639,11.071,2.618,14.42c0.369,1.267,0.629,2.058,0.629,2.058c3.657,6.914,5.652,15.424,5.307,24.561l0.136,0.004
	c-0.395,10.361,2.229,19.91,6.869,27.246c0.767,1.212,1.586,2.365,2.459,3.451c3.25-3.508,5.97-7.828,7.967-12.719
	c0.832-2.043,1.54-4.187,2.105-6.412c0.746-2.931,1.675-9.166,1.675-9.166c0.257-3.328,0.821-6.539,1.649-9.594
	c1.429-5.263,3.647-10.049,6.469-14.115c0,0,3.787-7.578,4.791-11.947c2.226,5.471,3.444,11.385,3.444,17.558
	c0,4.081-0.532,8.049-1.534,11.849c-0.088,0.334-0.188,0.672-0.294,1.014c-1.912,6.619-6.37,12.705-10.835,17.973
	c0.156-0.025,0.527,0.002,1.069,0.078c-0.102,0.094-0.257,0.162-0.458,0.209c-0.699,0.914-1.39,1.773-2.052,2.555
	c7.126,5.846,18.399,10.399,28.161,10.399c1.324,0,2.632-0.063,3.921-0.188c-0.032-0.054-0.066-0.107-0.099-0.162
	c0.032,0.053,0.067,0.104,0.099,0.158c3.49-0.333,6.834-1.105,9.968-2.256c0,0,0,0.002,0.002,0.002
	c0.041,0.053,0.09,0.1,0.134,0.148c2.899-1.299,6.082-2.157,9.439-2.469c0.94-0.088,1.894-0.131,2.857-0.131
	c0.168,0,0.335,0,0.499,0.006c16.496-1.395,29.411-14.021,29.411-29.39C181.557,169.32,176.604,160.855,168.911,155.458
	 M87.32,86.295c-0.221,5.272-2.735,10.013-6.663,13.419l0.003,0.002c-6.136,5.426-10.813,12.209-13.442,19.824
	c-1.516,4.388-2.351,9.055-2.393,13.895c-0.009,0.864,0.01,1.725,0.051,2.576c-0.113,0.038-0.227,0.079-0.341,0.117
	c0.093-1.089,0.144-2.189,0.152-3.298c0.042-4.87-0.722-9.574-2.174-14.007c-0.049-0.145-0.101-0.293-0.154-0.444
	c-1.723-4.81-6.373-11.708-8.984-15.468c-1.122-1.616-1.868-2.653-1.842-2.694c-4.466-3.591-7.283-8.842-7.283-14.689
	c0-10.823,9.646-19.597,21.544-19.597s21.545,8.774,21.545,19.597C87.339,85.785,87.333,86.041,87.32,86.295"/>
<path class="narcon_1" d="M17.024,201.618c-7.236-3.879-10.73-9.198-11.973-11.483c5.074,10.053,13.659,18.338,24.336,23.543
	c0.023-0.031,0.05-0.06,0.074-0.09C24.543,210.341,20.319,206.276,17.024,201.618"/>
<path class="narcon_1" d="M17.024,201.618c3.295,4.658,7.519,8.724,12.438,11.97c2.289-2.892,5.231-5.324,8.633-7.123
	c-0.055-0.115-0.107-0.231-0.162-0.347C28.839,206.3,22.035,204.304,17.024,201.618"/>
<path class="narcon_4" d="M37.933,206.118c-2.255-4.947-4.063-14.955-4.643-18.421c-0.129-0.766-0.197-1.215-0.197-1.215
	c-0.132-3.407-0.581-6.709-1.311-9.852c-1.226-5.287-3.24-10.134-5.858-14.314c0,0-0.374-0.883-0.903-2.25
	c-1.158-2.993-3.062-8.321-3.435-11.895c-7.649,7.838-12.298,18.154-12.298,29.461c0,0.769,0.021,1.531,0.065,2.289
	c-0.362-0.02-2.269-0.109-0.303-0.007c0.099,0.005,0.196,0.011,0.303,0.017c0.446,7.963,3.205,15.373,7.671,21.687
	C22.035,204.304,28.839,206.3,37.933,206.118"/>
<path class="narcon_4" d="M9.354,179.93c-0.106-0.005-0.204-0.011-0.303-0.017C9.145,179.919,9.242,179.924,9.354,179.93"/>
<path class="narcon_4" d="M77.44,205.659c-2.558-6.169-3.892-13.323-3.602-20.915l-0.136-0.004c0.347-9.137-1.649-17.646-5.307-24.561
	c0,0-0.26-0.791-0.629-2.058c-0.979-3.35-2.746-10.047-2.618-14.42c0-0.121,0.004-0.241,0.008-0.362
	c0.014-0.365,0.035-0.729,0.06-1.089c-0.137-0.063-0.272-0.122-0.407-0.186c0.075,0.75,0.129,1.507,0.157,2.272
	c0.007,0.148,0.012,0.297,0.013,0.444c0.005,0.166,0.002,0.329,0.005,0.495c-0.018,4.74-1.993,11.434-3.246,15.21
	c-0.584,1.762-1.013,2.89-1.013,2.89c-3.956,6.69-6.283,15.072-6.289,24.164c0,0-0.086,0.942-0.247,2.391
	c-0.373,3.348-1.144,9.401-2.162,12.828c-0.029,0.101-0.06,0.201-0.091,0.297c0.036,0,0.071-0.002,0.107-0.002
	c5.747,0,11.084,1.013,15.518,3.209C70.886,206.378,74.253,206.117,77.44,205.659"/>
<path class="narcon_1" d="M67.562,206.264c3.622,1.795,6.64,4.381,8.775,7.86c0.516,0.83,0.977,1.69,1.38,2.574
	c0.347-1.256,0.799-2.474,1.346-3.646c0.478-1.026,1.029-0.112,1.646-1.062c-1.24-1.963-2.335-4.082-3.268-6.332
	C74.254,206.117,70.886,206.378,67.562,206.264"/>
<path class="narcon_1" d="M10.245,2.612C10.245,1.169,8.96,0,7.374,0C5.787,0,4.501,1.169,4.501,2.612s1.286,2.613,2.873,2.613
	C8.96,5.225,10.245,4.055,10.245,2.612"/>
<g>
</g>
<g>
</g>
<g>
</g>
<g>
</g>
<g>
</g>
<g>
</g>
</svg>
