<?xml version="1.0" encoding="utf-8"?>
<!-- Generator: Adobe Illustrator 16.0.3, SVG Export Plug-In . SVG Version: 6.00 Build 0)  -->
<!DOCTYPE svg PUBLIC "-//W3C//DTD SVG 1.1 Basic//EN" "http://www.w3.org/Graphics/SVG/1.1/DTD/svg11-basic.dtd">
<svg version="1.1" baseProfile="basic" id="Layer_1"
	 xmlns="http://www.w3.org/2000/svg" xmlns:xlink="http://www.w3.org/1999/xlink" x="0px" y="0px" width="245.057px"
	 height="149.022px" viewBox="0 0 245.057 149.022" xml:space="preserve">
<style type="text/css">
<![CDATA[
	.narcon_4{fill:#DCE5ED;}
]]>
</style>
<path class="narcon_4" d="M245.057,15.036c0-5.735-2.081-10.985-5.527-15.036c-1.554,10.292-9.866,18.37-20.274,19.564
	c-4.834-2.877-10.484-4.528-16.518-4.528h-0.141c-1.342,0.006-2.664,0.093-3.963,0.257c-5.012,0.634-9.664,2.414-13.689,5.068
	c-3.983-7.044-11.545-11.796-20.213-11.796c-3.793,0-7.375,0.911-10.537,2.525c4.969,2.166,9.031,6.019,11.463,10.837
	c1.589,3.141,2.484,6.691,2.484,10.452c0,0.147-0.002,0.295-0.006,0.441c-5.291,4.164-8.726,10.581-8.859,17.804
	c-0.004,0.146-0.006,0.294-0.006,0.441c0,0.442,0.013,0.88,0.039,1.315c-0.57-0.202-1.149-0.38-1.736-0.536
	c-1.84-0.491-3.77-0.758-5.76-0.776c-0.074-0.003-0.147-0.003-0.222-0.003c-2.386,0-4.685,0.36-6.851,1.029
	c-5.354-2.966-11.29-5.015-17.594-5.931l-0.998-0.135c-2.143-0.271-4.326-0.409-6.544-0.409c-16.362,0-30.961,7.563-40.485,19.386
	l-0.111,0.137c-0.625-1.063-1.298-2.098-2.01-3.1c-7.689-10.798-20.313-17.84-34.579-17.84C18.991,44.204,0,63.194,0,86.623
	c0,8.583,2.549,16.57,6.933,23.246c4.08-6.648,11.418-11.083,19.792-11.083c3.998,0,7.762,1.011,11.046,2.793l0.001,0.002
	c1.357,0.735,2.632,1.603,3.808,2.583c4.06,2.291,8.748,3.598,13.742,3.598c4.611,0,8.961-1.114,12.797-3.09
	c0.608,4.462,1.782,8.743,3.45,12.771c4.948,11.964,14.24,21.674,25.906,27.172c0.969-5.313,4.411-12.172,4.411-12.172
	c5.071,6.34,12.874,10.402,21.626,10.402c1.348,0,2.678-0.097,3.976-0.284c-6.251-5.076-10.244-12.821-10.244-21.498
	c0-1.533,0.13-3.035,0.37-4.5c0.065-0.036,0.125-0.079,0.191-0.114c5.777-3.179,12.413-4.987,19.471-4.987
	c10.81,0,20.629,4.238,27.888,11.145c2.802,2.666,5.222,5.731,7.169,9.102c2.881,4.986,4.729,10.644,5.252,16.68
	c0.021,0.211,0.045,0.423,0.063,0.635c1.781-8.714,6.824-15.458,13.098-21.287c2.361-0.53,4.636-1.289,6.806-2.239
	c1.039-0.128,2.089-0.217,3.162-0.217c11.755,0,21.675,7.855,24.796,18.603c0.666-2.289,1.023-4.713,1.023-7.218
	c0-8.166-3.791-15.445-9.708-20.176c-1.348-1.076-2.806-2.014-4.353-2.805c1.49-1.974,2.799-4.091,3.881-6.342
	c2.178-4.53,3.473-9.566,3.662-14.881c0.019-0.454,0.026-0.912,0.026-1.369c0-5.206-1.06-10.162-2.973-14.669
	c10.687-5.284,18.034-16.296,18.034-29.024c0-1.337-0.082-2.656-0.239-3.951c-0.338-2.778-1.029-5.448-2.025-7.964
	C240.112,31.566,245.057,23.877,245.057,15.036 M218.041,91.092c0,0.431-0.008,0.86-0.025,1.298
	c-0.176,4.927-1.342,9.666-3.465,14.086c-1.133,2.354-2.526,4.585-4.143,6.631l-0.032,0.039l-0.009,0.012l-0.056,0.068
	c-2.334,2.929-5.101,5.464-8.226,7.534c-3.61,2.391-7.573,4.081-11.779,5.024l-0.527,0.118l-0.396,0.368
	c-5.123,4.759-8.764,9.501-11.113,14.533c-0.877-3.241-2.139-6.365-3.781-9.343c0.855-3.052,1.287-6.213,1.287-9.409
	c0-19.204-15.625-34.828-34.828-34.828c-19.205,0-34.829,15.624-34.829,34.828c0,0.335,0.005,0.673,0.015,1.012
	c-4.906,5.286-8.351,11.661-10.072,18.605c-10.214-5.456-18.203-14.247-22.645-24.991c-1.627-3.928-2.742-8.058-3.316-12.275
	l-0.382-2.805l-2.516,1.296c-3.695,1.903-7.693,2.868-11.881,2.868c-4.417,0-8.771-1.124-12.607-3.254
	c-1.189-0.978-2.472-1.848-3.82-2.592c-6.085-4.967-9.572-12.303-9.572-20.153c0-14.336,11.663-25.999,25.999-25.999
	c7.804,0,15.121,3.46,20.086,9.495c0.674,0.951,1.305,1.927,1.876,2.898l1.457,2.48l1.818-2.23l0.118-0.146
	c9.544-11.846,23.732-18.641,38.928-18.641c2.113,0,4.231,0.133,6.281,0.393l0.975,0.131c5.955,0.865,11.646,2.784,16.91,5.701
	l0.746,0.413l0.814-0.252c2.021-0.624,4.127-0.94,6.261-0.94h0.05c0.03,0,0.061,0.001,0.09,0.002l0.033,0.001h0.03
	c1.791,0.017,3.562,0.255,5.265,0.709c0.123,0.033,0.246,0.067,0.366,0.102c0.015,0.132,1.041,0.347,2.093,0.563
	c0.291,2.011,0.838,3.938,1.613,5.744c0.458,1.072,0.994,2.102,1.602,3.083c1.215,1.963,2.713,3.73,4.438,5.245
	c0.862,0.757,1.782,1.451,2.751,2.074c1.505,0.973,4.882,3.25,4.882,3.69c0,3.837-0.938,7.449-2.586,10.636
	c0.59,0.229,1.102,0.595,1.518,1.057c0.003-0.003,0.006-0.007,0.009-0.01c0.004,0.013,0.01,0.023,0.014,0.037
	c0.007,0.008,0.013,0.017,0.021,0.025c0.082-0.114,0.164-0.214,0.246-0.324c4.52-4.296,10.628-6.938,17.354-6.938
	c0.701,0,1.396,0.028,2.081,0.087c-0.006-0.012,0.021-0.017,0.07-0.018c0.026,0,0.067,0.002,0.108,0.005
	c0.024,0.001,0.042,0.001,0.071,0.004c0.063,0.005,0.141,0.013,0.223,0.021c0.024,0.003,0.041,0.005,0.067,0.008
	c0.115,0.013,0.247,0.029,0.394,0.048c0.014,0.002,0.028,0.004,0.041,0.005c0.33,0.043,0.731,0.098,1.18,0.158
	c0.124,0.017,0.246,0.033,0.376,0.051c0.099,0.013,0.2,0.026,0.303,0.04c0.129,0.017,0.257,0.034,0.392,0.052
	c0.1,0.013,0.2,0.026,0.303,0.039c0.132,0.017,0.264,0.034,0.398,0.051c0.11,0.015,0.222,0.028,0.334,0.042
	c0.132,0.017,0.267,0.032,0.401,0.049c0.114,0.014,0.229,0.027,0.344,0.04c0.135,0.017,0.271,0.031,0.407,0.047
	c0.115,0.013,0.229,0.025,0.346,0.037c0.141,0.016,0.279,0.029,0.419,0.042c0.11,0.012,0.221,0.023,0.33,0.033
	c0.143,0.014,0.282,0.025,0.423,0.038c0.107,0.009,0.215,0.019,0.32,0.026c0.142,0.012,0.278,0.021,0.417,0.03
	c0.1,0.007,0.201,0.014,0.3,0.02c0.155,0.01,0.303,0.016,0.453,0.022c0.073,0.003,0.15,0.008,0.223,0.01
	c0.22,0.008,0.433,0.012,0.635,0.012c4.146,0,8.106-0.791,11.75-2.213c0.546,0.489,1.05,1.011,1.488,1.57
	C217.347,82.95,218.041,86.969,218.041,91.092 M173.699,51.797c0-1.678,0.978-3.037,2.185-3.037c1.205,0,2.184,1.359,2.184,3.037
	c0,1.677-0.979,3.037-2.184,3.037C174.677,54.834,173.699,53.474,173.699,51.797 M199.516,56.883c0-1.838,1.073-3.328,2.394-3.328
	c1.323,0,2.396,1.49,2.396,3.328c0,1.839-1.072,3.329-2.396,3.329C200.589,60.212,199.516,58.722,199.516,56.883 M231.415,32.843
	l-2.35,1.265l0.982,2.481c0.032,0.08,0.527,2.257,0.979,4.236c-2.071-1.177-4.306-2.099-6.666-2.713
	c-2.231-0.579-4.572-0.889-6.985-0.889c-0.709,0-1.41,0.026-2.105,0.078c-1.614,0.122-3.189,0.382-4.714,0.769
	c-1.018,0.257-2.012,0.571-2.979,0.938c-0.969,0.366-1.911,0.786-2.824,1.254c-0.457,0.234-0.905,0.481-1.347,0.739
	c-2.646,1.551-5.011,3.526-7.001,5.835c-1.99,2.308-3.606,4.947-4.752,7.825c-2.936-0.735-6.008-1.127-9.17-1.127
	c-0.229,0-0.455,0.002-0.684,0.008c0.448-1.976,0.684-4.031,0.684-6.144c0-0.217-0.002-0.435-0.008-0.651
	c-0.02-0.82-0.074-1.631-0.164-2.432c-0.047-0.436-0.131-0.86-0.198-1.289c-0.058-0.357-0.097-0.721-0.169-1.073
	c-0.114-0.58-0.266-1.146-0.418-1.712c-0.049-0.19-0.086-0.386-0.141-0.573c-0.193-0.663-0.418-1.31-0.658-1.951
	c-0.03-0.083-0.054-0.169-0.084-0.252c-0.272-0.703-0.574-1.391-0.898-2.065c-0.008-0.016-0.014-0.031-0.02-0.047
	c-1.043-2.152-2.351-4.152-3.89-5.949c-0.132-0.153-0.267-0.307-0.401-0.457c-1.58,0.501-3.074,1.186-4.484,1.996
	c0.052-1.571,0.043-2.698-0.124-2.652c-0.418-2.68-1.251-5.262-2.491-7.714c-1.716-3.399-4.148-6.369-7.094-8.714
	c1.141-0.197,2.306-0.297,3.49-0.297c7.273,0,14.018,3.937,17.602,10.273l1.581,2.796l2.682-1.769
	c3.768-2.484,7.944-4.031,12.414-4.597c1.186-0.149,2.396-0.229,3.587-0.233h0.141c5.288,0,10.469,1.42,14.982,4.106l0.871,0.519
	l1.006-0.116c9.32-1.069,17.183-7.033,20.898-15.297c1.022,2.448,1.562,5.096,1.562,7.788
	C242.057,22.485,237.978,29.308,231.415,32.843"/>
<path class="narcon_4" d="M170.509,85.634c-1.656,0-3.003,1.347-3.003,3.003c0,1.655,1.347,3.001,3.003,3.001
	c1.654,0,3.002-1.346,3.002-3.001C173.511,86.98,172.163,85.634,170.509,85.634 M170.509,90.638c-1.105,0-2.003-0.896-2.003-2.001
	c0-1.106,0.897-2.003,2.003-2.003c1.104,0,2.002,0.896,2.002,2.003C172.511,89.742,171.612,90.638,170.509,90.638"/>
<g>
</g>
<g>
</g>
<g>
</g>
<g>
</g>
<g>
</g>
<g>
</g>
</svg>
