<?xml version="1.0" encoding="utf-8"?>
<!-- Generator: Adobe Illustrator 16.0.3, SVG Export Plug-In . SVG Version: 6.00 Build 0)  -->
<!DOCTYPE svg PUBLIC "-//W3C//DTD SVG 1.1 Basic//EN" "http://www.w3.org/Graphics/SVG/1.1/DTD/svg11-basic.dtd">
<svg version="1.1" baseProfile="basic" id="Layer_1"
	 xmlns="http://www.w3.org/2000/svg" xmlns:xlink="http://www.w3.org/1999/xlink" x="0px" y="0px" width="151.018px"
	 height="144.519px" viewBox="0 0 151.018 144.519" xml:space="preserve">
<style type="text/css">
<![CDATA[
	.narcon_4{fill:#E2EAF1;}
]]>
</style>
<path class="narcon_4" d="M124.029,144.519c-0.194,0-0.387-0.068-0.54-0.202c-4.299-3.748-3.032-8.24-1.226-12.142
	c1.254-2.69,0.896-3.965,0.354-5.896c-0.257-0.915-0.549-1.952-0.725-3.295c-0.603-4.604,1.57-8.231,3.67-11.742
	c0.984-1.646,1.92-3.208,2.585-4.86l-4.117-0.785c-0.08,0.062-0.158,0.123-0.235,0.186c0.032,0.043,0.066,0.086,0.1,0.129
	c0.318,0.41,0.646,0.834,0.922,1.27c0.154,0.244,0.169,0.551,0.039,0.809c-0.131,0.258-0.385,0.428-0.674,0.449
	c-0.586,0.044-1.131,0.011-1.616-0.09c0.094,0.086,0.188,0.168,0.28,0.246c0.229,0.195,0.336,0.498,0.274,0.794
	s-0.278,0.534-0.567,0.62c-0.94,0.283-1.806,0.125-2.455-0.168c-0.059,0.099-0.115,0.197-0.17,0.295
	c0.467,0.541,0.953,0.99,1.48,1.361c0.26,0.185,0.391,0.502,0.334,0.815c-0.055,0.313-0.287,0.565-0.595,0.649
	c-0.773,0.207-1.565,0.011-2.155-0.265c-0.172,0.728-0.257,1.294-0.244,1.521c0.068,0.111,0.137,0.236,0.205,0.365
	c0.083,0.151,0.223,0.408,0.295,0.471c0.034,0.031,0.1,0.093,0.129,0.127c0.094,0.099,1.075,1.029,1.258,1.178
	c0.23,0.189,0.34,0.491,0.287,0.785c-0.056,0.295-0.267,0.537-0.552,0.63c-0.628,0.208-1.382,0.321-2.122,0.321
	c-1.211,0-2.24-0.301-2.961-0.859c-0.676,0.114-1.395-0.152-2.025-0.751c-1.193-0.826-2.543-3.096-4.119-6.933
	c-0.152-0.368-0.018-0.793,0.32-1.006s0.778-0.153,1.047,0.143c0.012,0.013,1.008,1.105,2.248,2.035
	c0.029-0.051,0.061-0.104,0.092-0.155c-1.223-1.515-2.118-3.646-2.668-6.349c-0.072-0.356,0.1-0.719,0.422-0.889
	c0.322-0.171,0.718-0.106,0.972,0.154c0.017,0.018,1.444,1.479,3.101,2.6c0.332-0.56,0.711-1.101,1.104-1.662
	c0.265-0.379,0.54-0.771,0.815-1.189l0.226-0.354c1.019-1.582,2.413-3.75,2.991-5.948c0.207-0.81,0.924-1.207,1.447-1.498
	c0.112-0.062,0.271-0.15,0.394-0.232c-0.159-0.182-0.324-0.37-0.492-0.562l-1.655,0.771c-0.19,0.089-0.406,0.101-0.605,0.035
	l-4.241-1.405c-0.663,0.123-2.387,0.739-3.698,1.252l-0.313,2.172c-0.027,0.183-0.115,0.352-0.25,0.479
	c-0.748,0.706-2.99,2.789-4.252,3.621l0.16,3.084c0.006,0.088-0.004,0.176-0.026,0.261l-0.569,2.069
	c-0.016,0.061-0.039,0.117-0.07,0.173l-1.241,2.299c-0.177,2.362,0.254,3.943,0.394,4.384l0.818,0.928
	c0.061,0.07,0.109,0.149,0.145,0.236l2.12,5.25c0.056,0.141,0.074,0.297,0.048,0.445l-0.216,1.262
	c0.298,1.08,1.832,6.836,2.988,14.364c0.037,0.235-0.035,0.5-0.19,0.683c-0.16,0.186-0.404,0.279-0.649,0.291
	c-0.495,0-0.802-0.121-7.278-9.006l-1.383,3.469c-0.119,0.297-0.4,0.5-0.721,0.516c-0.311,0.014-0.621-0.154-0.77-0.439
	c-2.404-4.597-5.137-9.584-6.23-11.262c-0.682,0.734-1.892,2.104-2.977,3.366c-0.16,0.187-0.375,0.305-0.642,0.284
	c-0.246-0.006-0.476-0.121-0.628-0.314c-2.414-3.093-3.524-8.21-3.57-8.427c-0.641-2.127-1.764-3.071-1.775-3.081
	c-1.701-1.469-2.972-2.036-3.92-1.68c-0.356,0.981-0.51,1.97-0.512,1.98l-0.781,5.486c-0.057,0.393-0.385,0.689-0.781,0.705
	c-0.403,0.012-0.746-0.254-0.834-0.639c-0.09-0.401-2.182-9.716-1.933-13.699C71.544,93.669,65.258,91.38,60.604,91.38
	c-2.995,0-5.222,0.955-5.244,0.963c-0.275,0.121-0.595,0.08-0.832-0.103c-0.237-0.184-0.356-0.483-0.308-0.778
	c1.13-6.981,0.673-11.73-1.357-14.115c-1.034-1.215-2.466-1.805-4.378-1.805c-6.287,0-15.234,6.53-16.964,7.84
	c-2.353,1.985-4.552,3.955-6.69,5.992c-0.244,0.231-0.608,0.291-0.913,0.149c-0.306-0.144-0.494-0.459-0.473-0.796
	c0.005-0.094,0.165-2.317,2.274-5.775c1.97-3.234,4.526-9.367,4.551-9.43c2.495-8.22,2.418-14.491-0.257-18.564
	c-3.318-5.053-10.084-5.824-14.127-6.285l-0.257-0.029c-4.099-0.469-6.795-0.659-9.308-0.659c-1.597,0-3.172,0.074-5.434,0.256
	c-0.402,0.037-0.773-0.236-0.865-0.632c-0.093-0.396,0.118-0.799,0.496-0.949c0.087-0.034,8.782-3.499,16.65-7.436
	c6.011-3.606,9.272-7.823,9.638-12.502c0.617-7.859-7.048-15.173-10.372-17.952l-0.213-0.18c-2.295-1.995-7.26-6.979-7.47-7.19
	C8.47,1.118,8.432,0.675,8.66,0.35c0.228-0.325,0.657-0.44,1.019-0.273c0.977,0.454,24.022,11.187,32.204,17.072
	c7.7,5.54,22.149,17.796,23.826,19.222c6.204,1.373,6.459,6.274,6.374,7.851c0.214,0.156,0.375,0.216,0.466,0.216
	c0.229,0,0.528-0.624,0.612-1.029c0.087-0.422,0.49-0.702,0.91-0.65c0.07,0.01,0.138,0.015,0.201,0.015
	c0.287,0,0.341-0.094,0.381-0.162c1.141-1.974-3.664-12.097-7.441-18.654c-0.199-0.346-0.12-0.785,0.186-1.04
	c0.308-0.255,0.754-0.253,1.058,0.005C83.315,35.548,83.685,46.21,83.654,47.764c0.847,2.561-0.684,6.627-0.864,7.091
	c-0.118,0.304-0.405,0.509-0.731,0.523c-0.31,0.01-0.629-0.166-0.771-0.46c-1.998-4.087-3.048-4.909-3.363-5.073
	c-0.154,0.204-0.396,0.329-0.658,0.329h-0.004c-3.648,0-5.123,8.172-5.41,11.546c0.865,2.427,4.202,9.906,12.376,9.906
	c1.775,0,3.697-0.355,5.719-1.054c-0.035-1.328-2.785-3.864-4.977-5.335c-0.254-0.17-0.393-0.466-0.359-0.769
	c0.031-0.303,0.23-0.563,0.513-0.676c1.033-0.41,2.115-0.618,3.218-0.618c3.404,0,6.455,1.912,9.147,3.597
	c1.983,1.242,3.815,2.415,5.116,2.234c0.082-0.011,0.221-0.04,0.242-0.098c0.422-1.149-2.859-5.928-6.188-9.67
	c-0.196-0.222-0.26-0.532-0.164-0.814c0.097-0.28,0.337-0.486,0.629-0.54c0.313-0.057,0.642-0.086,0.974-0.086
	c3.074,0,6.322,2.398,9.187,4.514c1.709,1.263,3.476,2.568,4.31,2.568l0.096-0.011c0.512-0.485-0.396-4.282-2.344-8.448
	c-0.146-0.314-0.08-0.686,0.166-0.93c0.244-0.244,0.615-0.309,0.93-0.16c3.811,1.8,5.423,4.88,6.718,7.355
	c0.94,1.797,1.683,3.215,2.922,3.545c0.086,0.023,0.144,0.027,0.177,0.027c0.682-0.558-0.232-5.088-1.888-9.501
	c-0.137-0.366,0.002-0.778,0.333-0.985s0.762-0.152,1.031,0.131c0.238,0.252,4.615,4.88,7.589,9.186
	c-0.164-0.723-0.338-1.474-0.513-2.198c-0.082-0.349,0.07-0.713,0.379-0.896c0.308-0.184,0.699-0.146,0.969,0.094
	c1.182,1.058,2.243,2.231,3.178,3.512c-15.438-31.48-8.084-41.842-7.74-42.295c0.238-0.316,0.668-0.416,1.022-0.239
	c0.354,0.178,0.531,0.583,0.42,0.964c-3.673,12.623,14.36,45.965,14.543,46.3c0.431,0.712,0.86,1.445,1.313,2.241
	c-0.051-3.55-0.156-7.532-0.301-11.389c-0.393-10.102,2.736-20.642,2.869-21.086c0.123-0.408,0.536-0.654,0.953-0.567
	s0.699,0.477,0.649,0.9c-0.019,0.156-1.798,15.742,2.046,29.609c0.008,0.029,0.014,0.058,0.02,0.088
	c0.07,0.439,1.711,10.678,0.252,16.163c4.576,12.732,1.883,18.164,1.766,18.391c-0.104,0.218-0.234,0.447-0.359,0.669
	c-0.553,0.973-0.719,1.267,0.412,2.243c2.363,2.035,1.755,3.945,1.729,4.025c-0.018,0.051-0.039,0.098-0.064,0.143
	c-3.031,5.326-2.785,7.371-2.539,8.005c0.152,0.391,0.379,0.474,0.404,0.483c0.158,0.03,0.265,0.1,0.379,0.213
	c0.891,0.887,0.994,1.736,0.925,2.295c-0.153,1.228-1.229,2.028-1.588,2.263c-1.534,1.548-3.526,2.332-5.929,2.332
	c-2.73,0.001-4.996-1.041-5.092-1.087c-0.354-0.163-0.543-0.555-0.451-0.934c0.092-0.381,0.442-0.646,0.828-0.63
	c0.008,0,0.15,0.005,0.385,0.005c1.969,0,3.381-0.293,4.055-0.652c-0.811-0.928-1.545-1.508-1.868-1.746
	c-0.972-0.045-4.347-0.316-5.991-1.995c-0.195-0.199-0.276-0.483-0.215-0.755c0.061-0.272,0.256-0.495,0.518-0.592
	c1.348-0.492,2.869-1.26,3.676-1.916c-0.751-0.381-1.751-1.02-2.49-1.967c-0.143-0.184-0.201-0.42-0.16-0.649
	c0.041-0.228,0.178-0.431,0.375-0.552c0.403-0.254,0.898-0.72,1.053-1.074c-0.746-0.282-2.024-0.898-2.824-2.014
	c-0.133-0.184-0.182-0.414-0.139-0.636c0.043-0.223,0.176-0.417,0.367-0.536c0.418-0.266,0.85-0.639,1.088-0.922
	c-0.139-0.051-0.299-0.107-0.48-0.17l-0.889-0.225c-0.34,0.449-0.816,1.02-1.375,1.691c-1.653,1.984-4.149,4.982-4.633,6.76
	c-0.311,1.151,0.449,4.162,1.184,7.072c1.308,5.178,2.66,10.53,0.777,13.137c-0.629,0.871-1.556,1.354-2.755,1.441
	c-0.278,0.018-0.538-0.098-0.706-0.314c-0.17-0.215-0.219-0.502-0.133-0.762c0.264-0.796,0.502-1.826,0.502-2.951
	c-0.311,0.651-0.605,1.153-0.938,1.717l-0.23,0.394c-0.099,0.171-0.18,0.29-0.271,0.423c-0.08,0.116-0.17,0.247-0.299,0.463
	l-0.121,0.19c-0.119,0.187-0.223,0.347-0.426,0.886l-0.015,0.063c-0.121,0.522-0.159,0.681-0.216,1.059
	c-0.215,1.432-0.141,2.842,0.199,3.867c0.119,0.352-0.015,0.736-0.322,0.941C124.345,144.474,124.185,144.519,124.029,144.519
	 M123.825,103.901c0.051,0,0.103,0.005,0.153,0.014l5.164,0.986c0.312,0.059,0.562,0.292,0.641,0.6l0.122,0.434
	c0.046,0.164,0.039,0.339-0.019,0.5c-0.724,1.988-1.838,3.851-2.916,5.652c-2.045,3.418-3.979,6.646-3.449,10.685
	c0.16,1.226,0.435,2.202,0.677,3.065c0.571,2.033,1.065,3.789-0.444,7.03c-1.432,3.093-2.111,5.737-0.908,8.085
	c0.01-0.529,0.056-1.072,0.138-1.623c0.063-0.426,0.104-0.604,0.239-1.188l0.027-0.114c0.008-0.034,0.018-0.068,0.031-0.102
	c0.277-0.744,0.45-1.012,0.604-1.25l0.09-0.145c0.156-0.258,0.262-0.412,0.355-0.55c0.069-0.101,0.131-0.188,0.206-0.317l0.233-0.4
	c0.41-0.695,0.732-1.246,1.104-2.104c0.085-0.194,0.136-0.372,0.185-0.544c0.111-0.375,0.236-0.8,0.578-1.265
	c0.019-0.025,0.039-0.05,0.061-0.073l0.164-0.188c0.193-0.213,0.484-0.309,0.765-0.254c0.282,0.053,0.515,0.252,0.615,0.521
	c0.657,1.776,0.608,3.535,0.334,4.978c0.114-0.095,0.217-0.205,0.31-0.332c1.433-1.983,0.063-7.412-1.039-11.771
	c-0.857-3.4-1.6-6.337-1.178-7.904c0.578-2.124,3.108-5.162,4.956-7.381c0.724-0.869,1.349-1.62,1.599-2.016
	c0.191-0.299,0.551-0.443,0.896-0.354l1.499,0.381c0.875,0.295,1.307,0.492,1.324,0.502c0.201,0.09,0.355,0.26,0.43,0.469
	c0.348,0.975-0.443,1.902-1.156,2.502c0.838,0.689,1.906,0.976,1.92,0.979c0.25,0.064,0.457,0.244,0.555,0.483
	c0.473,1.156-0.288,2.167-0.953,2.779c0.975,0.858,2.172,1.262,2.188,1.267c0.215,0.069,0.392,0.226,0.488,0.429
	c0.098,0.204,0.105,0.439,0.025,0.649c-0.465,1.198-2.338,2.25-3.73,2.889c1.362,0.591,3.184,0.759,3.947,0.769
	c0.154,0,0.305,0.045,0.436,0.129c0.059,0.037,1.469,0.953,2.918,2.813c0.203,0.26,0.23,0.618,0.068,0.906
	c-0.297,0.529-0.838,0.913-1.512,1.188c1.955-0.011,3.56-0.65,4.771-1.904c0.051-0.053,0.109-0.098,0.172-0.135
	c0.211-0.129,0.836-0.613,0.897-1.123c0.028-0.244-0.084-0.512-0.338-0.799c-0.334-0.145-0.865-0.481-1.207-1.232
	c-0.838-1.844,0.009-5.029,2.521-9.467c0.025-0.2,0.055-1.088-1.252-2.213c-2.152-1.859-1.353-3.27-0.768-4.299
	c0.107-0.188,0.218-0.383,0.318-0.591c0.033-0.069,2.484-5.224-1.93-17.345c-0.06-0.165-0.066-0.346-0.017-0.512
	c1.433-4.891-0.101-14.917-0.218-15.658c-1.969-7.13-2.488-14.686-2.517-20.458c-0.528,3.395-0.911,7.33-0.764,11.147
	c0.166,4.44,0.278,9.049,0.321,12.975c0.004,0.428-0.321,0.787-0.748,0.826c-0.34,0.031-0.683,0.041-1.008,0.029
	c-0.287-0.011-0.549-0.17-0.688-0.421c-0.695-1.25-1.315-2.324-1.955-3.383c-0.642-1.177-12.864-23.778-14.944-39.099
	c-0.013,0.723,0,1.501,0.045,2.339c0.357,6.709,2.922,18.635,13.102,37.341c0.146,0.269,0.131,0.596-0.039,0.85
	c-0.169,0.253-0.46,0.39-0.77,0.359l-1.883-0.202c-0.311-0.033-0.576-0.241-0.684-0.536c-0.934-2.566-2.242-4.847-3.904-6.812
	c0.911,4.052,0.752,4.254,0.514,4.557c-0.156,0.197-0.41,0.32-0.66,0.32c-0.594,0-0.83-0.538-0.955-0.826
	c-1.223-2.786-4.48-6.807-6.826-9.508c0.779,2.715,1.406,5.938,0.501,7.245c-0.431,0.622-1.155,0.865-1.993,0.642
	c-1.939-0.516-2.918-2.388-3.956-4.37c-0.933-1.783-1.959-3.744-3.813-5.274c0.996,2.514,2.072,5.948,1.258,7.451
	c-0.266,0.489-0.715,0.8-1.262,0.877c-1.371,0.197-3.231-1.135-5.578-2.869c-2.207-1.629-4.883-3.607-7.213-4.085
	c2.326,2.774,6.097,7.741,5.293,9.926c-0.135,0.369-0.518,1.012-1.554,1.158c-1.817,0.255-3.864-0.993-6.218-2.468
	c-2.504-1.569-5.343-3.346-8.275-3.346c-0.353,0-0.703,0.026-1.047,0.078c1.993,1.55,5.028,4.37,4.122,6.605
	c-0.087,0.214-0.26,0.381-0.478,0.462c-2.359,0.867-4.617,1.306-6.711,1.306c-9.341,0-13.042-8.48-13.953-11.08
	c-0.041-0.111-0.084-0.304-0.075-0.422c0.103-1.323,1.138-12.687,6.651-13.215c0.242-0.225,0.578-0.387,0.979-0.387
	c0.808,0,1.978,0.526,4.011,4.244c0.359-1.409,0.629-3.154,0.219-4.224c-0.041-0.11-0.06-0.227-0.051-0.345
	c0.188-3.3-1.996-11.361-10.968-20.311c2.772,5.302,6.501,13.365,5.033,15.905c-0.319,0.553-0.847,0.889-1.505,0.966
	c-0.318,0.801-0.959,1.681-2.021,1.681c-0.609,0-1.243-0.305-1.884-0.906c-0.201-0.189-0.294-0.465-0.247-0.738
	c0.034-0.212,0.79-5.269-5.248-6.501c-0.136-0.028-0.262-0.09-0.368-0.18c-0.157-0.134-15.792-13.455-23.878-19.273
	c-5.932-4.268-20.312-11.36-27.58-14.85c1.419,1.383,2.961,2.857,3.953,3.719l0.191,0.16c4.371,3.656,11.608,11.029,10.956,19.34
	c-0.411,5.239-3.939,9.887-10.487,13.813c-4.434,2.22-9.106,4.283-12.4,5.685c2.846-0.047,5.683,0.142,10.258,0.664l0.257,0.03
	c4.329,0.493,11.573,1.318,15.314,7.014c2.955,4.5,3.099,11.236,0.428,20.02c-0.134,0.332-2.657,6.39-4.693,9.731
	c-0.529,0.867-0.922,1.646-1.213,2.314c1.471-1.344,2.988-2.674,4.588-4.023c2.567-1.944,11.348-8.199,17.989-8.199
	c2.389,0,4.283,0.802,5.629,2.382c2.245,2.64,2.879,7.257,1.93,14.097c1.056-0.303,2.662-0.642,4.56-0.642
	c5.22,0,12.256,2.511,16.13,14.462c0.033,0.104,0.046,0.213,0.037,0.321c-0.163,1.964,0.396,5.687,0.947,8.705l0.107-0.765
	c0.01-0.063,0.214-1.4,0.727-2.652c0.07-0.17,0.195-0.313,0.355-0.403c1.613-0.917,3.58-0.382,6.027,1.733
	c0.037,0.029,1.496,1.213,2.312,3.935c0.025,0.103,0.906,4.157,2.696,6.993c1.208-1.393,2.736-3.111,3.122-3.372
	c0.135-0.091,0.313-0.146,0.477-0.146c0.571,0,1.028,0,6.788,10.941l1.273-3.193c0.111-0.277,0.363-0.474,0.66-0.511
	c0.297-0.038,0.59,0.091,0.767,0.332c1.955,2.688,4.089,5.574,5.556,7.498c-1.176-6.68-2.492-11.34-2.508-11.393
	c-0.033-0.118-0.04-0.242-0.02-0.363l0.207-1.214l-1.979-4.905l-0.833-0.944c-0.063-0.072-0.113-0.154-0.148-0.244
	c-0.032-0.084-0.811-2.11-0.528-5.411c0.009-0.112,0.042-0.222,0.096-0.32l1.28-2.368l0.509-1.851l-0.181-3.456
	c-0.02-0.359,0.199-0.688,0.535-0.813c0.463-0.184,2.416-1.863,4.047-3.39l0.342-2.358c0.042-0.289,0.234-0.537,0.507-0.645
	c0.615-0.247,3.735-1.479,4.769-1.557c0.107-0.006,0.217,0.005,0.318,0.039l4.109,1.361l1.919-0.894
	c0.332-0.155,0.725-0.07,0.965,0.204l0.397,0.453c0.313,0.357,0.612,0.699,0.887,1.019c0.135,0.158,0.205,0.36,0.195,0.567
	c-0.037,0.971-0.865,1.431-1.414,1.736c-0.248,0.137-0.623,0.344-0.655,0.473c-0.644,2.457-2.121,4.75-3.199,6.427l-0.229,0.356
	c-0.289,0.441-0.573,0.848-0.849,1.239c-0.563,0.806-1.05,1.499-1.399,2.234c-0.098,0.207-0.277,0.364-0.498,0.433
	c-0.217,0.068-0.457,0.041-0.655-0.074c-0.729-0.425-1.438-0.937-2.06-1.432c0.515,1.43,1.172,2.57,1.963,3.41
	c0.27,0.285,0.301,0.72,0.074,1.039c-0.318,0.447-0.559,0.874-0.717,1.267c-0.09,0.226-0.275,0.399-0.507,0.474
	c-0.233,0.078-0.485,0.045-0.69-0.084c-0.136-0.084-0.269-0.172-0.4-0.262c0.992,1.897,1.641,2.557,1.992,2.783
	c0.049,0.031,0.094,0.066,0.134,0.107c0.287,0.285,0.538,0.433,0.743,0.324c0.334-0.18,0.75-0.105,1.002,0.179
	c0.4,0.45,1.221,0.702,2.225,0.688c-0.056-0.055-0.105-0.104-0.143-0.143c-0.307-0.262-0.504-0.625-0.68-0.947
	c-0.063-0.117-0.123-0.232-0.188-0.329c-0.17-0.258-0.516-0.782,0.35-3.758c0.066-0.229,0.229-0.418,0.446-0.519
	c0.051-0.022,0.104-0.041,0.158-0.053c-0.167-0.242-0.193-0.557-0.063-0.824c0.254-0.521,0.564-1.051,0.926-1.576
	c0.194-0.284,0.541-0.408,0.862-0.334c-0.151-0.291-0.116-0.651,0.103-0.909c0.221-0.261,0.449-0.507,0.683-0.754
	c0.153-0.163,0.366-0.257,0.589-0.259c0.264-0.002,0.438,0.086,0.594,0.246c0.09,0.09,0.203,0.17,0.334,0.239
	c-0.102-0.132-0.201-0.266-0.3-0.401c-0.25-0.344-0.194-0.824,0.128-1.103c0.387-0.335,0.795-0.659,1.206-0.966
	C123.478,103.958,123.65,103.901,123.825,103.901"/>
<g>
</g>
<g>
</g>
<g>
</g>
<g>
</g>
<g>
</g>
<g>
</g>
</svg>
