<?xml version="1.0" encoding="utf-8"?>
<!-- Generator: Adobe Illustrator 16.0.3, SVG Export Plug-In . SVG Version: 6.00 Build 0)  -->
<!DOCTYPE svg PUBLIC "-//W3C//DTD SVG 1.1 Basic//EN" "http://www.w3.org/Graphics/SVG/1.1/DTD/svg11-basic.dtd">
<svg version="1.1" baseProfile="basic" id="Layer_1"
	 xmlns="http://www.w3.org/2000/svg" xmlns:xlink="http://www.w3.org/1999/xlink" x="0px" y="0px" width="149.382px"
	 height="142.876px" viewBox="0 0 149.382 142.876" xml:space="preserve">
<style type="text/css">
<![CDATA[
	.narcon_4{fill:#E2EAF1;}
]]>
</style>
<path class="narcon_4" d="M134.816,71.299c-20.057-36.854-11.389-48.32-11.389-48.32c-3.811,13.096,14.611,46.922,14.611,46.922
	c0.711,1.177,1.354,2.3,1.969,3.408c0.295,0.01,0.601,0.002,0.906-0.027c-0.035-3.39-0.133-7.902-0.32-12.952
	c-0.393-10.082,2.834-20.818,2.834-20.818s-1.862,15.73,2.07,29.925c0,0,1.754,10.767,0.202,16.062
	c4.632,12.721,1.897,17.98,1.897,17.98c-0.639,1.338-1.729,2.209,0.246,3.912c1.973,1.698,1.485,3.143,1.485,3.143
	c-5.11,8.979-1.62,9.687-1.62,9.687c1.875,1.867-0.604,3.334-0.604,3.334c-3.917,4.052-10.154,1.144-10.154,1.144
	s4.703,0.177,5.588-1.399c-1.38-1.771-2.716-2.627-2.716-2.627s-4-0.045-5.676-1.756c0,0,4.116-1.507,4.703-3.017
	c0,0-1.978-0.638-3.153-2.144c0,0,1.898-1.181,1.411-2.373c0,0-1.952-0.499-2.948-1.89c0,0,1.934-1.217,1.616-2.111
	c0,0-0.401-0.186-1.183-0.451l-1.498-0.38c-0.928,1.459-5.698,6.382-6.455,9.168c-1.053,3.909,6.966,20.539-0.062,21.048
	c0.623-1.882,0.787-4.006,0.07-5.945c-0.062,0.065-0.113,0.129-0.173,0.194c-0.41,0.556-0.405,1.041-0.67,1.648
	c-0.461,1.065-0.844,1.667-1.383,2.591c-0.182,0.314-0.293,0.424-0.565,0.875c-0.181,0.304-0.321,0.434-0.63,1.262
	c-0.15,0.647-0.189,0.809-0.254,1.237c-0.215,1.44-0.18,3.011,0.232,4.248c-3.867-3.372-2.773-7.39-1.019-11.177
	c1.993-4.28,0.243-5.463-0.304-9.642c-0.86-6.582,4.379-11.145,6.408-16.725c-0.037-0.134-0.082-0.285-0.125-0.446l-5.164-0.986
	c-0.396,0.295-0.781,0.603-1.16,0.928c0.496,0.685,1.045,1.32,1.457,1.97c-1.172,0.087-2.17-0.169-2.74-0.75
	c-0.225,0.237-0.443,0.474-0.654,0.724c0.475,0.584,1.029,1.158,1.589,1.631c-1.106,0.332-1.793-0.065-2.505-0.453
	c-0.333,0.482-0.623,0.975-0.861,1.468c0.569,0.731,1.215,1.387,1.983,1.93c-1.006,0.271-1.81-0.358-2.476-0.663
	c-0.217,0.746-0.719,2.672-0.457,3.071c0.231,0.344,0.438,0.894,0.742,1.126c0.072,0.089,1.15,1.111,1.371,1.292
	c-1.305,0.429-3.588,0.479-4.623-0.687c-0.584,0.313-1.209,0.033-1.709-0.463c-0.809-0.522-2.054-2.162-3.881-6.604
	c0,0,1.487,1.644,3.17,2.696c0.195-0.492,0.481-0.977,0.807-1.437c-1.1-1.166-2.217-3.124-2.891-6.442c0,0,1.928,1.99,3.996,3.19
	c0.557-1.177,1.43-2.239,2.299-3.565c1.084-1.691,2.668-4.045,3.324-6.543c0.251-0.976,2.006-1.054,2.045-2.039
	c-0.386-0.451-0.826-0.947-1.279-1.465l-2.213,1.03l-4.42-1.464c-0.957,0.07-4.522,1.5-4.522,1.5l-0.382,2.645
	c0,0-3.629,3.42-4.535,3.756l0.188,3.588l-0.568,2.07l-1.324,2.45c-0.27,3.147,0.475,5.041,0.475,5.041l0.926,1.052l2.119,5.252
	l-0.246,1.441c0,0,1.729,6.072,3.017,14.445c0.097,0.631-7.519-9.844-7.519-9.844l-1.934,4.853c0,0-6.47-12.371-6.908-12.077
	c-0.443,0.299-3.648,4.025-3.648,4.025c-2.326-2.979-3.416-8.092-3.416-8.092c-0.75-2.506-2.059-3.547-2.059-3.547
	c-2.264-1.953-3.857-2.341-5.089-1.642c-0.481,1.175-0.673,2.457-0.673,2.457l-0.783,5.493c0,0-2.22-9.819-1.904-13.618
	c-6.258-19.308-20.922-12.858-20.922-12.858c4.831-29.852-20.45-11.557-24.005-8.867c-2.153,1.816-4.403,3.806-6.761,6.053
	c0,0,0.128-2.074,2.155-5.398c2.027-3.324,4.609-9.543,4.609-9.543c7.217-23.735-8.219-25.197-15.307-26.009
	C7.814,46.197,4.836,46.213,0,46.602c0,0,8.721-3.465,16.713-7.464C39.317,25.586,17.211,8.255,15.937,7.15
	C13.638,5.152,8.511,0,8.511,0S32.37,11.086,40.582,16.994C48.79,22.9,64.513,36.309,64.513,36.309
	c6.928,1.414,5.892,7.444,5.892,7.444c2.124,1.992,2.739-1.001,2.739-1.001c5.936,0.772-6.042-20.025-6.042-20.025
	C82.714,35.993,82.005,47.07,82.005,47.07c0.89,2.324-0.803,6.666-0.803,6.666c-3.732-7.636-4.759-5.205-4.759-5.205
	c-5.285-0.018-6.246,12.477-6.246,12.477c0.253,0.682,4.736,14.836,19.638,9.361c0.996-2.46-5.229-6.635-5.229-6.635
	c7.043-2.796,13.331,5.824,17.293,5.262c3.957-0.557-5.448-11.127-5.448-11.127c5.09-0.932,11.859,7.369,14.499,6.997
	c2.642-0.37-1.682-9.616-1.682-9.616c6.407,3.027,6.204,10,9.778,10.951c3.586,0.947-0.729-10.555-0.729-10.555
	s7.522,7.924,9.592,12.641c0.919,2.104-1.12-6.41-1.12-6.41c3.297,2.953,5.12,6.402,6.146,9.22L134.816,71.299z"/>
<g>
</g>
<g>
</g>
<g>
</g>
<g>
</g>
<g>
</g>
<g>
</g>
</svg>
