<?xml version="1.0" encoding="utf-8"?>
<!-- Generator: Adobe Illustrator 16.0.3, SVG Export Plug-In . SVG Version: 6.00 Build 0)  -->
<!DOCTYPE svg PUBLIC "-//W3C//DTD SVG 1.1 Basic//EN" "http://www.w3.org/Graphics/SVG/1.1/DTD/svg11-basic.dtd">
<svg version="1.1" baseProfile="basic" id="Layer_1"
	 xmlns="http://www.w3.org/2000/svg" xmlns:xlink="http://www.w3.org/1999/xlink" x="0px" y="0px" width="184.032px"
	 height="154.974px" viewBox="0 0 184.032 154.974" xml:space="preserve">
<style type="text/css">
<![CDATA[
	.narcon_4{fill:#E2EAF1;}
]]>
</style>
<path class="narcon_4" d="M107.853,108.568c0.237-0.235-0.683,0.551-1.664,1.615c0.18,4.607,2.011,12.712,2.011,12.712l0.821-5.758
	c0,0,0.201-1.345,0.707-2.577c0.528-0.3,1.127-0.396,1.808-0.277c-0.108-0.688-0.175-1.181-0.175-1.381
	C111.36,107.538,108.679,110.428,107.853,108.568"/>
<path class="narcon_4" d="M54.034,90.217c0-0.207,0.206-0.207,0.206-0.207c0-0.206,0-0.206-0.206-0.413c0,0.62-0.62,0.62-0.62,1.032
	v0.208C53.414,90.629,53.826,90.217,54.034,90.217"/>
<path class="narcon_4" d="M53.592,87.756c0.128-0.014,0.268-0.016,0.442-0.016c0.412-0.619,0.618-1.032,1.238-1.238
	c-0.335,0-0.626-0.05-0.899-0.114c-0.028,0.047-0.058,0.1-0.086,0.147C54.026,86.963,53.797,87.369,53.592,87.756"/>
<path class="narcon_4" d="M111.361,106.918c-0.619-0.619-2.063-0.619-2.89-0.619C109.298,106.713,110.742,106.713,111.361,106.918"/>
<path class="narcon_4" d="M182.419,112.563c-2.068-1.785-0.928-2.698-0.257-4.101c0,0,2.864-5.512-1.991-18.846
	c1.628-5.55-0.211-16.838-0.211-16.838c-4.121-14.877-2.169-31.364-2.169-31.364s-3.384,11.252-2.972,21.821
	c0.197,5.291,0.298,10.021,0.336,13.576c-0.32,0.029-0.639,0.038-0.949,0.027c-0.645-1.159-1.32-2.339-2.064-3.572
	c0,0-19.31-35.454-15.314-49.182c0,0-9.086,12.019,11.937,50.646l-1.972-0.211c-1.075-2.954-2.987-6.569-6.441-9.664
	c0,0,2.137,8.925,1.174,6.719c-2.17-4.944-10.055-13.249-10.055-13.249s4.524,12.053,0.766,11.063
	c-3.746-0.998-3.533-8.306-10.25-11.479c0,0,4.533,9.69,1.764,10.079c-2.768,0.391-9.865-8.311-15.198-7.334
	c0,0,9.858,11.08,5.71,11.664c-4.152,0.589-10.742-8.448-18.126-5.518c0,0,6.526,4.379,5.479,6.957
	c-15.617,5.737-20.315-9.098-20.582-9.813c0,0,1.008-13.099,6.549-13.076c0,0,1.074-2.55,4.988,5.454c0,0,1.773-4.553,0.842-6.987
	c0,0,0.74-11.609-15.622-25.515c0,0,12.555,21.798,6.332,20.989c0,0-0.644,3.139-2.87,1.049c0,0,1.085-6.321-6.175-7.803
	c0,0-16.482-14.055-25.085-20.245C61.383,11.62,36.376,0,36.376,0s5.373,5.4,7.784,7.495c1.334,1.157,24.506,19.324,0.813,33.529
	c-8.376,4.19-17.519,7.823-17.519,7.823c5.07-0.408,8.19-0.424,15.619,0.425c6.321,0.723,18.967,1.951,17.943,17.62
	c0.008,0.007,0.019,0.013,0.027,0.02c0.825-0.825,2.889-1.033,3.095-1.033c1.032,0,6.391,0.622,6.391,1.239
	c-0.006-0.007-0.019-0.007-0.019-0.007c0.231,0.151,3.939,2.38,3.939,6.196c0,0.413-1.031,3.297-2.682,3.297
	c0.489,0.733,1.047,1.245,1.423,1.543c0.122-0.036,0.242-0.067,0.362-0.101c-0.059-0.284-0.134-0.651-0.134-1.03
	c0-1.444,1.238-3.915,3.708-3.915c-0.406,0,3.095,0.619,5.159,2.264c0.206-0.205,0.618-0.205,0.824-0.205
	c0.207-0.206,2.222,0.4,2.264,1.407c0.317-0.206,4.024-1.407,7.223-1.407c3.095,0,3.095,2.269,3.921,2.682
	c0,0.618-0.414,1.444-1.031,2.063c0,0,1.031,1.857,1.031,2.683v1.032c0.207,0.617,0.207,1.237,0.207,1.644
	c-0.414,1.651-2.684,2.477-5.986,3.096c-0.412-0.413-1.031-0.413-1.031-0.413c-1.445,0-1.651,0.413-3.09,2.063
	c-0.368-1.353-0.226,1.618-0.312,4.5c3.511-0.829,10.869-1.361,16.284,6.493c0.65-0.449,1.38-0.872,1.938-0.883
	c0.177-0.302,2.338-2.688,7.041-2.688c9.898,0,13.613,5.571,13.613,22.479c0,1.977-0.025,3.542-0.092,4.842
	c1.63,2.333,6.775,12.169,6.775,12.169l2.025-5.086c0,0,7.982,10.979,7.881,10.317c-1.348-8.777-3.162-15.143-3.162-15.143
	l0.26-1.512l-2.223-5.504l-0.972-1.102c0,0-0.778-1.985-0.497-5.284l1.389-2.568l0.597-2.171l-0.197-3.76
	c0.95-0.351,4.753-3.939,4.753-3.939l0.401-2.768c0,0,3.735-1.498,4.739-1.574l4.633,1.534l2.32-1.08
	c0.476,0.544,0.937,1.063,1.342,1.536c-0.043,1.033-1.881,1.114-2.145,2.14c-0.688,2.616-2.349,5.082-3.486,6.855
	c-0.91,1.392-1.824,2.505-2.408,3.737c-2.166-1.258-4.189-3.343-4.189-3.343c0.707,3.478,1.877,5.53,3.032,6.752
	c-0.343,0.482-0.642,0.989-0.847,1.505c-1.764-1.103-3.322-2.825-3.322-2.825c1.915,4.657,3.221,6.375,4.066,6.923
	c0.524,0.518,1.181,0.813,1.793,0.485c1.084,1.224,3.479,1.169,4.846,0.719c-0.231-0.188-1.362-1.261-1.438-1.352
	c-0.318-0.248-0.535-0.822-0.777-1.184c-0.275-0.418,0.252-2.436,0.479-3.218c0.698,0.319,1.54,0.979,2.596,0.695
	c-0.808-0.569-1.482-1.258-2.08-2.022c0.25-0.519,0.556-1.034,0.903-1.54c0.746,0.408,1.468,0.824,2.625,0.474
	c-0.587-0.492-1.168-1.095-1.666-1.709c0.222-0.26,0.452-0.507,0.687-0.757c0.599,0.609,1.645,0.876,2.871,0.786
	c-0.43-0.682-1.006-1.348-1.524-2.063c0.396-0.342,0.799-0.665,1.214-0.972l5.413,1.031c0.044,0.169,0.093,0.329,0.131,0.469
	c-2.126,5.849-7.618,10.63-6.715,17.53c0.571,4.38,2.407,5.62,0.315,10.106c-1.838,3.969-2.984,8.181,1.069,11.715
	c-0.432-1.298-0.469-2.944-0.243-4.453c0.065-0.449,0.107-0.618,0.266-1.298c0.324-0.866,0.471-1.003,0.66-1.321
	c0.285-0.475,0.402-0.589,0.594-0.919c0.563-0.967,0.964-1.599,1.447-2.715c0.279-0.637,0.273-1.145,0.703-1.728
	c0.062-0.067,0.117-0.136,0.181-0.205c0.753,2.034,0.579,4.261-0.073,6.23c7.367-0.53-1.039-17.962,0.063-22.061
	c0.795-2.918,5.795-8.078,6.768-9.607l1.57,0.397c0.818,0.28,1.24,0.474,1.24,0.474c0.334,0.938-1.695,2.214-1.695,2.214
	c1.046,1.456,3.091,1.979,3.091,1.979c0.512,1.25-1.478,2.486-1.478,2.486c1.23,1.579,3.304,2.247,3.304,2.247
	c-0.615,1.583-4.931,3.163-4.931,3.163c1.758,1.792,5.95,1.841,5.95,1.841s1.4,0.897,2.847,2.752
	c-0.926,1.652-5.856,1.47-5.856,1.47s6.537,3.043,10.644-1.202c0,0,2.597-1.535,0.631-3.493c0,0-3.656-0.741,1.701-10.153
	C183.978,115.857,184.485,114.346,182.419,112.563"/>
<path class="narcon_4" d="M122.91,133.525c-0.606-0.201-0.619-0.99-0.813-1.797c-0.218-0.219-0.218-0.553-0.218-0.887
	c0-0.412,0.206-1.237,0.206-1.856v-0.413c0.412-0.206,0.412-0.412,0.412-0.619c0-0.205,0-0.411-0.206-0.824
	c0.619-0.206,0.619-2.265,0.619-5.772c0-15.264-1.651-21.859-10.312-21.859c-0.996,0-3.531,0.77-5,1.383
	c-0.062,0.061-0.152,0.061-0.152,0.061c0.049-0.02,0.098-0.041,0.152-0.061c0.03-0.029,0.055-0.079,0.055-0.146h-0.207
	c-0.825,0.206-0.205,0.619-0.825,0.825v-0.206c-2.271,1.032-4.127,2.683-5.776,4.121c-0.207-1.646-1.033-2.265-2.271-2.679
	c0,0.414,0.412,0.414,0.412,0.621v0.206c-1.032-1.444-2.884-1.444-3.914-2.27c-0.207,0.206-0.619,0.619-0.826,0.825
	c0,0.617,0.207,1.238,0.207,1.65c0,0,0,0.413-0.413,0.413c-0.207,0,0-0.413-0.207-0.413c0,0-0.412,0.826-0.618,1.032
	c1.031,1.853,1.65,4.121,1.857,6.184c-0.413,0-0.619-1.031-0.619-1.443c0-0.414-0.207-0.414-0.207-0.414
	c0,0.207,0.207,0.62,0.207,0.62c0,3.302,2.063,8.248,2.683,11.137c-0.207-0.413-0.412-0.413-0.412-0.413h-0.207
	c-1.444-3.713-2.684-9.691-3.301-14.232c0.224,2.915,0.965,6.451,1.807,9.777c1.5,5.851,3.345,11.053,3.345,11.053
	c0-0.826-0.413-1.853-0.413-2.677h-0.206v0.207l-0.206-0.207c0-0.206,0.206,0,0.412-0.412c-0.115-0.038-0.193-0.122-0.254-0.231
	c0.029,0.109,0.048,0.188,0.048,0.231c-0.612-0.826-1.024-2.27-1.024-3.096c0.412,0,0.412,0.619,0.612,0.619c-0.2,0-0.2,0-0.2,0.207
	c1.438,1.65,1.231,4.739,2.057,7.009c0.205,0,0.205-0.207,0.412-0.207l0.207,0.207c0-0.207-0.207-0.413-0.207-0.413
	c0-0.206,0.207-0.206,0.207-0.206c0.207,0,0.412,0,0.412,0.206l-0.205,0.206h0.205c0,0,0-0.412,0.414-0.412
	c0.207,0.412,0.207,1.238,0.619,1.651c0-0.62,0.824-1.239,1.237-1.651c0.207,0.206,0.207,0.412,0.207,0.619v1.032v0.206
	c0.412-0.826,0-1.445,0.412-2.476c0.207,0,0,0.618,0.207,0.618c0.206-1.237,0.411-2.271,0.411-3.501
	c0-4.128-1.03-8.461-1.237-12.995c1.649-1.65,3.508-5.984,7.422-5.984c2.063,0,3.509,4.748,3.509,7.018
	c0.412-0.414,0.412-0.414,0.412-0.62c1.961,5.597,1.549,14.524,2.95,19.683c0.353,0.534,0.491,1.28,0.697,1.91
	c0.661,1.329,1.591,2.125,2.95,2.125c-0.414,0-0.825-0.412-0.825-0.619c0-0.205,0-0.205,0.206-0.412c1.031,0,2.27,0.619,2.889,0.619
	c0-0.619,0.206-0.619,0.619-0.619c-0.619-0.207-1.032-0.207-1.65-0.207C122.085,134.145,122.704,133.938,122.91,133.525"/>
<path class="narcon_4" d="M93.833,116.405c0-0.819-3.3-7.629-5.57-7.629c-0.151,0-0.298,0.109-0.45,0.17
	c-0.03,0.012-0.061,0.019-0.09,0.029c0.029-0.011,0.06-0.018,0.09-0.029c0.038-0.05,0.038-0.146,0.038-0.377
	c-0.207,0-5.154-1.856-9.074-1.856c-4.995,0-9.989,6.269-10.645,10.123h-0.006c-0.048,0.284-0.073,0.552-0.073,0.807
	c0,5.159,1.238,8.66,4.333,11.549c0-0.412-0.412-0.825-0.412-1.031c0,0,0-0.207,0.205-0.207c1.087,1.172,2.246,2.192,3.606,2.962
	c1.748,0.99,3.83,1.579,6.5,1.579c0,0,0.206-0.207,0.412-0.207c0.207,0,0.62,0.207,0.826,0.207c0.206-0.207,0.619-0.207,1.238-0.207
	h1.651c0.819,0,1.644-0.206,2.057-0.619c-0.413,0-1.031,0.413-1.444,0.413c-0.207,0-0.407,0-0.613-0.206
	c0.819-0.207,1.851-0.62,2.47-0.826c0.207,0.206,0,0.206,0.207,0.206c0,0-0.207-0.206-0.207-0.618
	c1.238-0.825,2.476-1.445,3.095-2.477c0-0.618-0.206-0.207-0.206-0.618c0.619-1.032,1.857-1.652,2.477-2.472
	c0.207-0.824,0.412-1.856,0.412-2.683c0-2.025-0.164-4.218-0.643-5.982H93.833z M83.729,126.923c-3.714,0-8.661-2.883-8.661-7.422
	c0-1.858,2.058-6.599,3.915-7.424c0.62,0.206,1.239,0.206,2.063,0.206c1.239,0,2.683-0.206,3.922-0.206
	c1.444,0,2.883,0.206,3.914,1.24l-0.207,0.205c-0.412,0-0.824-0.62-1.031-0.825c0.619,1.03,1.856,1.649,1.856,3.089
	C89.5,119.292,89.088,126.923,83.729,126.923"/>
<path class="narcon_4" d="M78.983,135.994c-0.206,0-0.206-0.199-0.206-0.404v-0.619v-0.207c-0.619,0-1.851,1.23-2.264,1.23
	c-0.207,0-0.207,0-0.207-0.199c0-0.412,0.82-1.238,0.82-1.65v-0.207c0,0.207-0.613,0.207-0.82,0.619c0,0-0.205-0.206-0.412-0.206
	c-0.826,0-2.476,3.708-3.095,4.946c-0.207,0-0.413-0.207-0.62-0.207c0,0-1.856,4.954-3.301,5.571
	c2.27-3.507,3.508-7.015,5.365-10.517v-0.207c0-0.617,0.619-1.031,0.619-1.65c-2.27,1.857-6.397,11.963-8.454,11.963
	c0-0.619,0.613-0.826,0.613-1.239c-1.232,0.62-3.089,2.477-4.739,2.477c0,0.206-0.414,0.619-0.827,0.619
	c-0.206,0-0.412,0-0.412-0.206c0.412-0.413,0.619,0,1.031-0.413h-0.206h-0.619h-0.206c0-0.207,0.206-0.413,0.412-0.619
	c-1.237,0.412-2.269,0.619-3.3,0.619c-3.709,0-6.392-2.27-9.074-5.365c0-0.206,0-0.206,0.206-0.206
	c-2.476-2.063-3.295-5.979-3.295-9.074c0-5.565,2.264-10.311,6.597-13.405c0.207,0.206,0.412,0.825,0.619,0.825v-0.206
	c-0.207-0.826,0.618,1.65,1.444,1.65v-0.205c0.62,0,0,3.713,2.676,3.713v-0.826h-0.412c0-2.063,0.207-0.824,0.207-1.443h-0.041
	h0.041h0.205v-0.413v-0.207c0,0,1.652,1.652,2.064,2.063c0-0.206,0.207-0.206,0.207-0.206c0-0.042,0-0.084-0.006-0.115
	c-0.103-0.097-0.183-0.213-0.244-0.34c0.128,0.079,0.219,0.134,0.244,0.34c0.188,0.194,0.455,0.321,0.831,0.321v-0.206
	c0.413,0.413,0,0.62,0.206,0.62c0-0.62,0.207-0.62,0.825-0.62v0.206l0.207-0.206c0.62-0.618,0.412-0.411,1.032-0.411
	c0,0-0.206,0-0.206-0.207c0,0,0.412-0.412,0.412-0.619c0.62,0,0.62,0.412,0.62,0.412c0.194,0,0.206,0,0.382-0.177
	c-0.152-0.017-0.795-0.745-0.795-1.474c0-0.414,0.206,0,0.206-1.031v-0.207c0-0.825,0.825-3.915,0.825-4.121
	c0.62,0,0.413,1.439,0.413,1.032c0,0.207-0.207,1.026-0.619,2.058c0,0.412,0.206,1.031,0.206,1.238h-0.054
	c0.03,0.035,0.054,0.193,0.054,0.617c-0.182,0.184-0.2,0.365-0.2,0.54c0.242-0.32,0.728-0.938,0.82-1.224
	c0.023-0.067,0.023-0.117,0-0.141c0.023,0.023,0.023,0.073,0,0.141v0.066l0.412-0.207c0-1.512,1.086-1.383,1.493-2.828
	c0.091-0.334,0.151-0.753,0.151-1.293c-0.2,0-0.406-0.206-0.406-0.206c0-1.65,1.232,0.412,1.232-2.477
	c0-0.824,0.206-1.031,0.206-1.236H67.64c0,0.824-0.826,0.412-1.026,0.824l-0.206-0.207c0-0.824-0.206-0.617,0.406-0.617
	c0-0.207,0-0.207-0.612-0.207h0.612c-0.819,0-0.2-0.207-0.406-0.207c0,0-0.413,0.414-0.619,0.207
	c-0.206-0.413,0.206-0.413,0.206-0.413l-0.17-0.169c-0.078,0.029-0.108,0.036-0.036-0.037l0.036,0.037
	c0.146-0.073,0.45-0.244,0.583-0.244c0.406,0,0.819,0.207,1.025,0.207l0.207-0.414h-0.207h-0.412c0,0-0.207-0.205-0.613-0.205
	c-0.619,0.412-2.682-2.684-5.984-2.684l0.206,0.207c0,0.207-0.206,0.207-0.206,0.207c-1.032-0.207-2.063-0.207-3.096-0.207
	c-1.237,0-2.263,0-3.502,0.207c0.208,0.205,0.414,0.205,0.414,0.412c0,0.413-1.857,0.207-1.857,0.825c0,0,0.206,0.207,0.206,0.413
	c-5.778,1.238-9.898,4.539-12.169,7.835c0.207,0,0.207,0.207,0.207,0.412c0,0.208-0.207,0.619-0.619,0.619l-0.206-0.207
	c-0.826,2.89-2.476,5.365-2.476,8.661c0-0.2-0.207-0.2-0.207-0.407c0-0.206,0.207-0.412,0.207-0.618
	c-0.207,0.618-0.62,1.231-0.62,1.645c0,13.613,5.985,21.86,13.82,26.194c-2.064-1.651-4.328-2.476-6.185-4.953
	c0.206,0,0.206-0.411,0.619-0.411c0.825,0.618,2.883,2.476,4.121,2.476c-0.413-0.619-2.27-0.826-2.682-2.064
	c3.715,2.271,7.841,4.953,12.169,6.604c0,0.207-0.413,0.207-0.413,0.207c1.856,0,3.507,0.619,5.158,0.619
	c0.825,0,1.651-0.206,2.476-0.619c0.206,0.413,0.206,0.413,0.619,0.413v-0.413c0.206,0.206,0.406,0.206,0.613,0.206
	c1.032,0,1.857-0.825,2.476-1.032c-0.17,0-0.2-0.284-0.206-0.382c-0.747,0.358-2.021,1.001-3.502,1.001
	c-0.619,0-1.031-0.206-1.031-0.412c-0.414,0-0.826,0.206-1.238,0.206c0,0-0.207,0-0.207-0.206c1.857-1.65,5.359-1.031,7.216-2.89
	c-0.826,0.413-1.857,0.826-2.476,0.826c-0.207,0-0.413,0-0.62-0.206c1.803-0.54,3.611-1.244,4.862-2.101
	c0.182-0.122,0.352-0.249,0.504-0.376c0-0.182-0.164-0.365-0.201-0.406c0.201,0,4.139-3.732,4.941-4.539
	c0-0.413-0.413-0.413-0.613-0.62c0.406-1.445,2.057-3.302,2.057-5.158c0-0.413-0.206-1.032-0.619-1.652
	C78.364,136.407,78.983,136.407,78.983,135.994 M59.344,121.721c-0.158-0.108-0.364-0.261-0.571-0.776
	C59.198,119.81,58.943,120.92,59.344,121.721"/>
<path class="narcon_4" d="M77.125,89.597h0.413c-0.206,1.24-0.206,2.477-0.206,3.716v0.399c0.023,2.318,0.206,4.461,0.206,6.609
	c0,0.826-0.206,1.651-0.206,2.064c0,0.411,0,0.618,0.206,0.824c0.206,0,0.206,0.413,0.619,0.413c0.206,0,0-0.413,0.412-0.413h0.207
	c-0.413,0-0.413,0.413-0.413,0.619c0.328,0.328,0.522,0.521,0.795,0.589c-0.176-0.062-0.176-0.175-0.176-0.175
	c0-0.414,0-1.033,0.414-1.446v1.446c0.206-0.62,0.825-0.62,1.649-1.033c-0.205,0.207-0.205,0.413-0.205,0.413
	c0,0.413,0.412,0.62,0.825,0.826v-0.206c0.206,0,0,0.618,0.206,0.618l0.207-0.206c0-0.206-0.207-0.206-0.207-0.206v-0.206
	c0.207,0.206,0.413,0.206,0.413,0.206c1.238,0,0.412-2.89,1.032-2.89c0.206,0,0.206,0.207,0.412,0.413
	c0.207-0.619,0.207-1.238,0.207-1.858c0-0.388,0-0.775-0.049-1.212c-0.03-0.263-0.079-0.54-0.158-0.851
	c0,1.445-0.206,1.857-0.206,2.889c0-2.889,0-6.598,0.206-10.104v-0.414c0-0.206,0-0.619,0.413-0.826
	c0,0.861-0.049,1.742-0.122,2.616c0.516-3.526,1.906-6.536,5.688-6.536c0.412,0,0.825,0.208,1.444,0.208
	c1.401,0,2.221-0.779,3.404-1.01c-0.182-0.09-0.571-0.43-0.723-0.43c-0.205,0-0.205,0-0.205,0.206c0-0.619-0.413-0.619-0.62-1.031
	c0.207-0.619,1.239-0.619,1.446-1.238c-0.826,0.413-0.826-1.239-0.826-1.239c0-0.205,0-0.205,0.205-0.412
	c-0.618,0-0.825-0.207-0.825-0.618c0.207-0.207,0.207-0.207,0.207-0.619c-0.62,0-0.62-0.414-1.239-0.414
	c-0.206,0-0.413,0.207-0.619,0.207l0.206-0.207c0-0.206-0.206-0.412-0.206-0.619l0.413-0.206c0.413,0,1.032,0.413,1.445,0.413
	c0.205,0,0.413,0,0.413-0.413c-0.208,0-0.413,0.206-0.62,0.206v-0.206c0.207,0,0.207-0.412,0.62-0.618
	c0,0.206-0.208,0.206-0.208,0.413l0.208,0.205c0-0.412,0.205,0,0.619-0.412c-0.619,0,0-0.618-1.651-0.618
	c-1.238,0-2.682,0.205-3.507,0.412c0.825,0,1.238-0.207,1.238,0.206h-0.619h-0.619v-0.206c-0.62,0.206-1.238,0.206-1.858,0.618
	c0.413,0,0.413,0.206,0.413,0.206c-0.206,0-0.413,0.207-0.413,0.207c-0.206,0-0.206,0-0.206-0.207c0.206,0,0.206,0,0.206-0.206
	c-1.645,0.206-2.47,1.239-3.708,1.858c-0.413,0-1.032-1.652-1.238-1.858c0.206,0,0.825-0.618,1.238-1.03
	c-0.619,0-1.032,0.618-1.238,0.618c-0.413-0.206-0.619-0.206-0.619-0.618c-0.62-1.239-3.508-1.239-4.54-1.858
	c0,0.413,0.413,0.619,0.413,1.032v0.207c-0.413-0.207-0.413-0.826-1.026-1.239c0,0.413,0,0.413-0.207,0.413
	c0,0.412,0.414,1.031,0.414,1.445c0,0.205-0.207,0.205-0.207,0.412c-0.207-0.412-0.207-0.619-0.619-0.619
	c0.412,3.302,1.232,7.429,1.232,10.93V89.597z"/>
<path class="narcon_4" d="M64.138,70.419v0.207c0,0.206,0.413,0,0.413,0.412c-0.619,0-1.238-0.619-1.857-0.619h-0.412
	c0.412,0,0.412,0.207,0.618,0.619c-0.206,0.207-0.618,0-0.618,0.207c0,0,1.856,1.237,1.856,2.476c0,0-0.412,0.207-0.412,0.413
	c0,0.82,4.739,1.438,6.183,1.645v-0.206c0-0.207-0.206-0.207-0.206-0.412c0-0.413,0.414-0.413,0.62-0.413h0.206
	c0,0,0-0.207,0.207-0.207c0,0,0.205,0,0.412,0.207c0-0.207,0.413-0.207,0.413-0.207c0-0.2-0.62-0.406-0.62-0.612
	c0-0.207,1.238-1.032,1.445-1.032c-0.825-0.413-0.619-0.619-1.031-1.032c0.206,0,0.412,0,0.412-0.205
	c-0.206-0.413-1.031-0.413-1.238-0.413v-0.413c0-0.413-1.238,0-1.238-0.825h0.206c0.62,0,1.032,0.412,1.651,0.619
	c0-0.413-0.412-0.619-0.825-0.619h-0.206c-1.858-1.858-2.89-1.65-5.566-2.27c-0.206,0.619-0.619,0.619-1.031,0.619h-0.826h-0.412
	c0,0.207,0.206,0.207,0.206,0.207c0,0.206-0.206,0.206-0.206,0.412v0.206h0.206c0.206,0,0.412-0.206,0.619-0.206
	c0.206,0,0.413,0,0.413,0.412c-0.826,0-0.826,0.413-1.445,0.413C62.694,70.007,63.313,70.419,64.138,70.419"/>
<path class="narcon_4" d="M51.763,70.832c0,0,0,0.206,0.207,0.206c0,0,0.206-0.206,0.412-0.206c0.206,0,0.206,0.206,0.206,0.413h-0.412
	c0.412,0.413,0.825,0.825,0.825,1.237c0,0-0.206,0.207-0.206,0.413c0.412,1.238,3.502,2.47,5.977,2.47
	c0.413,0,0.826-0.205,1.239-0.205l0.413,0.205V74.54v-0.406c0.413,0,0.619-0.206,0.825-0.206c0,0,0.206,0,0.413,0.206
	c-0.207-0.206-0.207-0.826-0.413-0.826l-0.206,0.207c0.412-0.619,1.238-1.032,1.65-1.032c-0.412-0.206-0.619,0-0.619-0.619
	c-0.619,0-1.031,0.207-1.031-0.205c0.206-0.207,0.412-0.207,0.412-0.207c0.207,0,0.413,0.207,0.619,0.207
	c-0.412-0.413-0.825-0.826-1.031-0.826s-0.413,0.206-0.413,0.206c-0.206-0.619-0.619-0.619-1.239-1.031v-0.206
	c0-0.207-0.412-0.413-0.412-0.413c0-0.206,0.206-0.206,0.206-0.206c0.206,0.206,0.62,0.206,1.239,0.206
	c0-1.444-3.921-1.444-5.153-1.444c-2.476,0-1.651,1.444-3.095,1.444l-0.206-0.206l-0.207,0.206c0,0,1.032,0,1.032,0.413
	c-0.207,0-0.619,0.618-0.825,0.618c-0.207,0-0.207,0.207-0.207,0.207c0.207,0,0.413-0.207,0.413,0
	C51.97,70.626,51.763,70.626,51.763,70.832"/>
<path class="narcon_4" d="M52.383,79.905h0.206c0.825-2.063,3.708-2.27,5.979-2.682c-2.678,0.618-5.36,1.649-5.979,3.507
	c0.207,0,0.207,0.207,0.207,0.207c0.205,0,0.205,0,0.412-0.207v0.207v0.205h-0.412c0,0.206,0.412,0.206,0.412,0.825h-0.412
	c0,0.827,0.412,0.414,0.618,0.621v0.206c0,0.206,0.412-0.206,0.412,0.206c0,0.206-0.412,0.206-0.412,0.206
	c0.412,0,0.62,0,0.62,0.413c0,0.206-0.208,0.206-0.208,0.206c0.208,0.411,0.62,0.411,1.033,0.411c2.264,0,6.803-1.648,8.661-1.648
	c0.825,0,2.889,0.206,2.889,1.031c0-0.207,0.205-0.207,0.405-0.207c0.413,0,1.239,1.645,1.239,2.058
	c0-0.613-0.413-1.233-0.413-1.438c0.619,0.619,1.032,1.438,1.238,2.47c-1.857,0-4.12-0.617-6.184-0.617
	c-3.665,0-7.435,2.396-9.304,6.081c-0.072,0.278-0.219,0.564-0.394,0.854c-0.523,1.281-0.82,2.694-0.82,4.2
	c0,0,0.395,1.237,0.843,2.403c0.359,0.897,0.741,1.749,1.015,1.93v-0.413c0.618,0,1.031,1.857,2.057,1.857h0.206
	c0.413,0,1.031,0.412,1.238,0.825v-0.163c-0.06-0.031-0.066-0.043,0-0.043v0.043c0.529,0.211,5.085,1.195,6.191,1.195l0.206-0.206
	h0.826c0-0.207,0.206-0.413,0.412-0.413l0.206,0.206c0,0,3.915-2.476,4.533-2.683c0.62,1.238,1.239,2.683,2.477,3.302
	c0.206-0.206,0.206-0.412,0.206-0.619v-0.825c0-0.207,0-0.412,0.207-0.619c0.206,0,0,0.619,0.412,0.619
	c0.207,0,0.207-0.619,0.207-1.238c0.17,0,0.473,0,0.692,0.23c-0.073-0.146-0.073-0.29-0.073-0.437c0-1.032,1.239-1.445,1.444-2.476
	v-4.334c0-0.406,0.207-1.025,0.207-1.438c0-0.207-0.207-0.207-0.207-0.413c-0.205,0,0,0.413-0.205,0.413
	c0-0.413,0.205-1.239,0.205-1.652c-0.205,0-0.205-0.206-0.205-0.206c0-0.411,0.205-0.824,0.205-1.237c0-0.206,0-0.413-0.205-0.62
	v0.62c0-2.89-0.414-5.159-1.239-6.598c-2.064-5.365-5.984-8.048-11.755-8.048C56.297,75.984,52.383,79.286,52.383,79.905
	 M64.138,96.194v-0.619c-0.618,0.207-1.238,0.414-2.063,0.414c-1.238,0-2.476-0.62-3.507-1.646c0.618-1.03,0.824-2.476,2.062-3.094
	c0.619-0.412,1.445-0.412,2.27-0.412c2.27,0,4.74,0.823,6.597,1.649C68.053,94.138,66.409,96.194,64.138,96.194"/>
<path class="narcon_4" d="M45.785,106.918c0.413-0.205,1.025-0.825,1.644-0.825c0.207,0,0.414,0,0.62,0.206
	c0-0.206,0.413-0.619,0.619-0.824c0.412,0.618,1.237,0.205,1.237,0.618v-0.206c0-0.207-0.412-0.412-0.412-0.618l0.207-0.2
	c0.619,0,0.619,0.406,0.825,0.406c0.352-0.523-0.048-1.051,0.34-1.451c-0.177-0.036-0.34-0.217-0.34-0.4
	c0.206-0.413,0.206-1.03,0.206-1.444c0-0.825-0.206-1.445-0.206-2.064c0-0.923,0.025-1.825,0.06-2.706
	c0.054-1.681,0.146-3.301,0.146-4.922c0-3.302-1.238-5.778-1.238-9.279c0-0.412,0.207-0.825,0.207-1.239
	c-0.413-0.205-0.413-0.619-0.413-1.237c0-0.825,0.206-1.857,0.206-2.682c0-0.62,0-1.032-0.206-1.444c0,0.412,0,0.412-0.207,0.412
	c0-2.677-0.824-5.979-0.824-8.66c0-1.444,0.206-2.683,0.824-3.716c0-0.405-0.412-0.612-0.412-1.024V63.41h-0.412v0.413
	c0,0.205,0,0.205-0.207,0.205c-0.62,0,0-1.237-0.62-1.237c0-0.207,0.207-0.207,0.207-0.412c0-0.414-0.207-0.621-0.207-0.621v-0.204
	c-0.206,0.204-0.412,0.204-0.825,0.204c-0.206,0-0.406,0-0.406-0.204v0.411c0,0,0,0.206-0.413,0.206
	c-0.619-0.413-0.825-3.508-2.683-3.508H42.69v0.207c0,0.206-0.206,0.412-0.413,0.412c-0.413,0-0.62-0.206-0.825-0.412v0.412
	c0,0.206-0.207,0.413-0.207,0.826c0,0,0,0.206,0.207,0.206h0.205c0.183,0,0.207,0.654,0.207,0.801v0.024
	c0,0.193,0,0.565-0.333,0.607c0.126-0.05,0.126-0.193,0.126-0.193c0-0.317-0.235-0.511-0.26-0.766
	c-0.376,1.767-0.564,3.558-0.564,5.712c0,2.27,0.206,4.745,0.206,7.015c-0.206,0.206-0.206,0.413-0.413,0.413
	c-0.206,0-0.206,0-0.412-0.207c0.206,2.263,0.825,4.533,1.238,6.392c-0.413,0.411-0.619,0.618-1.032,1.03
	c-2.804-6.354-3.744-4.241-6.967-11.925c-0.278-0.674-0.577-1.421-0.904-2.257c-0.268-0.2-0.523-0.438-0.772-0.692
	c-1.055-0.649-2.7-2.543-2.7-3.89c0.424,0.709,1.438,2.584,2.7,3.89c0.244,0.146,0.449,0.231,0.601,0.231
	c0.062,0.156,0.116,0.309,0.171,0.461c0.345,0.261,0.704,0.461,1.068,0.568c-1.633-2.899-6.615-12.5-7.234-14.771
	c-0.019,0.061-0.067,0.134-0.195,0.134c-0.206,0-0.206-0.619-0.619-0.619c0,0.29,0.207,0.479,0.327,0.569
	c-0.357-0.218-0.527-0.582-0.527-0.776c0,0,0-0.206,0.2-0.206v-0.207c-0.2,0-0.2,0.207-0.407,0.207
	c-0.205,0-0.412-0.207-0.412-0.826c0,0,0.819-0.205,1.026-0.205c0.412,0,0.825,0.824,1.031,1.237
	c-0.206-0.825-0.412-1.857-1.238-1.857c-0.2,0-0.407,0.207-0.612,0.207c0,0.618-2.271-3.507-4.54-3.507h-0.413
	c0.619,0,1.238,0.411,1.238,1.03v0.206c-0.619,0-1.032-0.619-1.65-0.825c-0.208,0.206-1.033,0-1.033,0.619c0,0,0.206,0,0.206,0.206
	c-2.27,0-2.888-0.825-3.914-2.476c0,0.62,0.613,1.032,0.613,1.65c-0.2,0-0.2,0.206-0.2,0.206V47.32l-0.207,0.206
	c0,0.413,1.851,0.619,1.851,1.238c0,0.207,0,0.207-0.206,0.414c2.009,0.4,0.892,1.777,1.396,2.99
	c-0.055-0.047-0.158-0.103-0.364-0.103c-0.206,0.207,0,0.619-0.62,0.826c0.414,0.411,0.826,0.825,0.826,1.237
	c0,0.207-0.206,0.207-0.206,0.407c-0.62-0.407-2.27-2.059-2.47-3.503c0,0.414-0.619,0.414-1.032,0.414
	c-0.206-0.414-0.206-0.619-0.619-1.032c0,0.206-0.206,0.413-0.206,0.618c0,0.157,1.518,4.05,3.678,6.318
	c-0.037-0.261-0.11-0.51-0.291-0.801c0.218,0.314,0.527,0.515,0.527,0.874c0,0.048,0,0.104-0.005,0.157v0.007
	c0.412,0.4,0.843,0.733,1.286,0.971c0.285,0.079,0.486,0.201,0.631,0.261c0.061,0.029,0.11,0.049,0.151,0.049
	c-0.041,0-0.09-0.02-0.151-0.049c-0.213-0.06-0.425-0.151-0.631-0.261c-0.182-0.061-0.401-0.104-0.662-0.104
	c-0.206,0-0.619,0.206-1.238,0.413c0.826,0,2.682,0,2.682,1.031h-0.412c0.205,0.207,0.205,0.619,0.205,0.825
	c0,0.413-0.205,0.827-0.205,1.444c0,0.413,0.205,0.827,0.62,1.239c-0.208-0.207-0.208-0.619-0.208-1.031
	c0-0.414,0-1.033,0.208-1.445c0.412,0.824,0.412,1.445,0.618,2.477c-0.618,0,0,0.206-0.618,0.206
	c0.206,0.412,0.412,1.024,0.412,1.438v0.205c-0.62-1.231-1.032-0.819-1.858-1.85c0.207,0.825,0.826,2.057,0.826,2.677V66.5
	c0.826,0.824,1.445,1.443,1.445,2.27c0,0.206-0.207,0.412-0.207,0.618c-0.618-1.031-1.238-2.27-2.064-2.476
	c2.683,4.126,1.446,1.857,2.064,7.835c-0.206,0-0.412,0-0.412,0.207c0,0,0.097,0.188,0.217,0.248
	c0.025-0.042,0.074-0.042,0.195-0.042c-0.067,0.066-0.133,0.066-0.195,0.042c-0.011,0.029-0.011,0.079-0.011,0.163
	c0,0.413,1.238,0,1.238,0.618c-0.619,4.129-1.238,8.668-2.27,11.963c-0.413,0-1.032,2.063-1.032,3.097c0,0.206,0,0.413,0.206,0.413
	c-2.682,9.277-4.533,5.977-9.279,12.993v0.206c0,0.819-3.096,3.913-3.096,4.532c4.128-4.326,5.985-6.595,9.08-10.31
	c-2.888,5.364-4.333,5.571-8.46,10.31c0,3.51-5.152,3.715-6.391,7.011c1.857-1.232,4.127-3.501,5.978-4.741
	c0.206,0,0.206,0.207,0.206,0.207c0,0.207-0.413,0.413-0.413,0.619c0.207,0,0.207,0.207,0.207,0.414
	c0,1.236-2.263,2.269-3.089,3.089c0,0.206-1.65,1.032-1.857,1.032v0.618v1.031c0.638-1.11,2.367-1.857,3.696-2.707
	c0.401-0.248,0.759-0.509,1.043-0.795c0.207-0.413,0.413-1.032,1.239-1.032h0.206c-0.619,1.032-1.238,1.652-2.47,1.853v0.206
	c0,1.03-2.064,0.826-2.476,1.444c0.449,0,0.905-0.157,1.354-0.335c0.582-0.229,1.159-0.491,1.741-0.491c0.201,0,0.201,0,0.406,0.208
	c1.033-1.439,2.271-2.678,4.128-2.678c0.412,0,0.825,0.206,1.237,0.206c-1.031,0.619-2.475,0.826-3.506,1.239h0.206
	c0.206,0,0.618-0.207,0.825-0.207l0.206,0.207c-0.206,0.2-0.825,0.2-1.651,0.612c0.182,0,0.358,0.157,0.541,0.201
	c-0.043,0.006-0.085,0.006-0.127,0.006c-0.547,1.091-2.847,0.582-3.952,0.867c-0.152,0.036-0.279,0.091-0.376,0.164
	c0.619,0,1.238,0.206,1.857,0.206c5.565,0,9.073-2.677,11.543-4.945c-1.438,1.855-3.295,3.501-6.597,4.325
	c0.206,0,0.206,0,0.206,0.207l-0.206,0.207c1.239,0,2.684-1.031,3.921-1.031c-1.032,0.617-2.682,1.031-4.127,1.65
	c0.206,0.206,0.412,0.206,0.619,0.206c0.618,0,1.032-0.619,2.271-0.825c0,0.043-0.019,0.073-0.05,0.098
	c2.294-0.716,4.006-2.653,4.789-4.218c-1.033,0.411-2.264,2.47-3.502,2.47c2.676-2.059,4.327-4.741,6.597-7.423
	c0,1.65-2.477,3.094-2.477,4.334v0.411c0.207,0,0-0.411,0.207-0.825c0.206,0,0.206,0.207,0.206,0.207
	c5.572-8.248,8.867-15.882,11.137-25.782c0.207,0.413,0.207,0.826,0.207,1.238v1.857c0,0.413,0,0.825,0.205,1.033
	c0-1.24,0-2.479,0.207-3.716c0.412,0,0,0.206,0.412,0.206c-0.412-0.619-0.412-1.238-0.412-1.65v-1.025
	c0.619,0.206,0.619,0.612,1.238,1.233c-0.206-1.233-1.238-1.853-1.238-3.297c1.652,2.063,2.063,5.152,3.508,7.009
	c4.74,2.89,5.358,9.281,8.041,14.026c0.208,0.206,0.826,0.206,0.826,0.826h-0.206l0.206,0.206c0.024,0,0.043-0.007,0.061-0.019
	c0.012-0.013,0.024-0.024,0.024-0.042c0,0.018-0.012,0.029-0.024,0.042c-0.037,0.061-0.061,0.127-0.061,0.225
	c1.031,0.207,1.65,0.818,1.857,1.852C45.166,106.713,44.96,106.918,45.785,106.918 M18.104,52.182
	c0.042,0.048,0.042,0.092,0.042,0.092C18.129,52.242,18.116,52.212,18.104,52.182 M7.981,116.393
	c-0.048,0.013-0.096,0.013-0.145,0.013c-0.019,0-0.037,0-0.055-0.006C7.847,116.405,7.915,116.399,7.981,116.393
	c1.432-0.11,3.417-1.84,5.013-1.84C11.816,115.535,10.263,116.326,7.981,116.393 M42.781,104.588
	c0.049-0.116,0.012-0.346,0.321-0.346C43.102,104.389,42.896,104.43,42.781,104.588"/>
</svg>
