<?xml version="1.0" encoding="UTF-8" standalone="no"?>
<!-- Created with Inkscape (http://www.inkscape.org/) -->

<svg
   xmlns:dc="http://purl.org/dc/elements/1.1/"
   xmlns:cc="http://creativecommons.org/ns#"
   xmlns:rdf="http://www.w3.org/1999/02/22-rdf-syntax-ns#"
   xmlns:svg="http://www.w3.org/2000/svg"
   xmlns="http://www.w3.org/2000/svg"
   xmlns:sodipodi="http://sodipodi.sourceforge.net/DTD/sodipodi-0.dtd"
   xmlns:inkscape="http://www.inkscape.org/namespaces/inkscape"
   version="1.1"
   id="svg2116"
   width="698"
   height="193"
   viewBox="0 0 698 193"
   sodipodi:docname="Danganronpa_series_English_logo.svg"
   inkscape:version="0.92.2 2405546, 2018-03-11">
  <metadata
     id="metadata2122">
    <rdf:RDF>
      <cc:Work
         rdf:about="">
        <dc:format>image/svg+xml</dc:format>
        <dc:type
           rdf:resource="http://purl.org/dc/dcmitype/StillImage" />
        <dc:title></dc:title>
      </cc:Work>
    </rdf:RDF>
  </metadata>
  <defs
     id="defs2120" />
  <sodipodi:namedview
     pagecolor="#ffffff"
     bordercolor="#666666"
     borderopacity="1"
     objecttolerance="10"
     gridtolerance="10"
     guidetolerance="10"
     inkscape:pageopacity="0"
     inkscape:pageshadow="2"
     inkscape:window-width="1920"
     inkscape:window-height="1020"
     id="namedview2118"
     showgrid="false"
     inkscape:zoom="0.9025788"
     inkscape:cx="266.68918"
     inkscape:cy="96.5"
     inkscape:window-x="0"
     inkscape:window-y="0"
     inkscape:window-maximized="1"
     inkscape:current-layer="svg2116" />
  <path
     style="fill:#000000;stroke-width:1.05859506"
     d="m 505.47185,188.46408 c -0.94802,-1.08223 -1.72367,-2.18388 -1.72367,-2.44812 0,-0.26425 4.80391,-0.32632 10.67536,-0.13795 7.31623,0.23472 11.49465,-0.0979 13.27909,-1.05704 1.43206,-0.76974 5.82497,-6.4798 9.76202,-12.689 l 7.15826,-11.28947 17.47633,0.33855 c 19.87452,0.38502 23.82578,-0.35568 30.66402,-5.74821 5.48048,-4.32182 6.36151,-4.51943 7.10224,-1.59308 0.65823,2.60035 -3.82484,6.83188 -10.71449,10.11329 -3.91239,1.86339 -7.22774,2.29608 -20.06609,2.6188 -8.81435,0.22156 -16.67834,-0.0812 -18.42238,-0.70934 -3.02347,-1.08887 -3.08749,-1.02383 -9.96914,10.12839 -3.80936,6.17337 -7.92627,11.94803 -9.14868,12.83257 -1.6335,1.18201 -5.15484,1.60828 -13.28589,1.60828 -9.39527,0 -11.3232,-0.29667 -12.78698,-1.96767 z m 0.35933,-8.11878 c 0,-2.14068 49.50708,-81.326703 52.7232,-84.330163 2.55087,-2.382214 3.03349,-2.420939 30.16741,-2.420939 42.81015,0 42.69276,-0.188984 21.05449,33.893142 -11.66045,18.3662 -15.28993,22.72331 -22.70827,27.26064 -4.46998,2.73403 -5.46538,2.88324 -21.52297,3.22662 -15.72681,0.33631 -16.97408,0.2176 -18.92834,-1.80134 l -2.09212,-2.16137 -8.67134,13.63705 -8.67136,13.63704 -10.67535,0.30663 c -8.74866,0.2513 -10.67535,0.0262 -10.67535,-1.24731 z m 64.47553,-41.61957 c 2.76673,-1.22961 6.41738,-3.77709 8.11259,-5.66105 2.93157,-3.25801 15.9392,-23.54538 15.9392,-24.8596 0,-1.29189 -19.38738,-0.62571 -21.00422,0.72173 -1.74368,1.45313 -20.6557,31.30617 -20.6557,32.60547 0,1.45038 12.51979,-0.54515 17.60813,-2.80655 z m -10.31764,-1.61746 c 0,-0.41276 3.39788,-6.2485 7.55086,-12.96828 l 7.55086,-12.21781 6.51818,-0.0182 c 6.25925,-0.0175 6.46652,0.0672 5.21734,2.13371 -0.8989,1.48701 -2.43025,2.15257 -4.95594,2.15398 -3.46553,0.002 -4.00618,0.54601 -10.42482,10.49074 -4.74921,7.35818 -7.46916,10.59133 -9.11311,10.83253 -1.28885,0.1891 -2.34337,0.006 -2.34337,-0.40666 z m -234.78338,27.96126 c -0.90016,-0.92994 -1.6371,-2.01936 -1.63766,-2.42094 -5.5e-4,-0.40156 4.77767,-0.56075 10.61828,-0.35373 17.23815,0.61097 16.62283,1.03104 30.46311,-20.79625 8.82715,-13.92116 12.94612,-19.44482 16.11592,-21.61194 5.34735,-3.65584 11.86556,-5.03532 14.40044,-3.04762 1.00588,0.78874 2.6881,1.44948 3.73828,1.46831 1.05018,0.0188 1.71582,0.63425 1.47919,1.36763 -0.27308,0.84634 -2.55462,1.33764 -6.24592,1.34497 -9.35165,0.0185 -12.74942,3.18414 -26.4897,24.67944 -6.40286,10.01663 -12.72996,18.83589 -14.06023,19.59837 -3.75792,2.15396 -26.25093,1.97307 -28.38171,-0.22824 z m 61.59732,-0.47187 c -1.55489,-1.26356 -2.8275,-2.62539 -2.82801,-3.02628 -5.1e-4,-0.40088 11.74101,-0.58401 26.09228,-0.40695 l 26.09321,0.32194 5.93378,-2.96028 c 3.26358,-1.62815 6.28528,-3.14489 6.7149,-3.37052 0.42962,-0.22564 0.78112,0.98618 0.78112,2.69293 0,2.615 -0.77826,3.5176 -4.94711,5.73748 -4.78215,2.54645 -5.7819,2.64555 -29.98011,2.97169 -24.23778,0.32667 -25.12278,0.26442 -27.86006,-1.96001 z m 66.6929,1.00053 c -4.15339,-2.4992 -1.9073,-3.67972 7.00118,-3.67972 7.50157,0 9.14315,-0.32991 10.95493,-2.20168 1.17212,-1.21092 8.38283,-12.10514 16.02379,-24.20938 12.78282,-20.24959 14.15411,-22.03465 17.1655,-22.34488 3.61052,-0.37195 4.21738,0.89252 1.51869,3.16435 -0.9648,0.81219 -8.43562,11.9753 -16.60184,24.80691 -8.16621,12.83161 -15.78215,23.84688 -16.92431,24.47838 -2.62937,1.45377 -16.7158,1.44348 -19.13794,-0.014 z m 32.18749,-0.80552 c -0.94803,-1.08222 -1.72434,-2.17164 -1.72512,-2.42093 -0.002,-0.56373 26.40551,0.11085 26.96842,0.68891 0.22485,0.23088 -0.18405,1.15776 -0.90864,2.05973 -1.02312,1.2736 -3.69597,1.63997 -11.96422,1.63997 -8.99173,0 -10.91472,-0.30588 -12.37044,-1.96768 z m 122.73532,0.92103 c -1.14565,-0.47848 -3.25468,-2.21091 -4.68674,-3.84986 -2.27162,-2.59979 -2.33805,-2.8744 -0.52075,-2.15292 5.83904,2.31816 10.14593,2.65179 31.48252,2.43872 l 23.15054,-0.23117 2.48581,-2.68993 c 3.17521,-3.43596 22.65135,-34.6049 27.85871,-44.58414 2.18137,-4.1803 4.28674,-9.67706 4.67861,-12.21503 0.9619,-6.229865 3.04646,-5.19437 3.0022,1.49133 -0.0238,3.5928 -1.05407,7.50553 -3.23061,12.26893 -4.15953,9.10316 -28.92407,48.0016 -31.44873,49.39748 -2.33254,1.28966 -49.71458,1.40331 -52.77156,0.12659 z m -283.18669,-8.46872 c -0.56712,-0.948 34.3945,-57.00766 38.18603,-61.229843 1.99502,-2.221636 3.09717,-2.420939 13.38747,-2.420939 11.723,0 13.86585,0.821871 10.91767,4.187417 -2.51441,2.870365 -1.99437,4.030115 0.67909,1.514464 1.28886,-1.212782 3.47271,-2.808149 4.85301,-3.545265 3.437,-1.835459 19.36838,-2.810637 20.30622,-1.242964 0.72447,1.21105 -8.56284,17.13208 -11.42556,19.58658 -1.24642,1.06868 -2.22326,0.9535 -4.99573,-0.58899 -4.69841,-2.61401 -11.59601,-1.46408 -18.08284,3.01468 -3.97966,2.7477 -7.3054,7.07424 -16.61371,21.61311 -6.40091,9.99774 -12.25932,18.58466 -13.01873,19.08205 -1.80571,1.1827 -23.48722,1.20934 -24.19292,0.0297 z m 60.86353,-1.17363 c -0.59298,-1.14466 -1.07814,-2.63768 -1.07814,-3.31782 0,-0.68015 7.51233,-13.25233 16.69406,-27.93818 14.01798,-22.42127 17.31532,-27.020705 20.56958,-28.692368 3.43027,-1.762078 6.60801,-1.990797 27.659,-1.990797 h 23.78348 l 2.51434,3.018921 c 1.38289,1.660409 2.51435,4.288344 2.51435,5.839844 0,3.60324 -20.3662,36.57709 -26.95522,43.64178 -2.64575,2.83676 -7.5802,6.58921 -10.96542,8.33879 l -6.15497,3.18105 h -23.75146 c -22.41643,0 -23.81205,-0.11698 -24.8296,-2.08122 z m 34.66689,-11.98403 c 5.89899,-1.69229 11.31953,-7.40928 20.09003,-21.18874 4.32079,-6.78846 8.10453,-13.01182 8.40833,-13.8297 0.80565,-2.16902 -18.66964,-2.1521 -20.41275,0.0178 -3.52261,4.38498 -21.74222,34.5705 -21.30623,35.2993 0.73072,1.22147 8.53644,1.04518 13.22062,-0.29859 z m -7.57615,-3.06767 c 0.0267,-0.34136 4.17223,-7.15717 9.21242,-15.14627 l 9.16399,-14.52563 5.8893,-0.32268 c 3.23912,-0.17749 5.8744,0.0645 5.85618,0.53798 -0.0884,2.29416 -3.1018,4.62658 -5.97759,4.62658 -2.9096,0 -3.82137,1.03403 -10.82091,12.27203 -6.24154,10.02099 -8.16895,12.35517 -10.5077,12.72532 -1.57527,0.2493 -2.84233,0.17401 -2.81569,-0.16733 z m 39.52849,16.13636 c 0,-1.52853 37.50232,-60.633767 39.43776,-62.155591 2.6107,-2.052764 41.70527,-1.925165 46.51693,0.151831 4.32605,1.867361 6.19583,5.57999 5.29861,10.52089 -0.53189,2.92909 -21.01979,36.88869 -29.87581,49.5205 -2.07183,2.95516 -2.09101,2.95893 -15.06202,2.95893 -9.20703,0 -12.98754,-0.36571 -12.98754,-1.25633 0,-0.69099 6.3271,-11.26196 14.06022,-23.49105 7.73312,-12.22909 14.06022,-22.80006 14.06022,-23.49105 0,-0.83507 -2.38351,-1.25632 -7.10852,-1.25632 h -7.10853 l -13.95165,22.2147 c -18.83046,29.98303 -16.29948,27.28005 -25.54403,27.28005 -4.2546,0 -7.73564,-0.44845 -7.73564,-0.99656 z m 152.48696,-1.50262 c -2.42025,-2.15073 -2.71542,-3.03303 -2.11705,-6.3282 0.78527,-4.32439 10.33543,-19.72362 16.10209,-25.96391 6.93667,-7.50642 10.24197,-8.62299 27.00206,-9.12168 14.58773,-0.43405 14.89643,-0.49355 17.02139,-3.28092 l 2.1642,-2.83885 -16.93645,-0.53799 c -9.89574,-0.31433 -17.07767,-0.98527 -17.27616,-1.61395 -0.18685,-0.59179 1.43585,-3.49692 3.606,-6.455841 l 3.94573,-5.379864 h 23.54071 c 21.68839,0 23.7131,0.161277 25.73137,2.049717 4.83476,4.523698 2.82658,9.290658 -16.81427,39.913218 l -13.80225,21.51946 -10.32891,0.31013 c -6.91443,0.20761 -10.57178,-0.0959 -11.06365,-0.91807 -0.54087,-0.9041 -1.30127,-0.91496 -2.88171,-0.0411 -1.19236,0.65926 -7.24558,1.18707 -13.61385,1.18707 -10.4964,0 -11.7049,-0.21152 -14.27925,-2.49917 z m 37.07262,-13.32548 c 1.79435,-1.17371 5.57208,-5.71928 8.39495,-10.10125 l 5.13248,-7.96724 -8.4304,-0.31419 c -5.75452,-0.21446 -8.94536,0.12706 -10.05286,1.07597 -1.6617,1.42375 -12.75661,18.70003 -12.75661,19.86376 0,1.57433 14.62399,-0.53685 17.71244,-2.55705 z m -10.42195,-2.21225 c 0,-0.45174 1.65282,-3.35687 3.67291,-6.45584 3.51364,-5.39016 3.87495,-5.63449 8.33199,-5.63449 2.56249,0 4.65906,0.38735 4.65906,0.86078 0,1.61591 -2.49592,3.44311 -4.70325,3.44311 -1.48638,0 -2.96579,1.40092 -4.54508,4.30389 -1.73074,3.18137 -3.00313,4.30389 -4.87852,4.30389 -1.39541,0 -2.53711,-0.36961 -2.53711,-0.82134 z M 2.478986,135.79919 c -0.9758523,-1.114 -1.77365014,-2.22943 -1.77287943,-2.47872 7.6035e-4,-0.24929 21.44259843,-0.4794 47.64852343,-0.51135 40.667249,-0.0496 48.292549,-0.30591 52.05295,-1.74979 3.75643,-1.44236 4.58347,-1.47056 5.61107,-0.19139 1.01926,1.2688 17.77722,1.45579 108.59671,1.2118 l 107.39144,-0.28851 6.81907,-3.33835 c 3.75049,-1.8361 8.49911,-4.86227 10.55248,-6.72483 2.05337,-1.86257 4.04049,-3.38648 4.41584,-3.38648 0.37533,0 -1.17903,2.83187 -3.45415,6.29302 -4.5307,6.89258 -9.7123,10.0034 -20.02936,12.02475 -3.25474,0.63768 -45.54229,1.04974 -107.72892,1.04974 -89.66059,0 -102.56518,-0.20062 -103.93505,-1.61583 -1.30166,-1.34475 -2.05676,-1.39194 -4.50076,-0.28132 -2.16173,0.98235 -15.729629,1.424 -51.414689,1.67362 -46.3742992,0.32438 -48.5549876,0.2512 -50.252275,-1.68636 z m 0.017393,-8.08225 c -0.2828083,-0.76139 0.6590703,-3.43683 2.0930775,-5.9454 2.2310033,-3.90281 2.8418314,-4.36299 4.2324498,-3.18854 1.4133227,1.19363 1.4803427,1.10206 0.5142081,-0.70242 -0.8978962,-1.67701 -0.4838486,-3.06616 2.1589426,-7.24348 1.798448,-2.8427 3.562818,-5.17724 3.920832,-5.18787 0.358016,-0.0108 0.919061,1.36563 1.246757,3.05836 1.142273,5.90041 8.924355,13.0619 14.193815,13.0619 1.483644,0 2.171554,0.73837 2.25553,2.42094 0.08686,1.74095 0.251948,1.90626 0.587686,0.58855 0.489629,-1.9217 1.560758,-2.40178 7.760898,-3.47845 4.725926,-0.82066 11.599443,-5.87956 14.693847,-10.81464 2.076539,-3.31175 2.874257,-3.75495 6.779814,-3.7667 4.829988,-0.0145 4.94084,0.10383 3.327413,3.55433 -1.061584,2.27028 -1.043875,2.27918 0.520748,0.2616 0.890837,-1.14873 1.619702,-2.41281 1.619702,-2.80905 0,-0.39625 2.34311,-1.00715 5.206912,-1.35755 10.1881,-1.24657 17.988382,-7.346945 27.084629,-21.182106 12.53486,-19.065216 33.32473,-53.254757 32.99826,-54.266581 -0.24021,-0.744487 -5.98289,-1.146018 -16.3901,-1.146018 H 101.28147 L 85.246497,55.160426 C 71.314406,77.39152 68.999504,80.566425 67.594802,79.369814 c -1.41325,-1.203895 -1.472964,-1.098385 -0.47446,0.838344 0.942978,1.829025 0.587811,3.096134 -2.035733,7.262817 -1.747899,2.775988 -3.553971,5.047248 -4.013493,5.047248 -0.459522,0 -1.150394,-1.481184 -1.535268,-3.291519 -0.958122,-4.50669 -6.91053,-10.366384 -11.95628,-11.770034 -2.295379,-0.638547 -4.180594,-1.747563 -4.189366,-2.464483 -0.01148,-0.939282 -0.229747,-0.964513 -0.781123,-0.09027 -0.804278,1.275189 -9.617902,3.204085 -9.617902,2.104904 0,-0.350316 2.577707,-4.592457 5.728238,-9.426964 3.150531,-4.834507 5.728233,-9.190217 5.728233,-9.679365 0,-0.489137 0.648374,-0.889345 1.440832,-0.889345 0.792457,0 1.648818,-1.089423 1.903021,-2.420939 C 48.435412,51.217395 75.155756,8.713801 78.906909,5.0954551 l 3.067525,-2.9589252 36.696376,0.023671 c 33.93359,0.021842 37.028,0.1791495 41.10122,2.0893885 7.69489,3.6086944 10.79785,13.0195616 7.20835,21.8619276 -2.67241,6.583168 -57.04972,92.781933 -61.01123,96.714813 -2.1865,2.1707 -5.7923,4.4679 -8.012906,5.10488 -2.299562,0.65964 -13.618784,1.16074 -26.296803,1.16415 -20.592075,0.005 -22.15229,-0.12734 -20.829957,-1.77422 1.32991,-1.65632 1.197407,-1.65632 -1.903749,0 -4.034798,2.15498 -15.494984,2.46125 -16.286293,0.43526 -0.420255,-1.07597 -0.541766,-1.07597 -0.607547,0 -0.05583,0.91327 -2.040878,1.34497 -6.184571,1.34497 -5.658969,0 -6.472472,-0.32725 -11.196102,-4.50383 l -5.0937476,-4.50382 4.1169796,4.50382 4.116988,4.50383 h -7.390427 c -5.0637112,0 -7.5523078,-0.43584 -7.9046258,-1.38436 z m 56.373686,-6.63438 c 1.344857,-1.21165 3.381322,-3.65556 4.525477,-5.43092 1.855277,-2.87879 1.74872,-2.83202 -0.985184,0.43237 -1.686007,2.01316 -4.443761,4.91828 -6.128345,6.45584 -1.684583,1.53755 -2.341588,2.33433 -1.460009,1.77063 0.881577,-0.5637 2.703204,-2.01627 4.048061,-3.22792 z M 62.27954,73.106577 c -2.508171,-2.342867 -5.039028,-4.259755 -5.624127,-4.259755 -0.5851,0 0.834406,1.420585 3.154457,3.15685 2.320052,1.736265 4.527064,3.673016 4.904472,4.303891 0.377407,0.630875 1.010041,1.127179 1.405853,1.102905 0.395812,-0.02432 -1.332483,-1.961014 -3.840655,-4.303891 z M 44.095915,69.653801 c -0.288925,-0.739731 -0.525317,-0.134496 -0.525317,1.344966 0,1.479463 0.236392,2.084698 0.525317,1.344966 0.288924,-0.739731 0.288924,-1.9502 0,-2.689932 z m 9.725214,-1.882952 c -0.859236,-0.573666 -2.499595,-1.002172 -3.645243,-0.952247 -1.716014,0.07478 -1.624269,0.242546 0.52075,0.952247 3.6824,1.218346 4.949347,1.218346 3.124493,0 z m -7.950344,-2.676461 c -0.446469,-1.201991 -0.860122,-1.252454 -1.922254,-0.23454 -0.946186,0.906808 -1.011316,1.518466 -0.216476,2.033018 1.603184,1.037851 2.814047,0.01958 2.13873,-1.798478 z m 0.329823,-5.057093 c -0.332473,-0.858347 -0.579264,-0.603385 -0.629239,0.650059 -0.04522,1.134258 0.200935,1.76976 0.547016,1.412215 0.34608,-0.357535 0.383081,-1.285562 0.08222,-2.062274 z m 62.819912,67.950995 c 0,-0.6394 3.60951,-6.94499 8.02113,-14.01241 l 8.02112,-12.84987 h 95.14672 c 67.33009,0 96.51444,-0.3558 99.82502,-1.217003 4.6309,-1.20468 6.44786,-2.962551 11.44543,-11.073247 l 1.93754,-3.144466 -3.05444,2.068493 c -2.75309,1.864425 -5.08472,2.068504 -23.63287,2.068504 -17.81099,0 -20.81182,-0.240975 -22.31399,-1.791892 -1.11669,-1.152927 -1.5119,-2.687619 -1.10831,-4.303892 0.75354,-3.017684 28.33075,-46.898942 33.47263,-53.262149 2.06413,-2.554391 6.20828,-5.79492 9.63207,-7.531809 5.82059,-2.952792 6.60156,-3.059561 24.87743,-3.400946 l 18.8682,-0.352467 2.07928,2.730862 2.07926,2.730862 2.40741,-2.647388 c 2.30505,-2.534841 2.95323,-2.647399 15.24459,-2.647399 7.06045,0 12.83717,0.269962 12.83717,0.599909 0,0.329958 -2.77592,4.006879 -6.16871,8.170937 -3.39281,4.164069 -17.06078,24.721777 -30.37328,45.683804 -26.2103,41.271057 -29.73968,45.653527 -41.33775,51.329637 l -7.00233,3.42695 -105.45166,0.29377 c -75.01756,0.20897 -105.45166,-0.0418 -105.45166,-0.86879 z M 336.87014,68.282302 c 7.48532,-2.296481 10.70184,-5.499394 20.14248,-20.057231 l 8.25751,-12.733406 h -14.4691 -14.46912 L 325.35527,52.70723 314.37862,69.922795 h 8.57219 c 4.71471,0 10.9784,-0.738225 13.91933,-1.640493 z m -15.21047,-2.484195 c 0.19094,-0.493216 4.08664,-6.787656 8.65712,-13.987647 l 8.30994,-13.090877 h 9.6559 c 5.31073,0 9.65588,0.409139 9.65588,0.909208 0,2.713518 -4.11024,4.471506 -10.49698,4.489658 l -6.68774,0.01904 -7.1697,11.278702 c -5.87053,9.234934 -7.63197,11.278712 -9.72065,11.278712 -1.40301,0 -2.39472,-0.403543 -2.20377,-0.896769 z M 28.577903,113.42934 c -1.568069,-0.87899 -3.559934,-3.01441 -4.426367,-4.74537 -1.809425,-3.61484 -2.10594,-9.709908 -0.472381,-9.709908 0.606631,0 0.808025,-0.493021 0.447542,-1.095598 -1.147533,-1.918212 3.680716,-8.511808 8.265493,-11.287613 5.216072,-3.158013 7.55839,-3.385441 8.213034,-0.797458 0.453624,1.793281 0.482057,1.793281 0.597112,0 0.18675,-2.91056 4.81718,-2.324467 8.500676,1.075973 2.297326,2.120786 3.373366,4.254224 3.798807,7.531812 0.551487,4.248629 0.417688,4.58174 -1.886927,4.697697 -1.765263,0.08877 -1.954959,0.266701 -0.657882,0.616888 5.345403,1.443137 -3.463099,11.918927 -12.419596,14.770407 -1.808718,0.57584 -2.357118,0.22397 -2.722288,-1.74665 l -0.457292,-2.46774 -0.141831,2.42094 c -0.1664,2.84013 -2.436209,3.09201 -6.6381,0.73662 z M 42.17672,99.877836 46.009895,99.705648 42.625027,99.271676 c -2.247786,-0.288177 -3.42545,-1.043596 -3.505688,-2.24874 -0.10845,-1.62913 -0.169534,-1.622158 -0.59711,0.06822 -0.261968,1.035624 -1.262119,1.921182 -2.222557,1.9679 -1.083262,0.05272 -1.251975,0.290986 -0.444376,0.627648 0.71603,0.298485 1.365695,1.591776 1.443704,2.873976 0.139539,2.2936 0.149121,2.29214 0.593184,-0.0896 0.362744,-1.94569 1.203837,-2.45475 4.284536,-2.593135 z m 580.30225,14.835284 c 0,-0.25068 1.16605,-2.56301 2.59119,-5.1385 1.42517,-2.57549 2.59686,-4.07747 2.60375,-3.33774 0.007,0.73973 0.9499,2.31334 2.09555,3.49691 1.67945,1.73504 1.77031,2.15195 0.46902,2.15195 -0.88768,0 -2.9967,0.73872 -4.68674,1.64159 -1.69002,0.90287 -3.07277,1.43648 -3.07277,1.18579 z M 60.243699,102.39391 c 0.190942,-0.48622 9.954985,-16.221667 21.697873,-34.967641 l 21.350708,-34.083601 12.76717,-0.0011 c 12.50663,-0.0011 12.74064,0.04239 11.46633,2.150471 -1.15472,1.910207 -2.4288,2.151946 -11.34171,2.151946 H 106.14321 L 85.629242,70.461155 C 67.709375,99.128462 64.785314,103.27836 62.505908,103.27836 c -1.435156,0 -2.45315,-0.39782 -2.262209,-0.88404 z m 567.442761,-1.86939 c 0,-0.922606 0.47632,-1.373331 1.05849,-1.001626 0.58216,0.371706 0.78885,1.126566 0.45928,1.677466 -0.89281,1.49241 -1.51777,1.21414 -1.51777,-0.67584 z m -147.651,-4.778376 c -1.21962,-2.017557 -1.04013,-2.151946 2.87397,-2.151946 4.31453,0 5.07902,0.787419 2.92502,3.012724 -1.86684,1.928638 -4.33417,1.562399 -5.79899,-0.860778 z M 132.18714,89.850672 c 2.43818,-3.834283 4.72992,-6.981504 5.09273,-6.993824 0.3628,-0.01227 0.93019,1.046416 1.26084,2.352712 0.39269,1.551337 -0.37794,3.976365 -2.22189,6.991908 -2.21046,3.614915 -3.44609,4.617216 -5.69393,4.618723 l -2.87082,0.0022 z m 11.28272,4.185859 c -3.95361,-3.436853 -4.23027,-5.490982 -0.389,-2.888086 2.30515,1.562001 5.08937,1.905462 15.36209,1.895057 6.90068,-0.0065 13.71838,-0.09157 15.15044,-0.18808 1.43206,-0.09641 7.35112,0.06122 13.15346,0.350372 8.07959,0.402639 11.4537,0.135529 14.41055,-1.140813 3.41458,-1.473933 4.0396,-1.481873 5.40752,-0.06865 2.06759,2.136035 16.02942,2.189801 19.9362,0.07672 1.8257,-0.987441 8.4277,-10.424831 18.81768,-26.89932 l 16.00526,-25.378206 h 4.01087 c 3.22395,0 3.88726,0.332831 3.38078,1.696379 -0.34656,0.933008 -1.6495,2.096791 -2.89544,2.586176 -1.38425,0.54371 -8.43717,10.727588 -18.13348,26.183335 -8.72748,13.911457 -16.58728,25.578652 -17.46626,25.927105 -3.19272,1.265721 -22.25771,0.702449 -22.25771,-0.657602 0,-1.004248 -0.27774,-1.004248 -1.2498,0 -0.91302,0.943241 -9.17056,1.291167 -30.64427,1.291167 h -29.39452 z m 100.59822,2.068267 c -2.45837,-2.539748 0.0377,-3.032126 13.80809,-2.723825 l 14.50582,0.324761 3.41938,-3.156347 3.41937,-3.156345 2.80358,3.100577 2.80356,3.100579 h 18.84985 c 10.36741,0 18.84985,0.42771 18.84985,0.950482 0,1.752233 -4.58517,2.247955 -20.9289,2.262739 -14.97118,0.01356 -16.39084,-0.155005 -18.14189,-2.153947 l -1.89971,-2.168647 -2.23446,2.168647 c -2.04201,1.981877 -3.62638,2.168645 -18.39732,2.168645 -8.88959,0 -16.47534,-0.322792 -16.85722,-0.717319 z m 118.03643,-5.108484 c 0,-0.3719 1.26253,-2.647152 2.80563,-5.056115 2.67473,-4.175581 2.84586,-4.267631 3.66752,-1.972936 1.06437,2.972515 0.11582,6.399015 -1.77142,6.399015 -0.77378,0 -2.14822,0.293891 -3.05431,0.653104 -0.90609,0.359203 -1.64742,0.34882 -1.64742,-0.02302 z m 99.08916,-1.445118 c 0.20563,-0.539364 7.34147,-11.955026 15.8574,-25.368146 l 15.48352,-24.387494 h 4.09632 c 3.4204,0 3.94499,0.279355 3.17923,1.693 -0.50441,0.931147 -1.96426,2.262664 -3.24413,2.958926 -1.27987,0.696262 -8.57146,11.191774 -16.20356,23.323367 -11.867,18.863202 -14.2868,22.108379 -16.70959,22.409221 -1.55818,0.193471 -2.66482,-0.08952 -2.45919,-0.628874 z M 143.94344,86.732018 c -1.45007,-1.498066 -2.63649,-3.794988 -2.63649,-5.104253 0,-5.334996 14.58743,-28.360104 21.33685,-33.678551 6.74123,-5.311981 9.737,-6.001712 26.06759,-6.001712 15.12223,0 15.19554,-0.01184 17.76545,-2.876646 1.41932,-1.582153 2.41285,-3.397857 2.20785,-4.034898 -0.24181,-0.751459 -6.65243,-1.261653 -18.25276,-1.45266 -13.41296,-0.220843 -17.88004,-0.628874 -17.88004,-1.633176 0,-1.662884 4.90664,-9.434743 7.10445,-11.253083 1.19935,-0.992262 8.20418,-1.344966 26.71155,-1.344966 28.83053,0 29.71537,0.227364 29.71537,7.635684 0,2.357155 -1.00524,6.324256 -2.23386,8.815768 -2.4177,4.902767 -29.42522,48.514398 -31.95689,51.603828 -1.29624,1.581819 -3.36881,1.882952 -12.95955,1.882952 -11.0712,0 -11.39928,-0.06811 -10.84674,-2.250989 0.55653,-2.198589 0.52052,-2.204851 -1.54675,-0.268993 -1.78736,1.673751 -4.28163,2.036698 -16.03803,2.33372 -13.71524,0.346528 -13.96056,0.311376 -16.558,-2.372025 z m 40.52984,-14.621631 c 3.08977,-1.972785 12.02843,-14.258824 13.75414,-18.90481 0.48636,-1.309372 -0.98093,-1.57432 -8.71859,-1.57432 -8.32517,0 -9.52636,0.254543 -11.4243,2.420939 -2.55302,2.914132 -12.82313,19.497886 -12.82313,20.706268 0,1.813391 15.58986,-0.335445 19.21188,-2.648077 z m -12.32224,-2.456586 c 0.41998,-0.739731 2.57413,-4.129045 4.78702,-7.531809 l 4.02342,-6.186844 h 5.72608 c 5.341,0 5.65348,0.140135 4.64656,2.08388 -0.65118,1.257005 -2.42209,2.217623 -4.46302,2.420939 -2.73742,0.272694 -3.9801,1.301808 -6.50797,5.389504 -2.47769,4.006514 -3.73014,5.06454 -6.05009,5.110871 -2.06269,0.04121 -2.70036,-0.338264 -2.162,-1.286541 z m 36.48398,18.813686 c -0.68556,-1.145965 39.127,-64.689002 42.12414,-67.232461 1.964,-1.666704 4.84892,-1.882953 25.11937,-1.882953 25.49418,0 28.71158,0.681909 31.07919,6.587052 1.02074,2.545859 1.0207,4.123945 -2.4e-4,7.644324 -1.20584,4.157957 -28.09418,47.993917 -32.68481,53.285917 -1.97864,2.280944 -2.90262,2.420939 -15.97875,2.420939 -9.42792,0 -13.87867,-0.380862 -13.87867,-1.187616 0,-0.653191 6.48826,-11.426368 14.41837,-23.940395 16.08337,-25.380207 17.02977,-27.026058 16.09559,-27.991174 -0.36174,-0.373706 -3.97746,-0.674688 -8.03498,-0.668867 l -7.37727,0.01076 -16.7504,26.61974 -16.75042,26.619739 -8.41928,0.311063 c -4.6306,0.17108 -8.66343,-0.09705 -8.96184,-0.595895 z m 166.24521,-1.292728 c -4.88307,-4.699859 -3.91452,-8.732186 5.61486,-23.376272 6.98436,-10.733066 15.17193,-18.786292 20.9033,-20.560291 2.36093,-0.730769 10.35065,-1.290694 18.41704,-1.290694 13.85094,0 14.32033,-0.07564 16.88045,-2.720501 4.69058,-4.845847 3.32733,-5.323934 -16.09292,-5.643703 -13.27473,-0.218573 -17.87869,-0.634275 -17.87479,-1.613959 0.003,-0.725754 1.77973,-3.74049 3.94855,-6.699415 l 3.94331,-5.379864 25.76321,-0.287855 25.76323,-0.287855 2.69104,2.780109 c 4.75553,4.912945 3.2356,8.605286 -16.80927,40.834512 -7.36117,11.835701 -14.32086,22.608879 -15.46596,23.940395 -1.917,2.229061 -2.97565,2.420939 -13.35694,2.420939 -9.51036,0 -11.27493,-0.262139 -11.27493,-1.674978 0,-1.515981 -0.21972,-1.515981 -2.31474,0 -1.79742,1.300647 -5.24491,1.674978 -15.42608,1.674978 -11.59654,0 -13.36528,-0.244418 -15.30936,-2.115546 z M 414.3233,72.461746 c 3.41275,-2.050363 14.31033,-16.801907 14.39475,-19.485523 0.0457,-1.452509 -14.84927,-1.98007 -18.21641,-0.645207 -1.54812,0.613735 -15.0692,20.893143 -15.0692,22.601347 0,1.568133 15.55448,-0.466144 18.89086,-2.470617 z m -7.81063,-8.994788 4.84784,-7.53181 h 5.61208 c 5.28934,0 5.54797,0.123748 4.49729,2.151946 -0.73524,1.419294 -2.1807,2.151945 -4.24566,2.151945 -2.63108,0 -3.64761,0.858777 -6.36802,5.379864 -2.66028,4.421162 -3.76767,5.379864 -6.21427,5.379864 h -2.97711 z m 32.96757,24.402546 c 1.31294,-3.534742 39.69357,-63.893631 42.02902,-66.096492 2.49906,-2.357198 3.17118,-2.420939 25.5245,-2.420939 25.67122,0 28.76169,0.663983 31.18149,6.699297 2.05483,5.125009 -0.0124,9.520358 -17.79414,37.834184 l -15.95478,25.404751 h -14.41929 c -10.28953,0 -14.41927,-0.359429 -14.41927,-1.254961 0,-0.690226 6.49218,-11.463403 14.42706,-23.940395 16.00481,-25.166304 17.03133,-26.948136 16.0869,-27.923829 -0.36174,-0.373706 -3.97746,-0.67599 -8.03496,-0.67174 l -7.37728,0.0075 -16.78462,26.622622 -16.78461,26.622612 -9.12016,0.312807 c -7.47969,0.256544 -9.01937,0.04143 -8.55986,-1.195621 z m 70.13408,0.07586 c 0.42984,-0.739731 7.08636,-11.270815 14.79228,-23.402408 15.65278,-24.642499 17.82124,-28.864692 17.85416,-34.763626 0.0276,-4.947237 1.74655,-4.354452 2.70677,0.933449 1.20115,6.614564 -1.10975,11.773197 -15.8443,35.369518 -13.10509,20.986838 -14.70961,23.127368 -17.36487,23.165748 -2.06942,0.02991 -2.69688,-0.351327 -2.14404,-1.302681 z M 162.59724,41.266874 c 1.01498,-1.775086 2.65492,-4.336149 3.64433,-5.691251 l 1.79893,-2.463827 3.0368,2.978476 c 1.67025,1.638158 2.27373,2.695656 1.3411,2.349989 -0.93264,-0.345667 -2.10433,-0.259622 -2.60374,0.191211 -0.49943,0.450833 -2.74288,1.954397 -4.98543,3.341261 l -4.07739,2.521575 z m 232.36962,-2.278297 c 1.59839,-2.219194 3.00718,-4.182038 3.13065,-4.361876 0.12345,-0.179838 1.80052,0.665683 3.7268,1.878929 2.38601,1.502811 2.90536,2.207186 1.62938,2.209929 -1.03009,0.0022 -3.81301,0.9724 -6.18423,2.15597 -2.37121,1.18357 -4.51323,2.151946 -4.76004,2.151946 -0.2468,0 0.85904,-1.815704 2.45744,-4.034898 z M 311.07107,27.959856 c 0,-2.008487 0.27774,-2.295416 1.2498,-1.291168 0.97207,1.004238 0.97207,1.578086 0,2.582335 -0.97206,1.004238 -1.2498,0.717308 -1.2498,-1.291167 z m 159.34918,-1.075973 c 0,-1.962628 0.43222,-3.07895 1.0415,-2.689932 0.57282,0.365744 1.04149,1.576214 1.04149,2.689932 0,1.113718 -0.46867,2.324187 -1.04149,2.689932 -0.60928,0.389018 -1.0415,-0.727315 -1.0415,-2.689932 z m -230.17103,-1.01248 c 0,-2.598001 0.57919,-2.860097 1.40534,-0.635943 0.32267,0.86873 0.13848,1.865683 -0.40932,2.21545 -0.54782,0.349766 -0.99602,-0.361011 -0.99602,-1.579507 z m -68.27389,-8.263439 c -0.0504,-5.294367 0.0721,-5.623722 1.26497,-3.403689 1.70337,3.169923 1.74393,6.737161 0.0927,8.150752 -1.01326,0.867428 -1.31423,-0.18496 -1.35765,-4.747063 z"
     id="path2669"
     inkscape:connector-curvature="0" />
</svg>
